G04 Generated by CircuitCAM Version 4.3*
%FSLAX24Y24*%
%MOIN*%
%ADD10C,0.000000*%
%ADD11C,0.011811*%
%LNCuttingOutside*%
%LPD*%
G36*
G01X-150515Y-55958D02*
X-151768Y-55958D01*
X-151765Y-56004D01*
X-151762Y-56049D01*
X-151759Y-56096D01*
X-151757Y-56143D01*
X-151756Y-56190D01*
X-151756Y-56238D01*
X-151755Y-56286D01*
X-151755Y-56680D01*
X-151756Y-56739D01*
X-151756Y-56796D01*
X-151757Y-56852D01*
X-151759Y-56905D01*
X-151762Y-56957D01*
X-151765Y-57006D01*
X-151768Y-57054D01*
X-151571Y-57054D01*
X-151571Y-56851D01*
X-150712Y-56851D01*
X-150712Y-57054D01*
X-150515Y-57054D01*
X-150519Y-56996D01*
X-150521Y-56937D01*
X-150524Y-56877D01*
X-150526Y-56817D01*
X-150527Y-56757D01*
X-150528Y-56696D01*
X-150528Y-56634D01*
X-150528Y-56280D01*
X-150528Y-56225D01*
X-150527Y-56173D01*
X-150526Y-56124D01*
X-150524Y-56078D01*
X-150521Y-56035D01*
X-150519Y-55995D01*
X-150515Y-55958D01*
G37*
%LPC*%
G36*
G01X-151571Y-56122D02*
X-151571Y-56687D01*
X-150712Y-56687D01*
X-150712Y-56122D01*
X-151571Y-56122D01*
G37*
%LPD*%
G36*
G01X-150620Y-54843D02*
X-151676Y-54843D01*
X-151673Y-54884D01*
X-151670Y-54926D01*
X-151668Y-54968D01*
X-151666Y-55010D01*
X-151665Y-55052D01*
X-151664Y-55095D01*
X-151663Y-55138D01*
X-151663Y-55341D01*
X-151664Y-55382D01*
X-151665Y-55424D01*
X-151666Y-55469D01*
X-151668Y-55516D01*
X-151670Y-55565D01*
X-151673Y-55616D01*
X-151676Y-55670D01*
X-150620Y-55670D01*
X-150622Y-55628D01*
X-150623Y-55583D01*
X-150624Y-55535D01*
X-150625Y-55482D01*
X-150626Y-55426D01*
X-150626Y-55366D01*
X-150626Y-55302D01*
X-150626Y-55131D01*
X-150626Y-55082D01*
X-150626Y-55035D01*
X-150625Y-54992D01*
X-150624Y-54950D01*
X-150623Y-54912D01*
X-150622Y-54876D01*
X-150620Y-54843D01*
G37*
%LPC*%
G36*
G01X-151480Y-55007D02*
X-151480Y-55506D01*
X-150810Y-55506D01*
X-150810Y-55007D01*
X-151480Y-55007D01*
G37*
%LPD*%
G36*
G01X-136687Y-56557D02*
X-136716Y-56536D01*
X-136722Y-56577D01*
X-136728Y-56615D01*
X-136734Y-56649D01*
X-136741Y-56680D01*
X-136747Y-56708D01*
X-136754Y-56732D01*
X-136762Y-56752D01*
X-136772Y-56770D01*
X-136787Y-56784D01*
X-136808Y-56796D01*
X-136835Y-56806D01*
X-136866Y-56813D01*
X-136903Y-56817D01*
X-136946Y-56818D01*
X-137464Y-56818D01*
X-137506Y-56815D01*
X-137541Y-56807D01*
X-137570Y-56794D01*
X-137593Y-56775D01*
X-137609Y-56751D01*
X-137618Y-56721D01*
X-137621Y-56687D01*
X-137621Y-56411D01*
X-136854Y-56411D01*
X-136856Y-56353D01*
X-136857Y-56283D01*
X-136858Y-56203D01*
X-136859Y-56111D01*
X-136859Y-56008D01*
X-136860Y-55894D01*
X-136860Y-55768D01*
X-136860Y-55645D01*
X-136859Y-55534D01*
X-136859Y-55437D01*
X-136858Y-55351D01*
X-136857Y-55278D01*
X-136856Y-55219D01*
X-136854Y-55171D01*
X-137621Y-55171D01*
X-137621Y-55092D01*
X-137620Y-55019D01*
X-137619Y-54954D01*
X-137617Y-54894D01*
X-137615Y-54842D01*
X-137612Y-54796D01*
X-137608Y-54757D01*
X-137812Y-54757D01*
X-137810Y-54801D01*
X-137808Y-54850D01*
X-137807Y-54904D01*
X-137806Y-54963D01*
X-137806Y-55027D01*
X-137805Y-55096D01*
X-137805Y-55171D01*
X-138553Y-55171D01*
X-138550Y-55228D01*
X-138547Y-55302D01*
X-138544Y-55393D01*
X-138543Y-55501D01*
X-138541Y-55626D01*
X-138540Y-55767D01*
X-138540Y-55926D01*
X-138540Y-56082D01*
X-138541Y-56223D01*
X-138543Y-56347D01*
X-138544Y-56455D01*
X-138547Y-56546D01*
X-138550Y-56621D01*
X-138553Y-56680D01*
X-138356Y-56680D01*
X-138356Y-56411D01*
X-137805Y-56411D01*
X-137805Y-56759D01*
X-137797Y-56821D01*
X-137781Y-56873D01*
X-137757Y-56915D01*
X-137726Y-56947D01*
X-137686Y-56969D01*
X-137638Y-56981D01*
X-137582Y-56982D01*
X-136828Y-56982D01*
X-136783Y-56981D01*
X-136743Y-56977D01*
X-136707Y-56971D01*
X-136676Y-56963D01*
X-136650Y-56952D01*
X-136628Y-56939D01*
X-136611Y-56923D01*
X-136594Y-56903D01*
X-136577Y-56876D01*
X-136560Y-56843D01*
X-136543Y-56804D01*
X-136526Y-56758D01*
X-136509Y-56706D01*
X-136493Y-56647D01*
X-136528Y-56637D01*
X-136562Y-56625D01*
X-136595Y-56611D01*
X-136627Y-56595D01*
X-136657Y-56577D01*
X-136687Y-56557D01*
G37*
%LPC*%
G36*
G01X-138356Y-55335D02*
X-138356Y-55696D01*
X-137805Y-55696D01*
X-137805Y-55335D01*
X-138356Y-55335D01*
G37*
G36*
G01X-138356Y-55860D02*
X-138356Y-56247D01*
X-137805Y-56247D01*
X-137805Y-55860D01*
X-138356Y-55860D01*
G37*
G36*
G01X-137621Y-55335D02*
X-137621Y-55696D01*
X-137044Y-55696D01*
X-137044Y-55335D01*
X-137621Y-55335D01*
G37*
G36*
G01X-137621Y-55860D02*
X-137621Y-56247D01*
X-137044Y-56247D01*
X-137044Y-55860D01*
X-137621Y-55860D01*
G37*
%LPD*%
G36*
G01X-135608Y-54713D02*
X-135633Y-54698D01*
X-135657Y-54765D01*
X-135682Y-54829D01*
X-135710Y-54890D01*
X-135740Y-54949D01*
X-135772Y-55006D01*
X-135807Y-55060D01*
X-135843Y-55112D01*
X-135881Y-55163D01*
X-135920Y-55211D01*
X-135959Y-55257D01*
X-136000Y-55300D01*
X-136041Y-55341D01*
X-136083Y-55379D01*
X-136125Y-55414D01*
X-136102Y-55433D01*
X-136079Y-55452D01*
X-136057Y-55472D01*
X-136036Y-55493D01*
X-136017Y-55514D01*
X-135998Y-55536D01*
X-135981Y-55558D01*
X-135965Y-55542D01*
X-135949Y-55525D01*
X-135931Y-55506D01*
X-135912Y-55485D01*
X-135893Y-55463D01*
X-135872Y-55439D01*
X-135850Y-55414D01*
X-135846Y-55506D01*
X-135844Y-55597D01*
X-135843Y-55689D01*
X-135843Y-55781D01*
X-135844Y-55873D01*
X-135846Y-55965D01*
X-135850Y-56057D01*
X-135852Y-56146D01*
X-135857Y-56231D01*
X-135864Y-56312D01*
X-135872Y-56388D01*
X-135883Y-56459D01*
X-135894Y-56526D01*
X-135909Y-56588D01*
X-135925Y-56647D01*
X-135943Y-56702D01*
X-135963Y-56755D01*
X-135986Y-56805D01*
X-136011Y-56851D01*
X-136037Y-56895D01*
X-136066Y-56936D01*
X-136037Y-56949D01*
X-136007Y-56963D01*
X-135979Y-56976D01*
X-135950Y-56991D01*
X-135923Y-57005D01*
X-135896Y-57020D01*
X-135869Y-57034D01*
X-135844Y-56982D01*
X-135821Y-56931D01*
X-135800Y-56881D01*
X-135781Y-56831D01*
X-135765Y-56782D01*
X-135750Y-56734D01*
X-135738Y-56687D01*
X-135726Y-56640D01*
X-135715Y-56594D01*
X-135706Y-56548D01*
X-135698Y-56504D01*
X-135693Y-56459D01*
X-135688Y-56415D01*
X-135686Y-56372D01*
X-135469Y-56372D01*
X-135469Y-56851D01*
X-135292Y-56851D01*
X-135292Y-56372D01*
X-135082Y-56372D01*
X-135082Y-56706D01*
X-135083Y-56731D01*
X-135085Y-56752D01*
X-135089Y-56769D01*
X-135095Y-56783D01*
X-135102Y-56794D01*
X-135111Y-56801D01*
X-135121Y-56805D01*
X-135133Y-56806D01*
X-135148Y-56808D01*
X-135163Y-56809D01*
X-135181Y-56810D01*
X-135201Y-56811D01*
X-135222Y-56811D01*
X-135246Y-56811D01*
X-135233Y-56838D01*
X-135222Y-56865D01*
X-135211Y-56894D01*
X-135202Y-56923D01*
X-135194Y-56952D01*
X-135187Y-56983D01*
X-135180Y-57015D01*
X-135141Y-57009D01*
X-135104Y-57002D01*
X-135071Y-56994D01*
X-135041Y-56986D01*
X-135014Y-56976D01*
X-134991Y-56967D01*
X-134970Y-56956D01*
X-134953Y-56944D01*
X-134938Y-56930D01*
X-134926Y-56913D01*
X-134917Y-56893D01*
X-134910Y-56869D01*
X-134906Y-56842D01*
X-134905Y-56811D01*
X-134905Y-55761D01*
X-134904Y-55707D01*
X-134903Y-55652D01*
X-134901Y-55596D01*
X-134898Y-55540D01*
X-134895Y-55483D01*
X-134890Y-55426D01*
X-134885Y-55368D01*
X-135253Y-55368D01*
X-135242Y-55348D01*
X-135230Y-55326D01*
X-135216Y-55301D01*
X-135200Y-55274D01*
X-135182Y-55244D01*
X-135163Y-55212D01*
X-135141Y-55178D01*
X-135117Y-55144D01*
X-135096Y-55114D01*
X-135075Y-55085D01*
X-135056Y-55057D01*
X-135039Y-55032D01*
X-135024Y-55009D01*
X-135010Y-54987D01*
X-135541Y-54987D01*
X-135529Y-54950D01*
X-135515Y-54917D01*
X-135499Y-54887D01*
X-135481Y-54862D01*
X-135461Y-54841D01*
X-135440Y-54823D01*
X-135417Y-54810D01*
X-135453Y-54793D01*
X-135488Y-54777D01*
X-135520Y-54761D01*
X-135552Y-54744D01*
X-135581Y-54729D01*
X-135608Y-54713D01*
G37*
%LPC*%
G36*
G01X-135646Y-55138D02*
X-135672Y-55173D01*
X-135697Y-55208D01*
X-135721Y-55241D01*
X-135745Y-55274D01*
X-135767Y-55306D01*
X-135789Y-55337D01*
X-135810Y-55368D01*
X-135456Y-55368D01*
X-135434Y-55337D01*
X-135413Y-55306D01*
X-135392Y-55274D01*
X-135372Y-55241D01*
X-135354Y-55208D01*
X-135335Y-55173D01*
X-135318Y-55138D01*
X-135646Y-55138D01*
G37*
G36*
G01X-135666Y-55519D02*
X-135666Y-55788D01*
X-135469Y-55788D01*
X-135469Y-55519D01*
X-135666Y-55519D01*
G37*
G36*
G01X-135292Y-55519D02*
X-135292Y-55788D01*
X-135082Y-55788D01*
X-135082Y-55519D01*
X-135292Y-55519D01*
G37*
G36*
G01X-135666Y-55939D02*
X-135672Y-56214D01*
X-135469Y-56214D01*
X-135469Y-55939D01*
X-135666Y-55939D01*
G37*
G36*
G01X-135292Y-55939D02*
X-135292Y-56214D01*
X-135082Y-56214D01*
X-135082Y-55939D01*
X-135292Y-55939D01*
G37*
%LPD*%
G36*
G01X-78907Y16152D02*
G75*
G03X-79006Y16250I-00098J00000D01*
G74*
G01*
X-79272Y16250D01*
G75*
G03X-79370Y16152I00000J-00098D01*
G74*
G01*
X-79370Y16060D01*
X-79216Y16060D01*
X-79216Y15869D01*
X-79370Y15869D01*
X-79370Y15778D01*
G75*
G03X-79272Y15679I00098J00000D01*
G74*
G01*
X-79006Y15679D01*
X-78998Y15680D01*
G75*
G03X-78907Y15778I-00008J00098D01*
G74*
G01*
G75*
G03X-78907Y15784I-00098J00000D01*
G74*
G01*
X-78907Y16152D01*
G37*
G36*
G01X-79724Y16152D02*
G75*
G03X-79823Y16250I-00098J00000D01*
G74*
G01*
X-80089Y16250D01*
G75*
G03X-80187Y16152I00000J-00098D01*
G74*
G01*
X-80187Y15778D01*
G75*
G03X-80097Y15680I00098J00000D01*
G74*
G01*
X-80089Y15679D01*
X-79823Y15679D01*
G75*
G03X-79724Y15778I00000J00098D01*
G74*
G01*
G75*
G03X-79724Y15784I-00098J00000D01*
G74*
G01*
X-79724Y15872D01*
X-79879Y15872D01*
X-79879Y16063D01*
X-79724Y16063D01*
X-79724Y16152D01*
G37*
G36*
G01X-80817Y16102D02*
G75*
G03X-80915Y16201I-00098J-00000D01*
G74*
G01*
X-81289Y16201D01*
G75*
G03X-81387Y16111I00000J-00098D01*
G74*
G01*
X-81388Y16102D01*
X-81388Y15837D01*
G75*
G03X-81289Y15738I00098J-00000D01*
G74*
G01*
X-81194Y15738D01*
X-81194Y15893D01*
X-81004Y15893D01*
X-81004Y15738D01*
X-80915Y15738D01*
G75*
G03X-80817Y15837I00000J00098D01*
G74*
G01*
X-80817Y16102D01*
G37*
G36*
G01X-84656Y15453D02*
G75*
G03X-84754Y15551I-00098J00000D01*
G74*
G01*
X-85020Y15551D01*
G75*
G03X-85118Y15453I00000J-00098D01*
G74*
G01*
X-85118Y15361D01*
X-84964Y15361D01*
X-84964Y15170D01*
X-85118Y15170D01*
X-85118Y15079D01*
G75*
G03X-85020Y14980I00098J00000D01*
G74*
G01*
X-84754Y14980D01*
X-84746Y14981D01*
G75*
G03X-84656Y15079I-00008J00098D01*
G74*
G01*
G75*
G03X-84656Y15085I-00098J00000D01*
G74*
G01*
X-84656Y15453D01*
G37*
G36*
G01X-85472Y15453D02*
G75*
G03X-85571Y15551I-00098J00000D01*
G74*
G01*
X-85837Y15551D01*
G75*
G03X-85935Y15453I00000J-00098D01*
G74*
G01*
X-85935Y15079D01*
G75*
G03X-85845Y14981I00098J00000D01*
G74*
G01*
X-85837Y14980D01*
X-85571Y14980D01*
G75*
G03X-85472Y15079I00000J00098D01*
G74*
G01*
G75*
G03X-85472Y15085I-00098J00000D01*
G74*
G01*
X-85472Y15174D01*
X-85627Y15174D01*
X-85627Y15364D01*
X-85472Y15364D01*
X-85472Y15453D01*
G37*
G36*
G01X-80817Y15285D02*
G75*
G03X-80915Y15384I-00098J-00000D01*
G74*
G01*
X-81007Y15384D01*
X-81007Y15230D01*
X-81198Y15230D01*
X-81198Y15384D01*
X-81289Y15384D01*
G75*
G03X-81388Y15285I00000J-00098D01*
G74*
G01*
X-81388Y15020D01*
X-81387Y15011D01*
G75*
G03X-81289Y14921I00098J00008D01*
G74*
G01*
X-80915Y14921D01*
G75*
G03X-80817Y15020I00000J00098D01*
G74*
G01*
X-80817Y15285D01*
G37*
G36*
G01X-79232Y15020D02*
G75*
G03X-79331Y15118I-00098J00000D01*
G74*
G01*
X-79596Y15118D01*
G75*
G03X-79695Y15020I00000J-00098D01*
G74*
G01*
X-79695Y14928D01*
X-79541Y14928D01*
X-79541Y14737D01*
X-79695Y14737D01*
X-79695Y14646D01*
G75*
G03X-79596Y14547I00098J00000D01*
G74*
G01*
X-79331Y14547D01*
X-79322Y14548D01*
G75*
G03X-79232Y14646I-00008J00098D01*
G74*
G01*
G75*
G03X-79232Y14652I-00098J00000D01*
G74*
G01*
X-79232Y15020D01*
G37*
G36*
G01X-80049Y15020D02*
G75*
G03X-80148Y15118I-00098J00000D01*
G74*
G01*
X-80413Y15118D01*
G75*
G03X-80512Y15020I00000J-00098D01*
G74*
G01*
X-80512Y14646D01*
G75*
G03X-80422Y14548I00098J00000D01*
G74*
G01*
X-80413Y14547D01*
X-80148Y14547D01*
G75*
G03X-80049Y14646I00000J00098D01*
G74*
G01*
G75*
G03X-80049Y14652I-00098J00000D01*
G74*
G01*
X-80049Y14741D01*
X-80204Y14741D01*
X-80204Y14931D01*
X-80049Y14931D01*
X-80049Y15020D01*
G37*
G36*
G01X-84754Y10738D02*
G75*
G03X-84852Y10837I-00098J-00000D01*
G74*
G01*
X-85226Y10837D01*
G75*
G03X-85324Y10746I00000J-00098D01*
G74*
G01*
X-85325Y10738D01*
X-85325Y10472D01*
G75*
G03X-85226Y10374I00098J-00000D01*
G74*
G01*
X-85131Y10374D01*
X-85131Y10528D01*
X-84941Y10528D01*
X-84941Y10374D01*
X-84852Y10374D01*
G75*
G03X-84754Y10472I00000J00098D01*
G74*
G01*
X-84754Y10738D01*
G37*
G36*
G01X-79429Y10699D02*
G75*
G03X-79528Y10797I-00098J00000D01*
G74*
G01*
X-79793Y10797D01*
G75*
G03X-79892Y10699I00000J-00098D01*
G74*
G01*
X-79892Y10607D01*
X-79737Y10607D01*
X-79737Y10417D01*
X-79892Y10417D01*
X-79892Y10325D01*
G75*
G03X-79793Y10226I00098J00000D01*
G74*
G01*
X-79528Y10226D01*
X-79519Y10227D01*
G75*
G03X-79429Y10325I-00008J00098D01*
G74*
G01*
G75*
G03X-79429Y10331I-00098J00000D01*
G74*
G01*
X-79429Y10699D01*
G37*
G36*
G01X-80246Y10699D02*
G75*
G03X-80344Y10797I-00098J00000D01*
G74*
G01*
X-80610Y10797D01*
G75*
G03X-80709Y10699I00000J-00098D01*
G74*
G01*
X-80709Y10325D01*
G75*
G03X-80619Y10227I00098J00000D01*
G74*
G01*
X-80610Y10226D01*
X-80344Y10226D01*
G75*
G03X-80246Y10325I00000J00098D01*
G74*
G01*
G75*
G03X-80246Y10331I-00098J00000D01*
G74*
G01*
X-80246Y10420D01*
X-80400Y10420D01*
X-80400Y10610D01*
X-80246Y10610D01*
X-80246Y10699D01*
G37*
G36*
G01X-84754Y09921D02*
G75*
G03X-84852Y10020I-00098J-00000D01*
G74*
G01*
X-84944Y10020D01*
X-84944Y09865D01*
X-85135Y09865D01*
X-85135Y10020D01*
X-85226Y10020D01*
G75*
G03X-85325Y09921I00000J-00098D01*
G74*
G01*
X-85325Y09656D01*
X-85324Y09647D01*
G75*
G03X-85226Y09557I00098J00008D01*
G74*
G01*
X-84852Y09557D01*
G75*
G03X-84754Y09656I00000J00098D01*
G74*
G01*
X-84754Y09921D01*
G37*
G36*
G01X-82313Y09050D02*
G75*
G03X-82406Y09144I-00094J00000D01*
G74*
G01*
X-82593Y09144D01*
G75*
G03X-82687Y09050I-00000J-00094D01*
G74*
G01*
X-82687Y08814D01*
G75*
G03X-82593Y08720I00094J00000D01*
G74*
G01*
X-82406Y08720D01*
G75*
G03X-82313Y08814I-00000J00094D01*
G74*
G01*
X-82313Y09050D01*
G37*
G36*
G01X-82313Y08371D02*
G75*
G03X-82406Y08465I-00094J0D01*
G74*
G01*
X-82593Y08465D01*
G75*
G03X-82687Y08371I-00000J-00094D01*
G74*
G01*
X-82687Y08135D01*
G75*
G03X-82593Y08041I00094J0D01*
G74*
G01*
X-82406Y08041D01*
G75*
G03X-82313Y08135I-00000J00094D01*
G74*
G01*
X-82313Y08371D01*
G37*
G36*
G01X-68868Y07402D02*
X-69656Y07402D01*
X-69656Y06811D01*
X-68868Y06811D01*
X-68868Y07402D01*
G37*
G36*
G01X-71014Y07156D02*
G75*
G03X-71112Y07254I-00098J-00000D01*
G74*
G01*
X-71486Y07254D01*
G75*
G03X-71584Y07164I00000J-00098D01*
G74*
G01*
X-71585Y07156D01*
X-71585Y06890D01*
G75*
G03X-71486Y06791I00098J-00000D01*
G74*
G01*
X-71391Y06791D01*
X-71391Y06946D01*
X-71201Y06946D01*
X-71201Y06791D01*
X-71112Y06791D01*
G75*
G03X-71014Y06890I00000J00098D01*
G74*
G01*
X-71014Y07156D01*
G37*
G36*
G01X-72795Y07013D02*
G75*
G03X-72889Y07107I-00094J00000D01*
G74*
G01*
X-73076Y07107D01*
G75*
G03X-73169Y07013I-00000J-00094D01*
G74*
G01*
X-73169Y06777D01*
G75*
G03X-73076Y06683I00094J00000D01*
G74*
G01*
X-72889Y06683D01*
G75*
G03X-72795Y06777I-00000J00094D01*
G74*
G01*
X-72795Y07013D01*
G37*
G36*
G01X-66388Y06949D02*
X-67175Y06949D01*
X-67175Y06260D01*
X-66388Y06260D01*
X-66388Y06949D01*
G37*
G36*
G01X-68868Y06496D02*
X-69656Y06496D01*
X-69656Y05906D01*
X-68868Y05906D01*
X-68868Y06496D01*
G37*
G36*
G01X-71014Y06339D02*
G75*
G03X-71112Y06437I-00098J-00000D01*
G74*
G01*
X-71204Y06437D01*
X-71204Y06283D01*
X-71394Y06283D01*
X-71394Y06437D01*
X-71486Y06437D01*
G75*
G03X-71585Y06339I00000J-00098D01*
G74*
G01*
X-71585Y06073D01*
X-71584Y06065D01*
G75*
G03X-71486Y05974I00098J00008D01*
G74*
G01*
X-71112Y05974D01*
G75*
G03X-71014Y06073I00000J00098D01*
G74*
G01*
X-71014Y06339D01*
G37*
G36*
G01X-72795Y06334D02*
G75*
G03X-72889Y06428I-00094J00000D01*
G74*
G01*
X-73076Y06428D01*
G75*
G03X-73169Y06334I-00000J-00094D01*
G74*
G01*
X-73169Y06098D01*
G75*
G03X-73076Y06004I00094J00000D01*
G74*
G01*
X-72889Y06004D01*
G75*
G03X-72795Y06098I-00000J00094D01*
G74*
G01*
X-72795Y06334D01*
G37*
G36*
G01X-76457Y06240D02*
G75*
G03X-76555Y06339I-00098J-00000D01*
G74*
G01*
X-76929Y06339D01*
G75*
G03X-77027Y06248I00000J-00098D01*
G74*
G01*
X-77028Y06240D01*
X-77028Y05974D01*
G75*
G03X-76929Y05876I00098J-00000D01*
G74*
G01*
X-76834Y05876D01*
X-76834Y06030D01*
X-76644Y06030D01*
X-76644Y05876D01*
X-76555Y05876D01*
G75*
G03X-76457Y05974I00000J00098D01*
G74*
G01*
X-76457Y06240D01*
G37*
G36*
G01X-66388Y06142D02*
X-67175Y06142D01*
X-67175Y05453D01*
X-66388Y05453D01*
X-66388Y06142D01*
G37*
G36*
G01X-68868Y05591D02*
X-69656Y05591D01*
X-69656Y05000D01*
X-68868Y05000D01*
X-68868Y05591D01*
G37*
G36*
G01X-76457Y05423D02*
G75*
G03X-76555Y05522I-00098J-00000D01*
G74*
G01*
X-76647Y05522D01*
X-76647Y05367D01*
X-76837Y05367D01*
X-76837Y05522D01*
X-76929Y05522D01*
G75*
G03X-77028Y05423I00000J-00098D01*
G74*
G01*
X-77028Y05157D01*
X-77027Y05149D01*
G75*
G03X-76929Y05059I00098J00008D01*
G74*
G01*
X-76555Y05059D01*
G75*
G03X-76457Y05157I00000J00098D01*
G74*
G01*
X-76457Y05423D01*
G37*
G36*
G01X-79606Y-05128D02*
G75*
G03X-79705Y-05030I-00098J-00000D01*
G74*
G01*
X-80059Y-05030D01*
G75*
G03X-80157Y-05128I00000J-00098D01*
G74*
G01*
X-80157Y-05404D01*
G75*
G03X-80059Y-05502I00098J-00000D01*
G74*
G01*
X-79974Y-05502D01*
X-79974Y-05344D01*
X-79790Y-05344D01*
X-79790Y-05502D01*
X-79705Y-05502D01*
X-79695Y-05502D01*
G75*
G03X-79606Y-05404I-00009J00098D01*
G74*
G01*
G75*
G03X-79606Y-05398I-00098J-00000D01*
G74*
G01*
X-79606Y-05128D01*
G37*
G36*
G01X-85719Y-05876D02*
G75*
G03X-85817Y-05778I-00098J-00000D01*
G74*
G01*
X-86171Y-05778D01*
G75*
G03X-86270Y-05876I00000J-00098D01*
G74*
G01*
X-86270Y-06152D01*
G75*
G03X-86171Y-06250I00098J-00000D01*
G74*
G01*
X-86086Y-06250D01*
X-86086Y-06093D01*
X-85902Y-06093D01*
X-85902Y-06250D01*
X-85817Y-06250D01*
X-85807Y-06250D01*
G75*
G03X-85719Y-06152I-00009J00098D01*
G74*
G01*
G75*
G03X-85719Y-06146I-00098J-00000D01*
G74*
G01*
X-85719Y-05876D01*
G37*
G36*
G01X-79606Y-05915D02*
G75*
G03X-79705Y-05817I-00098J-00000D01*
G74*
G01*
X-79790Y-05817D01*
X-79790Y-05974D01*
X-79974Y-05974D01*
X-79974Y-05817D01*
X-80059Y-05817D01*
G75*
G03X-80157Y-05915I00000J-00098D01*
G74*
G01*
X-80157Y-06191D01*
G75*
G03X-80069Y-06289I00098J-00000D01*
G74*
G01*
X-80059Y-06289D01*
X-79705Y-06289D01*
G75*
G03X-79606Y-06191I00000J00098D01*
G74*
G01*
G75*
G03X-79606Y-06185I-00098J-00000D01*
G74*
G01*
X-79606Y-05915D01*
G37*
G36*
G01X-97953Y-06614D02*
G75*
G03X-98051Y-06516I-00098J-00000D01*
G74*
G01*
X-98406Y-06516D01*
G75*
G03X-98504Y-06614I00000J-00098D01*
G74*
G01*
X-98504Y-06864D01*
G75*
G03X-98504Y-06870I00098J-00006D01*
G74*
G01*
G75*
G03X-98406Y-06969I00098J-00000D01*
G74*
G01*
X-98320Y-06969D01*
X-98320Y-06818D01*
X-98137Y-06818D01*
X-98137Y-06969D01*
X-98051Y-06969D01*
G75*
G03X-97953Y-06870I00000J00098D01*
G74*
G01*
X-97953Y-06614D01*
G37*
G36*
G01X-95787Y-06654D02*
G75*
G03X-95886Y-06555I-00098J-00000D01*
G74*
G01*
X-96240Y-06555D01*
G75*
G03X-96339Y-06654I00000J-00098D01*
G74*
G01*
X-96339Y-06929D01*
G75*
G03X-96240Y-07028I00098J-00000D01*
G74*
G01*
X-96155Y-07028D01*
X-96155Y-06870D01*
X-95971Y-06870D01*
X-95971Y-07028D01*
X-95886Y-07028D01*
X-95876Y-07027D01*
G75*
G03X-95787Y-06929I-00009J00098D01*
G74*
G01*
G75*
G03X-95787Y-06923I-00098J-00000D01*
G74*
G01*
X-95787Y-06654D01*
G37*
G36*
G01X-85719Y-06663D02*
G75*
G03X-85817Y-06565I-00098J-00000D01*
G74*
G01*
X-85902Y-06565D01*
X-85902Y-06722D01*
X-86086Y-06722D01*
X-86086Y-06565D01*
X-86171Y-06565D01*
G75*
G03X-86270Y-06663I00000J-00098D01*
G74*
G01*
X-86270Y-06939D01*
G75*
G03X-86181Y-07037I00098J-00000D01*
G74*
G01*
X-86171Y-07037D01*
X-85817Y-07037D01*
G75*
G03X-85719Y-06939I00000J00098D01*
G74*
G01*
G75*
G03X-85719Y-06933I-00098J-00000D01*
G74*
G01*
X-85719Y-06663D01*
G37*
G36*
G01X-81319Y-06976D02*
X-81496Y-06976D01*
X-81496Y-07941D01*
X-81319Y-07941D01*
X-81319Y-06976D01*
G37*
G36*
G01X-81624Y-06976D02*
X-81801Y-06976D01*
X-81801Y-07941D01*
X-81624Y-07941D01*
X-81624Y-06976D01*
G37*
G36*
G01X-81941Y-07024D02*
G75*
G03X-81988Y-06976I-00047J0D01*
G74*
G01*
G75*
G03X-82035Y-07024I0J-00047D01*
G74*
G01*
X-82035Y-07894D01*
G75*
G03X-81988Y-07941I00047J0D01*
G74*
G01*
G75*
G03X-81941Y-07894I0J00047D01*
G74*
G01*
X-81941Y-07024D01*
G37*
G36*
G01X-82138Y-07024D02*
G75*
G03X-82185Y-06976I-00047J0D01*
G74*
G01*
G75*
G03X-82232Y-07024I0J-00047D01*
G74*
G01*
X-82232Y-07894D01*
G75*
G03X-82185Y-07941I00047J0D01*
G74*
G01*
G75*
G03X-82138Y-07894I0J00047D01*
G74*
G01*
X-82138Y-07024D01*
G37*
G36*
G01X-82335Y-07024D02*
G75*
G03X-82382Y-06976I-00047J0D01*
G74*
G01*
G75*
G03X-82429Y-07024I0J-00047D01*
G74*
G01*
X-82429Y-07894D01*
G75*
G03X-82382Y-07941I00047J0D01*
G74*
G01*
G75*
G03X-82335Y-07894I0J00047D01*
G74*
G01*
X-82335Y-07024D01*
G37*
G36*
G01X-82531Y-07024D02*
G75*
G03X-82579Y-06976I-00047J0D01*
G74*
G01*
G75*
G03X-82626Y-07024I0J-00047D01*
G74*
G01*
X-82626Y-07894D01*
G75*
G03X-82579Y-07941I00047J0D01*
G74*
G01*
G75*
G03X-82531Y-07894I0J00047D01*
G74*
G01*
X-82531Y-07024D01*
G37*
G36*
G01X-82728Y-07024D02*
G75*
G03X-82776Y-06976I-00047J0D01*
G74*
G01*
G75*
G03X-82823Y-07024I0J-00047D01*
G74*
G01*
X-82823Y-07894D01*
G75*
G03X-82776Y-07941I00047J0D01*
G74*
G01*
G75*
G03X-82728Y-07894I0J00047D01*
G74*
G01*
X-82728Y-07024D01*
G37*
G36*
G01X-82925Y-07024D02*
G75*
G03X-82972Y-06976I-00047J0D01*
G74*
G01*
G75*
G03X-83020Y-07024I0J-00047D01*
G74*
G01*
X-83020Y-07894D01*
G75*
G03X-82972Y-07941I00047J0D01*
G74*
G01*
G75*
G03X-82925Y-07894I0J00047D01*
G74*
G01*
X-82925Y-07024D01*
G37*
G36*
G01X-83122Y-07024D02*
G75*
G03X-83169Y-06976I-00047J0D01*
G74*
G01*
G75*
G03X-83217Y-07024I0J-00047D01*
G74*
G01*
X-83217Y-07894D01*
G75*
G03X-83169Y-07941I00047J0D01*
G74*
G01*
G75*
G03X-83122Y-07894I0J00047D01*
G74*
G01*
X-83122Y-07024D01*
G37*
G36*
G01X-83319Y-07024D02*
G75*
G03X-83366Y-06976I-00047J0D01*
G74*
G01*
G75*
G03X-83413Y-07024I0J-00047D01*
G74*
G01*
X-83413Y-07894D01*
G75*
G03X-83366Y-07941I00047J0D01*
G74*
G01*
G75*
G03X-83319Y-07894I0J00047D01*
G74*
G01*
X-83319Y-07024D01*
G37*
G36*
G01X-83553Y-06976D02*
X-83730Y-06976D01*
X-83730Y-07941D01*
X-83553Y-07941D01*
X-83553Y-06976D01*
G37*
G36*
G01X-83858Y-06976D02*
X-84035Y-06976D01*
X-84035Y-07941D01*
X-83858Y-07941D01*
X-83858Y-06976D01*
G37*
G36*
G01X-97953Y-07421D02*
G75*
G03X-98051Y-07323I-00098J-00000D01*
G74*
G01*
X-98137Y-07323D01*
X-98137Y-07474D01*
X-98320Y-07474D01*
X-98320Y-07323D01*
X-98406Y-07323D01*
G75*
G03X-98504Y-07421I00000J-00098D01*
G74*
G01*
X-98504Y-07677D01*
G75*
G03X-98406Y-07776I00098J-00000D01*
G74*
G01*
X-98051Y-07776D01*
G75*
G03X-97953Y-07677I00000J00098D01*
G74*
G01*
X-97953Y-07421D01*
G37*
G36*
G01X-99724Y-07869D02*
G75*
G03X-99823Y-07771I-00098J-00000D01*
G74*
G01*
X-100177Y-07771D01*
G75*
G03X-100276Y-07869I00000J-00098D01*
G74*
G01*
X-100276Y-08145D01*
G75*
G03X-100177Y-08243I00098J-00000D01*
G74*
G01*
X-100092Y-08243D01*
X-100092Y-08086D01*
X-99908Y-08086D01*
X-99908Y-08243D01*
X-99823Y-08243D01*
X-99813Y-08243D01*
G75*
G03X-99724Y-08145I-00009J00098D01*
G74*
G01*
G75*
G03X-99724Y-08139I-00098J-00000D01*
G74*
G01*
X-99724Y-07869D01*
G37*
G36*
G01X-95787Y-07441D02*
G75*
G03X-95886Y-07343I-00098J-00000D01*
G74*
G01*
X-95971Y-07343D01*
X-95971Y-07500D01*
X-96155Y-07500D01*
X-96155Y-07343D01*
X-96240Y-07343D01*
G75*
G03X-96339Y-07441I00000J-00098D01*
G74*
G01*
X-96339Y-07717D01*
G75*
G03X-96250Y-07815I00098J-00000D01*
G74*
G01*
X-96240Y-07815D01*
X-95886Y-07815D01*
G75*
G03X-95787Y-07717I00000J00098D01*
G74*
G01*
G75*
G03X-95787Y-07711I-00098J-00000D01*
G74*
G01*
X-95787Y-07441D01*
G37*
G36*
G01X-99724Y-08657D02*
G75*
G03X-99823Y-08558I-00098J-00000D01*
G74*
G01*
X-99908Y-08558D01*
X-99908Y-08716D01*
X-100092Y-08716D01*
X-100092Y-08558D01*
X-100177Y-08558D01*
G75*
G03X-100276Y-08657I00000J-00098D01*
G74*
G01*
X-100276Y-08932D01*
G75*
G03X-100187Y-09030I00098J-00000D01*
G74*
G01*
X-100177Y-09031D01*
X-99823Y-09031D01*
G75*
G03X-99724Y-08932I00000J00098D01*
G74*
G01*
G75*
G03X-99724Y-08926I-00098J-00000D01*
G74*
G01*
X-99724Y-08657D01*
G37*
G36*
G01X-98051Y-09311D02*
G75*
G03X-98150Y-09213I-00098J-00000D01*
G74*
G01*
X-98504Y-09213D01*
G75*
G03X-98602Y-09311I00000J-00098D01*
G74*
G01*
X-98602Y-09561D01*
G75*
G03X-98602Y-09567I00098J-00006D01*
G74*
G01*
G75*
G03X-98504Y-09665I00098J-00000D01*
G74*
G01*
X-98419Y-09665D01*
X-98419Y-09515D01*
X-98235Y-09515D01*
X-98235Y-09665D01*
X-98150Y-09665D01*
G75*
G03X-98051Y-09567I00000J00098D01*
G74*
G01*
X-98051Y-09311D01*
G37*
G36*
G01X-98051Y-10118D02*
G75*
G03X-98150Y-10020I-00098J-00000D01*
G74*
G01*
X-98235Y-10020D01*
X-98235Y-10170D01*
X-98419Y-10170D01*
X-98419Y-10020D01*
X-98504Y-10020D01*
G75*
G03X-98602Y-10118I00000J-00098D01*
G74*
G01*
X-98602Y-10374D01*
G75*
G03X-98504Y-10472I00098J-00000D01*
G74*
G01*
X-98150Y-10472D01*
G75*
G03X-98051Y-10374I00000J00098D01*
G74*
G01*
X-98051Y-10118D01*
G37*
G36*
G01X-80268Y-10392D02*
G75*
G03X-80315Y-10344I-00047J0D01*
G74*
G01*
G75*
G03X-80362Y-10392I0J-00047D01*
G74*
G01*
X-80362Y-10927D01*
G75*
G03X-80315Y-10974I00047J0D01*
G74*
G01*
G75*
G03X-80268Y-10927I0J00047D01*
G74*
G01*
X-80268Y-10392D01*
G37*
G36*
G01X-80465Y-10392D02*
G75*
G03X-80512Y-10344I-00047J0D01*
G74*
G01*
G75*
G03X-80559Y-10392I0J-00047D01*
G74*
G01*
X-80559Y-10927D01*
G75*
G03X-80512Y-10974I00047J0D01*
G74*
G01*
G75*
G03X-80465Y-10927I0J00047D01*
G74*
G01*
X-80465Y-10392D01*
G37*
G36*
G01X-80661Y-10392D02*
G75*
G03X-80709Y-10344I-00047J0D01*
G74*
G01*
G75*
G03X-80756Y-10392I0J-00047D01*
G74*
G01*
X-80756Y-10927D01*
G75*
G03X-80709Y-10974I00047J0D01*
G74*
G01*
G75*
G03X-80661Y-10927I0J00047D01*
G74*
G01*
X-80661Y-10392D01*
G37*
G36*
G01X-80858Y-10392D02*
G75*
G03X-80906Y-10344I-00047J0D01*
G74*
G01*
G75*
G03X-80953Y-10392I0J-00047D01*
G74*
G01*
X-80953Y-10927D01*
G75*
G03X-80906Y-10974I00047J0D01*
G74*
G01*
G75*
G03X-80858Y-10927I0J00047D01*
G74*
G01*
X-80858Y-10392D01*
G37*
G36*
G01X-81055Y-10392D02*
G75*
G03X-81102Y-10344I-00047J0D01*
G74*
G01*
G75*
G03X-81150Y-10392I0J-00047D01*
G74*
G01*
X-81150Y-10927D01*
G75*
G03X-81102Y-10974I00047J0D01*
G74*
G01*
G75*
G03X-81055Y-10927I0J00047D01*
G74*
G01*
X-81055Y-10392D01*
G37*
G36*
G01X-81252Y-10392D02*
G75*
G03X-81299Y-10344I-00047J0D01*
G74*
G01*
G75*
G03X-81346Y-10392I0J-00047D01*
G74*
G01*
X-81346Y-10927D01*
G75*
G03X-81299Y-10974I00047J0D01*
G74*
G01*
G75*
G03X-81252Y-10927I0J00047D01*
G74*
G01*
X-81252Y-10392D01*
G37*
G36*
G01X-81449Y-10392D02*
G75*
G03X-81496Y-10344I-00047J0D01*
G74*
G01*
G75*
G03X-81543Y-10392I0J-00047D01*
G74*
G01*
X-81543Y-10927D01*
G75*
G03X-81496Y-10974I00047J0D01*
G74*
G01*
G75*
G03X-81449Y-10927I0J00047D01*
G74*
G01*
X-81449Y-10392D01*
G37*
G36*
G01X-81646Y-10392D02*
G75*
G03X-81693Y-10344I-00047J0D01*
G74*
G01*
G75*
G03X-81740Y-10392I0J-00047D01*
G74*
G01*
X-81740Y-10927D01*
G75*
G03X-81693Y-10974I00047J0D01*
G74*
G01*
G75*
G03X-81646Y-10927I0J00047D01*
G74*
G01*
X-81646Y-10392D01*
G37*
G36*
G01X-81843Y-10392D02*
G75*
G03X-81890Y-10344I-00047J0D01*
G74*
G01*
G75*
G03X-81937Y-10392I0J-00047D01*
G74*
G01*
X-81937Y-10927D01*
G75*
G03X-81890Y-10974I00047J0D01*
G74*
G01*
G75*
G03X-81843Y-10927I0J00047D01*
G74*
G01*
X-81843Y-10392D01*
G37*
G36*
G01X-82039Y-10392D02*
G75*
G03X-82087Y-10344I-00047J0D01*
G74*
G01*
G75*
G03X-82134Y-10392I0J-00047D01*
G74*
G01*
X-82134Y-10927D01*
G75*
G03X-82087Y-10974I00047J0D01*
G74*
G01*
G75*
G03X-82039Y-10927I0J00047D01*
G74*
G01*
X-82039Y-10392D01*
G37*
G36*
G01X-82236Y-10392D02*
G75*
G03X-82283Y-10344I-00047J0D01*
G74*
G01*
G75*
G03X-82331Y-10392I0J-00047D01*
G74*
G01*
X-82331Y-10927D01*
G75*
G03X-82283Y-10974I00047J0D01*
G74*
G01*
G75*
G03X-82236Y-10927I0J00047D01*
G74*
G01*
X-82236Y-10392D01*
G37*
G36*
G01X-82433Y-10392D02*
G75*
G03X-82480Y-10344I-00047J0D01*
G74*
G01*
G75*
G03X-82528Y-10392I0J-00047D01*
G74*
G01*
X-82528Y-10927D01*
G75*
G03X-82480Y-10974I00047J0D01*
G74*
G01*
G75*
G03X-82433Y-10927I0J00047D01*
G74*
G01*
X-82433Y-10392D01*
G37*
G36*
G01X-82630Y-10392D02*
G75*
G03X-82677Y-10344I-00047J0D01*
G74*
G01*
G75*
G03X-82724Y-10392I0J-00047D01*
G74*
G01*
X-82724Y-10927D01*
G75*
G03X-82677Y-10974I00047J0D01*
G74*
G01*
G75*
G03X-82630Y-10927I0J00047D01*
G74*
G01*
X-82630Y-10392D01*
G37*
G36*
G01X-82827Y-10392D02*
G75*
G03X-82874Y-10344I-00047J0D01*
G74*
G01*
G75*
G03X-82921Y-10392I0J-00047D01*
G74*
G01*
X-82921Y-10927D01*
G75*
G03X-82874Y-10974I00047J0D01*
G74*
G01*
G75*
G03X-82827Y-10927I0J00047D01*
G74*
G01*
X-82827Y-10392D01*
G37*
G36*
G01X-83024Y-10392D02*
G75*
G03X-83071Y-10344I-00047J0D01*
G74*
G01*
G75*
G03X-83118Y-10392I0J-00047D01*
G74*
G01*
X-83118Y-10927D01*
G75*
G03X-83071Y-10974I00047J0D01*
G74*
G01*
G75*
G03X-83024Y-10927I0J00047D01*
G74*
G01*
X-83024Y-10392D01*
G37*
G36*
G01X-83220Y-10392D02*
G75*
G03X-83268Y-10344I-00047J0D01*
G74*
G01*
G75*
G03X-83315Y-10392I0J-00047D01*
G74*
G01*
X-83315Y-10927D01*
G75*
G03X-83268Y-10974I00047J0D01*
G74*
G01*
G75*
G03X-83220Y-10927I0J00047D01*
G74*
G01*
X-83220Y-10392D01*
G37*
G36*
G01X-83417Y-10392D02*
G75*
G03X-83465Y-10344I-00047J0D01*
G74*
G01*
G75*
G03X-83512Y-10392I0J-00047D01*
G74*
G01*
X-83512Y-10927D01*
G75*
G03X-83465Y-10974I00047J0D01*
G74*
G01*
G75*
G03X-83417Y-10927I0J00047D01*
G74*
G01*
X-83417Y-10392D01*
G37*
G36*
G01X-83614Y-10392D02*
G75*
G03X-83661Y-10344I-00047J0D01*
G74*
G01*
G75*
G03X-83709Y-10392I0J-00047D01*
G74*
G01*
X-83709Y-10927D01*
G75*
G03X-83661Y-10974I00047J0D01*
G74*
G01*
G75*
G03X-83614Y-10927I0J00047D01*
G74*
G01*
X-83614Y-10392D01*
G37*
G36*
G01X-83811Y-10392D02*
G75*
G03X-83858Y-10344I-00047J0D01*
G74*
G01*
G75*
G03X-83906Y-10392I0J-00047D01*
G74*
G01*
X-83906Y-10927D01*
G75*
G03X-83858Y-10974I00047J0D01*
G74*
G01*
G75*
G03X-83811Y-10927I0J00047D01*
G74*
G01*
X-83811Y-10392D01*
G37*
G36*
G01X-84008Y-10392D02*
G75*
G03X-84055Y-10344I-00047J0D01*
G74*
G01*
G75*
G03X-84102Y-10392I0J-00047D01*
G74*
G01*
X-84102Y-10927D01*
G75*
G03X-84055Y-10974I00047J0D01*
G74*
G01*
G75*
G03X-84008Y-10927I0J00047D01*
G74*
G01*
X-84008Y-10392D01*
G37*
G36*
G01X-84205Y-10392D02*
G75*
G03X-84252Y-10344I-00047J0D01*
G74*
G01*
G75*
G03X-84299Y-10392I0J-00047D01*
G74*
G01*
X-84299Y-10927D01*
G75*
G03X-84252Y-10974I00047J0D01*
G74*
G01*
G75*
G03X-84205Y-10927I0J00047D01*
G74*
G01*
X-84205Y-10392D01*
G37*
G36*
G01X-84402Y-10392D02*
G75*
G03X-84449Y-10344I-00047J0D01*
G74*
G01*
G75*
G03X-84496Y-10392I0J-00047D01*
G74*
G01*
X-84496Y-10927D01*
G75*
G03X-84449Y-10974I00047J0D01*
G74*
G01*
G75*
G03X-84402Y-10927I0J00047D01*
G74*
G01*
X-84402Y-10392D01*
G37*
G36*
G01X-84598Y-10392D02*
G75*
G03X-84646Y-10344I-00047J0D01*
G74*
G01*
G75*
G03X-84693Y-10392I0J-00047D01*
G74*
G01*
X-84693Y-10927D01*
G75*
G03X-84646Y-10974I00047J0D01*
G74*
G01*
G75*
G03X-84598Y-10927I0J00047D01*
G74*
G01*
X-84598Y-10392D01*
G37*
G36*
G01X-84795Y-10392D02*
G75*
G03X-84843Y-10344I-00047J0D01*
G74*
G01*
G75*
G03X-84890Y-10392I0J-00047D01*
G74*
G01*
X-84890Y-10927D01*
G75*
G03X-84843Y-10974I00047J0D01*
G74*
G01*
G75*
G03X-84795Y-10927I0J00047D01*
G74*
G01*
X-84795Y-10392D01*
G37*
G36*
G01X-84992Y-10392D02*
G75*
G03X-85039Y-10344I-00047J0D01*
G74*
G01*
G75*
G03X-85087Y-10392I0J-00047D01*
G74*
G01*
X-85087Y-10927D01*
G75*
G03X-85039Y-10974I00047J0D01*
G74*
G01*
G75*
G03X-84992Y-10927I0J00047D01*
G74*
G01*
X-84992Y-10392D01*
G37*
G36*
G01X-79388Y-11366D02*
G75*
G03X-79341Y-11319I0J00047D01*
G74*
G01*
G75*
G03X-79388Y-11272I-00047J0D01*
G74*
G01*
X-79923Y-11272D01*
G75*
G03X-79970Y-11319I0J-00047D01*
G74*
G01*
G75*
G03X-79923Y-11366I00047J0D01*
G74*
G01*
X-79388Y-11366D01*
G37*
G36*
G01X-85431Y-11366D02*
G75*
G03X-85384Y-11319I0J00047D01*
G74*
G01*
G75*
G03X-85431Y-11272I-00047J0D01*
G74*
G01*
X-85967Y-11272D01*
G75*
G03X-86014Y-11319I0J-00047D01*
G74*
G01*
G75*
G03X-85967Y-11366I00047J0D01*
G74*
G01*
X-85431Y-11366D01*
G37*
G36*
G01X-79388Y-11563D02*
G75*
G03X-79341Y-11516I0J00047D01*
G74*
G01*
G75*
G03X-79388Y-11469I-00047J0D01*
G74*
G01*
X-79923Y-11469D01*
G75*
G03X-79970Y-11516I0J-00047D01*
G74*
G01*
G75*
G03X-79923Y-11563I00047J0D01*
G74*
G01*
X-79388Y-11563D01*
G37*
G36*
G01X-85431Y-11563D02*
G75*
G03X-85384Y-11516I0J00047D01*
G74*
G01*
G75*
G03X-85431Y-11469I-00047J0D01*
G74*
G01*
X-85967Y-11469D01*
G75*
G03X-86014Y-11516I0J-00047D01*
G74*
G01*
G75*
G03X-85967Y-11563I00047J0D01*
G74*
G01*
X-85431Y-11563D01*
G37*
G36*
G01X-79388Y-11760D02*
G75*
G03X-79341Y-11713I0J00047D01*
G74*
G01*
G75*
G03X-79388Y-11665I-00047J0D01*
G74*
G01*
X-79923Y-11665D01*
G75*
G03X-79970Y-11713I0J-00047D01*
G74*
G01*
G75*
G03X-79923Y-11760I00047J0D01*
G74*
G01*
X-79388Y-11760D01*
G37*
G36*
G01X-85431Y-11760D02*
G75*
G03X-85384Y-11713I0J00047D01*
G74*
G01*
G75*
G03X-85431Y-11665I-00047J0D01*
G74*
G01*
X-85967Y-11665D01*
G75*
G03X-86014Y-11713I0J-00047D01*
G74*
G01*
G75*
G03X-85967Y-11760I00047J0D01*
G74*
G01*
X-85431Y-11760D01*
G37*
G36*
G01X-79388Y-11957D02*
G75*
G03X-79341Y-11909I0J00047D01*
G74*
G01*
G75*
G03X-79388Y-11862I-00047J0D01*
G74*
G01*
X-79923Y-11862D01*
G75*
G03X-79970Y-11909I0J-00047D01*
G74*
G01*
G75*
G03X-79923Y-11957I00047J0D01*
G74*
G01*
X-79388Y-11957D01*
G37*
G36*
G01X-85431Y-11957D02*
G75*
G03X-85384Y-11909I0J00047D01*
G74*
G01*
G75*
G03X-85431Y-11862I-00047J0D01*
G74*
G01*
X-85967Y-11862D01*
G75*
G03X-86014Y-11909I0J-00047D01*
G74*
G01*
G75*
G03X-85967Y-11957I00047J0D01*
G74*
G01*
X-85431Y-11957D01*
G37*
G36*
G01X-79388Y-12154D02*
G75*
G03X-79341Y-12106I0J00047D01*
G74*
G01*
G75*
G03X-79388Y-12059I-00047J0D01*
G74*
G01*
X-79923Y-12059D01*
G75*
G03X-79970Y-12106I0J-00047D01*
G74*
G01*
G75*
G03X-79923Y-12154I00047J0D01*
G74*
G01*
X-79388Y-12154D01*
G37*
G36*
G01X-85431Y-12154D02*
G75*
G03X-85384Y-12106I0J00047D01*
G74*
G01*
G75*
G03X-85431Y-12059I-00047J0D01*
G74*
G01*
X-85967Y-12059D01*
G75*
G03X-86014Y-12106I0J-00047D01*
G74*
G01*
G75*
G03X-85967Y-12154I00047J0D01*
G74*
G01*
X-85431Y-12154D01*
G37*
G36*
G01X-79388Y-12350D02*
G75*
G03X-79341Y-12303I0J00047D01*
G74*
G01*
G75*
G03X-79388Y-12256I-00047J0D01*
G74*
G01*
X-79923Y-12256D01*
G75*
G03X-79970Y-12303I0J-00047D01*
G74*
G01*
G75*
G03X-79923Y-12350I00047J0D01*
G74*
G01*
X-79388Y-12350D01*
G37*
G36*
G01X-85431Y-12350D02*
G75*
G03X-85384Y-12303I0J00047D01*
G74*
G01*
G75*
G03X-85431Y-12256I-00047J0D01*
G74*
G01*
X-85967Y-12256D01*
G75*
G03X-86014Y-12303I0J-00047D01*
G74*
G01*
G75*
G03X-85967Y-12350I00047J0D01*
G74*
G01*
X-85431Y-12350D01*
G37*
G36*
G01X-79388Y-12547D02*
G75*
G03X-79341Y-12500I0J00047D01*
G74*
G01*
G75*
G03X-79388Y-12453I-00047J-00000D01*
G74*
G01*
X-79923Y-12453D01*
G75*
G03X-79970Y-12500I0J-00047D01*
G74*
G01*
G75*
G03X-79923Y-12547I00047J-00000D01*
G74*
G01*
X-79388Y-12547D01*
G37*
G36*
G01X-85431Y-12547D02*
G75*
G03X-85384Y-12500I0J00047D01*
G74*
G01*
G75*
G03X-85431Y-12453I-00047J-00000D01*
G74*
G01*
X-85967Y-12453D01*
G75*
G03X-86014Y-12500I0J-00047D01*
G74*
G01*
G75*
G03X-85967Y-12547I00047J-00000D01*
G74*
G01*
X-85431Y-12547D01*
G37*
G36*
G01X-79388Y-12744D02*
G75*
G03X-79341Y-12697I0J00047D01*
G74*
G01*
G75*
G03X-79388Y-12650I-00047J00000D01*
G74*
G01*
X-79923Y-12650D01*
G75*
G03X-79970Y-12697I0J-00047D01*
G74*
G01*
G75*
G03X-79923Y-12744I00047J00000D01*
G74*
G01*
X-79388Y-12744D01*
G37*
G36*
G01X-85431Y-12744D02*
G75*
G03X-85384Y-12697I0J00047D01*
G74*
G01*
G75*
G03X-85431Y-12650I-00047J00000D01*
G74*
G01*
X-85967Y-12650D01*
G75*
G03X-86014Y-12697I0J-00047D01*
G74*
G01*
G75*
G03X-85967Y-12744I00047J00000D01*
G74*
G01*
X-85431Y-12744D01*
G37*
G36*
G01X-79388Y-12941D02*
G75*
G03X-79341Y-12894I0J00047D01*
G74*
G01*
G75*
G03X-79388Y-12846I-00047J0D01*
G74*
G01*
X-79923Y-12846D01*
G75*
G03X-79970Y-12894I0J-00047D01*
G74*
G01*
G75*
G03X-79923Y-12941I00047J0D01*
G74*
G01*
X-79388Y-12941D01*
G37*
G36*
G01X-85431Y-12941D02*
G75*
G03X-85384Y-12894I0J00047D01*
G74*
G01*
G75*
G03X-85431Y-12846I-00047J0D01*
G74*
G01*
X-85967Y-12846D01*
G75*
G03X-86014Y-12894I0J-00047D01*
G74*
G01*
G75*
G03X-85967Y-12941I00047J0D01*
G74*
G01*
X-85431Y-12941D01*
G37*
G36*
G01X-79388Y-13138D02*
G75*
G03X-79341Y-13091I0J00047D01*
G74*
G01*
G75*
G03X-79388Y-13043I-00047J0D01*
G74*
G01*
X-79923Y-13043D01*
G75*
G03X-79970Y-13091I0J-00047D01*
G74*
G01*
G75*
G03X-79923Y-13138I00047J0D01*
G74*
G01*
X-79388Y-13138D01*
G37*
G36*
G01X-85431Y-13138D02*
G75*
G03X-85384Y-13091I0J00047D01*
G74*
G01*
G75*
G03X-85431Y-13043I-00047J0D01*
G74*
G01*
X-85967Y-13043D01*
G75*
G03X-86014Y-13091I0J-00047D01*
G74*
G01*
G75*
G03X-85967Y-13138I00047J0D01*
G74*
G01*
X-85431Y-13138D01*
G37*
G36*
G01X-79388Y-13335D02*
G75*
G03X-79341Y-13287I0J00047D01*
G74*
G01*
G75*
G03X-79388Y-13240I-00047J0D01*
G74*
G01*
X-79923Y-13240D01*
G75*
G03X-79970Y-13287I0J-00047D01*
G74*
G01*
G75*
G03X-79923Y-13335I00047J0D01*
G74*
G01*
X-79388Y-13335D01*
G37*
G36*
G01X-85431Y-13335D02*
G75*
G03X-85384Y-13287I0J00047D01*
G74*
G01*
G75*
G03X-85431Y-13240I-00047J0D01*
G74*
G01*
X-85967Y-13240D01*
G75*
G03X-86014Y-13287I0J-00047D01*
G74*
G01*
G75*
G03X-85967Y-13335I00047J0D01*
G74*
G01*
X-85431Y-13335D01*
G37*
G36*
G01X-79388Y-13531D02*
G75*
G03X-79341Y-13484I0J00047D01*
G74*
G01*
G75*
G03X-79388Y-13437I-00047J0D01*
G74*
G01*
X-79923Y-13437D01*
G75*
G03X-79970Y-13484I0J-00047D01*
G74*
G01*
G75*
G03X-79923Y-13531I00047J0D01*
G74*
G01*
X-79388Y-13531D01*
G37*
G36*
G01X-85431Y-13531D02*
G75*
G03X-85384Y-13484I0J00047D01*
G74*
G01*
G75*
G03X-85431Y-13437I-00047J0D01*
G74*
G01*
X-85967Y-13437D01*
G75*
G03X-86014Y-13484I0J-00047D01*
G74*
G01*
G75*
G03X-85967Y-13531I00047J0D01*
G74*
G01*
X-85431Y-13531D01*
G37*
G36*
G01X-79388Y-13728D02*
G75*
G03X-79341Y-13681I0J00047D01*
G74*
G01*
G75*
G03X-79388Y-13634I-00047J0D01*
G74*
G01*
X-79923Y-13634D01*
G75*
G03X-79970Y-13681I0J-00047D01*
G74*
G01*
G75*
G03X-79923Y-13728I00047J0D01*
G74*
G01*
X-79388Y-13728D01*
G37*
G36*
G01X-85431Y-13728D02*
G75*
G03X-85384Y-13681I0J00047D01*
G74*
G01*
G75*
G03X-85431Y-13634I-00047J0D01*
G74*
G01*
X-85967Y-13634D01*
G75*
G03X-86014Y-13681I0J-00047D01*
G74*
G01*
G75*
G03X-85967Y-13728I00047J0D01*
G74*
G01*
X-85431Y-13728D01*
G37*
G36*
G01X-79388Y-13925D02*
G75*
G03X-79341Y-13878I0J00047D01*
G74*
G01*
G75*
G03X-79388Y-13831I-00047J0D01*
G74*
G01*
X-79923Y-13831D01*
G75*
G03X-79970Y-13878I0J-00047D01*
G74*
G01*
G75*
G03X-79923Y-13925I00047J0D01*
G74*
G01*
X-79388Y-13925D01*
G37*
G36*
G01X-85431Y-13925D02*
G75*
G03X-85384Y-13878I0J00047D01*
G74*
G01*
G75*
G03X-85431Y-13831I-00047J0D01*
G74*
G01*
X-85967Y-13831D01*
G75*
G03X-86014Y-13878I0J-00047D01*
G74*
G01*
G75*
G03X-85967Y-13925I00047J0D01*
G74*
G01*
X-85431Y-13925D01*
G37*
G36*
G01X-79388Y-14122D02*
G75*
G03X-79341Y-14075I0J00047D01*
G74*
G01*
G75*
G03X-79388Y-14028I-00047J0D01*
G74*
G01*
X-79923Y-14028D01*
G75*
G03X-79970Y-14075I0J-00047D01*
G74*
G01*
G75*
G03X-79923Y-14122I00047J0D01*
G74*
G01*
X-79388Y-14122D01*
G37*
G36*
G01X-85431Y-14122D02*
G75*
G03X-85384Y-14075I0J00047D01*
G74*
G01*
G75*
G03X-85431Y-14028I-00047J0D01*
G74*
G01*
X-85967Y-14028D01*
G75*
G03X-86014Y-14075I0J-00047D01*
G74*
G01*
G75*
G03X-85967Y-14122I00047J0D01*
G74*
G01*
X-85431Y-14122D01*
G37*
G36*
G01X-79388Y-14319D02*
G75*
G03X-79341Y-14272I0J00047D01*
G74*
G01*
G75*
G03X-79388Y-14224I-00047J0D01*
G74*
G01*
X-79923Y-14224D01*
G75*
G03X-79970Y-14272I0J-00047D01*
G74*
G01*
G75*
G03X-79923Y-14319I00047J0D01*
G74*
G01*
X-79388Y-14319D01*
G37*
G36*
G01X-85431Y-14319D02*
G75*
G03X-85384Y-14272I0J00047D01*
G74*
G01*
G75*
G03X-85431Y-14224I-00047J0D01*
G74*
G01*
X-85967Y-14224D01*
G75*
G03X-86014Y-14272I0J-00047D01*
G74*
G01*
G75*
G03X-85967Y-14319I00047J0D01*
G74*
G01*
X-85431Y-14319D01*
G37*
G36*
G01X-79388Y-14516D02*
G75*
G03X-79341Y-14469I0J00047D01*
G74*
G01*
G75*
G03X-79388Y-14421I-00047J0D01*
G74*
G01*
X-79923Y-14421D01*
G75*
G03X-79970Y-14469I0J-00047D01*
G74*
G01*
G75*
G03X-79923Y-14516I00047J0D01*
G74*
G01*
X-79388Y-14516D01*
G37*
G36*
G01X-85431Y-14516D02*
G75*
G03X-85384Y-14469I0J00047D01*
G74*
G01*
G75*
G03X-85431Y-14421I-00047J0D01*
G74*
G01*
X-85967Y-14421D01*
G75*
G03X-86014Y-14469I0J-00047D01*
G74*
G01*
G75*
G03X-85967Y-14516I00047J0D01*
G74*
G01*
X-85431Y-14516D01*
G37*
G36*
G01X-79388Y-14713D02*
G75*
G03X-79341Y-14665I0J00047D01*
G74*
G01*
G75*
G03X-79388Y-14618I-00047J0D01*
G74*
G01*
X-79923Y-14618D01*
G75*
G03X-79970Y-14665I0J-00047D01*
G74*
G01*
G75*
G03X-79923Y-14713I00047J0D01*
G74*
G01*
X-79388Y-14713D01*
G37*
G36*
G01X-85431Y-14713D02*
G75*
G03X-85384Y-14665I0J00047D01*
G74*
G01*
G75*
G03X-85431Y-14618I-00047J0D01*
G74*
G01*
X-85967Y-14618D01*
G75*
G03X-86014Y-14665I0J-00047D01*
G74*
G01*
G75*
G03X-85967Y-14713I00047J0D01*
G74*
G01*
X-85431Y-14713D01*
G37*
G36*
G01X-79388Y-14909D02*
G75*
G03X-79341Y-14862I0J00047D01*
G74*
G01*
G75*
G03X-79388Y-14815I-00047J0D01*
G74*
G01*
X-79923Y-14815D01*
G75*
G03X-79970Y-14862I0J-00047D01*
G74*
G01*
G75*
G03X-79923Y-14909I00047J0D01*
G74*
G01*
X-79388Y-14909D01*
G37*
G36*
G01X-85431Y-14909D02*
G75*
G03X-85384Y-14862I0J00047D01*
G74*
G01*
G75*
G03X-85431Y-14815I-00047J0D01*
G74*
G01*
X-85967Y-14815D01*
G75*
G03X-86014Y-14862I0J-00047D01*
G74*
G01*
G75*
G03X-85967Y-14909I00047J0D01*
G74*
G01*
X-85431Y-14909D01*
G37*
G36*
G01X-79388Y-15106D02*
G75*
G03X-79341Y-15059I0J00047D01*
G74*
G01*
G75*
G03X-79388Y-15012I-00047J0D01*
G74*
G01*
X-79923Y-15012D01*
G75*
G03X-79970Y-15059I0J-00047D01*
G74*
G01*
G75*
G03X-79923Y-15106I00047J0D01*
G74*
G01*
X-79388Y-15106D01*
G37*
G36*
G01X-85431Y-15106D02*
G75*
G03X-85384Y-15059I0J00047D01*
G74*
G01*
G75*
G03X-85431Y-15012I-00047J0D01*
G74*
G01*
X-85967Y-15012D01*
G75*
G03X-86014Y-15059I0J-00047D01*
G74*
G01*
G75*
G03X-85967Y-15106I00047J0D01*
G74*
G01*
X-85431Y-15106D01*
G37*
G36*
G01X-79388Y-15303D02*
G75*
G03X-79341Y-15256I0J00047D01*
G74*
G01*
G75*
G03X-79388Y-15209I-00047J0D01*
G74*
G01*
X-79923Y-15209D01*
G75*
G03X-79970Y-15256I0J-00047D01*
G74*
G01*
G75*
G03X-79923Y-15303I00047J0D01*
G74*
G01*
X-79388Y-15303D01*
G37*
G36*
G01X-85431Y-15303D02*
G75*
G03X-85384Y-15256I0J00047D01*
G74*
G01*
G75*
G03X-85431Y-15209I-00047J0D01*
G74*
G01*
X-85967Y-15209D01*
G75*
G03X-86014Y-15256I0J-00047D01*
G74*
G01*
G75*
G03X-85967Y-15303I00047J0D01*
G74*
G01*
X-85431Y-15303D01*
G37*
G36*
G01X-79388Y-15500D02*
G75*
G03X-79341Y-15453I0J00047D01*
G74*
G01*
G75*
G03X-79388Y-15406I-00047J0D01*
G74*
G01*
X-79923Y-15406D01*
G75*
G03X-79970Y-15453I0J-00047D01*
G74*
G01*
G75*
G03X-79923Y-15500I00047J0D01*
G74*
G01*
X-79388Y-15500D01*
G37*
G36*
G01X-85431Y-15500D02*
G75*
G03X-85384Y-15453I0J00047D01*
G74*
G01*
G75*
G03X-85431Y-15406I-00047J0D01*
G74*
G01*
X-85967Y-15406D01*
G75*
G03X-86014Y-15453I0J-00047D01*
G74*
G01*
G75*
G03X-85967Y-15500I00047J0D01*
G74*
G01*
X-85431Y-15500D01*
G37*
G36*
G01X-79388Y-15697D02*
G75*
G03X-79341Y-15650I0J00047D01*
G74*
G01*
G75*
G03X-79388Y-15602I-00047J0D01*
G74*
G01*
X-79923Y-15602D01*
G75*
G03X-79970Y-15650I0J-00047D01*
G74*
G01*
G75*
G03X-79923Y-15697I00047J0D01*
G74*
G01*
X-79388Y-15697D01*
G37*
G36*
G01X-85431Y-15697D02*
G75*
G03X-85384Y-15650I0J00047D01*
G74*
G01*
G75*
G03X-85431Y-15602I-00047J0D01*
G74*
G01*
X-85967Y-15602D01*
G75*
G03X-86014Y-15650I0J-00047D01*
G74*
G01*
G75*
G03X-85967Y-15697I00047J0D01*
G74*
G01*
X-85431Y-15697D01*
G37*
G36*
G01X-79388Y-15894D02*
G75*
G03X-79341Y-15846I0J00047D01*
G74*
G01*
G75*
G03X-79388Y-15799I-00047J0D01*
G74*
G01*
X-79923Y-15799D01*
G75*
G03X-79970Y-15846I0J-00047D01*
G74*
G01*
G75*
G03X-79923Y-15894I00047J0D01*
G74*
G01*
X-79388Y-15894D01*
G37*
G36*
G01X-85431Y-15894D02*
G75*
G03X-85384Y-15846I0J00047D01*
G74*
G01*
G75*
G03X-85431Y-15799I-00047J0D01*
G74*
G01*
X-85967Y-15799D01*
G75*
G03X-86014Y-15846I0J-00047D01*
G74*
G01*
G75*
G03X-85967Y-15894I00047J0D01*
G74*
G01*
X-85431Y-15894D01*
G37*
G36*
G01X-79388Y-16091D02*
G75*
G03X-79341Y-16043I0J00047D01*
G74*
G01*
G75*
G03X-79388Y-15996I-00047J0D01*
G74*
G01*
X-79923Y-15996D01*
G75*
G03X-79970Y-16043I0J-00047D01*
G74*
G01*
G75*
G03X-79923Y-16091I00047J0D01*
G74*
G01*
X-79388Y-16091D01*
G37*
G36*
G01X-85431Y-16091D02*
G75*
G03X-85384Y-16043I0J00047D01*
G74*
G01*
G75*
G03X-85431Y-15996I-00047J0D01*
G74*
G01*
X-85967Y-15996D01*
G75*
G03X-86014Y-16043I0J-00047D01*
G74*
G01*
G75*
G03X-85967Y-16091I00047J0D01*
G74*
G01*
X-85431Y-16091D01*
G37*
G36*
G01X-80268Y-16435D02*
G75*
G03X-80315Y-16388I-00047J0D01*
G74*
G01*
G75*
G03X-80362Y-16435I0J-00047D01*
G74*
G01*
X-80362Y-16970D01*
G75*
G03X-80315Y-17018I00047J0D01*
G74*
G01*
G75*
G03X-80268Y-16970I0J00047D01*
G74*
G01*
X-80268Y-16435D01*
G37*
G36*
G01X-80465Y-16435D02*
G75*
G03X-80512Y-16388I-00047J0D01*
G74*
G01*
G75*
G03X-80559Y-16435I0J-00047D01*
G74*
G01*
X-80559Y-16970D01*
G75*
G03X-80512Y-17018I00047J0D01*
G74*
G01*
G75*
G03X-80465Y-16970I0J00047D01*
G74*
G01*
X-80465Y-16435D01*
G37*
G36*
G01X-80661Y-16435D02*
G75*
G03X-80709Y-16388I-00047J0D01*
G74*
G01*
G75*
G03X-80756Y-16435I0J-00047D01*
G74*
G01*
X-80756Y-16970D01*
G75*
G03X-80709Y-17018I00047J0D01*
G74*
G01*
G75*
G03X-80661Y-16970I0J00047D01*
G74*
G01*
X-80661Y-16435D01*
G37*
G36*
G01X-80858Y-16435D02*
G75*
G03X-80906Y-16388I-00047J0D01*
G74*
G01*
G75*
G03X-80953Y-16435I0J-00047D01*
G74*
G01*
X-80953Y-16970D01*
G75*
G03X-80906Y-17018I00047J0D01*
G74*
G01*
G75*
G03X-80858Y-16970I0J00047D01*
G74*
G01*
X-80858Y-16435D01*
G37*
G36*
G01X-81055Y-16435D02*
G75*
G03X-81102Y-16388I-00047J0D01*
G74*
G01*
G75*
G03X-81150Y-16435I0J-00047D01*
G74*
G01*
X-81150Y-16970D01*
G75*
G03X-81102Y-17018I00047J0D01*
G74*
G01*
G75*
G03X-81055Y-16970I0J00047D01*
G74*
G01*
X-81055Y-16435D01*
G37*
G36*
G01X-81252Y-16435D02*
G75*
G03X-81299Y-16388I-00047J0D01*
G74*
G01*
G75*
G03X-81346Y-16435I0J-00047D01*
G74*
G01*
X-81346Y-16970D01*
G75*
G03X-81299Y-17018I00047J0D01*
G74*
G01*
G75*
G03X-81252Y-16970I0J00047D01*
G74*
G01*
X-81252Y-16435D01*
G37*
G36*
G01X-81449Y-16435D02*
G75*
G03X-81496Y-16388I-00047J0D01*
G74*
G01*
G75*
G03X-81543Y-16435I0J-00047D01*
G74*
G01*
X-81543Y-16970D01*
G75*
G03X-81496Y-17018I00047J0D01*
G74*
G01*
G75*
G03X-81449Y-16970I0J00047D01*
G74*
G01*
X-81449Y-16435D01*
G37*
G36*
G01X-81646Y-16435D02*
G75*
G03X-81693Y-16388I-00047J0D01*
G74*
G01*
G75*
G03X-81740Y-16435I0J-00047D01*
G74*
G01*
X-81740Y-16970D01*
G75*
G03X-81693Y-17018I00047J0D01*
G74*
G01*
G75*
G03X-81646Y-16970I0J00047D01*
G74*
G01*
X-81646Y-16435D01*
G37*
G36*
G01X-81843Y-16435D02*
G75*
G03X-81890Y-16388I-00047J0D01*
G74*
G01*
G75*
G03X-81937Y-16435I0J-00047D01*
G74*
G01*
X-81937Y-16970D01*
G75*
G03X-81890Y-17018I00047J0D01*
G74*
G01*
G75*
G03X-81843Y-16970I0J00047D01*
G74*
G01*
X-81843Y-16435D01*
G37*
G36*
G01X-82039Y-16435D02*
G75*
G03X-82087Y-16388I-00047J0D01*
G74*
G01*
G75*
G03X-82134Y-16435I0J-00047D01*
G74*
G01*
X-82134Y-16970D01*
G75*
G03X-82087Y-17018I00047J0D01*
G74*
G01*
G75*
G03X-82039Y-16970I0J00047D01*
G74*
G01*
X-82039Y-16435D01*
G37*
G36*
G01X-82236Y-16435D02*
G75*
G03X-82283Y-16388I-00047J0D01*
G74*
G01*
G75*
G03X-82331Y-16435I0J-00047D01*
G74*
G01*
X-82331Y-16970D01*
G75*
G03X-82283Y-17018I00047J0D01*
G74*
G01*
G75*
G03X-82236Y-16970I0J00047D01*
G74*
G01*
X-82236Y-16435D01*
G37*
G36*
G01X-82433Y-16435D02*
G75*
G03X-82480Y-16388I-00047J0D01*
G74*
G01*
G75*
G03X-82528Y-16435I0J-00047D01*
G74*
G01*
X-82528Y-16970D01*
G75*
G03X-82480Y-17018I00047J0D01*
G74*
G01*
G75*
G03X-82433Y-16970I0J00047D01*
G74*
G01*
X-82433Y-16435D01*
G37*
G36*
G01X-82630Y-16435D02*
G75*
G03X-82677Y-16388I-00047J0D01*
G74*
G01*
G75*
G03X-82724Y-16435I0J-00047D01*
G74*
G01*
X-82724Y-16970D01*
G75*
G03X-82677Y-17018I00047J0D01*
G74*
G01*
G75*
G03X-82630Y-16970I0J00047D01*
G74*
G01*
X-82630Y-16435D01*
G37*
G36*
G01X-82827Y-16435D02*
G75*
G03X-82874Y-16388I-00047J0D01*
G74*
G01*
G75*
G03X-82921Y-16435I0J-00047D01*
G74*
G01*
X-82921Y-16970D01*
G75*
G03X-82874Y-17018I00047J0D01*
G74*
G01*
G75*
G03X-82827Y-16970I0J00047D01*
G74*
G01*
X-82827Y-16435D01*
G37*
G36*
G01X-83024Y-16435D02*
G75*
G03X-83071Y-16388I-00047J0D01*
G74*
G01*
G75*
G03X-83118Y-16435I0J-00047D01*
G74*
G01*
X-83118Y-16970D01*
G75*
G03X-83071Y-17018I00047J0D01*
G74*
G01*
G75*
G03X-83024Y-16970I0J00047D01*
G74*
G01*
X-83024Y-16435D01*
G37*
G36*
G01X-83220Y-16435D02*
G75*
G03X-83268Y-16388I-00047J0D01*
G74*
G01*
G75*
G03X-83315Y-16435I0J-00047D01*
G74*
G01*
X-83315Y-16970D01*
G75*
G03X-83268Y-17018I00047J0D01*
G74*
G01*
G75*
G03X-83220Y-16970I0J00047D01*
G74*
G01*
X-83220Y-16435D01*
G37*
G36*
G01X-83417Y-16435D02*
G75*
G03X-83465Y-16388I-00047J0D01*
G74*
G01*
G75*
G03X-83512Y-16435I0J-00047D01*
G74*
G01*
X-83512Y-16970D01*
G75*
G03X-83465Y-17018I00047J0D01*
G74*
G01*
G75*
G03X-83417Y-16970I0J00047D01*
G74*
G01*
X-83417Y-16435D01*
G37*
G36*
G01X-83614Y-16435D02*
G75*
G03X-83661Y-16388I-00047J0D01*
G74*
G01*
G75*
G03X-83709Y-16435I0J-00047D01*
G74*
G01*
X-83709Y-16970D01*
G75*
G03X-83661Y-17018I00047J0D01*
G74*
G01*
G75*
G03X-83614Y-16970I0J00047D01*
G74*
G01*
X-83614Y-16435D01*
G37*
G36*
G01X-83811Y-16435D02*
G75*
G03X-83858Y-16388I-00047J0D01*
G74*
G01*
G75*
G03X-83906Y-16435I0J-00047D01*
G74*
G01*
X-83906Y-16970D01*
G75*
G03X-83858Y-17018I00047J0D01*
G74*
G01*
G75*
G03X-83811Y-16970I0J00047D01*
G74*
G01*
X-83811Y-16435D01*
G37*
G36*
G01X-84008Y-16435D02*
G75*
G03X-84055Y-16388I-00047J0D01*
G74*
G01*
G75*
G03X-84102Y-16435I0J-00047D01*
G74*
G01*
X-84102Y-16970D01*
G75*
G03X-84055Y-17018I00047J0D01*
G74*
G01*
G75*
G03X-84008Y-16970I0J00047D01*
G74*
G01*
X-84008Y-16435D01*
G37*
G36*
G01X-84205Y-16435D02*
G75*
G03X-84252Y-16388I-00047J0D01*
G74*
G01*
G75*
G03X-84299Y-16435I0J-00047D01*
G74*
G01*
X-84299Y-16970D01*
G75*
G03X-84252Y-17018I00047J0D01*
G74*
G01*
G75*
G03X-84205Y-16970I0J00047D01*
G74*
G01*
X-84205Y-16435D01*
G37*
G36*
G01X-84402Y-16435D02*
G75*
G03X-84449Y-16388I-00047J0D01*
G74*
G01*
G75*
G03X-84496Y-16435I0J-00047D01*
G74*
G01*
X-84496Y-16970D01*
G75*
G03X-84449Y-17018I00047J0D01*
G74*
G01*
G75*
G03X-84402Y-16970I0J00047D01*
G74*
G01*
X-84402Y-16435D01*
G37*
G36*
G01X-84598Y-16435D02*
G75*
G03X-84646Y-16388I-00047J0D01*
G74*
G01*
G75*
G03X-84693Y-16435I0J-00047D01*
G74*
G01*
X-84693Y-16970D01*
G75*
G03X-84646Y-17018I00047J0D01*
G74*
G01*
G75*
G03X-84598Y-16970I0J00047D01*
G74*
G01*
X-84598Y-16435D01*
G37*
G36*
G01X-84795Y-16435D02*
G75*
G03X-84843Y-16388I-00047J0D01*
G74*
G01*
G75*
G03X-84890Y-16435I0J-00047D01*
G74*
G01*
X-84890Y-16970D01*
G75*
G03X-84843Y-17018I00047J0D01*
G74*
G01*
G75*
G03X-84795Y-16970I0J00047D01*
G74*
G01*
X-84795Y-16435D01*
G37*
G36*
G01X-84992Y-16435D02*
G75*
G03X-85039Y-16388I-00047J0D01*
G74*
G01*
G75*
G03X-85087Y-16435I0J-00047D01*
G74*
G01*
X-85087Y-16970D01*
G75*
G03X-85039Y-17018I00047J0D01*
G74*
G01*
G75*
G03X-84992Y-16970I0J00047D01*
G74*
G01*
X-84992Y-16435D01*
G37*
G54D10*
X-83071Y62598D02*
X-121850Y62598D01*
X-122638Y62598D02*
X-161417Y62598D01*
G75*
G03X-165354Y58661I0J-03937D01*
G74*
G01*
X-165354Y0D01*
X0Y0D02*
X0Y58661D01*
G75*
G03X-03937Y62598I-03937J0D01*
G74*
G01*
X-42717Y62598D01*
X-43504Y62598D02*
X-82283Y62598D01*
X-82283Y-63386D02*
X-43504Y-63386D01*
X-42717Y-63386D02*
X-03937Y-63386D01*
G75*
G03X0Y-59449I0J03937D01*
G74*
G01*
X0Y-00787D01*
X-165354Y-00787D02*
X-165354Y-59449D01*
G75*
G03X-161417Y-63386I03937J0D01*
G74*
G01*
X-122638Y-63386D01*
X-121850Y-63386D02*
X-83071Y-63386D01*
G54D11*
X-156941Y-44267D02*
X-156941Y-46039D01*
X-156941Y-44267D02*
X-156267Y-46039D01*
X-155592Y-44267D02*
X-156267Y-46039D01*
X-155592Y-44267D02*
X-155592Y-46039D01*
X-154579Y-44267D02*
X-154748Y-44351D01*
X-154917Y-44520D01*
X-155001Y-44689D01*
X-155085Y-44942D01*
X-155085Y-45364D01*
X-155001Y-45617D01*
X-154917Y-45786D01*
X-154748Y-45954D01*
X-154579Y-46039D01*
X-154242Y-46039D01*
X-154073Y-45954D01*
X-153904Y-45786D01*
X-153820Y-45617D01*
X-153736Y-45364D01*
X-153736Y-44942D01*
X-153820Y-44689D01*
X-153904Y-44520D01*
X-154073Y-44351D01*
X-154242Y-44267D01*
X-154579Y-44267D01*
X-153229Y-44267D02*
X-153229Y-46039D01*
X-153229Y-44267D02*
X-152639Y-44267D01*
X-152386Y-44351D01*
X-152217Y-44520D01*
X-152133Y-44689D01*
X-152048Y-44942D01*
X-152048Y-45364D01*
X-152133Y-45617D01*
X-152217Y-45786D01*
X-152386Y-45954D01*
X-152639Y-46039D01*
X-153229Y-46039D01*
X-151542Y-44267D02*
X-151542Y-46039D01*
X-151542Y-44267D02*
X-150445Y-44267D01*
X-151542Y-45111D02*
X-150867Y-45111D01*
X-151542Y-46039D02*
X-150445Y-46039D01*
X-149939Y-44267D02*
X-149939Y-46039D01*
X-149939Y-46039D02*
X-148927Y-46039D01*
X-148336Y-44858D02*
X-148421Y-44942D01*
X-148336Y-45026D01*
X-148252Y-44942D01*
X-148336Y-44858D01*
X-148336Y-45870D02*
X-148421Y-45954D01*
X-148336Y-46039D01*
X-148252Y-45954D01*
X-148336Y-45870D01*
X-147071Y-44267D02*
X-147746Y-46039D01*
X-147071Y-44267D02*
X-146396Y-46039D01*
X-147493Y-45448D02*
X-146649Y-45448D01*
X-144877Y-44267D02*
X-144877Y-46039D01*
X-144877Y-45111D02*
X-145046Y-44942D01*
X-145215Y-44858D01*
X-145468Y-44858D01*
X-145637Y-44942D01*
X-145805Y-45111D01*
X-145890Y-45364D01*
X-145890Y-45532D01*
X-145805Y-45786D01*
X-145637Y-45954D01*
X-145468Y-46039D01*
X-145215Y-46039D01*
X-145046Y-45954D01*
X-144877Y-45786D01*
X-144371Y-44858D02*
X-144371Y-46039D01*
X-144371Y-45195D02*
X-144118Y-44942D01*
X-143949Y-44858D01*
X-143696Y-44858D01*
X-143528Y-44942D01*
X-143443Y-45195D01*
X-143443Y-46039D01*
X-143443Y-45195D02*
X-143190Y-44942D01*
X-143021Y-44858D01*
X-142768Y-44858D01*
X-142600Y-44942D01*
X-142515Y-45195D01*
X-142515Y-46039D01*
X-142009Y-44267D02*
X-141925Y-44351D01*
X-141840Y-44267D01*
X-141925Y-44183D01*
X-142009Y-44267D01*
X-141925Y-44858D02*
X-141925Y-46039D01*
X-141334Y-44858D02*
X-141334Y-46039D01*
X-141334Y-45364D02*
X-141250Y-45111D01*
X-141081Y-44942D01*
X-140912Y-44858D01*
X-140659Y-44858D01*
X-139141Y-44858D02*
X-139141Y-46039D01*
X-139141Y-45111D02*
X-139309Y-44942D01*
X-139478Y-44858D01*
X-139731Y-44858D01*
X-139900Y-44942D01*
X-140069Y-45111D01*
X-140153Y-45364D01*
X-140153Y-45532D01*
X-140069Y-45786D01*
X-139900Y-45954D01*
X-139731Y-46039D01*
X-139478Y-46039D01*
X-139309Y-45954D01*
X-139141Y-45786D01*
X-138634Y-44267D02*
X-138634Y-46039D01*
X-138128Y-44267D02*
X-138128Y-46039D01*
X-138128Y-44267D02*
X-137453Y-46039D01*
X-136778Y-44267D02*
X-137453Y-46039D01*
X-136778Y-44267D02*
X-136778Y-46039D01*
X-135260Y-45111D02*
X-135429Y-44942D01*
X-135597Y-44858D01*
X-135850Y-44858D01*
X-136019Y-44942D01*
X-136188Y-45111D01*
X-136272Y-45364D01*
X-136272Y-45532D01*
X-136188Y-45786D01*
X-136019Y-45954D01*
X-135850Y-46039D01*
X-135597Y-46039D01*
X-135429Y-45954D01*
X-135260Y-45786D01*
X-133826Y-45111D02*
X-133910Y-44942D01*
X-134163Y-44858D01*
X-134416Y-44858D01*
X-134669Y-44942D01*
X-134754Y-45111D01*
X-134669Y-45279D01*
X-134501Y-45364D01*
X-134079Y-45448D01*
X-133910Y-45532D01*
X-133826Y-45701D01*
X-133826Y-45786D01*
X-133910Y-45954D01*
X-134163Y-46039D01*
X-134416Y-46039D01*
X-134669Y-45954D01*
X-134754Y-45786D01*
X-132307Y-44858D02*
X-132307Y-46039D01*
X-132307Y-45111D02*
X-132476Y-44942D01*
X-132645Y-44858D01*
X-132898Y-44858D01*
X-133066Y-44942D01*
X-133235Y-45111D01*
X-133319Y-45364D01*
X-133319Y-45532D01*
X-133235Y-45786D01*
X-133066Y-45954D01*
X-132898Y-46039D01*
X-132645Y-46039D01*
X-132476Y-45954D01*
X-132307Y-45786D01*
X-130873Y-45111D02*
X-130957Y-44942D01*
X-131210Y-44858D01*
X-131463Y-44858D01*
X-131716Y-44942D01*
X-131801Y-45111D01*
X-131716Y-45279D01*
X-131548Y-45364D01*
X-131126Y-45448D01*
X-130957Y-45532D01*
X-130873Y-45701D01*
X-130873Y-45786D01*
X-130957Y-45954D01*
X-131210Y-46039D01*
X-131463Y-46039D01*
X-131716Y-45954D01*
X-131801Y-45786D01*
X-129439Y-45111D02*
X-129523Y-44942D01*
X-129776Y-44858D01*
X-130029Y-44858D01*
X-130282Y-44942D01*
X-130367Y-45111D01*
X-130282Y-45279D01*
X-130114Y-45364D01*
X-129692Y-45448D01*
X-129523Y-45532D01*
X-129439Y-45701D01*
X-129439Y-45786D01*
X-129523Y-45954D01*
X-129776Y-46039D01*
X-130029Y-46039D01*
X-130282Y-45954D01*
X-130367Y-45786D01*
X-128848Y-44858D02*
X-128342Y-46039D01*
X-127836Y-44858D02*
X-128342Y-46039D01*
X-128511Y-46376D01*
X-128679Y-46545D01*
X-128848Y-46629D01*
X-128932Y-46629D01*
X-126064Y-44689D02*
X-126148Y-44520D01*
X-126317Y-44351D01*
X-126486Y-44267D01*
X-126823Y-44267D01*
X-126992Y-44351D01*
X-127161Y-44520D01*
X-127245Y-44689D01*
X-127330Y-44942D01*
X-127330Y-45364D01*
X-127245Y-45617D01*
X-127161Y-45786D01*
X-126992Y-45954D01*
X-126823Y-46039D01*
X-126486Y-46039D01*
X-126317Y-45954D01*
X-126148Y-45786D01*
X-126064Y-45617D01*
X-126064Y-45364D01*
X-126486Y-45364D02*
X-126064Y-45364D01*
X-125558Y-45364D02*
X-124546Y-45364D01*
X-124546Y-45195D01*
X-124630Y-45026D01*
X-124714Y-44942D01*
X-124883Y-44858D01*
X-125136Y-44858D01*
X-125305Y-44942D01*
X-125474Y-45111D01*
X-125558Y-45364D01*
X-125558Y-45532D01*
X-125474Y-45786D01*
X-125305Y-45954D01*
X-125136Y-46039D01*
X-124883Y-46039D01*
X-124714Y-45954D01*
X-124546Y-45786D01*
X-124039Y-44858D02*
X-124039Y-46039D01*
X-124039Y-45364D02*
X-123955Y-45111D01*
X-123786Y-44942D01*
X-123617Y-44858D01*
X-123364Y-44858D01*
X-122858Y-44267D02*
X-122858Y-46039D01*
X-122858Y-45111D02*
X-122689Y-44942D01*
X-122521Y-44858D01*
X-122268Y-44858D01*
X-122099Y-44942D01*
X-121930Y-45111D01*
X-121846Y-45364D01*
X-121846Y-45532D01*
X-121930Y-45786D01*
X-122099Y-45954D01*
X-122268Y-46039D01*
X-122521Y-46039D01*
X-122689Y-45954D01*
X-122858Y-45786D01*
X-121340Y-45364D02*
X-120327Y-45364D01*
X-120327Y-45195D01*
X-120412Y-45026D01*
X-120496Y-44942D01*
X-120665Y-44858D01*
X-120918Y-44858D01*
X-121087Y-44942D01*
X-121255Y-45111D01*
X-121340Y-45364D01*
X-121340Y-45532D01*
X-121255Y-45786D01*
X-121087Y-45954D01*
X-120918Y-46039D01*
X-120665Y-46039D01*
X-120496Y-45954D01*
X-120327Y-45786D01*
X-119821Y-44858D02*
X-119821Y-46039D01*
X-119821Y-45364D02*
X-119737Y-45111D01*
X-119568Y-44942D01*
X-119399Y-44858D01*
X-119146Y-44858D01*
X-118640Y-44267D02*
X-118640Y-46039D01*
X-118640Y-44267D02*
X-117543Y-44267D01*
X-118640Y-45111D02*
X-117965Y-45111D01*
X-117037Y-44267D02*
X-116953Y-44351D01*
X-116868Y-44267D01*
X-116953Y-44183D01*
X-117037Y-44267D01*
X-116953Y-44858D02*
X-116953Y-46039D01*
X-116362Y-44267D02*
X-116362Y-46039D01*
X-115856Y-45364D02*
X-114844Y-45364D01*
X-114844Y-45195D01*
X-114928Y-45026D01*
X-115012Y-44942D01*
X-115181Y-44858D01*
X-115434Y-44858D01*
X-115603Y-44942D01*
X-115772Y-45111D01*
X-115856Y-45364D01*
X-115856Y-45532D01*
X-115772Y-45786D01*
X-115603Y-45954D01*
X-115434Y-46039D01*
X-115181Y-46039D01*
X-115012Y-45954D01*
X-114844Y-45786D01*
X-113409Y-45111D02*
X-113494Y-44942D01*
X-113747Y-44858D01*
X-114000Y-44858D01*
X-114253Y-44942D01*
X-114337Y-45111D01*
X-114253Y-45279D01*
X-114084Y-45364D01*
X-113663Y-45448D01*
X-113494Y-45532D01*
X-113409Y-45701D01*
X-113409Y-45786D01*
X-113494Y-45954D01*
X-113747Y-46039D01*
X-114000Y-46039D01*
X-114253Y-45954D01*
X-114337Y-45786D01*
X-112903Y-46629D02*
X-111385Y-46629D01*
X-110878Y-44267D02*
X-110204Y-45111D01*
X-110204Y-46039D01*
X-109529Y-44267D02*
X-110204Y-45111D01*
X-108938Y-44689D02*
X-108938Y-44604D01*
X-108854Y-44436D01*
X-108769Y-44351D01*
X-108601Y-44267D01*
X-108263Y-44267D01*
X-108094Y-44351D01*
X-108010Y-44436D01*
X-107926Y-44604D01*
X-107926Y-44773D01*
X-108010Y-44942D01*
X-108179Y-45195D01*
X-109022Y-46039D01*
X-107841Y-46039D01*
X-155760Y-47051D02*
X-155929Y-46882D01*
X-156182Y-46798D01*
X-156520Y-46798D01*
X-156773Y-46882D01*
X-156941Y-47051D01*
X-156941Y-47220D01*
X-156857Y-47388D01*
X-156773Y-47473D01*
X-156604Y-47557D01*
X-156098Y-47726D01*
X-155929Y-47810D01*
X-155845Y-47895D01*
X-155760Y-48063D01*
X-155760Y-48316D01*
X-155929Y-48485D01*
X-156182Y-48570D01*
X-156520Y-48570D01*
X-156773Y-48485D01*
X-156941Y-48316D01*
X-155254Y-46798D02*
X-155254Y-48570D01*
X-153567Y-46798D02*
X-154748Y-48570D01*
X-154748Y-46798D02*
X-153567Y-46798D01*
X-154748Y-48570D02*
X-153567Y-48570D01*
X-153061Y-46798D02*
X-153061Y-48570D01*
X-153061Y-46798D02*
X-151964Y-46798D01*
X-153061Y-47642D02*
X-152386Y-47642D01*
X-153061Y-48570D02*
X-151964Y-48570D01*
X-151373Y-47388D02*
X-151458Y-47473D01*
X-151373Y-47557D01*
X-151289Y-47473D01*
X-151373Y-47388D01*
X-151373Y-48401D02*
X-151458Y-48485D01*
X-151373Y-48570D01*
X-151289Y-48485D01*
X-151373Y-48401D01*
X-148927Y-46798D02*
X-147999Y-46798D01*
X-148505Y-47473D01*
X-148252Y-47473D01*
X-148083Y-47557D01*
X-147999Y-47642D01*
X-147914Y-47895D01*
X-147914Y-48063D01*
X-147999Y-48316D01*
X-148168Y-48485D01*
X-148421Y-48570D01*
X-148674Y-48570D01*
X-148927Y-48485D01*
X-149011Y-48401D01*
X-149096Y-48232D01*
X-147324Y-47220D02*
X-147324Y-47135D01*
X-147240Y-46967D01*
X-147155Y-46882D01*
X-146986Y-46798D01*
X-146649Y-46798D01*
X-146480Y-46882D01*
X-146396Y-46967D01*
X-146312Y-47135D01*
X-146312Y-47304D01*
X-146396Y-47473D01*
X-146565Y-47726D01*
X-147408Y-48570D01*
X-146227Y-48570D01*
X-145637Y-48401D02*
X-145721Y-48485D01*
X-145637Y-48570D01*
X-145552Y-48485D01*
X-145637Y-48401D01*
X-144540Y-46798D02*
X-144793Y-46882D01*
X-144962Y-47135D01*
X-145046Y-47557D01*
X-145046Y-47810D01*
X-144962Y-48232D01*
X-144793Y-48485D01*
X-144540Y-48570D01*
X-144371Y-48570D01*
X-144118Y-48485D01*
X-143949Y-48232D01*
X-143865Y-47810D01*
X-143865Y-47557D01*
X-143949Y-47135D01*
X-144118Y-46882D01*
X-144371Y-46798D01*
X-144540Y-46798D01*
X-141671Y-47388D02*
X-140743Y-48570D01*
X-140743Y-47388D02*
X-141671Y-48570D01*
X-137706Y-46798D02*
X-138550Y-47979D01*
X-137285Y-47979D01*
X-137706Y-46798D02*
X-137706Y-48570D01*
X-136694Y-47220D02*
X-136694Y-47135D01*
X-136610Y-46967D01*
X-136525Y-46882D01*
X-136357Y-46798D01*
X-136019Y-46798D01*
X-135850Y-46882D01*
X-135766Y-46967D01*
X-135682Y-47135D01*
X-135682Y-47304D01*
X-135766Y-47473D01*
X-135935Y-47726D01*
X-136778Y-48570D01*
X-135597Y-48570D01*
X-135007Y-48401D02*
X-135091Y-48485D01*
X-135007Y-48570D01*
X-134922Y-48485D01*
X-135007Y-48401D01*
X-133910Y-46798D02*
X-134163Y-46882D01*
X-134332Y-47135D01*
X-134416Y-47557D01*
X-134416Y-47810D01*
X-134332Y-48232D01*
X-134163Y-48485D01*
X-133910Y-48570D01*
X-133741Y-48570D01*
X-133488Y-48485D01*
X-133319Y-48232D01*
X-133235Y-47810D01*
X-133235Y-47557D01*
X-133319Y-47135D01*
X-133488Y-46882D01*
X-133741Y-46798D01*
X-133910Y-46798D01*
X-129776Y-47220D02*
X-129860Y-47051D01*
X-130029Y-46882D01*
X-130198Y-46798D01*
X-130535Y-46798D01*
X-130704Y-46882D01*
X-130873Y-47051D01*
X-130957Y-47220D01*
X-131042Y-47473D01*
X-131042Y-47895D01*
X-130957Y-48148D01*
X-130873Y-48316D01*
X-130704Y-48485D01*
X-130535Y-48570D01*
X-130198Y-48570D01*
X-130029Y-48485D01*
X-129860Y-48316D01*
X-129776Y-48148D01*
X-129270Y-46798D02*
X-129270Y-48570D01*
X-129270Y-46798D02*
X-128595Y-48570D01*
X-127920Y-46798D02*
X-128595Y-48570D01*
X-127920Y-46798D02*
X-127920Y-48570D01*
X-125136Y-46798D02*
X-125136Y-48570D01*
X-125727Y-46798D02*
X-124546Y-46798D01*
X-122352Y-47557D02*
X-120833Y-47557D01*
X-122352Y-48063D02*
X-120833Y-48063D01*
X-118134Y-46798D02*
X-118387Y-46882D01*
X-118556Y-47135D01*
X-118640Y-47557D01*
X-118640Y-47810D01*
X-118556Y-48232D01*
X-118387Y-48485D01*
X-118134Y-48570D01*
X-117965Y-48570D01*
X-117712Y-48485D01*
X-117543Y-48232D01*
X-117459Y-47810D01*
X-117459Y-47557D01*
X-117543Y-47135D01*
X-117712Y-46882D01*
X-117965Y-46798D01*
X-118134Y-46798D01*
X-116868Y-48401D02*
X-116953Y-48485D01*
X-116868Y-48570D01*
X-116784Y-48485D01*
X-116868Y-48401D01*
X-116278Y-47135D02*
X-116109Y-47051D01*
X-115856Y-46798D01*
X-115856Y-48570D01*
X-115265Y-47220D02*
X-115265Y-47135D01*
X-115181Y-46967D01*
X-115097Y-46882D01*
X-114928Y-46798D01*
X-114591Y-46798D01*
X-114422Y-46882D01*
X-114337Y-46967D01*
X-114253Y-47135D01*
X-114253Y-47304D01*
X-114337Y-47473D01*
X-114506Y-47726D01*
X-115350Y-48570D01*
X-114169Y-48570D01*
X-111975Y-46798D02*
X-111975Y-48570D01*
X-111975Y-46798D02*
X-111300Y-48570D01*
X-110625Y-46798D02*
X-111300Y-48570D01*
X-110625Y-46798D02*
X-110625Y-48570D01*
X-110119Y-46798D02*
X-110119Y-48570D01*
X-110119Y-46798D02*
X-109444Y-48570D01*
X-108769Y-46798D02*
X-109444Y-48570D01*
X-108769Y-46798D02*
X-108769Y-48570D01*
X-156941Y-49329D02*
X-156941Y-51101D01*
X-156941Y-49329D02*
X-156351Y-49329D01*
X-156098Y-49413D01*
X-155929Y-49582D01*
X-155845Y-49751D01*
X-155760Y-50004D01*
X-155760Y-50426D01*
X-155845Y-50679D01*
X-155929Y-50847D01*
X-156098Y-51016D01*
X-156351Y-51101D01*
X-156941Y-51101D01*
X-154579Y-49329D02*
X-155254Y-51101D01*
X-154579Y-49329D02*
X-153904Y-51101D01*
X-155001Y-50510D02*
X-154157Y-50510D01*
X-152808Y-49329D02*
X-152808Y-51101D01*
X-153398Y-49329D02*
X-152217Y-49329D01*
X-151711Y-49329D02*
X-151711Y-51101D01*
X-151711Y-49329D02*
X-150614Y-49329D01*
X-151711Y-50172D02*
X-151036Y-50172D01*
X-151711Y-51101D02*
X-150614Y-51101D01*
X-150024Y-49919D02*
X-150108Y-50004D01*
X-150024Y-50088D01*
X-149939Y-50004D01*
X-150024Y-49919D01*
X-150024Y-50932D02*
X-150108Y-51016D01*
X-150024Y-51101D01*
X-149939Y-51016D01*
X-150024Y-50932D01*
X-149349Y-49751D02*
X-149349Y-49666D01*
X-149264Y-49498D01*
X-149180Y-49413D01*
X-149011Y-49329D01*
X-148674Y-49329D01*
X-148505Y-49413D01*
X-148421Y-49498D01*
X-148336Y-49666D01*
X-148336Y-49835D01*
X-148421Y-50004D01*
X-148589Y-50257D01*
X-149433Y-51101D01*
X-148252Y-51101D01*
X-147240Y-49329D02*
X-147493Y-49413D01*
X-147661Y-49666D01*
X-147746Y-50088D01*
X-147746Y-50341D01*
X-147661Y-50763D01*
X-147493Y-51016D01*
X-147240Y-51101D01*
X-147071Y-51101D01*
X-146818Y-51016D01*
X-146649Y-50763D01*
X-146565Y-50341D01*
X-146565Y-50088D01*
X-146649Y-49666D01*
X-146818Y-49413D01*
X-147071Y-49329D01*
X-147240Y-49329D01*
X-145974Y-49751D02*
X-145974Y-49666D01*
X-145890Y-49498D01*
X-145805Y-49413D01*
X-145637Y-49329D01*
X-145299Y-49329D01*
X-145130Y-49413D01*
X-145046Y-49498D01*
X-144962Y-49666D01*
X-144962Y-49835D01*
X-145046Y-50004D01*
X-145215Y-50257D01*
X-146058Y-51101D01*
X-144877Y-51101D01*
X-144371Y-49666D02*
X-144202Y-49582D01*
X-143949Y-49329D01*
X-143949Y-51101D01*
X-143443Y-50341D02*
X-141925Y-50341D01*
X-140912Y-49329D02*
X-141165Y-49413D01*
X-141334Y-49666D01*
X-141418Y-50088D01*
X-141418Y-50341D01*
X-141334Y-50763D01*
X-141165Y-51016D01*
X-140912Y-51101D01*
X-140743Y-51101D01*
X-140490Y-51016D01*
X-140322Y-50763D01*
X-140237Y-50341D01*
X-140237Y-50088D01*
X-140322Y-49666D01*
X-140490Y-49413D01*
X-140743Y-49329D01*
X-140912Y-49329D01*
X-139562Y-49329D02*
X-138634Y-49329D01*
X-139141Y-50004D01*
X-138887Y-50004D01*
X-138719Y-50088D01*
X-138634Y-50172D01*
X-138550Y-50426D01*
X-138550Y-50594D01*
X-138634Y-50847D01*
X-138803Y-51016D01*
X-139056Y-51101D01*
X-139309Y-51101D01*
X-139562Y-51016D01*
X-139647Y-50932D01*
X-139731Y-50763D01*
X-138044Y-50341D02*
X-136525Y-50341D01*
X-135935Y-49751D02*
X-135935Y-49666D01*
X-135850Y-49498D01*
X-135766Y-49413D01*
X-135597Y-49329D01*
X-135260Y-49329D01*
X-135091Y-49413D01*
X-135007Y-49498D01*
X-134922Y-49666D01*
X-134922Y-49835D01*
X-135007Y-50004D01*
X-135175Y-50257D01*
X-136019Y-51101D01*
X-134838Y-51101D01*
X-133151Y-49329D02*
X-133994Y-51101D01*
X-134332Y-49329D02*
X-133151Y-49329D01*
X-130873Y-49751D02*
X-130873Y-49666D01*
X-130788Y-49498D01*
X-130704Y-49413D01*
X-130535Y-49329D01*
X-130198Y-49329D01*
X-130029Y-49413D01*
X-129945Y-49498D01*
X-129860Y-49666D01*
X-129860Y-49835D01*
X-129945Y-50004D01*
X-130114Y-50257D01*
X-130957Y-51101D01*
X-129776Y-51101D01*
X-129186Y-49751D02*
X-129186Y-49666D01*
X-129101Y-49498D01*
X-129017Y-49413D01*
X-128848Y-49329D01*
X-128511Y-49329D01*
X-128342Y-49413D01*
X-128258Y-49498D01*
X-128173Y-49666D01*
X-128173Y-49835D01*
X-128258Y-50004D01*
X-128426Y-50257D01*
X-129270Y-51101D01*
X-128089Y-51101D01*
X-127498Y-49919D02*
X-127583Y-50004D01*
X-127498Y-50088D01*
X-127414Y-50004D01*
X-127498Y-49919D01*
X-127498Y-50932D02*
X-127583Y-51016D01*
X-127498Y-51101D01*
X-127414Y-51016D01*
X-127498Y-50932D01*
X-126402Y-49329D02*
X-126655Y-49413D01*
X-126823Y-49666D01*
X-126908Y-50088D01*
X-126908Y-50341D01*
X-126823Y-50763D01*
X-126655Y-51016D01*
X-126402Y-51101D01*
X-126233Y-51101D01*
X-125980Y-51016D01*
X-125811Y-50763D01*
X-125727Y-50341D01*
X-125727Y-50088D01*
X-125811Y-49666D01*
X-125980Y-49413D01*
X-126233Y-49329D01*
X-126402Y-49329D01*
X-124714Y-49329D02*
X-124967Y-49413D01*
X-125136Y-49666D01*
X-125220Y-50088D01*
X-125220Y-50341D01*
X-125136Y-50763D01*
X-124967Y-51016D01*
X-124714Y-51101D01*
X-124546Y-51101D01*
X-124292Y-51016D01*
X-124124Y-50763D01*
X-124039Y-50341D01*
X-124039Y-50088D01*
X-124124Y-49666D01*
X-124292Y-49413D01*
X-124546Y-49329D01*
X-124714Y-49329D01*
X-156941Y-51860D02*
X-156941Y-53631D01*
X-156941Y-51860D02*
X-155760Y-53631D01*
X-155760Y-51860D02*
X-155760Y-53631D01*
X-154748Y-51860D02*
X-154917Y-51944D01*
X-155085Y-52113D01*
X-155170Y-52282D01*
X-155254Y-52535D01*
X-155254Y-52957D01*
X-155170Y-53210D01*
X-155085Y-53378D01*
X-154917Y-53547D01*
X-154748Y-53631D01*
X-154411Y-53631D01*
X-154242Y-53547D01*
X-154073Y-53378D01*
X-153989Y-53210D01*
X-153904Y-52957D01*
X-153904Y-52535D01*
X-153989Y-52282D01*
X-154073Y-52113D01*
X-154242Y-51944D01*
X-154411Y-51860D01*
X-154748Y-51860D01*
X-153314Y-52450D02*
X-153398Y-52535D01*
X-153314Y-52619D01*
X-153229Y-52535D01*
X-153314Y-52450D01*
X-153314Y-53463D02*
X-153398Y-53547D01*
X-153314Y-53631D01*
X-153229Y-53547D01*
X-153314Y-53463D01*
X-151542Y-52113D02*
X-151711Y-51944D01*
X-151964Y-51860D01*
X-152301Y-51860D01*
X-152555Y-51944D01*
X-152723Y-52113D01*
X-152723Y-52282D01*
X-152639Y-52450D01*
X-152555Y-52535D01*
X-152386Y-52619D01*
X-151880Y-52788D01*
X-151711Y-52872D01*
X-151626Y-52957D01*
X-151542Y-53125D01*
X-151542Y-53378D01*
X-151711Y-53547D01*
X-151964Y-53631D01*
X-152301Y-53631D01*
X-152555Y-53547D01*
X-152723Y-53378D01*
X-150530Y-51860D02*
X-150698Y-51944D01*
X-150867Y-52113D01*
X-150952Y-52282D01*
X-151036Y-52535D01*
X-151036Y-52957D01*
X-150952Y-53210D01*
X-150867Y-53378D01*
X-150698Y-53547D01*
X-150530Y-53631D01*
X-150192Y-53631D01*
X-150024Y-53547D01*
X-149855Y-53378D01*
X-149770Y-53210D01*
X-149686Y-52957D01*
X-149686Y-52535D01*
X-149770Y-52282D01*
X-149855Y-52113D01*
X-150024Y-51944D01*
X-150192Y-51860D01*
X-150530Y-51860D01*
X-149096Y-52282D02*
X-149096Y-52197D01*
X-149011Y-52029D01*
X-148927Y-51944D01*
X-148758Y-51860D01*
X-148421Y-51860D01*
X-148252Y-51944D01*
X-148168Y-52029D01*
X-148083Y-52197D01*
X-148083Y-52366D01*
X-148168Y-52535D01*
X-148336Y-52788D01*
X-149180Y-53631D01*
X-147999Y-53631D01*
X-147493Y-52197D02*
X-147324Y-52113D01*
X-147071Y-51860D01*
X-147071Y-53631D01*
X-146058Y-51860D02*
X-146312Y-51944D01*
X-146480Y-52197D01*
X-146565Y-52619D01*
X-146565Y-52872D01*
X-146480Y-53294D01*
X-146312Y-53547D01*
X-146058Y-53631D01*
X-145890Y-53631D01*
X-145637Y-53547D01*
X-145468Y-53294D01*
X-145384Y-52872D01*
X-145384Y-52619D01*
X-145468Y-52197D01*
X-145637Y-51944D01*
X-145890Y-51860D01*
X-146058Y-51860D01*
X-144709Y-51860D02*
X-143781Y-51860D01*
X-144287Y-52535D01*
X-144034Y-52535D01*
X-143865Y-52619D01*
X-143781Y-52703D01*
X-143696Y-52957D01*
X-143696Y-53125D01*
X-143781Y-53378D01*
X-143949Y-53547D01*
X-144202Y-53631D01*
X-144456Y-53631D01*
X-144709Y-53547D01*
X-144793Y-53463D01*
X-144877Y-53294D01*
X-143106Y-52282D02*
X-143106Y-52197D01*
X-143021Y-52029D01*
X-142937Y-51944D01*
X-142768Y-51860D01*
X-142431Y-51860D01*
X-142262Y-51944D01*
X-142178Y-52029D01*
X-142093Y-52197D01*
X-142093Y-52366D01*
X-142178Y-52535D01*
X-142346Y-52788D01*
X-143190Y-53631D01*
X-142009Y-53631D01*
X-140659Y-51860D02*
X-141503Y-53041D01*
X-140237Y-53041D01*
X-140659Y-51860D02*
X-140659Y-53631D01*
X-138719Y-52113D02*
X-138803Y-51944D01*
X-139056Y-51860D01*
X-139225Y-51860D01*
X-139478Y-51944D01*
X-139647Y-52197D01*
X-139731Y-52619D01*
X-139731Y-53041D01*
X-139647Y-53378D01*
X-139478Y-53547D01*
X-139225Y-53631D01*
X-139141Y-53631D01*
X-138887Y-53547D01*
X-138719Y-53378D01*
X-138634Y-53125D01*
X-138634Y-53041D01*
X-138719Y-52788D01*
X-138887Y-52619D01*
X-139141Y-52535D01*
X-139225Y-52535D01*
X-139478Y-52619D01*
X-139647Y-52788D01*
X-139731Y-53041D01*
X-137959Y-51860D02*
X-137031Y-51860D01*
X-137538Y-52535D01*
X-137285Y-52535D01*
X-137116Y-52619D01*
X-137031Y-52703D01*
X-136947Y-52957D01*
X-136947Y-53125D01*
X-137031Y-53378D01*
X-137200Y-53547D01*
X-137453Y-53631D01*
X-137706Y-53631D01*
X-137959Y-53547D01*
X-138044Y-53463D01*
X-138128Y-53294D01*
X-135344Y-52450D02*
X-135429Y-52703D01*
X-135597Y-52872D01*
X-135850Y-52957D01*
X-135935Y-52957D01*
X-136188Y-52872D01*
X-136357Y-52703D01*
X-136441Y-52450D01*
X-136441Y-52366D01*
X-136357Y-52113D01*
X-136188Y-51944D01*
X-135935Y-51860D01*
X-135850Y-51860D01*
X-135597Y-51944D01*
X-135429Y-52113D01*
X-135344Y-52450D01*
X-135344Y-52872D01*
X-135429Y-53294D01*
X-135597Y-53547D01*
X-135850Y-53631D01*
X-136019Y-53631D01*
X-136272Y-53547D01*
X-136357Y-53378D01*
X-134754Y-52282D02*
X-134754Y-52197D01*
X-134669Y-52029D01*
X-134585Y-51944D01*
X-134416Y-51860D01*
X-134079Y-51860D01*
X-133910Y-51944D01*
X-133826Y-52029D01*
X-133741Y-52197D01*
X-133741Y-52366D01*
X-133826Y-52535D01*
X-133994Y-52788D01*
X-134838Y-53631D01*
X-133657Y-53631D01*
X-126233Y-51860D02*
X-125305Y-51860D01*
X-125811Y-52535D01*
X-125558Y-52535D01*
X-125389Y-52619D01*
X-125305Y-52703D01*
X-125220Y-52957D01*
X-125220Y-53125D01*
X-125305Y-53378D01*
X-125474Y-53547D01*
X-125727Y-53631D01*
X-125980Y-53631D01*
X-126233Y-53547D01*
X-126317Y-53463D01*
X-126402Y-53294D01*
X-123617Y-51860D02*
X-124461Y-51860D01*
X-124546Y-52619D01*
X-124461Y-52535D01*
X-124208Y-52450D01*
X-123955Y-52450D01*
X-123702Y-52535D01*
X-123533Y-52703D01*
X-123449Y-52957D01*
X-123449Y-53125D01*
X-123617Y-53378D01*
X-123786Y-53547D01*
X-124039Y-53631D01*
X-124292Y-53631D01*
X-124546Y-53547D01*
X-124630Y-53463D01*
X-124714Y-53294D01*
X-122436Y-51860D02*
X-122689Y-51944D01*
X-122858Y-52197D01*
X-122943Y-52619D01*
X-122943Y-52872D01*
X-122858Y-53294D01*
X-122689Y-53547D01*
X-122436Y-53631D01*
X-122268Y-53631D01*
X-122015Y-53547D01*
X-121846Y-53294D01*
X-121761Y-52872D01*
X-121761Y-52619D01*
X-121846Y-52197D01*
X-122015Y-51944D01*
X-122268Y-51860D01*
X-122436Y-51860D01*
X-120159Y-52450D02*
X-120243Y-52703D01*
X-120412Y-52872D01*
X-120665Y-52957D01*
X-120749Y-52957D01*
X-121002Y-52872D01*
X-121171Y-52703D01*
X-121255Y-52450D01*
X-121255Y-52366D01*
X-121171Y-52113D01*
X-121002Y-51944D01*
X-120749Y-51860D01*
X-120665Y-51860D01*
X-120412Y-51944D01*
X-120243Y-52113D01*
X-120159Y-52450D01*
X-120159Y-52872D01*
X-120243Y-53294D01*
X-120412Y-53547D01*
X-120665Y-53631D01*
X-120833Y-53631D01*
X-121087Y-53547D01*
X-121171Y-53378D01*
X-119568Y-52282D02*
X-119568Y-52197D01*
X-119484Y-52029D01*
X-119399Y-51944D01*
X-119231Y-51860D01*
X-118893Y-51860D01*
X-118724Y-51944D01*
X-118640Y-52029D01*
X-118556Y-52197D01*
X-118556Y-52366D01*
X-118640Y-52535D01*
X-118809Y-52788D01*
X-119652Y-53631D01*
X-118471Y-53631D01*
X-116953Y-52113D02*
X-117037Y-51944D01*
X-117290Y-51860D01*
X-117459Y-51860D01*
X-117712Y-51944D01*
X-117881Y-52197D01*
X-117965Y-52619D01*
X-117965Y-53041D01*
X-117881Y-53378D01*
X-117712Y-53547D01*
X-117459Y-53631D01*
X-117375Y-53631D01*
X-117121Y-53547D01*
X-116953Y-53378D01*
X-116868Y-53125D01*
X-116868Y-53041D01*
X-116953Y-52788D01*
X-117121Y-52619D01*
X-117375Y-52535D01*
X-117459Y-52535D01*
X-117712Y-52619D01*
X-117881Y-52788D01*
X-117965Y-53041D01*
X-115265Y-52450D02*
X-115350Y-52703D01*
X-115519Y-52872D01*
X-115772Y-52957D01*
X-115856Y-52957D01*
X-116109Y-52872D01*
X-116278Y-52703D01*
X-116362Y-52450D01*
X-116362Y-52366D01*
X-116278Y-52113D01*
X-116109Y-51944D01*
X-115856Y-51860D01*
X-115772Y-51860D01*
X-115519Y-51944D01*
X-115350Y-52113D01*
X-115265Y-52450D01*
X-115265Y-52872D01*
X-115350Y-53294D01*
X-115519Y-53547D01*
X-115772Y-53631D01*
X-115940Y-53631D01*
X-116193Y-53547D01*
X-116278Y-53378D01*
X-114084Y-51860D02*
X-114759Y-53631D01*
X-114084Y-51860D02*
X-113409Y-53631D01*
X-114506Y-53041D02*
X-113663Y-53041D01*
G36*
G01X-108400Y-51665D02*
X-108624Y-51665D01*
X-108620Y-51759D01*
X-108618Y-51853D01*
X-108618Y-51900D01*
X-108617Y-51994D01*
X-108617Y-53569D01*
X-108617Y-53625D01*
X-108618Y-53738D01*
X-108619Y-53795D01*
X-108620Y-53853D01*
X-108624Y-53969D01*
X-108400Y-53969D01*
X-108404Y-53911D01*
X-108407Y-53853D01*
X-108409Y-53795D01*
X-108411Y-53738D01*
X-108413Y-53681D01*
X-108413Y-53625D01*
X-108414Y-53569D01*
X-108414Y-51994D01*
X-108413Y-51947D01*
X-108413Y-51900D01*
X-108411Y-51853D01*
X-108409Y-51806D01*
X-108407Y-51759D01*
X-108404Y-51712D01*
X-108400Y-51665D01*
G37*
G36*
G01X-109463Y-51692D02*
X-109479Y-51761D01*
X-109494Y-51828D01*
X-109511Y-51892D01*
X-109528Y-51953D01*
X-109545Y-52011D01*
X-109563Y-52066D01*
X-109581Y-52118D01*
X-109603Y-52170D01*
X-109624Y-52222D01*
X-109647Y-52272D01*
X-109670Y-52322D01*
X-109695Y-52370D01*
X-109720Y-52419D01*
X-109746Y-52466D01*
X-109773Y-52513D01*
X-109802Y-52560D01*
X-109834Y-52607D01*
X-109868Y-52654D01*
X-109904Y-52700D01*
X-109942Y-52747D01*
X-109982Y-52794D01*
X-109958Y-52807D01*
X-109934Y-52822D01*
X-109911Y-52840D01*
X-109889Y-52861D01*
X-109867Y-52884D01*
X-109845Y-52910D01*
X-109824Y-52939D01*
X-109788Y-52892D01*
X-109753Y-52844D01*
X-109720Y-52798D01*
X-109689Y-52751D01*
X-109660Y-52704D01*
X-109633Y-52657D01*
X-109608Y-52610D01*
X-109582Y-52564D01*
X-109558Y-52519D01*
X-109535Y-52474D01*
X-109514Y-52431D01*
X-109493Y-52389D01*
X-109474Y-52348D01*
X-109457Y-52309D01*
X-109004Y-52309D01*
X-109014Y-52355D01*
X-109033Y-52448D01*
X-109044Y-52494D01*
X-109054Y-52539D01*
X-109065Y-52585D01*
X-109076Y-52630D01*
X-109088Y-52672D01*
X-109100Y-52711D01*
X-109113Y-52748D01*
X-109126Y-52783D01*
X-109139Y-52815D01*
X-109154Y-52845D01*
X-109168Y-52873D01*
X-109194Y-52845D01*
X-109222Y-52815D01*
X-109252Y-52781D01*
X-109285Y-52744D01*
X-109320Y-52705D01*
X-109358Y-52662D01*
X-109398Y-52617D01*
X-109417Y-52641D01*
X-109438Y-52663D01*
X-109460Y-52683D01*
X-109483Y-52702D01*
X-109508Y-52719D01*
X-109535Y-52734D01*
X-109562Y-52748D01*
X-109513Y-52793D01*
X-109466Y-52837D01*
X-109422Y-52882D01*
X-109381Y-52926D01*
X-109343Y-52970D01*
X-109306Y-53013D01*
X-109273Y-53057D01*
X-109320Y-53122D01*
X-109365Y-53182D01*
X-109409Y-53237D01*
X-109452Y-53288D01*
X-109494Y-53334D01*
X-109535Y-53375D01*
X-109575Y-53411D01*
X-109617Y-53445D01*
X-109662Y-53480D01*
X-109711Y-53517D01*
X-109765Y-53554D01*
X-109822Y-53593D01*
X-109883Y-53633D01*
X-109949Y-53673D01*
X-109920Y-53689D01*
X-109892Y-53707D01*
X-109865Y-53726D01*
X-109840Y-53746D01*
X-109816Y-53769D01*
X-109793Y-53792D01*
X-109772Y-53818D01*
X-109724Y-53782D01*
X-109676Y-53745D01*
X-109628Y-53708D01*
X-109581Y-53671D01*
X-109535Y-53633D01*
X-109489Y-53594D01*
X-109444Y-53555D01*
X-109398Y-53515D01*
X-109353Y-53472D01*
X-109311Y-53426D01*
X-109269Y-53378D01*
X-109230Y-53328D01*
X-109192Y-53276D01*
X-109155Y-53220D01*
X-109119Y-53165D01*
X-109083Y-53106D01*
X-109049Y-53044D01*
X-109016Y-52980D01*
X-108984Y-52912D01*
X-108954Y-52841D01*
X-108926Y-52768D01*
X-108900Y-52691D01*
X-108876Y-52609D01*
X-108854Y-52524D01*
X-108833Y-52433D01*
X-108814Y-52339D01*
X-108797Y-52241D01*
X-108781Y-52138D01*
X-109398Y-52138D01*
X-109385Y-52112D01*
X-109373Y-52085D01*
X-109362Y-52059D01*
X-109352Y-52033D01*
X-109343Y-52007D01*
X-109333Y-51980D01*
X-109326Y-51954D01*
X-109316Y-51926D01*
X-109304Y-51898D01*
X-109291Y-51871D01*
X-109276Y-51844D01*
X-109259Y-51817D01*
X-109241Y-51790D01*
X-109221Y-51764D01*
X-109258Y-51756D01*
X-109294Y-51747D01*
X-109330Y-51738D01*
X-109364Y-51728D01*
X-109398Y-51717D01*
X-109431Y-51704D01*
X-109463Y-51692D01*
G37*
G36*
G01X-110454Y-51718D02*
X-110525Y-51791D01*
X-110590Y-51865D01*
X-110650Y-51939D01*
X-110704Y-52013D01*
X-110753Y-52087D01*
X-110796Y-52161D01*
X-110835Y-52236D01*
X-110868Y-52315D01*
X-110896Y-52395D01*
X-110919Y-52479D01*
X-110937Y-52565D01*
X-110950Y-52654D01*
X-110957Y-52746D01*
X-110959Y-52840D01*
X-110957Y-52936D01*
X-110950Y-53029D01*
X-110937Y-53118D01*
X-110919Y-53204D01*
X-110896Y-53287D01*
X-110868Y-53367D01*
X-110835Y-53444D01*
X-110796Y-53520D01*
X-110753Y-53596D01*
X-110704Y-53670D01*
X-110650Y-53745D01*
X-110590Y-53818D01*
X-110525Y-53891D01*
X-110454Y-53962D01*
X-110336Y-53844D01*
X-110401Y-53783D01*
X-110461Y-53721D01*
X-110517Y-53658D01*
X-110568Y-53593D01*
X-110613Y-53527D01*
X-110654Y-53460D01*
X-110691Y-53391D01*
X-110722Y-53320D01*
X-110748Y-53247D01*
X-110770Y-53171D01*
X-110787Y-53092D01*
X-110799Y-53011D01*
X-110806Y-52927D01*
X-110809Y-52840D01*
X-110806Y-52754D01*
X-110799Y-52670D01*
X-110787Y-52589D01*
X-110770Y-52511D01*
X-110748Y-52436D01*
X-110722Y-52364D01*
X-110691Y-52295D01*
X-110654Y-52226D01*
X-110613Y-52158D01*
X-110568Y-52091D01*
X-110517Y-52024D01*
X-110461Y-51959D01*
X-110401Y-51894D01*
X-110336Y-51830D01*
X-110454Y-51718D01*
G37*
G36*
G01X-106288Y-51672D02*
X-106339Y-51695D01*
X-106390Y-51716D01*
X-106442Y-51734D01*
X-106494Y-51750D01*
X-106548Y-51764D01*
X-106601Y-51775D01*
X-106655Y-51783D01*
X-106709Y-51791D01*
X-106762Y-51798D01*
X-106815Y-51805D01*
X-106866Y-51811D01*
X-106917Y-51818D01*
X-106967Y-51824D01*
X-107016Y-51830D01*
X-107014Y-51867D01*
X-107013Y-51904D01*
X-107011Y-51941D01*
X-107011Y-51977D01*
X-107010Y-52014D01*
X-107009Y-52050D01*
X-107009Y-52348D01*
X-107011Y-52381D01*
X-107015Y-52413D01*
X-107023Y-52444D01*
X-107033Y-52474D01*
X-107046Y-52503D01*
X-107063Y-52531D01*
X-107081Y-52558D01*
X-107056Y-52575D01*
X-107031Y-52594D01*
X-107007Y-52613D01*
X-106983Y-52634D01*
X-106961Y-52656D01*
X-106939Y-52678D01*
X-106918Y-52702D01*
X-106885Y-52669D01*
X-106849Y-52637D01*
X-106811Y-52607D01*
X-106771Y-52578D01*
X-106728Y-52550D01*
X-106683Y-52524D01*
X-106635Y-52499D01*
X-106543Y-52453D01*
X-106501Y-52432D01*
X-106462Y-52412D01*
X-106425Y-52394D01*
X-106360Y-52361D01*
X-106348Y-52376D01*
X-106336Y-52393D01*
X-106324Y-52409D01*
X-106311Y-52428D01*
X-106297Y-52446D01*
X-106283Y-52465D01*
X-106268Y-52486D01*
X-106242Y-52466D01*
X-106217Y-52447D01*
X-106192Y-52430D01*
X-106167Y-52414D01*
X-106143Y-52399D01*
X-106120Y-52386D01*
X-106097Y-52374D01*
X-106128Y-52337D01*
X-106163Y-52295D01*
X-106202Y-52250D01*
X-106246Y-52202D01*
X-106295Y-52149D01*
X-106348Y-52093D01*
X-106406Y-52033D01*
X-106426Y-52050D01*
X-106448Y-52066D01*
X-106469Y-52082D01*
X-106491Y-52098D01*
X-106512Y-52114D01*
X-106534Y-52129D01*
X-106557Y-52144D01*
X-106542Y-52159D01*
X-106528Y-52174D01*
X-106514Y-52189D01*
X-106501Y-52204D01*
X-106489Y-52219D01*
X-106476Y-52234D01*
X-106465Y-52250D01*
X-106499Y-52266D01*
X-106539Y-52284D01*
X-106583Y-52305D01*
X-106633Y-52329D01*
X-106688Y-52355D01*
X-106748Y-52383D01*
X-106812Y-52413D01*
X-106813Y-52413D01*
X-106813Y-51974D01*
X-106744Y-51964D01*
X-106679Y-51955D01*
X-106615Y-51944D01*
X-106554Y-51934D01*
X-106496Y-51924D01*
X-106440Y-51913D01*
X-106386Y-51902D01*
X-106338Y-51893D01*
X-106294Y-51887D01*
X-106256Y-51882D01*
X-106222Y-51879D01*
X-106193Y-51878D01*
X-106169Y-51879D01*
X-106153Y-51881D01*
X-106150Y-51881D01*
X-106169Y-51855D01*
X-106188Y-51827D01*
X-106207Y-51798D01*
X-106227Y-51769D01*
X-106247Y-51737D01*
X-106267Y-51705D01*
X-106288Y-51672D01*
G37*
G36*
G01X-108144Y-52230D02*
X-108197Y-52259D01*
X-108223Y-52274D01*
X-108250Y-52288D01*
X-108276Y-52302D01*
X-108302Y-52315D01*
X-108328Y-52328D01*
X-108293Y-52380D01*
X-108256Y-52433D01*
X-108218Y-52487D01*
X-108180Y-52544D01*
X-108140Y-52601D01*
X-108100Y-52661D01*
X-108059Y-52722D01*
X-108021Y-52783D01*
X-107985Y-52842D01*
X-107951Y-52899D01*
X-107919Y-52954D01*
X-107889Y-53008D01*
X-107862Y-53059D01*
X-107836Y-53109D01*
X-107815Y-53092D01*
X-107790Y-53075D01*
X-107763Y-53057D01*
X-107735Y-53039D01*
X-107703Y-53021D01*
X-107669Y-53003D01*
X-107633Y-52984D01*
X-107669Y-52929D01*
X-107706Y-52872D01*
X-107744Y-52814D01*
X-107784Y-52754D01*
X-107824Y-52693D01*
X-107866Y-52629D01*
X-107908Y-52565D01*
X-107950Y-52503D01*
X-107989Y-52446D01*
X-108026Y-52394D01*
X-108059Y-52346D01*
X-108091Y-52303D01*
X-108119Y-52264D01*
X-108144Y-52230D01*
G37*
G36*
G01X-104424Y-51718D02*
X-104536Y-51830D01*
X-104470Y-51894D01*
X-104410Y-51959D01*
X-104355Y-52024D01*
X-104304Y-52091D01*
X-104259Y-52158D01*
X-104218Y-52226D01*
X-104181Y-52295D01*
X-104150Y-52364D01*
X-104124Y-52436D01*
X-104102Y-52511D01*
X-104085Y-52589D01*
X-104073Y-52670D01*
X-104066Y-52754D01*
X-104063Y-52840D01*
X-104066Y-52927D01*
X-104073Y-53011D01*
X-104085Y-53092D01*
X-104102Y-53171D01*
X-104124Y-53247D01*
X-104150Y-53320D01*
X-104181Y-53391D01*
X-104218Y-53460D01*
X-104259Y-53527D01*
X-104304Y-53593D01*
X-104355Y-53658D01*
X-104410Y-53721D01*
X-104470Y-53783D01*
X-104536Y-53844D01*
X-104424Y-53962D01*
X-104354Y-53891D01*
X-104289Y-53818D01*
X-104229Y-53745D01*
X-104174Y-53670D01*
X-104126Y-53596D01*
X-104082Y-53520D01*
X-104044Y-53444D01*
X-104009Y-53367D01*
X-103979Y-53287D01*
X-103955Y-53204D01*
X-103937Y-53118D01*
X-103923Y-53029D01*
X-103915Y-52936D01*
X-103912Y-52840D01*
X-103915Y-52746D01*
X-103923Y-52654D01*
X-103937Y-52565D01*
X-103955Y-52479D01*
X-103979Y-52395D01*
X-104009Y-52315D01*
X-104044Y-52236D01*
X-104082Y-52161D01*
X-104126Y-52087D01*
X-104174Y-52013D01*
X-104229Y-51939D01*
X-104289Y-51865D01*
X-104354Y-51791D01*
X-104424Y-51718D01*
G37*
G36*
G01X-106032Y-51810D02*
X-106032Y-51993D01*
X-106027Y-51993D01*
X-105986Y-51990D01*
X-105943Y-51987D01*
X-105903Y-51985D01*
X-105866Y-51983D01*
X-105831Y-51981D01*
X-105799Y-51981D01*
X-105769Y-51981D01*
X-105776Y-52041D01*
X-105787Y-52097D01*
X-105800Y-52150D01*
X-105815Y-52200D01*
X-105834Y-52246D01*
X-105856Y-52289D01*
X-105881Y-52328D01*
X-105909Y-52367D01*
X-105942Y-52403D01*
X-105979Y-52438D01*
X-106020Y-52471D01*
X-106066Y-52502D01*
X-106115Y-52531D01*
X-106170Y-52558D01*
X-106143Y-52574D01*
X-106116Y-52591D01*
X-106089Y-52610D01*
X-106060Y-52631D01*
X-106031Y-52653D01*
X-106002Y-52677D01*
X-105973Y-52702D01*
X-105919Y-52661D01*
X-105869Y-52619D01*
X-105823Y-52577D01*
X-105782Y-52535D01*
X-105745Y-52493D01*
X-105713Y-52450D01*
X-105684Y-52407D01*
X-105659Y-52361D01*
X-105636Y-52311D01*
X-105615Y-52255D01*
X-105596Y-52194D01*
X-105580Y-52128D01*
X-105565Y-52057D01*
X-105553Y-51980D01*
X-105231Y-51980D01*
X-105235Y-52030D01*
X-105239Y-52079D01*
X-105243Y-52126D01*
X-105246Y-52172D01*
X-105250Y-52217D01*
X-105254Y-52260D01*
X-105257Y-52302D01*
X-105264Y-52342D01*
X-105272Y-52377D01*
X-105281Y-52406D01*
X-105293Y-52430D01*
X-105306Y-52447D01*
X-105320Y-52459D01*
X-105336Y-52466D01*
X-105355Y-52468D01*
X-105379Y-52469D01*
X-105406Y-52470D01*
X-105438Y-52471D01*
X-105474Y-52472D01*
X-105515Y-52472D01*
X-105559Y-52472D01*
X-105538Y-52504D01*
X-105520Y-52536D01*
X-105504Y-52567D01*
X-105491Y-52598D01*
X-105480Y-52629D01*
X-105472Y-52659D01*
X-105467Y-52689D01*
X-105465Y-52689D01*
X-105420Y-52680D01*
X-105376Y-52671D01*
X-105336Y-52662D01*
X-105298Y-52654D01*
X-105264Y-52646D01*
X-105233Y-52638D01*
X-105205Y-52630D01*
X-105180Y-52619D01*
X-105158Y-52604D01*
X-105139Y-52586D01*
X-105124Y-52565D01*
X-105111Y-52540D01*
X-105100Y-52511D01*
X-105093Y-52479D01*
X-105086Y-52444D01*
X-105079Y-52405D01*
X-105072Y-52363D01*
X-105066Y-52319D01*
X-105059Y-52270D01*
X-105053Y-52219D01*
X-105048Y-52164D01*
X-105042Y-52107D01*
X-105036Y-52053D01*
X-105031Y-52001D01*
X-105025Y-51951D01*
X-105019Y-51904D01*
X-105014Y-51859D01*
X-105008Y-51817D01*
X-105723Y-51817D01*
X-105765Y-51816D01*
X-105807Y-51816D01*
X-105851Y-51815D01*
X-105895Y-51814D01*
X-105940Y-51813D01*
X-105985Y-51811D01*
X-106032Y-51810D01*
G37*
G36*
G01X-105205Y-52814D02*
X-106852Y-52814D01*
X-106850Y-52852D01*
X-106849Y-52894D01*
X-106848Y-52940D01*
X-106846Y-52991D01*
X-106846Y-53045D01*
X-106846Y-53105D01*
X-106845Y-53168D01*
X-106846Y-53233D01*
X-106846Y-53293D01*
X-106846Y-53346D01*
X-106848Y-53395D01*
X-106849Y-53439D01*
X-106850Y-53477D01*
X-106852Y-53509D01*
X-106648Y-53509D01*
X-106648Y-52978D01*
X-105428Y-52978D01*
X-105428Y-53490D01*
X-105205Y-53490D01*
X-105207Y-53457D01*
X-105208Y-53419D01*
X-105209Y-53377D01*
X-105210Y-53329D01*
X-105211Y-53276D01*
X-105211Y-53218D01*
X-105211Y-53092D01*
X-105211Y-53033D01*
X-105210Y-52980D01*
X-105209Y-52931D01*
X-105208Y-52887D01*
X-105207Y-52848D01*
X-105205Y-52814D01*
G37*
G36*
G01X-106170Y-53089D02*
X-106180Y-53188D01*
X-106195Y-53276D01*
X-106215Y-53355D01*
X-106240Y-53425D01*
X-106271Y-53484D01*
X-106306Y-53535D01*
X-106347Y-53575D01*
X-106390Y-53611D01*
X-106435Y-53643D01*
X-106480Y-53670D01*
X-106526Y-53695D01*
X-106572Y-53715D01*
X-106620Y-53732D01*
X-106668Y-53746D01*
X-106721Y-53756D01*
X-106778Y-53767D01*
X-106838Y-53776D01*
X-106903Y-53784D01*
X-106972Y-53792D01*
X-107044Y-53798D01*
X-107121Y-53805D01*
X-107093Y-53838D01*
X-107068Y-53872D01*
X-107047Y-53905D01*
X-107029Y-53937D01*
X-107015Y-53970D01*
X-107004Y-54002D01*
X-106996Y-54034D01*
X-106994Y-54034D01*
X-106898Y-54019D01*
X-106807Y-54001D01*
X-106722Y-53982D01*
X-106643Y-53961D01*
X-106570Y-53939D01*
X-106505Y-53915D01*
X-106445Y-53890D01*
X-106391Y-53863D01*
X-106341Y-53836D01*
X-106294Y-53807D01*
X-106252Y-53778D01*
X-106214Y-53748D01*
X-106180Y-53718D01*
X-106150Y-53687D01*
X-106121Y-53652D01*
X-106095Y-53616D01*
X-106072Y-53579D01*
X-106051Y-53541D01*
X-106033Y-53501D01*
X-106018Y-53460D01*
X-106006Y-53417D01*
X-105992Y-53375D01*
X-105978Y-53333D01*
X-105964Y-53293D01*
X-105949Y-53254D01*
X-105933Y-53215D01*
X-105917Y-53178D01*
X-105900Y-53142D01*
X-105941Y-53136D01*
X-105981Y-53130D01*
X-106021Y-53122D01*
X-106059Y-53115D01*
X-106097Y-53107D01*
X-106133Y-53098D01*
X-106170Y-53089D01*
G37*
G36*
G01X-105841Y-53490D02*
X-105855Y-53516D01*
X-105868Y-53541D01*
X-105881Y-53566D01*
X-105894Y-53590D01*
X-105907Y-53614D01*
X-105920Y-53637D01*
X-105933Y-53660D01*
X-105872Y-53679D01*
X-105811Y-53699D01*
X-105751Y-53719D01*
X-105692Y-53739D01*
X-105634Y-53761D01*
X-105577Y-53782D01*
X-105520Y-53805D01*
X-105466Y-53829D01*
X-105411Y-53854D01*
X-105357Y-53880D01*
X-105302Y-53906D01*
X-105248Y-53933D01*
X-105139Y-53988D01*
X-105122Y-53962D01*
X-105105Y-53936D01*
X-105086Y-53909D01*
X-105068Y-53883D01*
X-105048Y-53857D01*
X-105028Y-53831D01*
X-105008Y-53805D01*
X-105078Y-53774D01*
X-105145Y-53744D01*
X-105210Y-53717D01*
X-105272Y-53692D01*
X-105331Y-53669D01*
X-105387Y-53647D01*
X-105441Y-53628D01*
X-105494Y-53609D01*
X-105549Y-53589D01*
X-105605Y-53570D01*
X-105662Y-53550D01*
X-105720Y-53530D01*
X-105780Y-53510D01*
X-105841Y-53490D01*
G37*
G36*
G01X-155896Y-54784D02*
X-156545Y-54784D01*
X-156545Y-57067D01*
X-155896Y-57067D01*
X-155896Y-56903D01*
X-156368Y-56903D01*
X-156368Y-54948D01*
X-155896Y-54948D01*
X-155896Y-54784D01*
G37*
G36*
G01X-155161Y-54863D02*
X-155161Y-55046D01*
X-155149Y-55046D01*
X-155113Y-55044D01*
X-155063Y-55043D01*
X-155012Y-55042D01*
X-154958Y-55041D01*
X-154903Y-55040D01*
X-154846Y-55040D01*
X-154511Y-55040D01*
X-154511Y-55134D01*
X-154513Y-55227D01*
X-154515Y-55318D01*
X-154517Y-55407D01*
X-154521Y-55494D01*
X-154526Y-55580D01*
X-154531Y-55663D01*
X-154996Y-55663D01*
X-155062Y-55663D01*
X-155123Y-55662D01*
X-155180Y-55661D01*
X-155232Y-55659D01*
X-155281Y-55656D01*
X-155324Y-55654D01*
X-155364Y-55650D01*
X-155364Y-55833D01*
X-155355Y-55833D01*
X-155326Y-55832D01*
X-155283Y-55830D01*
X-155235Y-55829D01*
X-155183Y-55828D01*
X-155126Y-55828D01*
X-155064Y-55827D01*
X-154550Y-55827D01*
X-154578Y-55933D01*
X-154606Y-56031D01*
X-154635Y-56120D01*
X-154666Y-56201D01*
X-154698Y-56273D01*
X-154732Y-56337D01*
X-154767Y-56391D01*
X-154803Y-56439D01*
X-154841Y-56485D01*
X-154880Y-56528D01*
X-154920Y-56569D01*
X-154962Y-56608D01*
X-155005Y-56645D01*
X-155049Y-56680D01*
X-155096Y-56713D01*
X-155146Y-56746D01*
X-155198Y-56779D01*
X-155255Y-56811D01*
X-155314Y-56842D01*
X-155377Y-56873D01*
X-155443Y-56903D01*
X-155411Y-56921D01*
X-155381Y-56941D01*
X-155354Y-56963D01*
X-155329Y-56988D01*
X-155307Y-57014D01*
X-155289Y-57043D01*
X-155272Y-57074D01*
X-155189Y-57026D01*
X-155113Y-56980D01*
X-155043Y-56935D01*
X-154979Y-56892D01*
X-154921Y-56850D01*
X-154870Y-56810D01*
X-154826Y-56772D01*
X-154783Y-56735D01*
X-154742Y-56694D01*
X-154702Y-56649D01*
X-154662Y-56602D01*
X-154624Y-56550D01*
X-154587Y-56496D01*
X-154550Y-56437D01*
X-154518Y-56373D01*
X-154487Y-56302D01*
X-154457Y-56222D01*
X-154430Y-56135D01*
X-154405Y-56040D01*
X-154382Y-55937D01*
X-154360Y-55827D01*
X-154196Y-55827D01*
X-154196Y-56700D01*
X-154191Y-56764D01*
X-154176Y-56819D01*
X-154150Y-56863D01*
X-154115Y-56898D01*
X-154069Y-56923D01*
X-154013Y-56937D01*
X-153947Y-56943D01*
X-153415Y-56943D01*
X-153362Y-56935D01*
X-153315Y-56911D01*
X-153273Y-56871D01*
X-153237Y-56816D01*
X-153208Y-56745D01*
X-153184Y-56658D01*
X-153166Y-56556D01*
X-153201Y-56549D01*
X-153236Y-56540D01*
X-153270Y-56529D01*
X-153304Y-56516D01*
X-153337Y-56500D01*
X-153370Y-56483D01*
X-153402Y-56463D01*
X-153408Y-56547D01*
X-153417Y-56618D01*
X-153430Y-56676D01*
X-153447Y-56720D01*
X-153468Y-56753D01*
X-153492Y-56772D01*
X-153520Y-56778D01*
X-153855Y-56778D01*
X-153893Y-56776D01*
X-153926Y-56768D01*
X-153952Y-56754D01*
X-153973Y-56735D01*
X-153987Y-56711D01*
X-153996Y-56682D01*
X-153999Y-56647D01*
X-153999Y-55827D01*
X-153513Y-55827D01*
X-153466Y-55828D01*
X-153372Y-55829D01*
X-153325Y-55830D01*
X-153231Y-55833D01*
X-153231Y-55650D01*
X-153236Y-55650D01*
X-153275Y-55654D01*
X-153320Y-55656D01*
X-153367Y-55659D01*
X-153415Y-55661D01*
X-153464Y-55662D01*
X-153515Y-55663D01*
X-153566Y-55663D01*
X-154341Y-55663D01*
X-154333Y-55583D01*
X-154328Y-55500D01*
X-154323Y-55413D01*
X-154319Y-55324D01*
X-154317Y-55232D01*
X-154315Y-55137D01*
X-154314Y-55040D01*
X-153782Y-55040D01*
X-153719Y-55040D01*
X-153659Y-55041D01*
X-153602Y-55042D01*
X-153548Y-55043D01*
X-153496Y-55044D01*
X-153448Y-55046D01*
X-153448Y-54863D01*
X-153454Y-54863D01*
X-153496Y-54866D01*
X-153548Y-54869D01*
X-153602Y-54871D01*
X-153659Y-54873D01*
X-153719Y-54874D01*
X-153782Y-54875D01*
X-153848Y-54876D01*
X-154787Y-54876D01*
X-154846Y-54875D01*
X-154903Y-54874D01*
X-154958Y-54873D01*
X-155012Y-54871D01*
X-155063Y-54869D01*
X-155113Y-54866D01*
X-155161Y-54863D01*
G37*
G36*
G01X-142851Y-54731D02*
X-143081Y-54731D01*
X-143077Y-54783D01*
X-143074Y-54851D01*
X-143072Y-54937D01*
X-143070Y-55039D01*
X-143069Y-55158D01*
X-143068Y-55294D01*
X-143068Y-55446D01*
X-143783Y-55446D01*
X-143782Y-55309D01*
X-143781Y-55188D01*
X-143778Y-55081D01*
X-143774Y-54989D01*
X-143769Y-54912D01*
X-143763Y-54850D01*
X-143757Y-54804D01*
X-143797Y-54800D01*
X-143835Y-54796D01*
X-143872Y-54792D01*
X-143906Y-54789D01*
X-143939Y-54785D01*
X-143970Y-54781D01*
X-143999Y-54777D01*
X-143998Y-54884D01*
X-143996Y-54989D01*
X-143995Y-55090D01*
X-143994Y-55189D01*
X-143993Y-55284D01*
X-143993Y-55376D01*
X-143993Y-55466D01*
X-143993Y-55554D01*
X-143995Y-55639D01*
X-143998Y-55723D01*
X-144001Y-55806D01*
X-144006Y-55887D01*
X-144012Y-55966D01*
X-144019Y-56044D01*
X-144028Y-56118D01*
X-144038Y-56191D01*
X-144050Y-56264D01*
X-144064Y-56335D01*
X-144080Y-56405D01*
X-144098Y-56474D01*
X-144117Y-56542D01*
X-144142Y-56609D01*
X-144169Y-56674D01*
X-144200Y-56739D01*
X-144235Y-56802D01*
X-144273Y-56863D01*
X-144315Y-56923D01*
X-144360Y-56982D01*
X-144319Y-56996D01*
X-144279Y-57011D01*
X-144243Y-57027D01*
X-144209Y-57045D01*
X-144178Y-57064D01*
X-144150Y-57085D01*
X-144124Y-57107D01*
X-144094Y-57058D01*
X-144066Y-57006D01*
X-144037Y-56952D01*
X-144010Y-56893D01*
X-143984Y-56832D01*
X-143958Y-56767D01*
X-143933Y-56700D01*
X-143910Y-56628D01*
X-143889Y-56557D01*
X-143870Y-56485D01*
X-143853Y-56413D01*
X-143839Y-56340D01*
X-143826Y-56267D01*
X-143815Y-56194D01*
X-142884Y-56194D01*
X-142884Y-56377D01*
X-142885Y-56542D01*
X-142886Y-56690D01*
X-142888Y-56820D01*
X-142891Y-56933D01*
X-142893Y-57028D01*
X-142897Y-57107D01*
X-142667Y-57107D01*
X-142671Y-57033D01*
X-142674Y-56957D01*
X-142676Y-56880D01*
X-142678Y-56801D01*
X-142679Y-56721D01*
X-142680Y-56639D01*
X-142680Y-56556D01*
X-142680Y-56470D01*
X-142679Y-56389D01*
X-142678Y-56310D01*
X-142676Y-56234D01*
X-142674Y-56161D01*
X-142671Y-56091D01*
X-142667Y-56024D01*
X-143796Y-56024D01*
X-143783Y-55624D01*
X-142565Y-55624D01*
X-142520Y-55624D01*
X-142471Y-55625D01*
X-142420Y-55626D01*
X-142365Y-55627D01*
X-142308Y-55628D01*
X-142247Y-55630D01*
X-142247Y-55434D01*
X-142255Y-55434D01*
X-142313Y-55437D01*
X-142386Y-55440D01*
X-142467Y-55442D01*
X-142555Y-55444D01*
X-142650Y-55445D01*
X-142754Y-55446D01*
X-142864Y-55446D01*
X-142864Y-55294D01*
X-142863Y-55158D01*
X-142862Y-55039D01*
X-142860Y-54937D01*
X-142857Y-54851D01*
X-142854Y-54783D01*
X-142851Y-54731D01*
G37*
G36*
G01X-146821Y-54731D02*
X-146833Y-54780D01*
X-146850Y-54831D01*
X-146869Y-54886D01*
X-146891Y-54944D01*
X-146917Y-55006D01*
X-146946Y-55070D01*
X-146978Y-55138D01*
X-147013Y-55208D01*
X-147050Y-55275D01*
X-147089Y-55340D01*
X-147130Y-55402D01*
X-147174Y-55461D01*
X-147219Y-55517D01*
X-147267Y-55571D01*
X-147246Y-55589D01*
X-147226Y-55607D01*
X-147206Y-55626D01*
X-147187Y-55647D01*
X-147167Y-55669D01*
X-147148Y-55692D01*
X-147129Y-55715D01*
X-147115Y-55696D01*
X-147100Y-55675D01*
X-147084Y-55653D01*
X-147066Y-55630D01*
X-147047Y-55605D01*
X-147026Y-55579D01*
X-147005Y-55552D01*
X-147005Y-55702D01*
X-146998Y-55702D01*
X-146980Y-55701D01*
X-146955Y-55699D01*
X-146930Y-55698D01*
X-146905Y-55697D01*
X-146854Y-55696D01*
X-146827Y-55696D01*
X-146827Y-55991D01*
X-146864Y-55991D01*
X-146902Y-55990D01*
X-146941Y-55989D01*
X-146983Y-55987D01*
X-147026Y-55984D01*
X-147070Y-55981D01*
X-147116Y-55978D01*
X-147116Y-56161D01*
X-147104Y-56161D01*
X-147057Y-56160D01*
X-147004Y-56158D01*
X-146957Y-56157D01*
X-146916Y-56156D01*
X-146880Y-56156D01*
X-146851Y-56155D01*
X-146827Y-56155D01*
X-146827Y-56615D01*
X-146834Y-56646D01*
X-146843Y-56678D01*
X-146854Y-56709D01*
X-146867Y-56740D01*
X-146882Y-56770D01*
X-146900Y-56801D01*
X-146919Y-56831D01*
X-146898Y-56852D01*
X-146878Y-56875D01*
X-146856Y-56899D01*
X-146835Y-56924D01*
X-146813Y-56951D01*
X-146791Y-56979D01*
X-146768Y-57008D01*
X-146732Y-56964D01*
X-146696Y-56922D01*
X-146659Y-56883D01*
X-146622Y-56845D01*
X-146583Y-56810D01*
X-146545Y-56777D01*
X-146506Y-56746D01*
X-146468Y-56715D01*
X-146431Y-56686D01*
X-146397Y-56660D01*
X-146365Y-56635D01*
X-146336Y-56613D01*
X-146308Y-56593D01*
X-146283Y-56575D01*
X-146295Y-56549D01*
X-146307Y-56522D01*
X-146317Y-56496D01*
X-146327Y-56470D01*
X-146335Y-56444D01*
X-146342Y-56418D01*
X-146348Y-56392D01*
X-146409Y-56443D01*
X-146463Y-56490D01*
X-146512Y-56531D01*
X-146554Y-56568D01*
X-146590Y-56600D01*
X-146620Y-56626D01*
X-146643Y-56647D01*
X-146644Y-56155D01*
X-146583Y-56155D01*
X-146526Y-56156D01*
X-146471Y-56156D01*
X-146420Y-56157D01*
X-146371Y-56158D01*
X-146326Y-56160D01*
X-146283Y-56162D01*
X-146283Y-55978D01*
X-146289Y-55978D01*
X-146338Y-55981D01*
X-146393Y-55984D01*
X-146445Y-55987D01*
X-146497Y-55989D01*
X-146547Y-55990D01*
X-146596Y-55991D01*
X-146644Y-55991D01*
X-146644Y-55696D01*
X-146568Y-55696D01*
X-146530Y-55697D01*
X-146453Y-55699D01*
X-146414Y-55701D01*
X-146374Y-55702D01*
X-146374Y-55539D01*
X-146380Y-55539D01*
X-146420Y-55542D01*
X-146465Y-55545D01*
X-146509Y-55547D01*
X-146555Y-55549D01*
X-146600Y-55550D01*
X-146644Y-55551D01*
X-146689Y-55552D01*
X-146734Y-55551D01*
X-146778Y-55550D01*
X-146822Y-55549D01*
X-146865Y-55547D01*
X-146908Y-55545D01*
X-146950Y-55542D01*
X-146991Y-55538D01*
X-146961Y-55491D01*
X-146932Y-55447D01*
X-146906Y-55406D01*
X-146881Y-55367D01*
X-146859Y-55331D01*
X-146839Y-55299D01*
X-146821Y-55269D01*
X-146532Y-55269D01*
X-146507Y-55270D01*
X-146480Y-55270D01*
X-146450Y-55272D01*
X-146420Y-55274D01*
X-146387Y-55276D01*
X-146352Y-55279D01*
X-146316Y-55282D01*
X-146316Y-55099D01*
X-146324Y-55099D01*
X-146350Y-55100D01*
X-146384Y-55102D01*
X-146417Y-55103D01*
X-146447Y-55104D01*
X-146477Y-55105D01*
X-146505Y-55105D01*
X-146748Y-55105D01*
X-146739Y-55086D01*
X-146730Y-55066D01*
X-146719Y-55045D01*
X-146709Y-55024D01*
X-146698Y-55002D01*
X-146687Y-54978D01*
X-146676Y-54954D01*
X-146665Y-54932D01*
X-146652Y-54911D01*
X-146638Y-54892D01*
X-146623Y-54873D01*
X-146607Y-54855D01*
X-146590Y-54839D01*
X-146572Y-54823D01*
X-146607Y-54810D01*
X-146643Y-54797D01*
X-146678Y-54784D01*
X-146714Y-54770D01*
X-146750Y-54757D01*
X-146785Y-54744D01*
X-146821Y-54731D01*
G37*
G36*
G01X-152352Y-54738D02*
X-152370Y-54808D01*
X-152390Y-54878D01*
X-152413Y-54946D01*
X-152437Y-55012D01*
X-152463Y-55077D01*
X-152492Y-55141D01*
X-152523Y-55204D01*
X-152554Y-55262D01*
X-152587Y-55318D01*
X-152621Y-55372D01*
X-152658Y-55422D01*
X-152696Y-55470D01*
X-152737Y-55515D01*
X-152779Y-55558D01*
X-152758Y-55579D01*
X-152738Y-55601D01*
X-152718Y-55624D01*
X-152698Y-55647D01*
X-152679Y-55671D01*
X-152660Y-55696D01*
X-152641Y-55722D01*
X-152620Y-55696D01*
X-152600Y-55670D01*
X-152559Y-55617D01*
X-152538Y-55591D01*
X-152517Y-55565D01*
X-152497Y-55539D01*
X-152496Y-55715D01*
X-152493Y-55715D01*
X-152468Y-55712D01*
X-152441Y-55709D01*
X-152416Y-55707D01*
X-152394Y-55705D01*
X-152374Y-55704D01*
X-152355Y-55703D01*
X-152339Y-55703D01*
X-152339Y-55998D01*
X-152376Y-55998D01*
X-152414Y-55997D01*
X-152453Y-55996D01*
X-152494Y-55996D01*
X-152537Y-55994D01*
X-152582Y-55993D01*
X-152628Y-55991D01*
X-152628Y-56174D01*
X-152623Y-56174D01*
X-152585Y-56171D01*
X-152543Y-56169D01*
X-152501Y-56166D01*
X-152460Y-56164D01*
X-152419Y-56163D01*
X-152379Y-56162D01*
X-152339Y-56162D01*
X-152339Y-56687D01*
X-152346Y-56716D01*
X-152354Y-56744D01*
X-152365Y-56770D01*
X-152377Y-56796D01*
X-152391Y-56820D01*
X-152407Y-56843D01*
X-152424Y-56864D01*
X-152401Y-56885D01*
X-152378Y-56907D01*
X-152356Y-56929D01*
X-152335Y-56953D01*
X-152316Y-56977D01*
X-152298Y-57002D01*
X-152280Y-57028D01*
X-152243Y-56987D01*
X-152205Y-56948D01*
X-152168Y-56910D01*
X-152130Y-56874D01*
X-152093Y-56838D01*
X-152055Y-56804D01*
X-152018Y-56772D01*
X-151981Y-56743D01*
X-151946Y-56716D01*
X-151912Y-56691D01*
X-151881Y-56667D01*
X-151850Y-56645D01*
X-151822Y-56626D01*
X-151794Y-56608D01*
X-151809Y-56583D01*
X-151823Y-56559D01*
X-151836Y-56533D01*
X-151848Y-56508D01*
X-151859Y-56483D01*
X-151870Y-56457D01*
X-151880Y-56431D01*
X-151911Y-56456D01*
X-151945Y-56485D01*
X-151982Y-56516D01*
X-152021Y-56550D01*
X-152063Y-56586D01*
X-152108Y-56625D01*
X-152155Y-56667D01*
X-152156Y-56162D01*
X-152109Y-56162D01*
X-152062Y-56163D01*
X-152015Y-56164D01*
X-151968Y-56166D01*
X-151921Y-56169D01*
X-151874Y-56171D01*
X-151828Y-56175D01*
X-151828Y-55991D01*
X-151837Y-55991D01*
X-151874Y-55993D01*
X-151921Y-55994D01*
X-151968Y-55996D01*
X-152062Y-55997D01*
X-152109Y-55998D01*
X-152156Y-55998D01*
X-152156Y-55702D01*
X-152124Y-55703D01*
X-152091Y-55704D01*
X-152055Y-55705D01*
X-152016Y-55707D01*
X-151975Y-55709D01*
X-151932Y-55712D01*
X-151886Y-55715D01*
X-151886Y-55532D01*
X-151894Y-55532D01*
X-151916Y-55533D01*
X-151944Y-55535D01*
X-151970Y-55536D01*
X-151996Y-55537D01*
X-152020Y-55538D01*
X-152042Y-55538D01*
X-152319Y-55538D01*
X-152348Y-55537D01*
X-152376Y-55535D01*
X-152401Y-55534D01*
X-152424Y-55533D01*
X-152446Y-55532D01*
X-152466Y-55532D01*
X-152483Y-55532D01*
X-152453Y-55480D01*
X-152426Y-55434D01*
X-152401Y-55393D01*
X-152380Y-55357D01*
X-152361Y-55327D01*
X-152345Y-55302D01*
X-152333Y-55282D01*
X-152136Y-55282D01*
X-152099Y-55283D01*
X-152060Y-55283D01*
X-152018Y-55285D01*
X-151974Y-55287D01*
X-151928Y-55289D01*
X-151879Y-55292D01*
X-151828Y-55296D01*
X-151828Y-55106D01*
X-151833Y-55106D01*
X-151879Y-55109D01*
X-151928Y-55112D01*
X-151974Y-55114D01*
X-152018Y-55116D01*
X-152060Y-55117D01*
X-152099Y-55118D01*
X-152136Y-55119D01*
X-152261Y-55119D01*
X-152249Y-55095D01*
X-152233Y-55067D01*
X-152214Y-55032D01*
X-152191Y-54993D01*
X-152163Y-54948D01*
X-152132Y-54898D01*
X-152096Y-54843D01*
X-152142Y-54831D01*
X-152184Y-54818D01*
X-152224Y-54804D01*
X-152260Y-54789D01*
X-152294Y-54773D01*
X-152324Y-54756D01*
X-152352Y-54738D01*
G37*
G36*
G01X-149400Y-54770D02*
X-149622Y-54770D01*
X-149620Y-54812D01*
X-149619Y-54854D01*
X-149613Y-54938D01*
X-149607Y-55023D01*
X-149603Y-55066D01*
X-149603Y-55335D01*
X-149656Y-55335D01*
X-149707Y-55333D01*
X-149759Y-55331D01*
X-149811Y-55328D01*
X-149862Y-55325D01*
X-149913Y-55320D01*
X-149964Y-55315D01*
X-149964Y-55485D01*
X-149952Y-55485D01*
X-149917Y-55484D01*
X-149869Y-55483D01*
X-149821Y-55481D01*
X-149772Y-55480D01*
X-149723Y-55480D01*
X-149673Y-55480D01*
X-149622Y-55480D01*
X-149644Y-55562D01*
X-149667Y-55641D01*
X-149692Y-55717D01*
X-149718Y-55789D01*
X-149746Y-55857D01*
X-149775Y-55923D01*
X-149806Y-55985D01*
X-149837Y-56043D01*
X-149867Y-56098D01*
X-149898Y-56150D01*
X-149928Y-56199D01*
X-149960Y-56244D01*
X-149991Y-56287D01*
X-150023Y-56326D01*
X-150002Y-56345D01*
X-149981Y-56367D01*
X-149960Y-56391D01*
X-149938Y-56416D01*
X-149917Y-56443D01*
X-149894Y-56472D01*
X-149872Y-56503D01*
X-149826Y-56426D01*
X-149783Y-56347D01*
X-149742Y-56267D01*
X-149704Y-56187D01*
X-149668Y-56105D01*
X-149634Y-56022D01*
X-149604Y-55939D01*
X-149603Y-56654D01*
X-149604Y-56711D01*
X-149605Y-56769D01*
X-149607Y-56827D01*
X-149609Y-56887D01*
X-149613Y-56948D01*
X-149617Y-57011D01*
X-149622Y-57074D01*
X-149413Y-57074D01*
X-149415Y-57014D01*
X-149416Y-56954D01*
X-149417Y-56894D01*
X-149418Y-56834D01*
X-149419Y-56774D01*
X-149419Y-56654D01*
X-149419Y-55900D01*
X-149402Y-55937D01*
X-149383Y-55977D01*
X-149364Y-56020D01*
X-149343Y-56067D01*
X-149322Y-56117D01*
X-149299Y-56171D01*
X-149275Y-56227D01*
X-149260Y-56217D01*
X-149242Y-56206D01*
X-149221Y-56194D01*
X-149197Y-56181D01*
X-149169Y-56167D01*
X-149138Y-56152D01*
X-149104Y-56135D01*
X-149130Y-56083D01*
X-149181Y-55979D01*
X-149205Y-55928D01*
X-149229Y-55876D01*
X-149252Y-55825D01*
X-149275Y-55775D01*
X-149276Y-55775D01*
X-149307Y-55791D01*
X-149335Y-55805D01*
X-149359Y-55817D01*
X-149380Y-55827D01*
X-149397Y-55835D01*
X-149410Y-55842D01*
X-149419Y-55846D01*
X-149419Y-55846D01*
X-149419Y-55479D01*
X-149378Y-55480D01*
X-149336Y-55480D01*
X-149294Y-55480D01*
X-149252Y-55481D01*
X-149209Y-55483D01*
X-149167Y-55484D01*
X-149124Y-55486D01*
X-149124Y-55316D01*
X-149133Y-55316D01*
X-149167Y-55317D01*
X-149252Y-55322D01*
X-149294Y-55325D01*
X-149336Y-55328D01*
X-149378Y-55331D01*
X-149415Y-55335D01*
X-149419Y-55335D01*
X-149419Y-55066D01*
X-149419Y-55018D01*
X-149418Y-54972D01*
X-149416Y-54928D01*
X-149413Y-54886D01*
X-149409Y-54846D01*
X-149405Y-54807D01*
X-149400Y-54770D01*
G37*
G36*
G01X-147628Y-54902D02*
X-147670Y-54902D01*
X-147714Y-54903D01*
X-147759Y-54904D01*
X-147806Y-54906D01*
X-147854Y-54909D01*
X-147904Y-54911D01*
X-147956Y-54915D01*
X-149052Y-54915D01*
X-149052Y-54943D01*
X-149051Y-54972D01*
X-149049Y-55000D01*
X-149048Y-55030D01*
X-149042Y-55089D01*
X-149039Y-55119D01*
X-149039Y-56615D01*
X-149039Y-56661D01*
X-149040Y-56708D01*
X-149041Y-56755D01*
X-149043Y-56802D01*
X-149045Y-56849D01*
X-149052Y-56943D01*
X-147904Y-56943D01*
X-147857Y-56943D01*
X-147813Y-56944D01*
X-147770Y-56946D01*
X-147729Y-56949D01*
X-147689Y-56952D01*
X-147651Y-56957D01*
X-147615Y-56962D01*
X-147615Y-56792D01*
X-147652Y-56792D01*
X-147690Y-56792D01*
X-147731Y-56793D01*
X-147774Y-56794D01*
X-147820Y-56795D01*
X-147867Y-56796D01*
X-147917Y-56798D01*
X-148855Y-56798D01*
X-148855Y-55059D01*
X-147891Y-55059D01*
X-147842Y-55060D01*
X-147795Y-55061D01*
X-147750Y-55061D01*
X-147707Y-55063D01*
X-147667Y-55064D01*
X-147628Y-55066D01*
X-147628Y-54902D01*
G37*
G36*
G01X-148724Y-55315D02*
X-148724Y-55485D01*
X-148715Y-55485D01*
X-148691Y-55484D01*
X-148657Y-55483D01*
X-148622Y-55481D01*
X-148585Y-55480D01*
X-148548Y-55480D01*
X-148508Y-55480D01*
X-148468Y-55479D01*
X-148337Y-55479D01*
X-148337Y-55833D01*
X-148409Y-55833D01*
X-148457Y-55832D01*
X-148502Y-55830D01*
X-148546Y-55829D01*
X-148589Y-55828D01*
X-148629Y-55828D01*
X-148667Y-55827D01*
X-148704Y-55827D01*
X-148704Y-55991D01*
X-148700Y-55991D01*
X-148667Y-55987D01*
X-148629Y-55985D01*
X-148589Y-55982D01*
X-148546Y-55980D01*
X-148502Y-55979D01*
X-148457Y-55978D01*
X-148409Y-55978D01*
X-148337Y-55978D01*
X-148337Y-56372D01*
X-148455Y-56372D01*
X-148504Y-56371D01*
X-148552Y-56370D01*
X-148597Y-56369D01*
X-148640Y-56367D01*
X-148681Y-56365D01*
X-148720Y-56362D01*
X-148757Y-56359D01*
X-148757Y-56522D01*
X-148746Y-56522D01*
X-148717Y-56521D01*
X-148675Y-56519D01*
X-148632Y-56518D01*
X-148588Y-56517D01*
X-148543Y-56517D01*
X-148496Y-56516D01*
X-147917Y-56516D01*
X-147880Y-56517D01*
X-147843Y-56517D01*
X-147807Y-56518D01*
X-147772Y-56519D01*
X-147739Y-56521D01*
X-147707Y-56522D01*
X-147707Y-56359D01*
X-147710Y-56359D01*
X-147739Y-56362D01*
X-147773Y-56365D01*
X-147808Y-56367D01*
X-147845Y-56369D01*
X-147883Y-56370D01*
X-147922Y-56371D01*
X-147963Y-56372D01*
X-148146Y-56372D01*
X-148146Y-55978D01*
X-148028Y-55978D01*
X-147996Y-55978D01*
X-147963Y-55979D01*
X-147930Y-55980D01*
X-147896Y-55982D01*
X-147862Y-55985D01*
X-147827Y-55987D01*
X-147792Y-55991D01*
X-147792Y-55827D01*
X-147828Y-55827D01*
X-147863Y-55828D01*
X-147898Y-55828D01*
X-147932Y-55829D01*
X-147967Y-55830D01*
X-148001Y-55832D01*
X-148035Y-55833D01*
X-148146Y-55833D01*
X-148146Y-55479D01*
X-148009Y-55479D01*
X-147970Y-55480D01*
X-147931Y-55480D01*
X-147894Y-55480D01*
X-147857Y-55481D01*
X-147822Y-55483D01*
X-147787Y-55484D01*
X-147752Y-55486D01*
X-147752Y-55316D01*
X-147759Y-55316D01*
X-147787Y-55317D01*
X-147822Y-55320D01*
X-147857Y-55322D01*
X-147894Y-55325D01*
X-147931Y-55328D01*
X-147970Y-55331D01*
X-148009Y-55335D01*
X-148468Y-55335D01*
X-148510Y-55331D01*
X-148550Y-55328D01*
X-148589Y-55325D01*
X-148625Y-55322D01*
X-148660Y-55320D01*
X-148693Y-55317D01*
X-148724Y-55315D01*
G37*
G36*
G01X-144944Y-54882D02*
X-146204Y-54882D01*
X-146200Y-54942D01*
X-146198Y-54997D01*
X-146195Y-55048D01*
X-146193Y-55095D01*
X-146192Y-55138D01*
X-146191Y-55176D01*
X-146191Y-56729D01*
X-146192Y-56777D01*
X-146193Y-56825D01*
X-146195Y-56873D01*
X-146198Y-56920D01*
X-146200Y-56968D01*
X-146204Y-57015D01*
X-146020Y-57015D01*
X-146020Y-55059D01*
X-145134Y-55059D01*
X-145134Y-56700D01*
X-145135Y-56725D01*
X-145137Y-56747D01*
X-145141Y-56767D01*
X-145145Y-56783D01*
X-145151Y-56798D01*
X-145159Y-56809D01*
X-145167Y-56818D01*
X-145180Y-56824D01*
X-145199Y-56830D01*
X-145224Y-56833D01*
X-145256Y-56835D01*
X-145294Y-56835D01*
X-145339Y-56834D01*
X-145390Y-56831D01*
X-145378Y-56863D01*
X-145365Y-56895D01*
X-145354Y-56927D01*
X-145342Y-56958D01*
X-145331Y-56990D01*
X-145321Y-57022D01*
X-145312Y-57054D01*
X-145309Y-57054D01*
X-145266Y-57046D01*
X-145223Y-57039D01*
X-145183Y-57030D01*
X-145146Y-57022D01*
X-145111Y-57013D01*
X-145079Y-57004D01*
X-145049Y-56995D01*
X-145023Y-56983D01*
X-145001Y-56965D01*
X-144983Y-56942D01*
X-144969Y-56913D01*
X-144959Y-56878D01*
X-144953Y-56837D01*
X-144951Y-56792D01*
X-144951Y-55315D01*
X-144950Y-55254D01*
X-144950Y-55191D01*
X-144950Y-55130D01*
X-144946Y-54944D01*
X-144944Y-54882D01*
G37*
G36*
G01X-145404Y-55296D02*
X-145416Y-55338D01*
X-145431Y-55388D01*
X-145449Y-55444D01*
X-145470Y-55507D01*
X-145493Y-55576D01*
X-145519Y-55652D01*
X-145548Y-55735D01*
X-145567Y-55702D01*
X-145590Y-55661D01*
X-145617Y-55614D01*
X-145648Y-55559D01*
X-145682Y-55498D01*
X-145721Y-55430D01*
X-145764Y-55355D01*
X-145792Y-55369D01*
X-145818Y-55383D01*
X-145843Y-55397D01*
X-145866Y-55410D01*
X-145888Y-55423D01*
X-145909Y-55435D01*
X-145928Y-55446D01*
X-145904Y-55479D01*
X-145881Y-55511D01*
X-145858Y-55544D01*
X-145835Y-55578D01*
X-145813Y-55613D01*
X-145792Y-55647D01*
X-145771Y-55683D01*
X-145750Y-55718D01*
X-145730Y-55754D01*
X-145689Y-55823D01*
X-145668Y-55857D01*
X-145647Y-55892D01*
X-145626Y-55926D01*
X-145645Y-55961D01*
X-145665Y-55996D01*
X-145684Y-56030D01*
X-145704Y-56064D01*
X-145724Y-56097D01*
X-145744Y-56130D01*
X-145764Y-56162D01*
X-145786Y-56196D01*
X-145809Y-56230D01*
X-145835Y-56265D01*
X-145862Y-56301D01*
X-145891Y-56337D01*
X-145922Y-56374D01*
X-145955Y-56411D01*
X-145932Y-56428D01*
X-145910Y-56447D01*
X-145888Y-56467D01*
X-145867Y-56487D01*
X-145846Y-56509D01*
X-145824Y-56531D01*
X-145804Y-56556D01*
X-145787Y-56529D01*
X-145769Y-56501D01*
X-145751Y-56472D01*
X-145732Y-56442D01*
X-145713Y-56411D01*
X-145693Y-56379D01*
X-145672Y-56345D01*
X-145652Y-56311D01*
X-145632Y-56276D01*
X-145612Y-56241D01*
X-145592Y-56204D01*
X-145573Y-56167D01*
X-145554Y-56128D01*
X-145535Y-56089D01*
X-145504Y-56151D01*
X-145474Y-56212D01*
X-145446Y-56272D01*
X-145420Y-56331D01*
X-145395Y-56389D01*
X-145372Y-56446D01*
X-145351Y-56502D01*
X-145330Y-56486D01*
X-145308Y-56470D01*
X-145285Y-56455D01*
X-145262Y-56440D01*
X-145238Y-56425D01*
X-145213Y-56411D01*
X-145187Y-56398D01*
X-145208Y-56361D01*
X-145235Y-56314D01*
X-145266Y-56256D01*
X-145303Y-56189D01*
X-145344Y-56111D01*
X-145391Y-56024D01*
X-145443Y-55926D01*
X-145426Y-55883D01*
X-145409Y-55841D01*
X-145392Y-55800D01*
X-145375Y-55759D01*
X-145359Y-55720D01*
X-145342Y-55681D01*
X-145325Y-55643D01*
X-145309Y-55604D01*
X-145293Y-55567D01*
X-145276Y-55530D01*
X-145258Y-55494D01*
X-145240Y-55460D01*
X-145220Y-55426D01*
X-145200Y-55394D01*
X-145231Y-55379D01*
X-145262Y-55365D01*
X-145292Y-55350D01*
X-145321Y-55336D01*
X-145349Y-55322D01*
X-145377Y-55309D01*
X-145404Y-55296D01*
G37*
G36*
G01X-139229Y-54784D02*
X-139878Y-54784D01*
X-139878Y-57067D01*
X-139229Y-57067D01*
X-139229Y-56903D01*
X-139702Y-56903D01*
X-139702Y-54948D01*
X-139229Y-54948D01*
X-139229Y-54784D01*
G37*
G36*
G01X-141066Y-54784D02*
X-141716Y-54784D01*
X-141716Y-54948D01*
X-141243Y-54948D01*
X-141243Y-56903D01*
X-141716Y-56903D01*
X-141716Y-57067D01*
X-141066Y-57067D01*
X-141066Y-54784D01*
G37*
G36*
G01X-132667Y-54784D02*
X-133317Y-54784D01*
X-133317Y-54948D01*
X-132844Y-54948D01*
X-132844Y-56903D01*
X-133317Y-56903D01*
X-133317Y-57067D01*
X-132667Y-57067D01*
X-132667Y-54784D01*
G37*
G36*
G01X-134846Y-54843D02*
X-134846Y-55013D01*
X-134833Y-55013D01*
X-134796Y-55012D01*
X-134749Y-55010D01*
X-134704Y-55009D01*
X-134660Y-55008D01*
X-134619Y-55007D01*
X-134581Y-55007D01*
X-134544Y-55007D01*
X-134554Y-55061D01*
X-134566Y-55113D01*
X-134579Y-55162D01*
X-134594Y-55208D01*
X-134611Y-55251D01*
X-134629Y-55291D01*
X-134649Y-55328D01*
X-134670Y-55365D01*
X-134693Y-55399D01*
X-134718Y-55431D01*
X-134744Y-55461D01*
X-134772Y-55489D01*
X-134802Y-55515D01*
X-134833Y-55538D01*
X-134804Y-55556D01*
X-134776Y-55574D01*
X-134751Y-55594D01*
X-134728Y-55615D01*
X-134706Y-55636D01*
X-134686Y-55659D01*
X-134669Y-55683D01*
X-134632Y-55642D01*
X-134599Y-55602D01*
X-134568Y-55563D01*
X-134540Y-55524D01*
X-134515Y-55487D01*
X-134492Y-55450D01*
X-134472Y-55414D01*
X-134455Y-55373D01*
X-134438Y-55327D01*
X-134421Y-55275D01*
X-134404Y-55217D01*
X-134387Y-55152D01*
X-134370Y-55083D01*
X-134354Y-55007D01*
X-133980Y-55007D01*
X-133987Y-55086D01*
X-133993Y-55156D01*
X-133998Y-55215D01*
X-134003Y-55265D01*
X-134007Y-55305D01*
X-134010Y-55335D01*
X-134013Y-55355D01*
X-134017Y-55369D01*
X-134024Y-55381D01*
X-134033Y-55391D01*
X-134044Y-55400D01*
X-134058Y-55406D01*
X-134074Y-55411D01*
X-134091Y-55414D01*
X-134111Y-55417D01*
X-134132Y-55420D01*
X-134156Y-55422D01*
X-134181Y-55424D01*
X-134208Y-55426D01*
X-134237Y-55426D01*
X-134269Y-55427D01*
X-134254Y-55457D01*
X-134241Y-55486D01*
X-134230Y-55516D01*
X-134219Y-55544D01*
X-134210Y-55573D01*
X-134202Y-55602D01*
X-134196Y-55630D01*
X-134191Y-55630D01*
X-134159Y-55628D01*
X-134123Y-55624D01*
X-134089Y-55619D01*
X-134055Y-55612D01*
X-134022Y-55604D01*
X-133991Y-55595D01*
X-133960Y-55584D01*
X-133933Y-55573D01*
X-133909Y-55559D01*
X-133889Y-55543D01*
X-133871Y-55523D01*
X-133856Y-55500D01*
X-133844Y-55475D01*
X-133835Y-55446D01*
X-133828Y-55409D01*
X-133820Y-55355D01*
X-133811Y-55285D01*
X-133803Y-55200D01*
X-133794Y-55099D01*
X-133785Y-54982D01*
X-133776Y-54849D01*
X-134584Y-54849D01*
X-134625Y-54849D01*
X-134667Y-54848D01*
X-134710Y-54847D01*
X-134754Y-54846D01*
X-134799Y-54844D01*
X-134846Y-54843D01*
G37*
G36*
G01X-134137Y-55696D02*
X-134341Y-55696D01*
X-134339Y-55718D01*
X-134337Y-55746D01*
X-134336Y-55780D01*
X-134335Y-55820D01*
X-134335Y-55867D01*
X-134334Y-55919D01*
X-134334Y-55978D01*
X-134504Y-55978D01*
X-134498Y-55956D01*
X-134491Y-55936D01*
X-134481Y-55918D01*
X-134471Y-55901D01*
X-134460Y-55885D01*
X-134447Y-55872D01*
X-134432Y-55860D01*
X-134462Y-55845D01*
X-134521Y-55815D01*
X-134550Y-55800D01*
X-134579Y-55785D01*
X-134607Y-55770D01*
X-134636Y-55755D01*
X-134646Y-55791D01*
X-134656Y-55827D01*
X-134667Y-55863D01*
X-134680Y-55900D01*
X-134693Y-55936D01*
X-134706Y-55973D01*
X-134721Y-56011D01*
X-134737Y-56047D01*
X-134753Y-56082D01*
X-134770Y-56115D01*
X-134787Y-56146D01*
X-134806Y-56175D01*
X-134826Y-56202D01*
X-134846Y-56227D01*
X-134820Y-56244D01*
X-134795Y-56259D01*
X-134770Y-56274D01*
X-134747Y-56288D01*
X-134724Y-56302D01*
X-134703Y-56314D01*
X-134682Y-56326D01*
X-134664Y-56294D01*
X-134647Y-56265D01*
X-134633Y-56236D01*
X-134620Y-56209D01*
X-134608Y-56183D01*
X-134598Y-56159D01*
X-134590Y-56135D01*
X-134334Y-56135D01*
X-134334Y-56418D01*
X-134557Y-56418D01*
X-134595Y-56417D01*
X-134634Y-56417D01*
X-134674Y-56417D01*
X-134716Y-56415D01*
X-134758Y-56414D01*
X-134801Y-56413D01*
X-134846Y-56411D01*
X-134846Y-56581D01*
X-134833Y-56581D01*
X-134796Y-56580D01*
X-134750Y-56578D01*
X-134706Y-56577D01*
X-134665Y-56576D01*
X-134626Y-56576D01*
X-134590Y-56575D01*
X-134334Y-56575D01*
X-134334Y-56687D01*
X-134334Y-56729D01*
X-134335Y-56774D01*
X-134335Y-56821D01*
X-134336Y-56871D01*
X-134337Y-56923D01*
X-134339Y-56978D01*
X-134341Y-57034D01*
X-134144Y-57034D01*
X-134147Y-56978D01*
X-134150Y-56923D01*
X-134152Y-56871D01*
X-134154Y-56821D01*
X-134156Y-56774D01*
X-134156Y-56729D01*
X-134157Y-56687D01*
X-134157Y-56575D01*
X-134027Y-56575D01*
X-133969Y-56576D01*
X-133911Y-56576D01*
X-133854Y-56577D01*
X-133797Y-56578D01*
X-133741Y-56580D01*
X-133684Y-56581D01*
X-133684Y-56411D01*
X-133699Y-56411D01*
X-133742Y-56413D01*
X-133800Y-56414D01*
X-133857Y-56415D01*
X-133915Y-56417D01*
X-133972Y-56417D01*
X-134028Y-56417D01*
X-134085Y-56418D01*
X-134157Y-56418D01*
X-134157Y-56135D01*
X-134032Y-56135D01*
X-133994Y-56136D01*
X-133957Y-56137D01*
X-133920Y-56139D01*
X-133882Y-56142D01*
X-133844Y-56146D01*
X-133807Y-56150D01*
X-133770Y-56155D01*
X-133770Y-55972D01*
X-133775Y-55972D01*
X-133797Y-55973D01*
X-133827Y-55974D01*
X-133859Y-55976D01*
X-133894Y-55977D01*
X-133931Y-55978D01*
X-133970Y-55978D01*
X-134157Y-55978D01*
X-134156Y-55926D01*
X-134155Y-55877D01*
X-134153Y-55833D01*
X-134150Y-55793D01*
X-134147Y-55756D01*
X-134142Y-55724D01*
X-134137Y-55696D01*
G37*
M02*
