999
dxfrw 0.6.3
  0
SECTION
  2
HEADER
  9
$ACADVER
  1
AC1021
  9
$DWGCODEPAGE
  3
ANSI_1252
  9
$INSBASE
 10
0
 20
0
 30
0
  9
$EXTMIN
 10
-2.867128202160472
 20
13.24352100425356
 30
0
  9
$EXTMAX
 10
354.0948273710362
 20
149.8206441774337
 30
0
  9
$LIMMIN
 10
0
 20
0
  9
$LIMMAX
 10
420
 20
297
  9
$ORTHOMODE
 70
    0
  9
$REGENMODE
 70
    1
  9
$FILLMODE
 70
    0
  9
$QTEXTMODE
 70
    0
  9
$MIRRTEXT
 70
    0
  9
$LTSCALE
 40
1
  9
$ATTMODE
 70
    0
  9
$TEXTSIZE
 40
2.5
  9
$TRACEWID
 40
15.68
  9
$TEXTSTYLE
  7
STANDARD
  9
$CLAYER
  8
0
  9
$CELTYPE
  6
BYLAYER
  9
$CECOLOR
 62
  256
  9
$CELTSCALE
 40
1
  9
$DISPSILH
 70
    0
  9
$DIMSCALE
 40
2.5
  9
$DIMASZ
 40
2.5
  9
$DIMEXO
 40
0.625
  9
$DIMDLI
 40
3.75
  9
$DIMRND
 40
0
  9
$DIMDLE
 40
0
  9
$DIMEXE
 40
1.25
  9
$DIMTP
 40
0
  9
$DIMTM
 40
0
  9
$DIMTXT
 40
2.5
  9
$DIMCEN
 40
2.5
  9
$DIMTSZ
 40
0
  9
$DIMTOL
 70
    0
  9
$DIMLIM
 70
    0
  9
$DIMTIH
 70
    0
  9
$DIMTOH
 70
    0
  9
$DIMSE1
 70
    0
  9
$DIMSE2
 70
    0
  9
$DIMTAD
 70
    1
  9
$DIMZIN
 70
    8
  9
$DIMBLK
  1

  9
$DIMASO
 70
    1
  9
$DIMSHO
 70
    1
  9
$DIMPOST
  1

  9
$DIMAPOST
  1

  9
$DIMALT
 70
    0
  9
$DIMALTD
 70
    3
  9
$DIMALTF
 40
0.03937
  9
$DIMLFAC
 40
1
  9
$DIMTOFL
 70
    1
  9
$DIMTVP
 40
0
  9
$DIMTIX
 70
    0
  9
$DIMSOXD
 70
    0
  9
$DIMSAH
 70
    0
  9
$DIMBLK1
  1

  9
$DIMBLK2
  1

  9
$DIMSTYLE
  2
STANDARD
  9
$DIMCLRD
 70
    0
  9
$DIMCLRE
 70
    0
  9
$DIMCLRT
 70
    0
  9
$DIMTFAC
 40
1
  9
$DIMGAP
 40
0.625
  9
$DIMJUST
 70
    0
  9
$DIMSD1
 70
    0
  9
$DIMSD2
 70
    0
  9
$DIMTOLJ
 70
    0
  9
$DIMTZIN
 70
    8
  9
$DIMALTZ
 70
    0
  9
$DIMALTTZ
 70
    0
  9
$DIMUPT
 70
    0
  9
$DIMDEC
 70
    4
  9
$DIMTDEC
 70
    2
  9
$DIMALTU
 70
    2
  9
$DIMALTTD
 70
    3
  9
$DIMTXSTY
  7
STANDARD
  9
$DIMAUNIT
 70
    0
  9
$DIMADEC
 70
    0
  9
$DIMALTRND
 40
0
  9
$DIMAZIN
 70
    0
  9
$DIMDSEP
 70
   44
  9
$DIMATFIT
 70
    3
  9
$DIMFRAC
 70
    0
  9
$DIMLDRBLK
  1
STANDARD
  9
$DIMLUNIT
 70
    2
  9
$DIMLWD
 70
   -2
  9
$DIMLWE
 70
   -2
  9
$DIMTMOVE
 70
    0
  9
$DIMFXL
 40
1
  9
$DIMFXLON
 70
    0
  9
$DIMJOGANG
 40
0.7854
  9
$DIMTFILL
 70
    0
  9
$DIMTFILLCLR
 70
    0
  9
$DIMARCSYM
 70
    0
  9
$DIMLTYPE
  6

  9
$DIMLTEX1
  6

  9
$DIMLTEX2
  6

  9
$LUNITS
 70
    2
  9
$LUPREC
 70
    4
  9
$SKETCHINC
 40
1
  9
$FILLETRAD
 40
0
  9
$AUNITS
 70
    0
  9
$AUPREC
 70
    2
  9
$MENU
  1
.
  9
$ELEVATION
 40
0
  9
$PELEVATION
 40
0
  9
$THICKNESS
 40
0
  9
$LIMCHECK
 70
    0
  9
$CHAMFERA
 40
0
  9
$CHAMFERB
 40
0
  9
$CHAMFERC
 40
0
  9
$CHAMFERD
 40
0
  9
$SKPOLY
 70
    0
  9
$USRTIMER
 70
    1
  9
$ANGBASE
 50
0
  9
$ANGDIR
 70
    0
  9
$PDMODE
 70
   34
  9
$PDSIZE
 40
0
  9
$PLINEWID
 40
0
  9
$SPLFRAME
 70
    1
  9
$SPLINETYPE
 70
    2
  9
$SPLINESEGS
 70
    8
  9
$HANDSEED
  5
20000
  9
$SURFTAB1
 70
    6
  9
$SURFTAB2
 70
    6
  9
$SURFTYPE
 70
    6
  9
$SURFU
 70
    6
  9
$SURFV
 70
    6
  9
$UCSBASE
  2

  9
$UCSNAME
  2

  9
$UCSORG
 10
0
 20
0
 30
0
  9
$UCSXDIR
 10
1
 20
0
 30
0
  9
$UCSYDIR
 10
0
 20
1
 30
0
  9
$UCSORTHOREF
  2

  9
$UCSORTHOVIEW
 70
    0
  9
$UCSORGTOP
 10
0
 20
0
 30
0
  9
$UCSORGBOTTOM
 10
0
 20
0
 30
0
  9
$UCSORGLEFT
 10
0
 20
0
 30
0
  9
$UCSORGRIGHT
 10
0
 20
0
 30
0
  9
$UCSORGFRONT
 10
0
 20
0
 30
0
  9
$UCSORGBACK
 10
0
 20
0
 30
0
  9
$PUCSBASE
  2

  9
$PUCSNAME
  2

  9
$PUCSORG
 10
0
 20
0
 30
0
  9
$PUCSXDIR
 10
1
 20
0
 30
0
  9
$PUCSYDIR
 10
0
 20
1
 30
0
  9
$PUCSORTHOREF
  2

  9
$PUCSORTHOVIEW
 70
    0
  9
$PUCSORGTOP
 10
0
 20
0
 30
0
  9
$PUCSORGBOTTOM
 10
0
 20
0
 30
0
  9
$PUCSORGLEFT
 10
0
 20
0
 30
0
  9
$PUCSORGRIGHT
 10
0
 20
0
 30
0
  9
$PUCSORGFRONT
 10
0
 20
0
 30
0
  9
$PUCSORGBACK
 10
0
 20
0
 30
0
  9
$USERI1
 70
    0
  9
$USERI2
 70
    0
  9
$USERI3
 70
    0
  9
$USERI4
 70
    0
  9
$USERI5
 70
    0
  9
$USERR1
 40
0
  9
$USERR2
 40
0
  9
$USERR3
 40
0
  9
$USERR4
 40
0
  9
$USERR5
 40
0
  9
$WORLDVIEW
 70
    1
  9
$SHADEDGE
 70
    3
  9
$SHADEDIF
 70
   70
  9
$TILEMODE
 70
    1
  9
$MAXACTVP
 70
   64
  9
$PINSBASE
 10
0
 20
0
 30
0
  9
$PLIMCHECK
 70
    0
  9
$PEXTMIN
 10
0
 20
0
 30
0
  9
$PEXTMAX
 10
0
 20
0
 30
0
  9
$GRIDMODE
 70
    1
  9
$SNAPSTYLE
 70
    0
  9
$PLIMMIN
 10
0
 20
0
  9
$PLIMMAX
 10
210
 20
297
  9
$UNITMODE
 70
    0
  9
$VISRETAIN
 70
    1
  9
$PLINEGEN
 70
    0
  9
$PSLTSCALE
 70
    1
  9
$TREEDEPTH
 70
 3020
  9
$CMLSTYLE
  2
Standard
  9
$CMLJUST
 70
    0
  9
$CMLSCALE
 40
20
  9
$PROXYGRAPHICS
 70
    1
  9
$MEASUREMENT
 70
    1
  9
$CELWEIGHT
370
   -1
  9
$ENDCAPS
280
    0
  9
$JOINSTYLE
280
    0
  9
$LWDISPLAY
290
    0
  9
$INSUNITS
 70
    4
  9
$HYPERLINKBASE
  1

  9
$STYLESHEET
  1

  9
$XEDIT
290
    1
  9
$CEPSNTYPE
380
    0
  9
$PSTYLEMODE
290
    1
  9
$EXTNAMES
290
    1
  9
$PSVPSCALE
 40
1
  9
$OLESTARTUP
290
    0
  9
$SORTENTS
280
  127
  9
$INDEXCTL
280
    0
  9
$HIDETEXT
280
    1
  9
$XCLIPFRAME
290
    0
  9
$HALOGAP
280
    0
  9
$OBSCOLOR
 70
  257
  9
$OBSLTYPE
280
    0
  9
$INTERSECTIONDISPLAY
280
    0
  9
$INTERSECTIONCOLOR
 70
  257
  9
$DIMASSOC
280
    1
  9
$PROJECTNAME
  1

  9
$CAMERADISPLAY
290
    0
  9
$LENSLENGTH
 40
50
  9
$CAMERAHEIGHT
 40
0
  9
$STEPSPERSEC
 40
2
  9
$STEPSIZE
 40
50
  9
$3DDWFPREC
 40
2
  9
$PSOLWIDTH
 40
5
  9
$PSOLHEIGHT
 40
80
  9
$LOFTANG1
 40
1.570796326794897
  9
$LOFTANG2
 40
1.570796326794897
  9
$LOFTMAG1
 40
0
  9
$LOFTMAG2
 40
0
  9
$LOFTPARAM
 70
    7
  9
$LOFTNORMALS
280
    1
  9
$LATITUDE
 40
1
  9
$LONGITUDE
 40
1
  9
$NORTHDIRECTION
 40
0
  9
$TIMEZONE
 70
-8000
  9
$LIGHTGLYPHDISPLAY
280
    1
  9
$TILEMODELIGHTSYNCH
280
    1
  9
$SOLIDHIST
280
    1
  9
$SHOWHIST
280
    1
  9
$DWFFRAME
280
    2
  9
$DGNFRAME
280
    0
  9
$REALWORLDSCALE
290
    1
  9
$INTERFERECOLOR
 62
    1
  9
$CSHADOW
280
    0
  9
$SHADOWPLANELOCATION
 40
0
  0
ENDSEC
  0
SECTION
  2
CLASSES
  0
ENDSEC
  0
SECTION
  2
TABLES
  0
TABLE
  2
VPORT
  5
8
330
0
100
AcDbSymbolTable
 70
    1
  0
VPORT
  5
31
330
2
100
AcDbSymbolTableRecord
100
AcDbViewportTableRecord
  2
*ACTIVE
 70
    0
 10
0
 20
0
 11
1
 21
1
 12
165.2271368908449
 22
151.4043818890307
 13
0
 23
0
 14
10
 24
10
 15
10
 25
10
 16
0
 26
0
 36
1
 17
0
 27
0
 37
0
 40
309.7847335920611
 41
1.868223519599666
 42
50
 43
0
 44
0
 50
0
 51
0
 71
    0
 72
  100
 73
    1
 74
    3
 75
    0
 76
    1
 77
    0
 78
    0
281
    0
 65
    1
110
0
120
0
130
0
111
1
121
0
131
0
112
0
122
1
132
0
 79
    0
146
0
348
10020
 60
    7
 61
    5
292
1
282
    1
141
0
142
0
 63
  250
421
3358443
  0
ENDTAB
  0
TABLE
  2
LTYPE
  5
5
330
0
100
AcDbSymbolTable
 70
    4
  0
LTYPE
  5
14
330
5
100
AcDbSymbolTableRecord
100
AcDbLinetypeTableRecord
  2
ByBlock
 70
    0
  3

 72
   65
 73
    0
 40
0
  0
LTYPE
  5
15
330
5
100
AcDbSymbolTableRecord
100
AcDbLinetypeTableRecord
  2
ByLayer
 70
    0
  3

 72
   65
 73
    0
 40
0
  0
LTYPE
  5
16
330
5
100
AcDbSymbolTableRecord
100
AcDbLinetypeTableRecord
  2
Continuous
 70
    0
  3
Solid line
 72
   65
 73
    0
 40
0
  0
LTYPE
  5
32
330
5
100
AcDbSymbolTableRecord
100
AcDbLinetypeTableRecord
  2
DOT
 70
    0
  3
Dot . . . . . . . . . . . . . . . . . . . . . .
 72
   65
 73
    2
 40
6.35
 49
0
 74
    0
 49
-6.35
 74
    0
  0
LTYPE
  5
33
330
5
100
AcDbSymbolTableRecord
100
AcDbLinetypeTableRecord
  2
DOTTINY
 70
    0
  3
Dot (.15x) .....................................
 72
   65
 73
    2
 40
0.9525
 49
0
 74
    0
 49
-0.9525
 74
    0
  0
LTYPE
  5
34
330
5
100
AcDbSymbolTableRecord
100
AcDbLinetypeTableRecord
  2
DOT2
 70
    0
  3
Dot (.5x) .....................................
 72
   65
 73
    2
 40
3.175
 49
0
 74
    0
 49
-3.175
 74
    0
  0
LTYPE
  5
35
330
5
100
AcDbSymbolTableRecord
100
AcDbLinetypeTableRecord
  2
DOTX2
 70
    0
  3
Dot (2x) .  .  .  .  .  .  .  .  .  .  .  .  .
 72
   65
 73
    2
 40
12.7
 49
0
 74
    0
 49
-12.7
 74
    0
  0
LTYPE
  5
36
330
5
100
AcDbSymbolTableRecord
100
AcDbLinetypeTableRecord
  2
DASHED
 70
    0
  3
Dashed _ _ _ _ _ _ _ _ _ _ _ _ _ _ _ _ _
 72
   65
 73
    2
 40
19.05
 49
12.7
 74
    0
 49
-6.35
 74
    0
  0
LTYPE
  5
37
330
5
100
AcDbSymbolTableRecord
100
AcDbLinetypeTableRecord
  2
DASHEDTINY
 70
    0
  3
Dashed (.15x) _ _ _ _ _ _ _ _ _ _ _ _ _ _ _ _ _
 72
   65
 73
    2
 40
2.8575
 49
1.905
 74
    0
 49
-0.9525
 74
    0
  0
LTYPE
  5
38
330
5
100
AcDbSymbolTableRecord
100
AcDbLinetypeTableRecord
  2
DASHED2
 70
    0
  3
Dashed (.5x) _ _ _ _ _ _ _ _ _ _ _ _ _ _ _ _ _
 72
   65
 73
    2
 40
9.524999999999999
 49
6.35
 74
    0
 49
-3.175
 74
    0
  0
LTYPE
  5
39
330
5
100
AcDbSymbolTableRecord
100
AcDbLinetypeTableRecord
  2
DASHEDX2
 70
    0
  3
Dashed (2x) ____  ____  ____  ____  ____  ___
 72
   65
 73
    2
 40
38.09999999999999
 49
25.4
 74
    0
 49
-12.7
 74
    0
  0
LTYPE
  5
3A
330
5
100
AcDbSymbolTableRecord
100
AcDbLinetypeTableRecord
  2
DASHDOT
 70
    0
  3
Dash dot __ . __ . __ . __ . __ . __ . __ . __
 72
   65
 73
    4
 40
25.4
 49
12.7
 74
    0
 49
-6.35
 74
    0
 49
0
 74
    0
 49
-6.35
 74
    0
  0
LTYPE
  5
3B
330
5
100
AcDbSymbolTableRecord
100
AcDbLinetypeTableRecord
  2
DASHDOTTINY
 70
    0
  3
Dash dot (.15x) _._._._._._._._._._._._._._._.
 72
   65
 73
    4
 40
3.81
 49
1.905
 74
    0
 49
-0.9525
 74
    0
 49
0
 74
    0
 49
-0.9525
 74
    0
  0
LTYPE
  5
3C
330
5
100
AcDbSymbolTableRecord
100
AcDbLinetypeTableRecord
  2
DASHDOT2
 70
    0
  3
Dash dot (.5x) _._._._._._._._._._._._._._._.
 72
   65
 73
    4
 40
12.7
 49
6.35
 74
    0
 49
-3.175
 74
    0
 49
0
 74
    0
 49
-3.175
 74
    0
  0
LTYPE
  5
3D
330
5
100
AcDbSymbolTableRecord
100
AcDbLinetypeTableRecord
  2
DASHDOTX2
 70
    0
  3
Dash dot (2x) ____  .  ____  .  ____  .  ___
 72
   65
 73
    4
 40
50.8
 49
25.4
 74
    0
 49
-12.7
 74
    0
 49
0
 74
    0
 49
-12.7
 74
    0
  0
LTYPE
  5
3E
330
5
100
AcDbSymbolTableRecord
100
AcDbLinetypeTableRecord
  2
DIVIDE
 70
    0
  3
Divide ____ . . ____ . . ____ . . ____ . . ____
 72
   65
 73
    6
 40
31.75
 49
12.7
 74
    0
 49
-6.35
 74
    0
 49
0
 74
    0
 49
-6.35
 74
    0
 49
0
 74
    0
 49
-6.35
 74
    0
  0
LTYPE
  5
3F
330
5
100
AcDbSymbolTableRecord
100
AcDbLinetypeTableRecord
  2
DIVIDETINY
 70
    0
  3
Divide (.15x) __..__..__..__..__..__..__..__.._
 72
   65
 73
    6
 40
4.7625
 49
1.905
 74
    0
 49
-0.9525
 74
    0
 49
0
 74
    0
 49
-0.9525
 74
    0
 49
0
 74
    0
 49
-0.9525
 74
    0
  0
LTYPE
  5
40
330
5
100
AcDbSymbolTableRecord
100
AcDbLinetypeTableRecord
  2
DIVIDE2
 70
    0
  3
Divide (.5x) __..__..__..__..__..__..__..__.._
 72
   65
 73
    6
 40
15.875
 49
6.35
 74
    0
 49
-3.175
 74
    0
 49
0
 74
    0
 49
-3.175
 74
    0
 49
0
 74
    0
 49
-3.175
 74
    0
  0
LTYPE
  5
41
330
5
100
AcDbSymbolTableRecord
100
AcDbLinetypeTableRecord
  2
DIVIDEX2
 70
    0
  3
Divide (2x) ________  .  .  ________  .  .  _
 72
   65
 73
    6
 40
63.5
 49
25.4
 74
    0
 49
-12.7
 74
    0
 49
0
 74
    0
 49
-12.7
 74
    0
 49
0
 74
    0
 49
-12.7
 74
    0
  0
LTYPE
  5
42
330
5
100
AcDbSymbolTableRecord
100
AcDbLinetypeTableRecord
  2
BORDER
 70
    0
  3
Border __ __ . __ __ . __ __ . __ __ . __ __ .
 72
   65
 73
    6
 40
44.45
 49
12.7
 74
    0
 49
-6.35
 74
    0
 49
12.7
 74
    0
 49
-6.35
 74
    0
 49
0
 74
    0
 49
-6.35
 74
    0
  0
LTYPE
  5
43
330
5
100
AcDbSymbolTableRecord
100
AcDbLinetypeTableRecord
  2
BORDERTINY
 70
    0
  3
Border (.15x) __.__.__.__.__.__.__.__.__.__.__.
 72
   65
 73
    6
 40
6.6675
 49
1.905
 74
    0
 49
-0.9525
 74
    0
 49
1.905
 74
    0
 49
-0.9525
 74
    0
 49
0
 74
    0
 49
-0.9525
 74
    0
  0
LTYPE
  5
44
330
5
100
AcDbSymbolTableRecord
100
AcDbLinetypeTableRecord
  2
BORDER2
 70
    0
  3
Border (.5x) __.__.__.__.__.__.__.__.__.__.__.
 72
   65
 73
    6
 40
22.225
 49
6.35
 74
    0
 49
-3.175
 74
    0
 49
6.35
 74
    0
 49
-3.175
 74
    0
 49
0
 74
    0
 49
-3.175
 74
    0
  0
LTYPE
  5
45
330
5
100
AcDbSymbolTableRecord
100
AcDbLinetypeTableRecord
  2
BORDERX2
 70
    0
  3
Border (2x) ____  ____  .  ____  ____  .  ___
 72
   65
 73
    6
 40
88.89999999999999
 49
25.4
 74
    0
 49
-12.7
 74
    0
 49
25.4
 74
    0
 49
-12.7
 74
    0
 49
0
 74
    0
 49
-12.7
 74
    0
  0
LTYPE
  5
46
330
5
100
AcDbSymbolTableRecord
100
AcDbLinetypeTableRecord
  2
CENTER
 70
    0
  3
Center ____ _ ____ _ ____ _ ____ _ ____ _ ____
 72
   65
 73
    4
 40
50.8
 49
31.75
 74
    0
 49
-6.35
 74
    0
 49
6.35
 74
    0
 49
-6.35
 74
    0
  0
LTYPE
  5
47
330
5
100
AcDbSymbolTableRecord
100
AcDbLinetypeTableRecord
  2
CENTERTINY
 70
    0
  3
Center (.15x) ___ _ ___ _ ___ _ ___ _ ___ _ ___
 72
   65
 73
    4
 40
7.62
 49
4.7625
 74
    0
 49
-0.9525
 74
    0
 49
0.9525
 74
    0
 49
-0.9525
 74
    0
  0
LTYPE
  5
48
330
5
100
AcDbSymbolTableRecord
100
AcDbLinetypeTableRecord
  2
CENTER2
 70
    0
  3
Center (.5x) ___ _ ___ _ ___ _ ___ _ ___ _ ___
 72
   65
 73
    4
 40
28.575
 49
19.05
 74
    0
 49
-3.175
 74
    0
 49
3.175
 74
    0
 49
-3.175
 74
    0
  0
LTYPE
  5
49
330
5
100
AcDbSymbolTableRecord
100
AcDbLinetypeTableRecord
  2
CENTERX2
 70
    0
  3
Center (2x) ________  __  ________  __  _____
 72
   65
 73
    4
 40
101.6
 49
63.5
 74
    0
 49
-12.7
 74
    0
 49
12.7
 74
    0
 49
-12.7
 74
    0
  0
ENDTAB
  0
TABLE
  2
LAYER
  5
2
330
0
100
AcDbSymbolTable
 70
    1
  0
LAYER
  5
10
330
2
100
AcDbSymbolTableRecord
100
AcDbLayerTableRecord
  2
0
 70
    0
 62
    7
  6
CONTINUOUS
370
   -3
390
F
  0
ENDTAB
  0
TABLE
  2
STYLE
  5
3
330
0
100
AcDbSymbolTable
 70
    3
  0
STYLE
  5
4A
330
2
100
AcDbSymbolTableRecord
100
AcDbTextStyleTableRecord
  2
Standard
 70
    0
 40
0
 41
1
 50
0
 71
    0
 42
1
  3
txt
  4

  0
ENDTAB
  0
TABLE
  2
VIEW
  5
6
330
0
100
AcDbSymbolTable
 70
    0
  0
ENDTAB
  0
TABLE
  2
UCS
  5
7
330
0
100
AcDbSymbolTable
 70
    0
  0
ENDTAB
  0
TABLE
  2
APPID
  5
9
330
0
100
AcDbSymbolTable
 70
    1
  0
APPID
  5
12
330
9
100
AcDbSymbolTableRecord
100
AcDbRegAppTableRecord
  2
ACAD
 70
    0
  0
APPID
  5
4B
330
9
100
AcDbSymbolTableRecord
100
AcDbRegAppTableRecord
  2
LibreCad
 70
    0
  0
ENDTAB
  0
TABLE
  2
DIMSTYLE
  5
A
330
0
100
AcDbSymbolTable
 70
    1
100
AcDbDimStyleTable
 71
    1
  0
DIMSTYLE
105
4C
330
A
100
AcDbSymbolTableRecord
100
AcDbDimStyleTableRecord
  2
Standard
 70
    0
 40
2.5
 41
2.5
 42
0.625
 43
0.38
 44
1.25
 45
0
 46
0
 47
0
 48
0
 49
1
140
2.5
141
0.09
142
0
143
25.4
144
1
145
0
146
1
147
0.625
148
0
 71
    0
 72
    0
 73
    0
 74
    1
 75
    0
 76
    0
 77
    0
 78
    8
 79
    0
170
    0
171
    2
172
    0
173
    0
174
    0
175
    0
176
    0
177
    0
178
    0
179
    0
271
    4
272
    4
273
    2
274
    2
275
    0
276
    0
277
    2
278
   44
279
    0
280
    0
281
    0
282
    0
283
    1
284
    0
285
    0
286
    0
288
    0
289
    3
340
STANDARD
341

371
   -2
372
   -2
  0
ENDTAB
  0
TABLE
  2
BLOCK_RECORD
  5
1
330
0
100
AcDbSymbolTable
 70
    2
  0
BLOCK_RECORD
  5
1F
330
1
100
AcDbSymbolTableRecord
100
AcDbBlockTableRecord
  2
*Model_Space
 70
    0
280
    1
281
    0
  0
BLOCK_RECORD
  5
1E
330
1
100
AcDbSymbolTableRecord
100
AcDbBlockTableRecord
  2
*Paper_Space
 70
    0
280
    1
281
    0
  0
BLOCK_RECORD
  5
4D
330
1
100
AcDbSymbolTableRecord
100
AcDbBlockTableRecord
  2
*D2
 70
    0
280
    1
281
    0
  0
BLOCK_RECORD
  5
50
330
1
100
AcDbSymbolTableRecord
100
AcDbBlockTableRecord
  2
*D1
 70
    0
280
    1
281
    0
  0
BLOCK_RECORD
  5
53
330
1
100
AcDbSymbolTableRecord
100
AcDbBlockTableRecord
  2
*D3
 70
    0
280
    1
281
    0
  0
ENDTAB
  0
ENDSEC
  0
SECTION
  2
BLOCKS
  0
BLOCK
  5
20
330
1F
100
AcDbEntity
  8
0
100
AcDbBlockBegin
  2
*Model_Space
 70
    0
 10
0
 20
0
 30
0
  3
*Model_Space
  1

  0
ENDBLK
  5
21
330
1F
100
AcDbEntity
  8
0
100
AcDbBlockEnd
  0
BLOCK
  5
1C
330
1B
100
AcDbEntity
  8
0
100
AcDbBlockBegin
  2
*Paper_Space
 70
    0
 10
0
 20
0
 30
0
  3
*Paper_Space
  1

  0
ENDBLK
  5
1D
330
1F
100
AcDbEntity
  8
0
100
AcDbBlockEnd
  0
BLOCK
  5
4E
330
4D
100
AcDbEntity
  8
0
100
AcDbBlockBegin
  2
*D2
 70
    1
 10
0
 20
0
  3
*D2
  1

  0
LINE
  5
56
100
AcDbEntity
  8
0
  6
ByBlock
 62
    0
370
   -2
100
AcDbLine
 10
21.86109934092287
 20
114.2874283953488
 11
22.32741005027737
 21
115.8628564889187
  0
LINE
  5
57
100
AcDbEntity
  8
0
  6
ByBlock
 62
    0
370
   -2
100
AcDbLine
 10
29.99574823468508
 20
149.6109404238264
 11
-2.867128202160472
 21
149.8206441774337
  0
ARC
  5
58
100
AcDbEntity
  8
0
  6
ByBlock
 62
    0
370
   -2
100
AcDbCircle
 10
32.31212492836402
 20
149.5961592196197
 40
32.054969362093
100
AcDbArc
 50
179.6343905873921
 51
253.5117815257221
  0
SOLID
  5
59
100
AcDbEntity
  8
0
  6
ByBlock
 62
    0
370
   -2
100
AcDbTrace
 10
23.21434186289122
 20
118.8593506003385
 30
0
 11
17.03136604629096
 21
120.2436882680312
 31
0
 12
17.8135699015356
 22
122.1725428598205
 32
0
 13
17.8135699015356
 23
122.1725428598205
 33
0
  0
SOLID
  5
5A
100
AcDbEntity
  8
0
  6
ByBlock
 62
    0
370
   -2
100
AcDbTrace
 10
0.257808175736038
 20
149.8007034126778
 30
0
 11
1.862839204800734
 21
143.6713106105647
 31
0
 12
-0.2099515139102563
 22
143.4819391664349
 32
0
 13
-0.2099515139102563
 23
143.4819391664349
 33
0
  0
MTEXT
  5
5B
100
AcDbEntity
  8
0
  6
CONTINUOUS
 62
    0
370
   -2
100
AcDbMText
 10
7.823700373283374
 20
131.4272915992009
 30
0
 40
6.25
 41
12.5
 71
    8
 72
    1
  1
74%%D
  7
STANDARD
210
0
220
0
230
1
 50
-53.42691394344291
 73
    2
 44
1
  0
ENDBLK
  5
4F
330
4D
100
AcDbEntity
  8
0
100
AcDbBlockEnd
  0
BLOCK
  5
51
330
50
100
AcDbEntity
  8
0
100
AcDbBlockBegin
  2
*D1
 70
    1
 10
0
 20
0
  3
*D1
  1

  0
LINE
  5
5C
100
AcDbEntity
  8
0
  6
ByBlock
 62
    0
370
   -2
100
AcDbLine
 10
15.93092012443743
 20
95.82010269162977
 11
38.26714306143111
 21
77.76861173275077
  0
LINE
  5
5D
100
AcDbEntity
  8
0
  6
ByBlock
 62
    0
370
   -2
100
AcDbLine
 10
116.5375000018169
 20
13.25007535315144
 11
15.4552910160903
 21
13.2549501454772
  0
ARC
  5
5E
100
AcDbEntity
  8
0
  6
ByBlock
 62
    0
370
   -2
100
AcDbCircle
 10
118.1
 20
13.25000000000001
 40
99.51970910327256
100
AcDbArc
 50
141.0558564772278
 51
179.9972368527671
  0
SOLID
  5
5F
100
AcDbEntity
  8
0
  6
ByBlock
 62
    0
370
   -2
100
AcDbTrace
 10
40.69764026009358
 20
75.80435401867811
 30
0
 11
37.75323703505965
 21
70.19400016394967
 31
0
 12
36.0941140793369
 22
71.4508350477829
 32
0
 13
36.0941140793369
 23
71.4508350477829
 33
0
  0
SOLID
  5
60
100
AcDbEntity
  8
0
  6
ByBlock
 62
    0
370
   -2
100
AcDbTrace
 10
18.58029101245633
 20
13.25479943917435
 30
0
 11
17.73661808859208
 21
19.53443292564431
 31
0
 12
19.81701215455791
 22
19.46898494843745
 32
0
 13
19.81701215455791
 23
19.46898494843745
 33
0
  0
MTEXT
  5
61
100
AcDbEntity
  8
0
  6
CONTINUOUS
 62
    0
370
   -2
100
AcDbMText
 10
22.80009237637366
 20
46.94778337110636
 30
0
 40
6.25
 41
11.80555555555594
 71
    8
 72
    1
  1
39%%D
  7
STANDARD
210
0
220
0
230
1
 50
430.5265466649975
 73
    2
 44
1
  0
ENDBLK
  5
52
330
50
100
AcDbEntity
  8
0
100
AcDbBlockEnd
  0
BLOCK
  5
54
330
53
100
AcDbEntity
  8
0
100
AcDbBlockBegin
  2
*D3
 70
    1
 10
0
 20
0
  3
*D3
  1

  0
LINE
  5
62
100
AcDbEntity
  8
0
  6
ByBlock
 62
    0
370
   -2
100
AcDbLine
 10
27.26941298467131
 20
132.5524601569129
 11
20.82796349260737
 21
110.7900594881467
  0
LINE
  5
63
100
AcDbEntity
  8
0
  6
ByBlock
 62
    0
370
   -2
100
AcDbLine
 10
105.2659245197213
 20
149.1306282840174
 11
72.78364868482117
 21
149.3379033587169
  0
ARC
  5
64
100
AcDbEntity
  8
0
  6
ByBlock
 62
    0
370
   -2
100
AcDbCircle
 10
32.31417087901271
 20
149.5961461640513
 40
37.34530174364075
100
AcDbArc
 50
253.5117815257221
 51
359.6343905873921
  0
SOLID
  5
65
100
AcDbEntity
  8
0
  6
ByBlock
 62
    0
370
   -2
100
AcDbTrace
 10
21.71489530522122
 20
113.7865535995665
 30
0
 11
28.04610784172872
 21
113.5389075932857
 31
0
 12
27.62424248878994
 22
111.5006847076777
 32
0
 13
27.62424248878994
 23
111.5006847076777
 33
0
  0
SOLID
  5
66
100
AcDbEntity
  8
0
  6
ByBlock
 62
    0
370
   -2
100
AcDbTrace
 10
69.65871230692468
 20
149.3578441234728
 30
0
 11
70.13309429094384
 21
143.0395735958605
 31
0
 12
68.06010623482827
 22
143.2267724917666
 32
0
 13
68.06010623482827
 23
143.2267724917666
 33
0
  0
MTEXT
  5
67
100
AcDbEntity
  8
0
  6
CONTINUOUS
 62
    0
370
   -2
100
AcDbMText
 10
53.63527086103384
 20
120.8590691348655
 30
0
 40
6.25
 41
15.27777777777817
 71
    8
 72
    1
  1
106%%D
  7
STANDARD
210
0
220
0
230
1
 50
36.57308605655714
 73
    2
 44
1
  0
ENDBLK
  5
55
330
53
100
AcDbEntity
  8
0
100
AcDbBlockEnd
  0
ENDSEC
  0
SECTION
  2
ENTITIES
  0
LINE
  5
68
100
AcDbEntity
  8
0
  6
ByLayer
 62
    0
370
   -1
100
AcDbLine
 10
23.26719813783242
 20
110.2333163585987
 11
19.29405615531063
 21
96.80929465991528
  0
LINE
  5
69
100
AcDbEntity
  8
0
  6
ByLayer
 62
    0
370
   -1
100
AcDbLine
 10
32.7173765569356
 20
92.83482294718179
 11
36.69175691015477
 21
106.2581840113097
  0
LINE
  5
6A
100
AcDbEntity
  8
0
  6
ByLayer
 62
    0
370
   -1
100
AcDbLine
 10
36.69175691015477
 20
106.2581840113097
 11
23.26719813783242
 21
110.2333163585987
  0
LINE
  5
6B
100
AcDbEntity
  8
0
  6
ByLayer
 62
    0
370
   -1
100
AcDbLine
 10
42.88604288331226
 20
109.3914628008119
 11
38.91157117057879
 21
95.96814239918695
  0
LINE
  5
6C
100
AcDbEntity
  8
0
  6
ByLayer
 62
    0
370
   -1
100
AcDbLine
 10
38.91157117057879
 20
95.96814239918695
 11
52.33511495373532
 21
91.99368072096189
  0
LINE
  5
6D
100
AcDbEntity
  8
0
  6
ByLayer
 62
    0
370
   -1
100
AcDbLine
 10
52.33511495373532
 20
91.99368072096189
 11
56.31068298064051
 21
105.4165131725516
  0
LINE
  5
6E
100
AcDbEntity
  8
0
  6
ByLayer
 62
    0
370
   -1
100
AcDbLine
 10
56.31068298064051
 20
105.4165131725516
 11
42.88604288331226
 21
109.3914628008119
  0
LINE
  5
6F
100
AcDbEntity
  8
0
  6
ByLayer
 62
    0
370
   -1
100
AcDbLine
 10
116.1930740590355
 20
83.50310964265331
 11
128.9824924670102
 21
77.81076585597306
  0
LINE
  5
70
100
AcDbEntity
  8
0
  6
ByLayer
 62
    0
370
   -1
100
AcDbLine
 10
128.9824924670102
 20
77.81076585597306
 11
123.2900266928212
 21
65.02107336945542
  0
LINE
  5
71
100
AcDbEntity
  8
0
  6
ByLayer
 62
    0
370
   -1
100
AcDbLine
 10
123.2900266928212
 20
65.02107336945542
 11
110.5006082848465
 21
70.71341715613568
  0
LINE
  5
72
100
AcDbEntity
  8
0
  6
ByLayer
 62
    0
370
   -1
100
AcDbLine
 10
110.5006082848465
 20
70.71341715613568
 11
116.1930740590355
 21
83.50310964265331
  0
LINE
  5
73
100
AcDbEntity
  8
0
  6
ByLayer
 62
    0
370
   -1
100
AcDbLine
 10
98.78881250482158
 20
91.24943844038137
 11
111.5785049913392
 21
85.55697266619228
  0
LINE
  5
74
100
AcDbEntity
  8
0
  6
ByLayer
 62
    0
370
   -1
100
AcDbLine
 10
111.5785049913392
 20
85.55697266619228
 11
105.8860392171502
 21
72.76728017967464
  0
LINE
  5
75
100
AcDbEntity
  8
0
  6
ByLayer
 62
    0
370
   -1
100
AcDbLine
 10
105.8860392171502
 20
72.76728017967464
 11
93.0963467306325
 21
78.45974595386373
  0
LINE
  5
76
100
AcDbEntity
  8
0
  6
ByLayer
 62
    0
370
   -1
100
AcDbLine
 10
93.0963467306325
 20
78.45974595386373
 11
98.78881250482158
 21
91.24943844038137
  0
LINE
  5
77
100
AcDbEntity
  8
0
  6
ByLayer
 62
    0
370
   -1
100
AcDbLine
 10
65.91738925603437
 20
111.0928489297376
 11
78.70708174255202
 21
105.4003831555485
  0
LINE
  5
78
100
AcDbEntity
  8
0
  6
ByLayer
 62
    0
370
   -1
100
AcDbLine
 10
78.70708174255202
 20
105.4003831555485
 11
73.01461596836293
 21
92.61069066903084
  0
LINE
  5
79
100
AcDbEntity
  8
0
  6
ByLayer
 62
    0
370
   -1
100
AcDbLine
 10
73.01461596836293
 20
92.61069066903084
 11
60.22492348184528
 21
98.30315644321992
  0
LINE
  5
7A
100
AcDbEntity
  8
0
  6
ByLayer
 62
    0
370
   -1
100
AcDbLine
 10
60.22492348184528
 20
98.30315644321992
 11
65.91738925603437
 21
111.0928489297376
  0
LINE
  5
7B
100
AcDbEntity
  8
0
  6
ByLayer
 62
    0
370
   -1
100
AcDbLine
 10
28.67617241613632
 20
128.4995864908601
 11
24.70176053636564
 21
115.0761300009676
  0
LINE
  5
7C
100
AcDbEntity
  8
0
  6
ByLayer
 62
    0
370
   -1
100
AcDbLine
 10
24.70176053636564
 20
115.0761300009676
 11
38.12459298795534
 21
111.1005619740624
  0
LINE
  5
7D
100
AcDbEntity
  8
0
  6
ByLayer
 62
    0
370
   -1
100
AcDbLine
 10
38.12459298795534
 20
111.1005619740624
 11
42.09946129120979
 21
124.5250193523621
  0
LINE
  5
7E
100
AcDbEntity
  8
0
  6
ByLayer
 62
    0
370
   -1
100
AcDbLine
 10
42.09946129120979
 20
124.5250193523621
 11
28.67617241613632
 21
128.4995864908601
  0
LINE
  5
7F
100
AcDbEntity
  8
0
  6
ByLayer
 62
    0
370
   -1
100
AcDbLine
 10
48.29361524235004
 20
127.6582474448529
 11
44.32006663479882
 21
114.2333121510264
  0
LINE
  5
80
100
AcDbEntity
  8
0
  6
ByLayer
 62
    0
370
   -1
100
AcDbLine
 10
44.32006663479882
 20
114.2333121510264
 11
57.74387498645911
 21
110.2599367524646
  0
LINE
  5
81
100
AcDbEntity
  8
0
  6
ByLayer
 62
    0
370
   -1
100
AcDbLine
 10
57.74387498645911
 20
110.2599367524646
 11
61.71829600218121
 21
123.6833891761069
  0
LINE
  5
82
100
AcDbEntity
  8
0
  6
ByLayer
 62
    0
370
   -1
100
AcDbLine
 10
61.71829600218121
 20
123.6833891761069
 11
48.29361524235004
 21
127.6582474448529
  0
LINE
  5
83
100
AcDbEntity
  8
0
  6
ByLayer
 62
    0
370
   -1
100
AcDbLine
 10
87.19448013681499
 20
112.0486358573538
 11
99.98417262333263
 21
106.3561700831648
  0
LINE
  5
84
100
AcDbEntity
  8
0
  6
ByLayer
 62
    0
370
   -1
100
AcDbLine
 10
99.98417262333263
 20
106.3561700831648
 11
94.29170684914355
 21
93.56647759664713
  0
LINE
  5
85
100
AcDbEntity
  8
0
  6
ByLayer
 62
    0
370
   -1
100
AcDbLine
 10
94.29170684914355
 20
93.56647759664713
 11
81.50201436262591
 21
99.25894337083621
  0
LINE
  5
86
100
AcDbEntity
  8
0
  6
ByLayer
 62
    0
370
   -1
100
AcDbLine
 10
81.50201436262591
 20
99.25894337083621
 11
87.19448013681499
 21
112.0486358573538
  0
LINE
  5
87
100
AcDbEntity
  8
0
  6
ByLayer
 62
    0
370
   -1
100
AcDbLine
 10
123.9392808692548
 20
100.9070971183243
 11
136.7286992772295
 21
95.21475333164406
  0
LINE
  5
88
100
AcDbEntity
  8
0
  6
ByLayer
 62
    0
370
   -1
100
AcDbLine
 10
136.7286992772295
 20
95.21475333164406
 11
131.0362335030404
 21
82.42506084512641
  0
LINE
  5
89
100
AcDbEntity
  8
0
  6
ByLayer
 62
    0
370
   -1
100
AcDbLine
 10
131.0362335030404
 20
82.42506084512641
 11
118.2468150950657
 21
88.11740463180666
  0
LINE
  5
8A
100
AcDbEntity
  8
0
  6
ByLayer
 62
    0
370
   -1
100
AcDbLine
 10
118.2468150950657
 20
88.11740463180666
 11
123.9392808692548
 21
100.9070971183243
  0
LINE
  5
8B
100
AcDbEntity
  8
0
  6
ByLayer
 62
    0
370
   -1
100
AcDbLine
 10
106.5350193150408
 20
108.6534259160524
 11
119.3247118015585
 21
102.9609601418633
  0
LINE
  5
8C
100
AcDbEntity
  8
0
  6
ByLayer
 62
    0
370
   -1
100
AcDbLine
 10
119.3247118015585
 20
102.9609601418633
 11
113.6322460273694
 21
90.17126765534563
  0
LINE
  5
8D
100
AcDbEntity
  8
0
  6
ByLayer
 62
    0
370
   -1
100
AcDbLine
 10
113.6322460273694
 20
90.17126765534563
 11
100.8425535408517
 21
95.86373342953472
  0
LINE
  5
8E
100
AcDbEntity
  8
0
  6
ByLayer
 62
    0
370
   -1
100
AcDbLine
 10
100.8425535408517
 20
95.86373342953472
 11
106.5350193150408
 21
108.6534259160524
  0
LINE
  5
8F
100
AcDbEntity
  8
0
  6
ByLayer
 62
    0
370
   -1
100
AcDbLine
 10
73.66359606625358
 20
128.4968364054085
 11
86.45328855277123
 21
122.8043706312195
  0
LINE
  5
90
100
AcDbEntity
  8
0
  6
ByLayer
 62
    0
370
   -1
100
AcDbLine
 10
86.45328855277123
 20
122.8043706312195
 11
80.76082277858217
 21
110.0146781447019
  0
LINE
  5
91
100
AcDbEntity
  8
0
  6
ByLayer
 62
    0
370
   -1
100
AcDbLine
 10
80.76082277858217
 20
110.0146781447019
 11
67.97113029206452
 21
115.7071439188909
  0
LINE
  5
92
100
AcDbEntity
  8
0
  6
ByLayer
 62
    0
370
   -1
100
AcDbLine
 10
67.97113029206452
 20
115.7071439188909
 11
73.66359606625358
 21
128.4968364054085
  0
LINE
  5
93
100
AcDbEntity
  8
0
  6
ByLayer
 62
    0
370
   -1
100
AcDbLine
 10
34.08382198148274
 20
146.7664462294142
 11
30.11007418011406
 21
133.3411617625317
  0
LINE
  5
94
100
AcDbEntity
  8
0
  6
ByLayer
 62
    0
370
   -1
100
AcDbLine
 10
30.11007418011406
 20
133.3411617625317
 11
43.53348504269636
 21
129.3668687025765
  0
LINE
  5
95
100
AcDbEntity
  8
0
  6
ByLayer
 62
    0
370
   -1
100
AcDbLine
 10
43.53348504269636
 20
129.3668687025765
 11
47.50831268344785
 21
142.7912347213618
  0
LINE
  5
96
100
AcDbEntity
  8
0
  6
ByLayer
 62
    0
370
   -1
100
AcDbLine
 10
47.50831268344785
 20
142.7912347213618
 11
34.08382198148274
 21
146.7664462294142
  0
LINE
  5
97
100
AcDbEntity
  8
0
  6
ByLayer
 62
    0
370
   -1
100
AcDbLine
 10
53.70193802204987
 20
145.9232751401667
 11
49.72763899383659
 21
132.5000967950674
  0
LINE
  5
98
100
AcDbEntity
  8
0
  6
ByLayer
 62
    0
370
   -1
100
AcDbLine
 10
49.72763899383659
 20
132.5000967950674
 11
63.15219776615896
 21
128.5249644477784
  0
LINE
  5
99
100
AcDbEntity
  8
0
  6
ByLayer
 62
    0
370
   -1
100
AcDbLine
 10
63.15219776615896
 20
128.5249644477784
 11
67.12709669740791
 21
141.9497365671239
  0
LINE
  5
9A
100
AcDbEntity
  8
0
  6
ByLayer
 62
    0
370
   -1
100
AcDbLine
 10
67.12709669740791
 20
141.9497365671239
 11
53.70193802204987
 21
145.9232751401667
  0
LINE
  5
9B
100
AcDbEntity
  8
0
  6
ByLayer
 62
    0
370
   -1
100
AcDbLine
 10
94.94068694703419
 20
129.4526233330248
 11
107.7303794335518
 21
123.7601575588357
  0
LINE
  5
9C
100
AcDbEntity
  8
0
  6
ByLayer
 62
    0
370
   -1
100
AcDbLine
 10
107.7303794335518
 20
123.7601575588357
 11
102.0379136593628
 21
110.9704650723181
  0
LINE
  5
9D
100
AcDbEntity
  8
0
  6
ByLayer
 62
    0
370
   -1
100
AcDbLine
 10
102.0379136593628
 20
110.9704650723181
 11
89.24822117284513
 21
116.6629308465072
  0
LINE
  5
9E
100
AcDbEntity
  8
0
  6
ByLayer
 62
    0
370
   -1
100
AcDbLine
 10
89.24822117284513
 20
116.6629308465072
 11
94.94068694703419
 21
129.4526233330248
  0
LINE
  5
9F
100
AcDbEntity
  8
0
  6
ByLayer
 62
    0
370
   -1
100
AcDbLine
 10
131.685487679474
 20
118.3110845939953
 11
144.4749060874487
 21
112.618740807315
  0
LINE
  5
A0
100
AcDbEntity
  8
0
  6
ByLayer
 62
    0
370
   -1
100
AcDbLine
 10
144.4749060874487
 20
112.618740807315
 11
138.7824403132596
 21
99.8290483207974
  0
LINE
  5
A1
100
AcDbEntity
  8
0
  6
ByLayer
 62
    0
370
   -1
100
AcDbLine
 10
138.7824403132596
 20
99.8290483207974
 11
125.9930219052849
 21
105.5213921074777
  0
LINE
  5
A2
100
AcDbEntity
  8
0
  6
ByLayer
 62
    0
370
   -1
100
AcDbLine
 10
125.9930219052849
 20
105.5213921074777
 11
131.685487679474
 21
118.3110845939953
  0
LINE
  5
A3
100
AcDbEntity
  8
0
  6
ByLayer
 62
    0
370
   -1
100
AcDbLine
 10
114.28122612526
 20
126.0574133917234
 11
127.0709186117777
 21
120.3649476175343
  0
LINE
  5
A4
100
AcDbEntity
  8
0
  6
ByLayer
 62
    0
370
   -1
100
AcDbLine
 10
127.0709186117777
 20
120.3649476175343
 11
121.3784528375886
 21
107.5752551310166
  0
LINE
  5
A5
100
AcDbEntity
  8
0
  6
ByLayer
 62
    0
370
   -1
100
AcDbLine
 10
121.3784528375886
 20
107.5752551310166
 11
108.5887603510709
 21
113.2677209052057
  0
LINE
  5
A6
100
AcDbEntity
  8
0
  6
ByLayer
 62
    0
370
   -1
100
AcDbLine
 10
108.5887603510709
 20
113.2677209052057
 11
114.28122612526
 21
126.0574133917234
  0
LINE
  5
A7
100
AcDbEntity
  8
0
  6
ByLayer
 62
    0
370
   -1
100
AcDbLine
 10
81.4098028764728
 20
145.9008238810796
 11
94.19949536299045
 21
140.2083581068905
  0
LINE
  5
A8
100
AcDbEntity
  8
0
  6
ByLayer
 62
    0
370
   -1
100
AcDbLine
 10
94.19949536299045
 20
140.2083581068905
 11
88.50702958880136
 21
127.4186656203728
  0
LINE
  5
A9
100
AcDbEntity
  8
0
  6
ByLayer
 62
    0
370
   -1
100
AcDbLine
 10
88.50702958880136
 20
127.4186656203728
 11
75.71733710228371
 21
133.1111313945619
  0
LINE
  5
AA
100
AcDbEntity
  8
0
  6
ByLayer
 62
    0
370
   -1
100
AcDbLine
 10
75.71733710228371
 20
133.1111313945619
 11
81.4098028764728
 21
145.9008238810796
  0
LINE
  5
AB
100
AcDbEntity
  8
0
  6
ByLayer
 62
    0
370
   -1
100
AcDbLine
 10
102.6867311072417
 20
146.8562453706387
 11
115.4764235937593
 21
141.1637795964496
  0
LINE
  5
AC
100
AcDbEntity
  8
0
  6
ByLayer
 62
    0
370
   -1
100
AcDbLine
 10
115.4764235937593
 20
141.1637795964496
 11
109.784120469582
 21
128.3744525479891
  0
LINE
  5
AD
100
AcDbEntity
  8
0
  6
ByLayer
 62
    0
370
   -1
100
AcDbLine
 10
109.784120469582
 20
128.3744525479891
 11
96.99442798306434
 21
134.0669183221782
  0
LINE
  5
AE
100
AcDbEntity
  8
0
  6
ByLayer
 62
    0
370
   -1
100
AcDbLine
 10
96.99442798306434
 20
134.0669183221782
 11
102.6867311072417
 21
146.8562453706387
  0
CIRCLE
  5
AF
100
AcDbEntity
  8
0
  6
ByLayer
 62
  256
370
   -1
100
AcDbCircle
 10
38.80896909311235
 20
138.0660763895658
 40
2
  0
LINE
  5
B0
100
AcDbEntity
  8
0
  6
ByLayer
 62
    0
370
   -1
100
AcDbLine
 10
28.67550833773432
 20
128.5014144678501
 11
24.70176053636563
 21
115.0761300009676
  0
LINE
  5
B1
100
AcDbEntity
  8
0
  6
ByLayer
 62
    0
370
   -1
100
AcDbLine
 10
24.70176053636563
 20
115.0761300009676
 11
38.12517139894793
 21
111.1018369410124
  0
LINE
  5
B2
100
AcDbEntity
  8
0
  6
ByLayer
 62
    0
370
   -1
100
AcDbLine
 10
38.12517139894793
 20
111.1018369410124
 11
42.09999903969944
 21
124.5262029597977
  0
LINE
  5
B3
100
AcDbEntity
  8
0
  6
ByLayer
 62
    0
370
   -1
100
AcDbLine
 10
42.09999903969944
 20
124.5262029597977
 11
28.67550833773432
 21
128.5014144678501
  0
CIRCLE
  5
B4
100
AcDbEntity
  8
0
  6
ByLayer
 62
  256
370
   -1
100
AcDbCircle
 10
33.40065544936392
 20
119.8010446280017
 40
2
  0
LINE
  5
B5
100
AcDbEntity
  8
0
  6
ByLayer
 62
    0
370
   -1
100
AcDbLine
 10
23.26780395667932
 20
110.2345791267978
 11
19.29405615531063
 21
96.80929465991528
  0
LINE
  5
B6
100
AcDbEntity
  8
0
  6
ByLayer
 62
    0
370
   -1
100
AcDbLine
 10
19.29405615531063
 20
96.80929465991528
 11
32.71746701789292
 21
92.83500159996012
  0
LINE
  5
B7
100
AcDbEntity
  8
0
  6
ByLayer
 62
    0
370
   -1
100
AcDbLine
 10
32.71746701789292
 20
92.83500159996012
 11
36.69229465864444
 21
106.2593676187454
  0
LINE
  5
B8
100
AcDbEntity
  8
0
  6
ByLayer
 62
    0
370
   -1
100
AcDbLine
 10
36.69229465864444
 20
106.2593676187454
 11
23.26780395667932
 21
110.2345791267978
  0
CIRCLE
  5
B9
100
AcDbEntity
  8
0
  6
ByLayer
 62
  256
370
   -1
100
AcDbCircle
 10
27.9929510683089
 20
101.5342092869494
 40
2
  0
LINE
  5
BA
100
AcDbEntity
  8
0
  6
ByLayer
 62
    0
370
   -1
100
AcDbLine
 10
42.88531897194748
 20
109.3934268660695
 11
38.9115711705788
 21
95.96814239918695
  0
LINE
  5
BB
100
AcDbEntity
  8
0
  6
ByLayer
 62
    0
370
   -1
100
AcDbLine
 10
38.9115711705788
 20
95.96814239918695
 11
52.33498203316108
 21
91.99384933923179
  0
LINE
  5
BC
100
AcDbEntity
  8
0
  6
ByLayer
 62
    0
370
   -1
100
AcDbLine
 10
52.33498203316108
 20
91.99384933923179
 11
56.3098096739126
 21
105.4182153580171
  0
LINE
  5
BD
100
AcDbEntity
  8
0
  6
ByLayer
 62
    0
370
   -1
100
AcDbLine
 10
56.3098096739126
 20
105.4182153580171
 11
42.88531897194748
 21
109.3934268660695
  0
CIRCLE
  5
BE
100
AcDbEntity
  8
0
  6
ByLayer
 62
  256
370
   -1
100
AcDbCircle
 10
47.61046608357708
 20
100.6930570262211
 40
2
  0
LINE
  5
BF
100
AcDbEntity
  8
0
  6
ByLayer
 62
    0
370
   -1
100
AcDbLine
 10
48.2938144361675
 20
127.658596617909
 11
44.32006663479881
 21
114.2333121510264
  0
LINE
  5
C0
100
AcDbEntity
  8
0
  6
ByLayer
 62
    0
370
   -1
100
AcDbLine
 10
44.32006663479881
 20
114.2333121510264
 11
57.74347749738111
 21
110.2590190910713
  0
LINE
  5
C1
100
AcDbEntity
  8
0
  6
ByLayer
 62
    0
370
   -1
100
AcDbLine
 10
57.74347749738111
 20
110.2590190910713
 11
61.71830513813262
 21
123.6833851098566
  0
LINE
  5
C2
100
AcDbEntity
  8
0
  6
ByLayer
 62
    0
370
   -1
100
AcDbLine
 10
61.71830513813262
 20
123.6833851098566
 11
48.2938144361675
 21
127.658596617909
  0
CIRCLE
  5
C3
100
AcDbEntity
  8
0
  6
ByLayer
 62
  256
370
   -1
100
AcDbCircle
 10
53.0189615477971
 20
118.9582267780605
 40
2
  0
LINE
  5
C4
100
AcDbEntity
  8
0
  6
ByLayer
 62
    0
370
   -1
100
AcDbLine
 10
53.70138679520531
 20
145.92538126195
 11
49.7276389938366
 21
132.5000967950674
  0
LINE
  5
C5
100
AcDbEntity
  8
0
  6
ByLayer
 62
    0
370
   -1
100
AcDbLine
 10
49.7276389938366
 20
132.5000967950674
 11
63.15104985641889
 21
128.5258037351122
  0
LINE
  5
C6
100
AcDbEntity
  8
0
  6
ByLayer
 62
    0
370
   -1
100
AcDbLine
 10
63.15104985641889
 20
128.5258037351122
 11
67.12587749717042
 21
141.9501697538976
  0
LINE
  5
C7
100
AcDbEntity
  8
0
  6
ByLayer
 62
    0
370
   -1
100
AcDbLine
 10
67.12587749717042
 20
141.9501697538976
 11
53.70138679520531
 21
145.92538126195
  0
CIRCLE
  5
C8
100
AcDbEntity
  8
0
  6
ByLayer
 62
  256
370
   -1
100
AcDbCircle
 10
58.42653390683488
 20
137.2250114221015
 40
2
  0
CIRCLE
  5
C9
100
AcDbEntity
  8
0
  6
ByLayer
 62
  256
370
   -1
100
AcDbCircle
 10
84.95841623263708
 20
136.6597447507262
 40
2
  0
LINE
  5
CA
100
AcDbEntity
  8
0
  6
ByLayer
 62
    0
370
   -1
100
AcDbLine
 10
73.66359606625356
 20
128.4968364054085
 11
86.45328855277121
 21
122.8043706312195
  0
LINE
  5
CB
100
AcDbEntity
  8
0
  6
ByLayer
 62
    0
370
   -1
100
AcDbLine
 10
86.45328855277121
 20
122.8043706312195
 11
80.76082277858215
 21
110.0146781447019
  0
LINE
  5
CC
100
AcDbEntity
  8
0
  6
ByLayer
 62
    0
370
   -1
100
AcDbLine
 10
80.76082277858215
 20
110.0146781447019
 11
67.9711302920645
 21
115.7071439188909
  0
LINE
  5
CD
100
AcDbEntity
  8
0
  6
ByLayer
 62
    0
370
   -1
100
AcDbLine
 10
67.9711302920645
 20
115.7071439188909
 11
73.66359606625356
 21
128.4968364054085
  0
CIRCLE
  5
CE
100
AcDbEntity
  8
0
  6
ByLayer
 62
  256
370
   -1
100
AcDbCircle
 10
77.21220942241786
 20
119.2557572750552
 40
2
  0
LINE
  5
CF
100
AcDbEntity
  8
0
  6
ByLayer
 62
    0
370
   -1
100
AcDbLine
 10
65.91738925603434
 20
111.0928489297376
 11
78.70708174255199
 21
105.4003831555485
  0
LINE
  5
D0
100
AcDbEntity
  8
0
  6
ByLayer
 62
    0
370
   -1
100
AcDbLine
 10
78.70708174255199
 20
105.4003831555485
 11
73.01461596836292
 21
92.61069066903084
  0
LINE
  5
D1
100
AcDbEntity
  8
0
  6
ByLayer
 62
    0
370
   -1
100
AcDbLine
 10
73.01461596836292
 20
92.61069066903084
 11
60.22492348184527
 21
98.30315644321993
  0
LINE
  5
D2
100
AcDbEntity
  8
0
  6
ByLayer
 62
    0
370
   -1
100
AcDbLine
 10
60.22492348184527
 20
98.30315644321993
 11
65.91738925603434
 21
111.0928489297376
  0
CIRCLE
  5
D3
100
AcDbEntity
  8
0
  6
ByLayer
 62
  256
370
   -1
100
AcDbCircle
 10
69.46600261219862
 20
101.8517697993842
 40
2
  0
LINE
  5
D4
100
AcDbEntity
  8
0
  6
ByLayer
 62
    0
370
   -1
100
AcDbLine
 10
102.6868937572534
 20
146.8566108086958
 11
115.4765862437711
 21
141.1641450345068
  0
LINE
  5
D5
100
AcDbEntity
  8
0
  6
ByLayer
 62
    0
370
   -1
100
AcDbLine
 10
115.4765862437711
 20
141.1641450345068
 11
109.784120469582
 21
128.3744525479891
  0
LINE
  5
D6
100
AcDbEntity
  8
0
  6
ByLayer
 62
    0
370
   -1
100
AcDbLine
 10
109.784120469582
 20
128.3744525479891
 11
96.99442798306434
 21
134.0669183221782
  0
LINE
  5
D7
100
AcDbEntity
  8
0
  6
ByLayer
 62
    0
370
   -1
100
AcDbLine
 10
96.99442798306434
 20
134.0669183221782
 11
102.6868937572534
 21
146.8566108086958
  0
CIRCLE
  5
D8
100
AcDbEntity
  8
0
  6
ByLayer
 62
  256
370
   -1
100
AcDbCircle
 10
106.2355071134177
 20
137.6155316783425
 40
2
  0
LINE
  5
D9
100
AcDbEntity
  8
0
  6
ByLayer
 62
    0
370
   -1
100
AcDbLine
 10
94.94068694703419
 20
129.4526233330248
 11
107.7303794335518
 21
123.7601575588357
  0
LINE
  5
DA
100
AcDbEntity
  8
0
  6
ByLayer
 62
    0
370
   -1
100
AcDbLine
 10
107.7303794335518
 20
123.7601575588357
 11
102.0379136593628
 21
110.9704650723181
  0
LINE
  5
DB
100
AcDbEntity
  8
0
  6
ByLayer
 62
    0
370
   -1
100
AcDbLine
 10
102.0379136593628
 20
110.9704650723181
 11
89.24822117284512
 21
116.6629308465072
  0
LINE
  5
DC
100
AcDbEntity
  8
0
  6
ByLayer
 62
    0
370
   -1
100
AcDbLine
 10
89.24822117284512
 20
116.6629308465072
 11
94.94068694703419
 21
129.4526233330248
  0
CIRCLE
  5
DD
100
AcDbEntity
  8
0
  6
ByLayer
 62
  256
370
   -1
100
AcDbCircle
 10
98.48930030319848
 20
120.2115442026715
 40
2
  0
LINE
  5
DE
100
AcDbEntity
  8
0
  6
ByLayer
 62
    0
370
   -1
100
AcDbLine
 10
87.19448013681497
 20
112.0486358573538
 11
99.98417262333263
 21
106.3561700831648
  0
LINE
  5
DF
100
AcDbEntity
  8
0
  6
ByLayer
 62
    0
370
   -1
100
AcDbLine
 10
99.98417262333263
 20
106.3561700831648
 11
94.29170684914355
 21
93.56647759664713
  0
LINE
  5
E0
100
AcDbEntity
  8
0
  6
ByLayer
 62
    0
370
   -1
100
AcDbLine
 10
94.29170684914355
 20
93.56647759664713
 11
81.5020143626259
 21
99.25894337083621
  0
LINE
  5
E1
100
AcDbEntity
  8
0
  6
ByLayer
 62
    0
370
   -1
100
AcDbLine
 10
81.5020143626259
 20
99.25894337083621
 11
87.19448013681497
 21
112.0486358573538
  0
CIRCLE
  5
E2
100
AcDbEntity
  8
0
  6
ByLayer
 62
  256
370
   -1
100
AcDbCircle
 10
90.74309349297926
 20
102.8075567270005
 40
2
  0
LINE
  5
E3
100
AcDbEntity
  8
0
  6
ByLayer
 62
    0
370
   -1
100
AcDbLine
 10
114.28122612526
 20
126.0574133917234
 11
127.0709186117777
 21
120.3649476175343
  0
LINE
  5
E4
100
AcDbEntity
  8
0
  6
ByLayer
 62
    0
370
   -1
100
AcDbLine
 10
127.0709186117777
 20
120.3649476175343
 11
121.3784528375886
 21
107.5752551310166
  0
LINE
  5
E5
100
AcDbEntity
  8
0
  6
ByLayer
 62
    0
370
   -1
100
AcDbLine
 10
121.3784528375886
 20
107.5752551310166
 11
108.5887603510709
 21
113.2677209052057
  0
LINE
  5
E6
100
AcDbEntity
  8
0
  6
ByLayer
 62
    0
370
   -1
100
AcDbLine
 10
108.5887603510709
 20
113.2677209052057
 11
114.28122612526
 21
126.0574133917234
  0
CIRCLE
  5
E7
100
AcDbEntity
  8
0
  6
ByLayer
 62
  256
370
   -1
100
AcDbCircle
 10
117.8298394814243
 20
116.81633426137
 40
2
  0
LINE
  5
E8
100
AcDbEntity
  8
0
  6
ByLayer
 62
    0
370
   -1
100
AcDbLine
 10
131.685487679474
 20
118.3110845939953
 11
144.4751801659916
 21
112.6186188198062
  0
LINE
  5
E9
100
AcDbEntity
  8
0
  6
ByLayer
 62
    0
370
   -1
100
AcDbLine
 10
144.4751801659916
 20
112.6186188198062
 11
138.7827143918025
 21
99.82892633328856
  0
LINE
  5
EA
100
AcDbEntity
  8
0
  6
ByLayer
 62
    0
370
   -1
100
AcDbLine
 10
138.7827143918025
 20
99.82892633328856
 11
125.9930219052849
 21
105.5213921074777
  0
LINE
  5
EB
100
AcDbEntity
  8
0
  6
ByLayer
 62
    0
370
   -1
100
AcDbLine
 10
125.9930219052849
 20
105.5213921074777
 11
131.685487679474
 21
118.3110845939953
  0
CIRCLE
  5
EC
100
AcDbEntity
  8
0
  6
ByLayer
 62
  256
370
   -1
100
AcDbCircle
 10
135.2341010356382
 20
109.0700054636419
 40
2
  0
LINE
  5
ED
100
AcDbEntity
  8
0
  6
ByLayer
 62
    0
370
   -1
100
AcDbLine
 10
106.5350193150408
 20
108.6534259160524
 11
119.3247118015585
 21
102.9609601418633
  0
LINE
  5
EE
100
AcDbEntity
  8
0
  6
ByLayer
 62
    0
370
   -1
100
AcDbLine
 10
119.3247118015585
 20
102.9609601418633
 11
113.6322460273694
 21
90.17126765534563
  0
LINE
  5
EF
100
AcDbEntity
  8
0
  6
ByLayer
 62
    0
370
   -1
100
AcDbLine
 10
113.6322460273694
 20
90.17126765534563
 11
100.8425535408517
 21
95.86373342953473
  0
LINE
  5
F0
100
AcDbEntity
  8
0
  6
ByLayer
 62
    0
370
   -1
100
AcDbLine
 10
100.8425535408517
 20
95.86373342953473
 11
106.5350193150408
 21
108.6534259160524
  0
CIRCLE
  5
F1
100
AcDbEntity
  8
0
  6
ByLayer
 62
  256
370
   -1
100
AcDbCircle
 10
110.0836326712051
 20
99.412346785699
 40
2
  0
LINE
  5
F2
100
AcDbEntity
  8
0
  6
ByLayer
 62
    0
370
   -1
100
AcDbLine
 10
123.9392808692548
 20
100.9070971183243
 11
136.7289733557724
 21
95.21463134413523
  0
LINE
  5
F3
100
AcDbEntity
  8
0
  6
ByLayer
 62
    0
370
   -1
100
AcDbLine
 10
136.7289733557724
 20
95.21463134413523
 11
131.0365075815833
 21
82.42493885761759
  0
LINE
  5
F4
100
AcDbEntity
  8
0
  6
ByLayer
 62
    0
370
   -1
100
AcDbLine
 10
131.0365075815833
 20
82.42493885761759
 11
118.2468150950657
 21
88.11740463180666
  0
LINE
  5
F5
100
AcDbEntity
  8
0
  6
ByLayer
 62
    0
370
   -1
100
AcDbLine
 10
118.2468150950657
 20
88.11740463180666
 11
123.9392808692548
 21
100.9070971183243
  0
CIRCLE
  5
F6
100
AcDbEntity
  8
0
  6
ByLayer
 62
  256
370
   -1
100
AcDbCircle
 10
127.487894225419
 20
91.66601798797095
 40
2
  0
LINE
  5
F7
100
AcDbEntity
  8
0
  6
ByLayer
 62
    0
370
   -1
100
AcDbLine
 10
98.78881250482156
 20
91.24943844038137
 11
111.5785049913392
 21
85.55697266619227
  0
LINE
  5
F8
100
AcDbEntity
  8
0
  6
ByLayer
 62
    0
370
   -1
100
AcDbLine
 10
111.5785049913392
 20
85.55697266619227
 11
105.8860392171502
 21
72.76728017967464
  0
LINE
  5
F9
100
AcDbEntity
  8
0
  6
ByLayer
 62
    0
370
   -1
100
AcDbLine
 10
105.8860392171502
 20
72.76728017967464
 11
93.09634673063249
 21
78.45974595386375
  0
LINE
  5
FA
100
AcDbEntity
  8
0
  6
ByLayer
 62
    0
370
   -1
100
AcDbLine
 10
93.09634673063249
 20
78.45974595386375
 11
98.78881250482156
 21
91.24943844038137
  0
CIRCLE
  5
FB
100
AcDbEntity
  8
0
  6
ByLayer
 62
  256
370
   -1
100
AcDbCircle
 10
102.3374258609858
 20
82.008359310028
 40
2
  0
LINE
  5
FC
100
AcDbEntity
  8
0
  6
ByLayer
 62
    0
370
   -1
100
AcDbLine
 10
116.1930740590355
 20
83.5031096426533
 11
128.9827665455532
 21
77.81064386846421
  0
LINE
  5
FD
100
AcDbEntity
  8
0
  6
ByLayer
 62
    0
370
   -1
100
AcDbLine
 10
128.9827665455532
 20
77.81064386846421
 11
123.2903007713641
 21
65.02095138194659
  0
LINE
  5
FE
100
AcDbEntity
  8
0
  6
ByLayer
 62
    0
370
   -1
100
AcDbLine
 10
123.2903007713641
 20
65.02095138194659
 11
110.5006082848465
 21
70.71341715613568
  0
LINE
  5
FF
100
AcDbEntity
  8
0
  6
ByLayer
 62
    0
370
   -1
100
AcDbLine
 10
110.5006082848465
 20
70.71341715613568
 11
116.1930740590355
 21
83.5031096426533
  0
CIRCLE
  5
100
100
AcDbEntity
  8
0
  6
ByLayer
 62
  256
370
   -1
100
AcDbCircle
 10
119.7416874151998
 20
74.26203051229993
 40
2
  0
LINE
  5
101
100
AcDbEntity
  8
0
  6
ByLayer
 62
  256
370
   -1
100
AcDbLine
 10
26.27831304859849
 20
129.2109599179412
 11
22.3045652472298
 21
115.7856754510587
  0
LINE
  5
102
100
AcDbEntity
  8
0
  6
ByLayer
 62
  256
370
   -1
100
AcDbLine
 10
20.86999157151358
 20
110.9428237076781
 11
16.4711900024363
 21
96.08062951193573
  0
ARC
  5
103
100
AcDbEntity
  8
0
  6
ByLayer
 62
  256
370
   -1
100
AcDbCircle
 10
17.43007262896386
 20
95.79682657230393
 40
1
100
AcDbArc
 50
163.5126921824527
 51
253.5066591282987
  0
LINE
  5
104
100
AcDbEntity
  8
0
  6
ByLayer
 62
  256
370
   -1
100
AcDbLine
 10
27.71287889097823
 20
134.0507072126228
 11
26.27831304859849
 21
129.2109599179412
  0
LINE
  5
105
100
AcDbEntity
  8
0
  6
ByLayer
 62
  256
370
   -1
100
AcDbLine
 10
22.3045652472298
 20
115.7856754510587
 11
20.86999157151358
 21
110.9428237076781
  0
LINE
  5
106
100
AcDbEntity
  8
0
  6
ByLayer
 62
  256
370
   -1
100
AcDbLine
 10
32.1007742727185
 20
148.8751869369005
 11
27.71287889097823
 21
134.0507072126228
  0
LINE
  5
107
100
AcDbEntity
  8
0
  6
ByLayer
 62
  256
370
   -1
100
AcDbLine
 10
33.0660334330947
 20
149.5913483977909
 11
103.703456330773
 21
149.1405986663954
  0
ARC
  5
108
100
AcDbEntity
  8
0
  6
ByLayer
 62
  256
370
   -1
100
AcDbCircle
 10
33.05965238837283
 20
148.591368756864
 40
1
100
AcDbArc
 50
89.63439058739209
 51
163.5117815257224
  0
LINE
  5
109
100
AcDbEntity
  8
0
  6
ByLayer
 62
    0
370
   -1
100
AcDbLine
 10
90.89357680068409
 20
58.09318649805559
 11
100.9651919716933
 21
48.36746621331075
  0
LINE
  5
10A
100
AcDbEntity
  8
0
  6
ByLayer
 62
    0
370
   -1
100
AcDbLine
 10
100.9651919716933
 20
48.36746621331075
 11
110.6883541900375
 21
58.44021993440231
  0
LINE
  5
10B
100
AcDbEntity
  8
0
  6
ByLayer
 62
    0
370
   -1
100
AcDbLine
 10
110.6883541900375
 20
58.44021993440231
 11
100.6162104064901
 21
68.16475254546113
  0
LINE
  5
10C
100
AcDbEntity
  8
0
  6
ByLayer
 62
    0
370
   -1
100
AcDbLine
 10
100.6162104064901
 20
68.16475254546113
 11
90.89357680068409
 21
58.09318649805559
  0
CIRCLE
  5
10D
100
AcDbEntity
  8
0
  6
ByLayer
 62
  256
370
   -1
100
AcDbCircle
 10
100.7909654953608
 20
58.26670321622895
 40
2
  0
LINE
  5
10E
100
AcDbEntity
  8
0
  6
ByLayer
 62
    0
370
   -1
100
AcDbLine
 10
118.0794105682748
 20
18.2943811452376
 11
131.5003681029069
 21
22.27669392020927
  0
LINE
  5
10F
100
AcDbEntity
  8
0
  6
ByLayer
 62
    0
370
   -1
100
AcDbLine
 10
127.5176416427492
 20
35.69770590267765
 11
114.0960808151399
 21
31.7161907100426
  0
LINE
  5
110
100
AcDbEntity
  8
0
  6
ByLayer
 62
    0
370
   -1
100
AcDbLine
 10
114.0960808151399
 20
31.7161907100426
 11
118.0784174633017
 21
18.29352100425354
  0
LINE
  5
111
100
AcDbEntity
  8
0
  6
ByLayer
 62
    0
370
   -1
100
AcDbLine
 10
131.4994204477322
 20
22.27810755017139
 11
127.5160392041836
 21
35.70000342104395
  0
CIRCLE
  5
112
100
AcDbEntity
  8
0
  6
ByLayer
 62
  256
370
   -1
100
AcDbCircle
 10
122.797750631436
 20
26.99714913010701
 40
2
  0
LINE
  5
113
100
AcDbEntity
  8
0
  6
ByLayer
 62
    0
370
   -1
100
AcDbLine
 10
104.8152473396064
 20
47.10570635237494
 11
112.4250821186518
 21
35.35480300132865
  0
LINE
  5
114
100
AcDbEntity
  8
0
  6
ByLayer
 62
    0
370
   -1
100
AcDbLine
 10
116.5674290195701
 20
54.7150765077245
 11
104.8152473396064
 21
47.10570635237494
  0
LINE
  5
115
100
AcDbEntity
  8
0
  6
ByLayer
 62
    0
370
   -1
100
AcDbLine
 10
112.4236936694794
 20
35.35246800477717
 11
124.1746981042554
 21
42.9626024204018
  0
LINE
  5
116
100
AcDbEntity
  8
0
  6
ByLayer
 62
    0
370
   -1
100
AcDbLine
 10
124.1746981042554
 20
42.9626024204018
 11
116.5654680202834
 21
54.71480359418946
  0
CIRCLE
  5
117
100
AcDbEntity
  8
0
  6
ByLayer
 62
  256
370
   -1
100
AcDbCircle
 10
114.4949727219309
 20
45.03415438638836
 40
2
  0
LINE
  5
118
100
AcDbEntity
  8
0
  6
ByLayer
 62
    0
370
   -1
100
AcDbLine
 10
168.575175
 20
55.04965000000001
 11
182.574475
 21
55.04965000000001
  0
LINE
  5
119
100
AcDbEntity
  8
0
  6
ByLayer
 62
    0
370
   -1
100
AcDbLine
 10
182.574475
 20
55.04965000000001
 11
182.574475
 21
41.05019000000001
  0
LINE
  5
11A
100
AcDbEntity
  8
0
  6
ByLayer
 62
    0
370
   -1
100
AcDbLine
 10
182.574475
 20
41.05019000000001
 11
168.575175
 21
41.05019000000001
  0
LINE
  5
11B
100
AcDbEntity
  8
0
  6
ByLayer
 62
    0
370
   -1
100
AcDbLine
 10
168.575175
 20
41.05019000000001
 11
168.575175
 21
55.04965000000001
  0
LINE
  5
11C
100
AcDbEntity
  8
0
  6
ByLayer
 62
    0
370
   -1
100
AcDbLine
 10
149.525175
 20
55.04965000000001
 11
163.524475
 21
55.04965000000001
  0
LINE
  5
11D
100
AcDbEntity
  8
0
  6
ByLayer
 62
    0
370
   -1
100
AcDbLine
 10
163.524475
 20
55.04965000000001
 11
163.524475
 21
41.05019000000001
  0
LINE
  5
11E
100
AcDbEntity
  8
0
  6
ByLayer
 62
    0
370
   -1
100
AcDbLine
 10
163.524475
 20
41.05019000000001
 11
149.525175
 21
41.05019000000001
  0
LINE
  5
11F
100
AcDbEntity
  8
0
  6
ByLayer
 62
    0
370
   -1
100
AcDbLine
 10
149.525175
 20
41.05019000000001
 11
149.525175
 21
55.04965000000001
  0
LINE
  5
120
100
AcDbEntity
  8
0
  6
ByLayer
 62
    0
370
   -1
100
AcDbLine
 10
206.673475
 20
74.09955000000001
 11
220.674475
 21
74.09955000000001
  0
LINE
  5
121
100
AcDbEntity
  8
0
  6
ByLayer
 62
    0
370
   -1
100
AcDbLine
 10
220.674475
 20
74.09955000000001
 11
220.674475
 21
60.10015000000001
  0
LINE
  5
122
100
AcDbEntity
  8
0
  6
ByLayer
 62
    0
370
   -1
100
AcDbLine
 10
220.674475
 20
60.10015000000001
 11
206.673475
 21
60.10015000000001
  0
LINE
  5
123
100
AcDbEntity
  8
0
  6
ByLayer
 62
    0
370
   -1
100
AcDbLine
 10
206.673475
 20
60.10015000000001
 11
206.673475
 21
74.09955000000001
  0
LINE
  5
124
100
AcDbEntity
  8
0
  6
ByLayer
 62
    0
370
   -1
100
AcDbLine
 10
187.623775
 20
74.09955000000001
 11
201.624475
 21
74.09955000000001
  0
LINE
  5
125
100
AcDbEntity
  8
0
  6
ByLayer
 62
    0
370
   -1
100
AcDbLine
 10
201.624475
 20
74.09955000000001
 11
201.624475
 21
60.10015000000001
  0
LINE
  5
126
100
AcDbEntity
  8
0
  6
ByLayer
 62
    0
370
   -1
100
AcDbLine
 10
201.624475
 20
60.10015000000001
 11
187.623775
 21
60.10015000000001
  0
LINE
  5
127
100
AcDbEntity
  8
0
  6
ByLayer
 62
    0
370
   -1
100
AcDbLine
 10
187.623775
 20
60.10015000000001
 11
187.623775
 21
74.09955000000001
  0
LINE
  5
128
100
AcDbEntity
  8
0
  6
ByLayer
 62
    0
370
   -1
100
AcDbLine
 10
168.575175
 20
74.09955000000001
 11
182.574475
 21
74.09955000000001
  0
LINE
  5
129
100
AcDbEntity
  8
0
  6
ByLayer
 62
    0
370
   -1
100
AcDbLine
 10
182.574475
 20
74.09955000000001
 11
182.574475
 21
60.10015000000001
  0
LINE
  5
12A
100
AcDbEntity
  8
0
  6
ByLayer
 62
    0
370
   -1
100
AcDbLine
 10
182.574475
 20
60.10015000000001
 11
168.575175
 21
60.10015000000001
  0
LINE
  5
12B
100
AcDbEntity
  8
0
  6
ByLayer
 62
    0
370
   -1
100
AcDbLine
 10
168.575175
 20
60.10015000000001
 11
168.575175
 21
74.09955000000001
  0
LINE
  5
12C
100
AcDbEntity
  8
0
  6
ByLayer
 62
    0
370
   -1
100
AcDbLine
 10
149.525175
 20
74.09955000000001
 11
163.524475
 21
74.09955000000001
  0
LINE
  5
12D
100
AcDbEntity
  8
0
  6
ByLayer
 62
    0
370
   -1
100
AcDbLine
 10
163.524475
 20
74.09955000000001
 11
163.524475
 21
60.10015000000001
  0
LINE
  5
12E
100
AcDbEntity
  8
0
  6
ByLayer
 62
    0
370
   -1
100
AcDbLine
 10
163.524475
 20
60.10015000000001
 11
149.525175
 21
60.10015000000001
  0
LINE
  5
12F
100
AcDbEntity
  8
0
  6
ByLayer
 62
    0
370
   -1
100
AcDbLine
 10
149.525175
 20
60.10015000000001
 11
149.525175
 21
74.09955000000001
  0
LINE
  5
130
100
AcDbEntity
  8
0
  6
ByLayer
 62
    0
370
   -1
100
AcDbLine
 10
206.673475
 20
93.14965000000001
 11
220.674475
 21
93.14965000000001
  0
LINE
  5
131
100
AcDbEntity
  8
0
  6
ByLayer
 62
    0
370
   -1
100
AcDbLine
 10
220.674475
 20
93.14965000000001
 11
220.674475
 21
79.15035
  0
LINE
  5
132
100
AcDbEntity
  8
0
  6
ByLayer
 62
    0
370
   -1
100
AcDbLine
 10
220.674475
 20
79.15035
 11
206.673475
 21
79.15035
  0
LINE
  5
133
100
AcDbEntity
  8
0
  6
ByLayer
 62
    0
370
   -1
100
AcDbLine
 10
206.673475
 20
79.15035
 11
206.673475
 21
93.14965000000001
  0
LINE
  5
134
100
AcDbEntity
  8
0
  6
ByLayer
 62
    0
370
   -1
100
AcDbLine
 10
187.623775
 20
93.14965000000001
 11
201.624475
 21
93.14965000000001
  0
LINE
  5
135
100
AcDbEntity
  8
0
  6
ByLayer
 62
    0
370
   -1
100
AcDbLine
 10
201.624475
 20
93.14965000000001
 11
201.624475
 21
79.15035
  0
LINE
  5
136
100
AcDbEntity
  8
0
  6
ByLayer
 62
    0
370
   -1
100
AcDbLine
 10
201.624475
 20
79.15035
 11
187.623775
 21
79.15035
  0
LINE
  5
137
100
AcDbEntity
  8
0
  6
ByLayer
 62
    0
370
   -1
100
AcDbLine
 10
187.623775
 20
79.15035
 11
187.623775
 21
93.14965000000001
  0
LINE
  5
138
100
AcDbEntity
  8
0
  6
ByLayer
 62
    0
370
   -1
100
AcDbLine
 10
168.575175
 20
93.14965000000001
 11
182.574475
 21
93.14965000000001
  0
LINE
  5
139
100
AcDbEntity
  8
0
  6
ByLayer
 62
    0
370
   -1
100
AcDbLine
 10
182.574475
 20
93.14965000000001
 11
182.574475
 21
79.15035
  0
LINE
  5
13A
100
AcDbEntity
  8
0
  6
ByLayer
 62
    0
370
   -1
100
AcDbLine
 10
182.574475
 20
79.15035
 11
168.575175
 21
79.15035
  0
LINE
  5
13B
100
AcDbEntity
  8
0
  6
ByLayer
 62
    0
370
   -1
100
AcDbLine
 10
168.575175
 20
79.15035
 11
168.575175
 21
93.14965000000001
  0
LINE
  5
13C
100
AcDbEntity
  8
0
  6
ByLayer
 62
    0
370
   -1
100
AcDbLine
 10
149.525175
 20
93.14965000000001
 11
163.524475
 21
93.14965000000001
  0
LINE
  5
13D
100
AcDbEntity
  8
0
  6
ByLayer
 62
    0
370
   -1
100
AcDbLine
 10
163.524475
 20
93.14965000000001
 11
163.524475
 21
79.15035
  0
LINE
  5
13E
100
AcDbEntity
  8
0
  6
ByLayer
 62
    0
370
   -1
100
AcDbLine
 10
163.524475
 20
79.15035
 11
149.525175
 21
79.15035
  0
LINE
  5
13F
100
AcDbEntity
  8
0
  6
ByLayer
 62
    0
370
   -1
100
AcDbLine
 10
149.525175
 20
79.15035
 11
149.525175
 21
93.14965000000001
  0
LINE
  5
140
100
AcDbEntity
  8
0
  6
ByLayer
 62
    0
370
   -1
100
AcDbLine
 10
206.673475
 20
112.19965
 11
220.674475
 21
112.19965
  0
LINE
  5
141
100
AcDbEntity
  8
0
  6
ByLayer
 62
    0
370
   -1
100
AcDbLine
 10
220.674475
 20
112.19965
 11
220.674475
 21
98.20035000000001
  0
LINE
  5
142
100
AcDbEntity
  8
0
  6
ByLayer
 62
    0
370
   -1
100
AcDbLine
 10
220.674475
 20
98.20035000000001
 11
206.673475
 21
98.20035000000001
  0
LINE
  5
143
100
AcDbEntity
  8
0
  6
ByLayer
 62
    0
370
   -1
100
AcDbLine
 10
206.673475
 20
98.20035000000001
 11
206.673475
 21
112.19965
  0
LINE
  5
144
100
AcDbEntity
  8
0
  6
ByLayer
 62
    0
370
   -1
100
AcDbLine
 10
187.623775
 20
112.19965
 11
201.624475
 21
112.19965
  0
LINE
  5
145
100
AcDbEntity
  8
0
  6
ByLayer
 62
    0
370
   -1
100
AcDbLine
 10
201.624475
 20
112.19965
 11
201.624475
 21
98.20035000000001
  0
LINE
  5
146
100
AcDbEntity
  8
0
  6
ByLayer
 62
    0
370
   -1
100
AcDbLine
 10
201.624475
 20
98.20035000000001
 11
187.623775
 21
98.20035000000001
  0
LINE
  5
147
100
AcDbEntity
  8
0
  6
ByLayer
 62
    0
370
   -1
100
AcDbLine
 10
187.623775
 20
98.20035000000001
 11
187.623775
 21
112.19965
  0
LINE
  5
148
100
AcDbEntity
  8
0
  6
ByLayer
 62
    0
370
   -1
100
AcDbLine
 10
168.575175
 20
112.19965
 11
182.574475
 21
112.19965
  0
LINE
  5
149
100
AcDbEntity
  8
0
  6
ByLayer
 62
    0
370
   -1
100
AcDbLine
 10
182.574475
 20
112.19965
 11
182.574475
 21
98.20035000000001
  0
LINE
  5
14A
100
AcDbEntity
  8
0
  6
ByLayer
 62
    0
370
   -1
100
AcDbLine
 10
182.574475
 20
98.20035000000001
 11
168.575175
 21
98.20035000000001
  0
LINE
  5
14B
100
AcDbEntity
  8
0
  6
ByLayer
 62
    0
370
   -1
100
AcDbLine
 10
168.575175
 20
98.20035000000001
 11
168.575175
 21
112.19965
  0
LINE
  5
14C
100
AcDbEntity
  8
0
  6
ByLayer
 62
    0
370
   -1
100
AcDbLine
 10
149.525175
 20
112.19965
 11
163.524475
 21
112.19965
  0
LINE
  5
14D
100
AcDbEntity
  8
0
  6
ByLayer
 62
    0
370
   -1
100
AcDbLine
 10
163.524475
 20
112.19965
 11
163.524475
 21
98.20035000000001
  0
LINE
  5
14E
100
AcDbEntity
  8
0
  6
ByLayer
 62
    0
370
   -1
100
AcDbLine
 10
163.524475
 20
98.20035000000001
 11
149.525175
 21
98.20035000000001
  0
LINE
  5
14F
100
AcDbEntity
  8
0
  6
ByLayer
 62
    0
370
   -1
100
AcDbLine
 10
149.525175
 20
98.20035000000001
 11
149.525175
 21
112.19965
  0
LINE
  5
150
100
AcDbEntity
  8
0
  6
ByLayer
 62
    0
370
   -1
100
AcDbLine
 10
187.625225
 20
93.14965000000001
 11
201.624525
 21
93.14965000000001
  0
LINE
  5
151
100
AcDbEntity
  8
0
  6
ByLayer
 62
    0
370
   -1
100
AcDbLine
 10
201.624525
 20
93.14965000000001
 11
201.624525
 21
79.15035
  0
LINE
  5
152
100
AcDbEntity
  8
0
  6
ByLayer
 62
    0
370
   -1
100
AcDbLine
 10
201.624525
 20
79.15035
 11
187.625225
 21
79.15035
  0
LINE
  5
153
100
AcDbEntity
  8
0
  6
ByLayer
 62
    0
370
   -1
100
AcDbLine
 10
187.625225
 20
79.15035
 11
187.625225
 21
93.14965000000001
  0
LINE
  5
154
100
AcDbEntity
  8
0
  6
ByLayer
 62
    0
370
   -1
100
AcDbLine
 10
168.575225
 20
93.14965000000001
 11
182.574525
 21
93.14965000000001
  0
LINE
  5
155
100
AcDbEntity
  8
0
  6
ByLayer
 62
    0
370
   -1
100
AcDbLine
 10
182.574525
 20
93.14965000000001
 11
182.574525
 21
79.15035
  0
LINE
  5
156
100
AcDbEntity
  8
0
  6
ByLayer
 62
    0
370
   -1
100
AcDbLine
 10
182.574525
 20
79.15035
 11
168.575225
 21
79.15035
  0
LINE
  5
157
100
AcDbEntity
  8
0
  6
ByLayer
 62
    0
370
   -1
100
AcDbLine
 10
168.575225
 20
79.15035
 11
168.575225
 21
93.14965000000001
  0
LINE
  5
158
100
AcDbEntity
  8
0
  6
ByLayer
 62
    0
370
   -1
100
AcDbLine
 10
149.525175
 20
93.14965000000001
 11
163.524725
 21
93.14965000000001
  0
LINE
  5
159
100
AcDbEntity
  8
0
  6
ByLayer
 62
    0
370
   -1
100
AcDbLine
 10
163.524725
 20
93.14965000000001
 11
163.524725
 21
79.15035
  0
LINE
  5
15A
100
AcDbEntity
  8
0
  6
ByLayer
 62
    0
370
   -1
100
AcDbLine
 10
163.524725
 20
79.15035
 11
149.525175
 21
79.15035
  0
LINE
  5
15B
100
AcDbEntity
  8
0
  6
ByLayer
 62
    0
370
   -1
100
AcDbLine
 10
149.525175
 20
79.15035
 11
149.525175
 21
93.14965000000001
  0
LINE
  5
15C
100
AcDbEntity
  8
0
  6
ByLayer
 62
    0
370
   -1
100
AcDbLine
 10
187.625225
 20
112.19965
 11
201.624525
 21
112.19965
  0
LINE
  5
15D
100
AcDbEntity
  8
0
  6
ByLayer
 62
    0
370
   -1
100
AcDbLine
 10
201.624525
 20
112.19965
 11
201.624525
 21
98.20035000000001
  0
LINE
  5
15E
100
AcDbEntity
  8
0
  6
ByLayer
 62
    0
370
   -1
100
AcDbLine
 10
201.624525
 20
98.20035000000001
 11
187.625225
 21
98.20035000000001
  0
LINE
  5
15F
100
AcDbEntity
  8
0
  6
ByLayer
 62
    0
370
   -1
100
AcDbLine
 10
187.625225
 20
98.20035000000001
 11
187.625225
 21
112.19965
  0
LINE
  5
160
100
AcDbEntity
  8
0
  6
ByLayer
 62
    0
370
   -1
100
AcDbLine
 10
168.575225
 20
112.19965
 11
182.574525
 21
112.19965
  0
LINE
  5
161
100
AcDbEntity
  8
0
  6
ByLayer
 62
    0
370
   -1
100
AcDbLine
 10
182.574525
 20
112.19965
 11
182.574525
 21
98.20035000000001
  0
LINE
  5
162
100
AcDbEntity
  8
0
  6
ByLayer
 62
    0
370
   -1
100
AcDbLine
 10
182.574525
 20
98.20035000000001
 11
168.575225
 21
98.20035000000001
  0
LINE
  5
163
100
AcDbEntity
  8
0
  6
ByLayer
 62
    0
370
   -1
100
AcDbLine
 10
168.575225
 20
98.20035000000001
 11
168.575225
 21
112.19965
  0
LINE
  5
164
100
AcDbEntity
  8
0
  6
ByLayer
 62
    0
370
   -1
100
AcDbLine
 10
149.525175
 20
112.19965
 11
163.524725
 21
112.19965
  0
LINE
  5
165
100
AcDbEntity
  8
0
  6
ByLayer
 62
    0
370
   -1
100
AcDbLine
 10
163.524725
 20
112.19965
 11
163.524725
 21
98.20035000000001
  0
LINE
  5
166
100
AcDbEntity
  8
0
  6
ByLayer
 62
    0
370
   -1
100
AcDbLine
 10
163.524725
 20
98.20035000000001
 11
149.525175
 21
98.20035000000001
  0
LINE
  5
167
100
AcDbEntity
  8
0
  6
ByLayer
 62
    0
370
   -1
100
AcDbLine
 10
149.525175
 20
98.20035000000001
 11
149.525175
 21
112.19965
  0
CIRCLE
  5
168
100
AcDbEntity
  8
0
  6
ByLayer
 62
  256
370
   -1
100
AcDbCircle
 10
156.52495
 20
105.2
 40
2
  0
LINE
  5
169
100
AcDbEntity
  8
0
  6
ByLayer
 62
    0
370
   -1
100
AcDbLine
 10
168.575225
 20
112.19965
 11
182.574775
 21
112.19965
  0
LINE
  5
16A
100
AcDbEntity
  8
0
  6
ByLayer
 62
    0
370
   -1
100
AcDbLine
 10
182.574775
 20
112.19965
 11
182.574775
 21
98.20035000000001
  0
LINE
  5
16B
100
AcDbEntity
  8
0
  6
ByLayer
 62
    0
370
   -1
100
AcDbLine
 10
182.574775
 20
98.20035000000001
 11
168.575225
 21
98.20035000000001
  0
LINE
  5
16C
100
AcDbEntity
  8
0
  6
ByLayer
 62
    0
370
   -1
100
AcDbLine
 10
168.575225
 20
98.20035000000001
 11
168.575225
 21
112.19965
  0
CIRCLE
  5
16D
100
AcDbEntity
  8
0
  6
ByLayer
 62
  256
370
   -1
100
AcDbCircle
 10
175.575
 20
105.2
 40
2
  0
LINE
  5
16E
100
AcDbEntity
  8
0
  6
ByLayer
 62
    0
370
   -1
100
AcDbLine
 10
187.625225
 20
112.19965
 11
201.624775
 21
112.19965
  0
LINE
  5
16F
100
AcDbEntity
  8
0
  6
ByLayer
 62
    0
370
   -1
100
AcDbLine
 10
201.624775
 20
112.19965
 11
201.624775
 21
98.20035000000001
  0
LINE
  5
170
100
AcDbEntity
  8
0
  6
ByLayer
 62
    0
370
   -1
100
AcDbLine
 10
201.624775
 20
98.20035000000001
 11
187.625225
 21
98.20035000000001
  0
LINE
  5
171
100
AcDbEntity
  8
0
  6
ByLayer
 62
    0
370
   -1
100
AcDbLine
 10
187.625225
 20
98.20035000000001
 11
187.625225
 21
112.19965
  0
CIRCLE
  5
172
100
AcDbEntity
  8
0
  6
ByLayer
 62
  256
370
   -1
100
AcDbCircle
 10
194.625
 20
105.2
 40
2
  0
LINE
  5
173
100
AcDbEntity
  8
0
  6
ByLayer
 62
    0
370
   -1
100
AcDbLine
 10
187.625225
 20
93.14965000000001
 11
201.624775
 21
93.14965000000001
  0
LINE
  5
174
100
AcDbEntity
  8
0
  6
ByLayer
 62
    0
370
   -1
100
AcDbLine
 10
201.624775
 20
93.14965000000001
 11
201.624775
 21
79.15035
  0
LINE
  5
175
100
AcDbEntity
  8
0
  6
ByLayer
 62
    0
370
   -1
100
AcDbLine
 10
201.624775
 20
79.15035
 11
187.625225
 21
79.15035
  0
LINE
  5
176
100
AcDbEntity
  8
0
  6
ByLayer
 62
    0
370
   -1
100
AcDbLine
 10
187.625225
 20
79.15035
 11
187.625225
 21
93.14965000000001
  0
CIRCLE
  5
177
100
AcDbEntity
  8
0
  6
ByLayer
 62
  256
370
   -1
100
AcDbCircle
 10
194.625
 20
86.15000000000001
 40
2
  0
LINE
  5
178
100
AcDbEntity
  8
0
  6
ByLayer
 62
    0
370
   -1
100
AcDbLine
 10
168.575225
 20
93.14965000000001
 11
182.574775
 21
93.14965000000001
  0
LINE
  5
179
100
AcDbEntity
  8
0
  6
ByLayer
 62
    0
370
   -1
100
AcDbLine
 10
182.574775
 20
93.14965000000001
 11
182.574775
 21
79.15035
  0
LINE
  5
17A
100
AcDbEntity
  8
0
  6
ByLayer
 62
    0
370
   -1
100
AcDbLine
 10
182.574775
 20
79.15035
 11
168.575225
 21
79.15035
  0
LINE
  5
17B
100
AcDbEntity
  8
0
  6
ByLayer
 62
    0
370
   -1
100
AcDbLine
 10
168.575225
 20
79.15035
 11
168.575225
 21
93.14965000000001
  0
CIRCLE
  5
17C
100
AcDbEntity
  8
0
  6
ByLayer
 62
  256
370
   -1
100
AcDbCircle
 10
175.575
 20
86.15000000000001
 40
2
  0
LINE
  5
17D
100
AcDbEntity
  8
0
  6
ByLayer
 62
    0
370
   -1
100
AcDbLine
 10
149.525175
 20
93.14965000000001
 11
163.524725
 21
93.14965000000001
  0
LINE
  5
17E
100
AcDbEntity
  8
0
  6
ByLayer
 62
    0
370
   -1
100
AcDbLine
 10
163.524725
 20
93.14965000000001
 11
163.524725
 21
79.15035
  0
LINE
  5
17F
100
AcDbEntity
  8
0
  6
ByLayer
 62
    0
370
   -1
100
AcDbLine
 10
163.524725
 20
79.15035
 11
149.525175
 21
79.15035
  0
LINE
  5
180
100
AcDbEntity
  8
0
  6
ByLayer
 62
    0
370
   -1
100
AcDbLine
 10
149.525175
 20
79.15035
 11
149.525175
 21
93.14965000000001
  0
CIRCLE
  5
181
100
AcDbEntity
  8
0
  6
ByLayer
 62
  256
370
   -1
100
AcDbCircle
 10
156.52495
 20
86.15000000000001
 40
2
  0
LINE
  5
182
100
AcDbEntity
  8
0
  6
ByLayer
 62
    0
370
   -1
100
AcDbLine
 10
206.673475
 20
93.14965000000001
 11
220.673025
 21
93.14965000000001
  0
LINE
  5
183
100
AcDbEntity
  8
0
  6
ByLayer
 62
    0
370
   -1
100
AcDbLine
 10
220.673025
 20
93.14965000000001
 11
220.673025
 21
79.15035
  0
LINE
  5
184
100
AcDbEntity
  8
0
  6
ByLayer
 62
    0
370
   -1
100
AcDbLine
 10
220.673025
 20
79.15035
 11
206.673475
 21
79.15035
  0
LINE
  5
185
100
AcDbEntity
  8
0
  6
ByLayer
 62
    0
370
   -1
100
AcDbLine
 10
206.673475
 20
79.15035
 11
206.673475
 21
93.14965000000001
  0
LINE
  5
186
100
AcDbEntity
  8
0
  6
ByLayer
 62
    0
370
   -1
100
AcDbLine
 10
206.673475
 20
112.19965
 11
220.673025
 21
112.19965
  0
LINE
  5
187
100
AcDbEntity
  8
0
  6
ByLayer
 62
    0
370
   -1
100
AcDbLine
 10
220.673025
 20
112.19965
 11
220.673025
 21
98.20035000000001
  0
LINE
  5
188
100
AcDbEntity
  8
0
  6
ByLayer
 62
    0
370
   -1
100
AcDbLine
 10
220.673025
 20
98.20035000000001
 11
206.673475
 21
98.20035000000001
  0
LINE
  5
189
100
AcDbEntity
  8
0
  6
ByLayer
 62
    0
370
   -1
100
AcDbLine
 10
206.673475
 20
98.20035000000001
 11
206.673475
 21
112.19965
  0
CIRCLE
  5
18A
100
AcDbEntity
  8
0
  6
ByLayer
 62
  256
370
   -1
100
AcDbCircle
 10
213.67325
 20
105.2
 40
2
  0
LINE
  5
18B
100
AcDbEntity
  8
0
  6
ByLayer
 62
    0
370
   -1
100
AcDbLine
 10
206.673475
 20
93.14965000000001
 11
220.673025
 21
93.14965000000001
  0
LINE
  5
18C
100
AcDbEntity
  8
0
  6
ByLayer
 62
    0
370
   -1
100
AcDbLine
 10
220.673025
 20
93.14965000000001
 11
220.673025
 21
79.15035
  0
LINE
  5
18D
100
AcDbEntity
  8
0
  6
ByLayer
 62
    0
370
   -1
100
AcDbLine
 10
220.673025
 20
79.15035
 11
206.673475
 21
79.15035
  0
LINE
  5
18E
100
AcDbEntity
  8
0
  6
ByLayer
 62
    0
370
   -1
100
AcDbLine
 10
206.673475
 20
79.15035
 11
206.673475
 21
93.14965000000001
  0
CIRCLE
  5
18F
100
AcDbEntity
  8
0
  6
ByLayer
 62
  256
370
   -1
100
AcDbCircle
 10
213.67325
 20
86.15000000000001
 40
2
  0
LINE
  5
190
100
AcDbEntity
  8
0
  6
ByLayer
 62
    0
370
   -1
100
AcDbLine
 10
168.575175
 20
55.04949000000002
 11
182.574475
 21
55.04949000000002
  0
LINE
  5
191
100
AcDbEntity
  8
0
  6
ByLayer
 62
    0
370
   -1
100
AcDbLine
 10
182.574475
 20
55.04949000000002
 11
182.574475
 21
41.05019000000002
  0
LINE
  5
192
100
AcDbEntity
  8
0
  6
ByLayer
 62
    0
370
   -1
100
AcDbLine
 10
182.574475
 20
41.05019000000002
 11
168.575175
 21
41.05019000000002
  0
LINE
  5
193
100
AcDbEntity
  8
0
  6
ByLayer
 62
    0
370
   -1
100
AcDbLine
 10
168.575175
 20
41.05019000000002
 11
168.575175
 21
55.04949000000002
  0
LINE
  5
194
100
AcDbEntity
  8
0
  6
ByLayer
 62
    0
370
   -1
100
AcDbLine
 10
149.525175
 20
55.04949000000002
 11
163.524475
 21
55.04949000000002
  0
LINE
  5
195
100
AcDbEntity
  8
0
  6
ByLayer
 62
    0
370
   -1
100
AcDbLine
 10
163.524475
 20
55.04949000000002
 11
163.524475
 21
41.05019000000002
  0
LINE
  5
196
100
AcDbEntity
  8
0
  6
ByLayer
 62
    0
370
   -1
100
AcDbLine
 10
163.524475
 20
41.05019000000002
 11
149.525175
 21
41.05019000000002
  0
LINE
  5
197
100
AcDbEntity
  8
0
  6
ByLayer
 62
    0
370
   -1
100
AcDbLine
 10
149.525175
 20
41.05019000000002
 11
149.525175
 21
55.04949000000002
  0
LINE
  5
198
100
AcDbEntity
  8
0
  6
ByLayer
 62
    0
370
   -1
100
AcDbLine
 10
168.575175
 20
74.09949000000002
 11
182.574475
 21
74.09949000000002
  0
LINE
  5
199
100
AcDbEntity
  8
0
  6
ByLayer
 62
    0
370
   -1
100
AcDbLine
 10
182.574475
 20
74.09949000000002
 11
182.574475
 21
60.10019000000003
  0
LINE
  5
19A
100
AcDbEntity
  8
0
  6
ByLayer
 62
    0
370
   -1
100
AcDbLine
 10
182.574475
 20
60.10019000000003
 11
168.575175
 21
60.10019000000003
  0
LINE
  5
19B
100
AcDbEntity
  8
0
  6
ByLayer
 62
    0
370
   -1
100
AcDbLine
 10
168.575175
 20
60.10019000000003
 11
168.575175
 21
74.09949000000002
  0
LINE
  5
19C
100
AcDbEntity
  8
0
  6
ByLayer
 62
    0
370
   -1
100
AcDbLine
 10
149.525175
 20
74.09949000000002
 11
163.524475
 21
74.09949000000002
  0
LINE
  5
19D
100
AcDbEntity
  8
0
  6
ByLayer
 62
    0
370
   -1
100
AcDbLine
 10
163.524475
 20
74.09949000000002
 11
163.524475
 21
60.10019000000003
  0
LINE
  5
19E
100
AcDbEntity
  8
0
  6
ByLayer
 62
    0
370
   -1
100
AcDbLine
 10
163.524475
 20
60.10019000000003
 11
149.525175
 21
60.10019000000003
  0
LINE
  5
19F
100
AcDbEntity
  8
0
  6
ByLayer
 62
    0
370
   -1
100
AcDbLine
 10
149.525175
 20
60.10019000000003
 11
149.525175
 21
74.09949000000002
  0
LINE
  5
1A0
100
AcDbEntity
  8
0
  6
ByLayer
 62
    0
370
   -1
100
AcDbLine
 10
168.575225
 20
55.04949000000002
 11
182.574525
 21
55.04949000000002
  0
LINE
  5
1A1
100
AcDbEntity
  8
0
  6
ByLayer
 62
    0
370
   -1
100
AcDbLine
 10
182.574525
 20
55.04949000000002
 11
182.574525
 21
41.05019000000001
  0
LINE
  5
1A2
100
AcDbEntity
  8
0
  6
ByLayer
 62
    0
370
   -1
100
AcDbLine
 10
182.574525
 20
41.05019000000001
 11
168.575225
 21
41.05019000000001
  0
LINE
  5
1A3
100
AcDbEntity
  8
0
  6
ByLayer
 62
    0
370
   -1
100
AcDbLine
 10
168.575225
 20
41.05019000000001
 11
168.575225
 21
55.04949000000002
  0
LINE
  5
1A4
100
AcDbEntity
  8
0
  6
ByLayer
 62
    0
370
   -1
100
AcDbLine
 10
149.525175
 20
55.04949000000002
 11
163.524725
 21
55.04949000000002
  0
LINE
  5
1A5
100
AcDbEntity
  8
0
  6
ByLayer
 62
    0
370
   -1
100
AcDbLine
 10
163.524725
 20
55.04949000000002
 11
163.524725
 21
41.05019000000001
  0
LINE
  5
1A6
100
AcDbEntity
  8
0
  6
ByLayer
 62
    0
370
   -1
100
AcDbLine
 10
163.524725
 20
41.05019000000001
 11
149.525175
 21
41.05019000000001
  0
LINE
  5
1A7
100
AcDbEntity
  8
0
  6
ByLayer
 62
    0
370
   -1
100
AcDbLine
 10
149.525175
 20
41.05019000000001
 11
149.525175
 21
55.04949000000002
  0
LINE
  5
1A8
100
AcDbEntity
  8
0
  6
ByLayer
 62
    0
370
   -1
100
AcDbLine
 10
168.575225
 20
74.09949
 11
182.574525
 21
74.09949
  0
LINE
  5
1A9
100
AcDbEntity
  8
0
  6
ByLayer
 62
    0
370
   -1
100
AcDbLine
 10
182.574525
 20
74.09949
 11
182.574525
 21
60.10019000000003
  0
LINE
  5
1AA
100
AcDbEntity
  8
0
  6
ByLayer
 62
    0
370
   -1
100
AcDbLine
 10
182.574525
 20
60.10019000000003
 11
168.575225
 21
60.10019000000003
  0
LINE
  5
1AB
100
AcDbEntity
  8
0
  6
ByLayer
 62
    0
370
   -1
100
AcDbLine
 10
168.575225
 20
60.10019000000003
 11
168.575225
 21
74.09949
  0
LINE
  5
1AC
100
AcDbEntity
  8
0
  6
ByLayer
 62
    0
370
   -1
100
AcDbLine
 10
149.525175
 20
74.09949
 11
163.524725
 21
74.09949
  0
LINE
  5
1AD
100
AcDbEntity
  8
0
  6
ByLayer
 62
    0
370
   -1
100
AcDbLine
 10
163.524725
 20
74.09949
 11
163.524725
 21
60.10019000000003
  0
LINE
  5
1AE
100
AcDbEntity
  8
0
  6
ByLayer
 62
    0
370
   -1
100
AcDbLine
 10
163.524725
 20
60.10019000000003
 11
149.525175
 21
60.10019000000003
  0
LINE
  5
1AF
100
AcDbEntity
  8
0
  6
ByLayer
 62
    0
370
   -1
100
AcDbLine
 10
149.525175
 20
60.10019000000003
 11
149.525175
 21
74.09949
  0
CIRCLE
  5
1B0
100
AcDbEntity
  8
0
  6
ByLayer
 62
  256
370
   -1
100
AcDbCircle
 10
156.52495
 20
67.09984000000003
 40
2
  0
LINE
  5
1B1
100
AcDbEntity
  8
0
  6
ByLayer
 62
    0
370
   -1
100
AcDbLine
 10
168.575225
 20
74.09949
 11
182.574775
 21
74.09949
  0
LINE
  5
1B2
100
AcDbEntity
  8
0
  6
ByLayer
 62
    0
370
   -1
100
AcDbLine
 10
182.574775
 20
74.09949
 11
182.574775
 21
60.10019000000003
  0
LINE
  5
1B3
100
AcDbEntity
  8
0
  6
ByLayer
 62
    0
370
   -1
100
AcDbLine
 10
182.574775
 20
60.10019000000003
 11
168.575225
 21
60.10019000000003
  0
LINE
  5
1B4
100
AcDbEntity
  8
0
  6
ByLayer
 62
    0
370
   -1
100
AcDbLine
 10
168.575225
 20
60.10019000000003
 11
168.575225
 21
74.09949
  0
CIRCLE
  5
1B5
100
AcDbEntity
  8
0
  6
ByLayer
 62
  256
370
   -1
100
AcDbCircle
 10
175.575
 20
67.09984000000003
 40
2
  0
LINE
  5
1B6
100
AcDbEntity
  8
0
  6
ByLayer
 62
    0
370
   -1
100
AcDbLine
 10
168.575225
 20
55.04949000000002
 11
182.574775
 21
55.04949000000002
  0
LINE
  5
1B7
100
AcDbEntity
  8
0
  6
ByLayer
 62
    0
370
   -1
100
AcDbLine
 10
182.574775
 20
55.04949000000002
 11
182.574775
 21
41.05019000000001
  0
LINE
  5
1B8
100
AcDbEntity
  8
0
  6
ByLayer
 62
    0
370
   -1
100
AcDbLine
 10
182.574775
 20
41.05019000000001
 11
168.575225
 21
41.05019000000001
  0
LINE
  5
1B9
100
AcDbEntity
  8
0
  6
ByLayer
 62
    0
370
   -1
100
AcDbLine
 10
168.575225
 20
41.05019000000001
 11
168.575225
 21
55.04949000000002
  0
CIRCLE
  5
1BA
100
AcDbEntity
  8
0
  6
ByLayer
 62
  256
370
   -1
100
AcDbCircle
 10
175.575
 20
48.04984000000002
 40
2
  0
LINE
  5
1BB
100
AcDbEntity
  8
0
  6
ByLayer
 62
    0
370
   -1
100
AcDbLine
 10
149.525175
 20
55.04949000000002
 11
163.524725
 21
55.04949000000002
  0
LINE
  5
1BC
100
AcDbEntity
  8
0
  6
ByLayer
 62
    0
370
   -1
100
AcDbLine
 10
163.524725
 20
55.04949000000002
 11
163.524725
 21
41.05019000000001
  0
LINE
  5
1BD
100
AcDbEntity
  8
0
  6
ByLayer
 62
    0
370
   -1
100
AcDbLine
 10
163.524725
 20
41.05019000000001
 11
149.525175
 21
41.05019000000001
  0
LINE
  5
1BE
100
AcDbEntity
  8
0
  6
ByLayer
 62
    0
370
   -1
100
AcDbLine
 10
149.525175
 20
41.05019000000001
 11
149.525175
 21
55.04949000000002
  0
CIRCLE
  5
1BF
100
AcDbEntity
  8
0
  6
ByLayer
 62
  256
370
   -1
100
AcDbCircle
 10
156.52495
 20
48.04984000000002
 40
2
  0
LINE
  5
1C0
100
AcDbEntity
  8
0
  6
ByLayer
 62
    0
370
   -1
100
AcDbLine
 10
187.623825
 20
74.09961000000001
 11
201.622825
 21
74.09961000000001
  0
LINE
  5
1C1
100
AcDbEntity
  8
0
  6
ByLayer
 62
    0
370
   -1
100
AcDbLine
 10
201.622825
 20
74.09961000000001
 11
201.622825
 21
60.10015000000001
  0
LINE
  5
1C2
100
AcDbEntity
  8
0
  6
ByLayer
 62
    0
370
   -1
100
AcDbLine
 10
201.622825
 20
60.10015000000001
 11
187.623825
 21
60.10015000000001
  0
LINE
  5
1C3
100
AcDbEntity
  8
0
  6
ByLayer
 62
    0
370
   -1
100
AcDbLine
 10
187.623825
 20
60.10015000000001
 11
187.623825
 21
74.09961000000001
  0
LINE
  5
1C4
100
AcDbEntity
  8
0
  6
ByLayer
 62
    0
370
   -1
100
AcDbLine
 10
187.623775
 20
74.09961000000001
 11
201.622775
 21
74.09961000000001
  0
LINE
  5
1C5
100
AcDbEntity
  8
0
  6
ByLayer
 62
    0
370
   -1
100
AcDbLine
 10
201.622775
 20
74.09961000000001
 11
201.622775
 21
60.10015000000001
  0
LINE
  5
1C6
100
AcDbEntity
  8
0
  6
ByLayer
 62
    0
370
   -1
100
AcDbLine
 10
201.622775
 20
60.10015000000001
 11
187.623775
 21
60.10015000000001
  0
LINE
  5
1C7
100
AcDbEntity
  8
0
  6
ByLayer
 62
    0
370
   -1
100
AcDbLine
 10
187.623775
 20
60.10015000000001
 11
187.623775
 21
74.09961000000001
  0
LINE
  5
1C8
100
AcDbEntity
  8
0
  6
ByLayer
 62
    0
370
   -1
100
AcDbLine
 10
187.623775
 20
74.09945000000002
 11
201.623075
 21
74.09945000000002
  0
LINE
  5
1C9
100
AcDbEntity
  8
0
  6
ByLayer
 62
    0
370
   -1
100
AcDbLine
 10
201.623075
 20
74.09945000000002
 11
201.623075
 21
60.10015000000001
  0
LINE
  5
1CA
100
AcDbEntity
  8
0
  6
ByLayer
 62
    0
370
   -1
100
AcDbLine
 10
201.623075
 20
60.10015000000001
 11
187.623775
 21
60.10015000000001
  0
LINE
  5
1CB
100
AcDbEntity
  8
0
  6
ByLayer
 62
    0
370
   -1
100
AcDbLine
 10
187.623775
 20
60.10015000000001
 11
187.623775
 21
74.09945000000002
  0
LINE
  5
1CC
100
AcDbEntity
  8
0
  6
ByLayer
 62
    0
370
   -1
100
AcDbLine
 10
187.623825
 20
74.09945000000002
 11
201.623125
 21
74.09945000000002
  0
LINE
  5
1CD
100
AcDbEntity
  8
0
  6
ByLayer
 62
    0
370
   -1
100
AcDbLine
 10
201.623125
 20
74.09945000000002
 11
201.623125
 21
60.10015000000001
  0
LINE
  5
1CE
100
AcDbEntity
  8
0
  6
ByLayer
 62
    0
370
   -1
100
AcDbLine
 10
201.623125
 20
60.10015000000001
 11
187.623825
 21
60.10015000000001
  0
LINE
  5
1CF
100
AcDbEntity
  8
0
  6
ByLayer
 62
    0
370
   -1
100
AcDbLine
 10
187.623825
 20
60.10015000000001
 11
187.623825
 21
74.09945000000002
  0
LINE
  5
1D0
100
AcDbEntity
  8
0
  6
ByLayer
 62
    0
370
   -1
100
AcDbLine
 10
187.623825
 20
74.09945000000002
 11
201.623375
 21
74.09945000000002
  0
LINE
  5
1D1
100
AcDbEntity
  8
0
  6
ByLayer
 62
    0
370
   -1
100
AcDbLine
 10
201.623375
 20
74.09945000000002
 11
201.623375
 21
60.10015000000001
  0
LINE
  5
1D2
100
AcDbEntity
  8
0
  6
ByLayer
 62
    0
370
   -1
100
AcDbLine
 10
201.623375
 20
60.10015000000001
 11
187.623825
 21
60.10015000000001
  0
LINE
  5
1D3
100
AcDbEntity
  8
0
  6
ByLayer
 62
    0
370
   -1
100
AcDbLine
 10
187.623825
 20
60.10015000000001
 11
187.623825
 21
74.09945000000002
  0
CIRCLE
  5
1D4
100
AcDbEntity
  8
0
  6
ByLayer
 62
  256
370
   -1
100
AcDbCircle
 10
194.6236
 20
67.09980000000002
 40
2
  0
LINE
  5
1D5
100
AcDbEntity
  8
0
  6
ByLayer
 62
    0
370
   -1
100
AcDbLine
 10
206.673525
 20
74.09961000000001
 11
220.6725250000001
 21
74.09961000000001
  0
LINE
  5
1D6
100
AcDbEntity
  8
0
  6
ByLayer
 62
    0
370
   -1
100
AcDbLine
 10
220.6725250000001
 20
74.09961000000001
 11
220.6725250000001
 21
60.10015000000001
  0
LINE
  5
1D7
100
AcDbEntity
  8
0
  6
ByLayer
 62
    0
370
   -1
100
AcDbLine
 10
220.6725250000001
 20
60.10015000000001
 11
206.673525
 21
60.10015000000001
  0
LINE
  5
1D8
100
AcDbEntity
  8
0
  6
ByLayer
 62
    0
370
   -1
100
AcDbLine
 10
206.673525
 20
60.10015000000001
 11
206.673525
 21
74.09961000000001
  0
LINE
  5
1D9
100
AcDbEntity
  8
0
  6
ByLayer
 62
    0
370
   -1
100
AcDbLine
 10
206.673475
 20
74.09961000000001
 11
220.672475
 21
74.09961000000001
  0
LINE
  5
1DA
100
AcDbEntity
  8
0
  6
ByLayer
 62
    0
370
   -1
100
AcDbLine
 10
220.672475
 20
74.09961000000001
 11
220.672475
 21
60.10015000000001
  0
LINE
  5
1DB
100
AcDbEntity
  8
0
  6
ByLayer
 62
    0
370
   -1
100
AcDbLine
 10
220.672475
 20
60.10015000000001
 11
206.673475
 21
60.10015000000001
  0
LINE
  5
1DC
100
AcDbEntity
  8
0
  6
ByLayer
 62
    0
370
   -1
100
AcDbLine
 10
206.673475
 20
60.10015000000001
 11
206.673475
 21
74.09961000000001
  0
LINE
  5
1DD
100
AcDbEntity
  8
0
  6
ByLayer
 62
    0
370
   -1
100
AcDbLine
 10
206.673475
 20
74.09945000000002
 11
220.672775
 21
74.09945000000002
  0
LINE
  5
1DE
100
AcDbEntity
  8
0
  6
ByLayer
 62
    0
370
   -1
100
AcDbLine
 10
220.672775
 20
74.09945000000002
 11
220.672775
 21
60.10015000000001
  0
LINE
  5
1DF
100
AcDbEntity
  8
0
  6
ByLayer
 62
    0
370
   -1
100
AcDbLine
 10
220.672775
 20
60.10015000000001
 11
206.673475
 21
60.10015000000001
  0
LINE
  5
1E0
100
AcDbEntity
  8
0
  6
ByLayer
 62
    0
370
   -1
100
AcDbLine
 10
206.673475
 20
60.10015000000001
 11
206.673475
 21
74.09945000000002
  0
LINE
  5
1E1
100
AcDbEntity
  8
0
  6
ByLayer
 62
    0
370
   -1
100
AcDbLine
 10
206.673525
 20
74.09945000000002
 11
220.672825
 21
74.09945000000002
  0
LINE
  5
1E2
100
AcDbEntity
  8
0
  6
ByLayer
 62
    0
370
   -1
100
AcDbLine
 10
220.672825
 20
74.09945000000002
 11
220.672825
 21
60.10015000000001
  0
LINE
  5
1E3
100
AcDbEntity
  8
0
  6
ByLayer
 62
    0
370
   -1
100
AcDbLine
 10
220.672825
 20
60.10015000000001
 11
206.673525
 21
60.10015000000001
  0
LINE
  5
1E4
100
AcDbEntity
  8
0
  6
ByLayer
 62
    0
370
   -1
100
AcDbLine
 10
206.673525
 20
60.10015000000001
 11
206.673525
 21
74.09945000000002
  0
LINE
  5
1E5
100
AcDbEntity
  8
0
  6
ByLayer
 62
    0
370
   -1
100
AcDbLine
 10
206.673525
 20
74.09945000000002
 11
220.673075
 21
74.09945000000002
  0
LINE
  5
1E6
100
AcDbEntity
  8
0
  6
ByLayer
 62
    0
370
   -1
100
AcDbLine
 10
220.673075
 20
74.09945000000002
 11
220.673075
 21
60.10015000000001
  0
LINE
  5
1E7
100
AcDbEntity
  8
0
  6
ByLayer
 62
    0
370
   -1
100
AcDbLine
 10
220.673075
 20
60.10015000000001
 11
206.673525
 21
60.10015000000001
  0
LINE
  5
1E8
100
AcDbEntity
  8
0
  6
ByLayer
 62
    0
370
   -1
100
AcDbLine
 10
206.673525
 20
60.10015000000001
 11
206.673525
 21
74.09945000000002
  0
CIRCLE
  5
1E9
100
AcDbEntity
  8
0
  6
ByLayer
 62
  256
370
   -1
100
AcDbCircle
 10
213.6733
 20
67.09980000000002
 40
2
  0
LINE
  5
1EA
100
AcDbEntity
  8
0
  6
ByLayer
 62
    0
370
   -1
100
AcDbLine
 10
206.675225
 20
55.04965000000001
 11
220.674525
 21
55.04965000000001
  0
LINE
  5
1EB
100
AcDbEntity
  8
0
  6
ByLayer
 62
    0
370
   -1
100
AcDbLine
 10
220.674525
 20
55.04965000000001
 11
220.674525
 21
41.05019000000001
  0
LINE
  5
1EC
100
AcDbEntity
  8
0
  6
ByLayer
 62
    0
370
   -1
100
AcDbLine
 10
220.674525
 20
41.05019000000001
 11
206.675225
 21
41.05019000000001
  0
LINE
  5
1ED
100
AcDbEntity
  8
0
  6
ByLayer
 62
    0
370
   -1
100
AcDbLine
 10
206.675225
 20
41.05019000000001
 11
206.675225
 21
55.04965000000001
  0
LINE
  5
1EE
100
AcDbEntity
  8
0
  6
ByLayer
 62
    0
370
   -1
100
AcDbLine
 10
187.625225
 20
55.04965000000001
 11
201.624525
 21
55.04965000000001
  0
LINE
  5
1EF
100
AcDbEntity
  8
0
  6
ByLayer
 62
    0
370
   -1
100
AcDbLine
 10
201.624525
 20
55.04965000000001
 11
201.624525
 21
41.05019000000001
  0
LINE
  5
1F0
100
AcDbEntity
  8
0
  6
ByLayer
 62
    0
370
   -1
100
AcDbLine
 10
201.624525
 20
41.05019000000001
 11
187.625225
 21
41.05019000000001
  0
LINE
  5
1F1
100
AcDbEntity
  8
0
  6
ByLayer
 62
    0
370
   -1
100
AcDbLine
 10
187.625225
 20
41.05019000000001
 11
187.625225
 21
55.04965000000001
  0
LINE
  5
1F2
100
AcDbEntity
  8
0
  6
ByLayer
 62
    0
370
   -1
100
AcDbLine
 10
168.575225
 20
55.04965000000001
 11
182.574525
 21
55.04965000000001
  0
LINE
  5
1F3
100
AcDbEntity
  8
0
  6
ByLayer
 62
    0
370
   -1
100
AcDbLine
 10
182.574525
 20
55.04965000000001
 11
182.574525
 21
41.05019000000001
  0
LINE
  5
1F4
100
AcDbEntity
  8
0
  6
ByLayer
 62
    0
370
   -1
100
AcDbLine
 10
182.574525
 20
41.05019000000001
 11
168.575225
 21
41.05019000000001
  0
LINE
  5
1F5
100
AcDbEntity
  8
0
  6
ByLayer
 62
    0
370
   -1
100
AcDbLine
 10
168.575225
 20
41.05019000000001
 11
168.575225
 21
55.04965000000001
  0
LINE
  5
1F6
100
AcDbEntity
  8
0
  6
ByLayer
 62
    0
370
   -1
100
AcDbLine
 10
168.575225
 20
55.04949000000001
 11
182.574525
 21
55.04949000000001
  0
LINE
  5
1F7
100
AcDbEntity
  8
0
  6
ByLayer
 62
    0
370
   -1
100
AcDbLine
 10
182.574525
 20
55.04949000000001
 11
182.574525
 21
41.05019000000001
  0
LINE
  5
1F8
100
AcDbEntity
  8
0
  6
ByLayer
 62
    0
370
   -1
100
AcDbLine
 10
182.574525
 20
41.05019000000001
 11
168.575225
 21
41.05019000000001
  0
LINE
  5
1F9
100
AcDbEntity
  8
0
  6
ByLayer
 62
    0
370
   -1
100
AcDbLine
 10
168.575225
 20
41.05019000000001
 11
168.575225
 21
55.04949000000001
  0
LINE
  5
1FA
100
AcDbEntity
  8
0
  6
ByLayer
 62
    0
370
   -1
100
AcDbLine
 10
168.575225
 20
55.04949000000001
 11
182.574775
 21
55.04949000000001
  0
LINE
  5
1FB
100
AcDbEntity
  8
0
  6
ByLayer
 62
    0
370
   -1
100
AcDbLine
 10
182.574775
 20
55.04949000000001
 11
182.574775
 21
41.05019000000001
  0
LINE
  5
1FC
100
AcDbEntity
  8
0
  6
ByLayer
 62
    0
370
   -1
100
AcDbLine
 10
182.574775
 20
41.05019000000001
 11
168.575225
 21
41.05019000000001
  0
LINE
  5
1FD
100
AcDbEntity
  8
0
  6
ByLayer
 62
    0
370
   -1
100
AcDbLine
 10
168.575225
 20
41.05019000000001
 11
168.575225
 21
55.04949000000001
  0
CIRCLE
  5
1FE
100
AcDbEntity
  8
0
  6
ByLayer
 62
  256
370
   -1
100
AcDbCircle
 10
175.575
 20
48.04984000000002
 40
2
  0
LINE
  5
1FF
100
AcDbEntity
  8
0
  6
ByLayer
 62
    0
370
   -1
100
AcDbLine
 10
206.675225
 20
55.04949000000002
 11
220.674525
 21
55.04949000000002
  0
LINE
  5
200
100
AcDbEntity
  8
0
  6
ByLayer
 62
    0
370
   -1
100
AcDbLine
 10
220.674525
 20
55.04949000000002
 11
220.674525
 21
41.05019000000002
  0
LINE
  5
201
100
AcDbEntity
  8
0
  6
ByLayer
 62
    0
370
   -1
100
AcDbLine
 10
220.674525
 20
41.05019000000002
 11
206.675225
 21
41.05019000000002
  0
LINE
  5
202
100
AcDbEntity
  8
0
  6
ByLayer
 62
    0
370
   -1
100
AcDbLine
 10
206.675225
 20
41.05019000000002
 11
206.675225
 21
55.04949000000002
  0
LINE
  5
203
100
AcDbEntity
  8
0
  6
ByLayer
 62
    0
370
   -1
100
AcDbLine
 10
187.625225
 20
55.04949000000002
 11
201.624525
 21
55.04949000000002
  0
LINE
  5
204
100
AcDbEntity
  8
0
  6
ByLayer
 62
    0
370
   -1
100
AcDbLine
 10
201.624525
 20
55.04949000000002
 11
201.624525
 21
41.05019000000002
  0
LINE
  5
205
100
AcDbEntity
  8
0
  6
ByLayer
 62
    0
370
   -1
100
AcDbLine
 10
201.624525
 20
41.05019000000002
 11
187.625225
 21
41.05019000000002
  0
LINE
  5
206
100
AcDbEntity
  8
0
  6
ByLayer
 62
    0
370
   -1
100
AcDbLine
 10
187.625225
 20
41.05019000000002
 11
187.625225
 21
55.04949000000002
  0
LINE
  5
207
100
AcDbEntity
  8
0
  6
ByLayer
 62
    0
370
   -1
100
AcDbLine
 10
206.675275
 20
55.04949000000002
 11
220.674575
 21
55.04949000000002
  0
LINE
  5
208
100
AcDbEntity
  8
0
  6
ByLayer
 62
    0
370
   -1
100
AcDbLine
 10
220.674575
 20
55.04949000000002
 11
220.674575
 21
41.05019000000001
  0
LINE
  5
209
100
AcDbEntity
  8
0
  6
ByLayer
 62
    0
370
   -1
100
AcDbLine
 10
220.674575
 20
41.05019000000001
 11
206.675275
 21
41.05019000000001
  0
LINE
  5
20A
100
AcDbEntity
  8
0
  6
ByLayer
 62
    0
370
   -1
100
AcDbLine
 10
206.675275
 20
41.05019000000001
 11
206.675275
 21
55.04949000000002
  0
LINE
  5
20B
100
AcDbEntity
  8
0
  6
ByLayer
 62
    0
370
   -1
100
AcDbLine
 10
187.625225
 20
55.04949000000002
 11
201.624775
 21
55.04949000000002
  0
LINE
  5
20C
100
AcDbEntity
  8
0
  6
ByLayer
 62
    0
370
   -1
100
AcDbLine
 10
201.624775
 20
55.04949000000002
 11
201.624775
 21
41.05019000000001
  0
LINE
  5
20D
100
AcDbEntity
  8
0
  6
ByLayer
 62
    0
370
   -1
100
AcDbLine
 10
201.624775
 20
41.05019000000001
 11
187.625225
 21
41.05019000000001
  0
LINE
  5
20E
100
AcDbEntity
  8
0
  6
ByLayer
 62
    0
370
   -1
100
AcDbLine
 10
187.625225
 20
41.05019000000001
 11
187.625225
 21
55.04949000000002
  0
LINE
  5
20F
100
AcDbEntity
  8
0
  6
ByLayer
 62
    0
370
   -1
100
AcDbLine
 10
206.675275
 20
55.04949000000002
 11
220.674825
 21
55.04949000000002
  0
LINE
  5
210
100
AcDbEntity
  8
0
  6
ByLayer
 62
    0
370
   -1
100
AcDbLine
 10
220.674825
 20
55.04949000000002
 11
220.674825
 21
41.05019000000001
  0
LINE
  5
211
100
AcDbEntity
  8
0
  6
ByLayer
 62
    0
370
   -1
100
AcDbLine
 10
220.674825
 20
41.05019000000001
 11
206.675275
 21
41.05019000000001
  0
LINE
  5
212
100
AcDbEntity
  8
0
  6
ByLayer
 62
    0
370
   -1
100
AcDbLine
 10
206.675275
 20
41.05019000000001
 11
206.675275
 21
55.04949000000002
  0
CIRCLE
  5
213
100
AcDbEntity
  8
0
  6
ByLayer
 62
  256
370
   -1
100
AcDbCircle
 10
213.67505
 20
48.04984000000002
 40
2
  0
LINE
  5
214
100
AcDbEntity
  8
0
  6
ByLayer
 62
    0
370
   -1
100
AcDbLine
 10
187.625225
 20
55.04949000000002
 11
201.624775
 21
55.04949000000002
  0
LINE
  5
215
100
AcDbEntity
  8
0
  6
ByLayer
 62
    0
370
   -1
100
AcDbLine
 10
201.624775
 20
55.04949000000002
 11
201.624775
 21
41.05019000000001
  0
LINE
  5
216
100
AcDbEntity
  8
0
  6
ByLayer
 62
    0
370
   -1
100
AcDbLine
 10
201.624775
 20
41.05019000000001
 11
187.625225
 21
41.05019000000001
  0
LINE
  5
217
100
AcDbEntity
  8
0
  6
ByLayer
 62
    0
370
   -1
100
AcDbLine
 10
187.625225
 20
41.05019000000001
 11
187.625225
 21
55.04949000000002
  0
CIRCLE
  5
218
100
AcDbEntity
  8
0
  6
ByLayer
 62
  256
370
   -1
100
AcDbCircle
 10
194.625
 20
48.04984000000002
 40
2
  0
LINE
  5
219
100
AcDbEntity
  8
0
  6
ByLayer
 62
    0
370
   -1
100
AcDbLine
 10
347.2577018621676
 20
110.2333163585987
 11
351.2308438446894
 21
96.80929465991528
  0
LINE
  5
21A
100
AcDbEntity
  8
0
  6
ByLayer
 62
    0
370
   -1
100
AcDbLine
 10
337.8075234430644
 20
92.83482294718179
 11
333.8331430898452
 21
106.2581840113097
  0
LINE
  5
21B
100
AcDbEntity
  8
0
  6
ByLayer
 62
    0
370
   -1
100
AcDbLine
 10
333.8331430898452
 20
106.2581840113097
 11
347.2577018621676
 21
110.2333163585987
  0
LINE
  5
21C
100
AcDbEntity
  8
0
  6
ByLayer
 62
    0
370
   -1
100
AcDbLine
 10
327.6388571166877
 20
109.3914628008119
 11
331.6133288294212
 21
95.96814239918695
  0
LINE
  5
21D
100
AcDbEntity
  8
0
  6
ByLayer
 62
    0
370
   -1
100
AcDbLine
 10
331.6133288294212
 20
95.96814239918695
 11
318.1897850462647
 21
91.99368072096189
  0
LINE
  5
21E
100
AcDbEntity
  8
0
  6
ByLayer
 62
    0
370
   -1
100
AcDbLine
 10
318.1897850462647
 20
91.99368072096189
 11
314.2142170193595
 21
105.4165131725516
  0
LINE
  5
21F
100
AcDbEntity
  8
0
  6
ByLayer
 62
    0
370
   -1
100
AcDbLine
 10
314.2142170193595
 20
105.4165131725516
 11
327.6388571166877
 21
109.3914628008119
  0
LINE
  5
220
100
AcDbEntity
  8
0
  6
ByLayer
 62
    0
370
   -1
100
AcDbLine
 10
254.3318259409644
 20
83.50310964265331
 11
241.5424075329898
 21
77.81076585597306
  0
LINE
  5
221
100
AcDbEntity
  8
0
  6
ByLayer
 62
    0
370
   -1
100
AcDbLine
 10
241.5424075329898
 20
77.81076585597306
 11
247.2348733071788
 21
65.02107336945542
  0
LINE
  5
222
100
AcDbEntity
  8
0
  6
ByLayer
 62
    0
370
   -1
100
AcDbLine
 10
247.2348733071788
 20
65.02107336945542
 11
260.0242917151535
 21
70.71341715613568
  0
LINE
  5
223
100
AcDbEntity
  8
0
  6
ByLayer
 62
    0
370
   -1
100
AcDbLine
 10
260.0242917151535
 20
70.71341715613568
 11
254.3318259409644
 21
83.50310964265331
  0
LINE
  5
224
100
AcDbEntity
  8
0
  6
ByLayer
 62
    0
370
   -1
100
AcDbLine
 10
271.7360874951784
 20
91.24943844038137
 11
258.9463950086608
 21
85.55697266619228
  0
LINE
  5
225
100
AcDbEntity
  8
0
  6
ByLayer
 62
    0
370
   -1
100
AcDbLine
 10
258.9463950086608
 20
85.55697266619228
 11
264.6388607828499
 21
72.76728017967464
  0
LINE
  5
226
100
AcDbEntity
  8
0
  6
ByLayer
 62
    0
370
   -1
100
AcDbLine
 10
264.6388607828499
 20
72.76728017967464
 11
277.4285532693675
 21
78.45974595386373
  0
LINE
  5
227
100
AcDbEntity
  8
0
  6
ByLayer
 62
    0
370
   -1
100
AcDbLine
 10
277.4285532693675
 20
78.45974595386373
 11
271.7360874951784
 21
91.24943844038137
  0
LINE
  5
228
100
AcDbEntity
  8
0
  6
ByLayer
 62
    0
370
   -1
100
AcDbLine
 10
304.6075107439656
 20
111.0928489297376
 11
291.817818257448
 21
105.4003831555485
  0
LINE
  5
229
100
AcDbEntity
  8
0
  6
ByLayer
 62
    0
370
   -1
100
AcDbLine
 10
291.817818257448
 20
105.4003831555485
 11
297.5102840316371
 21
92.61069066903084
  0
LINE
  5
22A
100
AcDbEntity
  8
0
  6
ByLayer
 62
    0
370
   -1
100
AcDbLine
 10
297.5102840316371
 20
92.61069066903084
 11
310.2999765181547
 21
98.30315644321992
  0
LINE
  5
22B
100
AcDbEntity
  8
0
  6
ByLayer
 62
    0
370
   -1
100
AcDbLine
 10
310.2999765181547
 20
98.30315644321992
 11
304.6075107439656
 21
111.0928489297376
  0
LINE
  5
22C
100
AcDbEntity
  8
0
  6
ByLayer
 62
    0
370
   -1
100
AcDbLine
 10
341.8487275838637
 20
128.4995864908601
 11
345.8231394636343
 21
115.0761300009676
  0
LINE
  5
22D
100
AcDbEntity
  8
0
  6
ByLayer
 62
    0
370
   -1
100
AcDbLine
 10
345.8231394636343
 20
115.0761300009676
 11
332.4003070120447
 21
111.1005619740624
  0
LINE
  5
22E
100
AcDbEntity
  8
0
  6
ByLayer
 62
    0
370
   -1
100
AcDbLine
 10
332.4003070120447
 20
111.1005619740624
 11
328.4254387087902
 21
124.5250193523621
  0
LINE
  5
22F
100
AcDbEntity
  8
0
  6
ByLayer
 62
    0
370
   -1
100
AcDbLine
 10
328.4254387087902
 20
124.5250193523621
 11
341.8487275838637
 21
128.4995864908601
  0
LINE
  5
230
100
AcDbEntity
  8
0
  6
ByLayer
 62
    0
370
   -1
100
AcDbLine
 10
322.23128475765
 20
127.6582474448529
 11
326.2048333652012
 21
114.2333121510264
  0
LINE
  5
231
100
AcDbEntity
  8
0
  6
ByLayer
 62
    0
370
   -1
100
AcDbLine
 10
326.2048333652012
 20
114.2333121510264
 11
312.7810250135409
 21
110.2599367524646
  0
LINE
  5
232
100
AcDbEntity
  8
0
  6
ByLayer
 62
    0
370
   -1
100
AcDbLine
 10
312.7810250135409
 20
110.2599367524646
 11
308.8066039978188
 21
123.6833891761069
  0
LINE
  5
233
100
AcDbEntity
  8
0
  6
ByLayer
 62
    0
370
   -1
100
AcDbLine
 10
308.8066039978188
 20
123.6833891761069
 11
322.23128475765
 21
127.6582474448529
  0
LINE
  5
234
100
AcDbEntity
  8
0
  6
ByLayer
 62
    0
370
   -1
100
AcDbLine
 10
283.330419863185
 20
112.0486358573538
 11
270.5407273766674
 21
106.3561700831648
  0
LINE
  5
235
100
AcDbEntity
  8
0
  6
ByLayer
 62
    0
370
   -1
100
AcDbLine
 10
270.5407273766674
 20
106.3561700831648
 11
276.2331931508564
 21
93.56647759664713
  0
LINE
  5
236
100
AcDbEntity
  8
0
  6
ByLayer
 62
    0
370
   -1
100
AcDbLine
 10
276.2331931508564
 20
93.56647759664713
 11
289.0228856373741
 21
99.25894337083621
  0
LINE
  5
237
100
AcDbEntity
  8
0
  6
ByLayer
 62
    0
370
   -1
100
AcDbLine
 10
289.0228856373741
 20
99.25894337083621
 11
283.330419863185
 21
112.0486358573538
  0
LINE
  5
238
100
AcDbEntity
  8
0
  6
ByLayer
 62
    0
370
   -1
100
AcDbLine
 10
246.5856191307453
 20
100.9070971183243
 11
233.7962007227705
 21
95.21475333164406
  0
LINE
  5
239
100
AcDbEntity
  8
0
  6
ByLayer
 62
    0
370
   -1
100
AcDbLine
 10
233.7962007227705
 20
95.21475333164406
 11
239.4886664969596
 21
82.42506084512641
  0
LINE
  5
23A
100
AcDbEntity
  8
0
  6
ByLayer
 62
    0
370
   -1
100
AcDbLine
 10
239.4886664969596
 20
82.42506084512641
 11
252.2780849049343
 21
88.11740463180666
  0
LINE
  5
23B
100
AcDbEntity
  8
0
  6
ByLayer
 62
    0
370
   -1
100
AcDbLine
 10
252.2780849049343
 20
88.11740463180666
 11
246.5856191307453
 21
100.9070971183243
  0
LINE
  5
23C
100
AcDbEntity
  8
0
  6
ByLayer
 62
    0
370
   -1
100
AcDbLine
 10
263.9898806849592
 20
108.6534259160524
 11
251.2001881984415
 21
102.9609601418633
  0
LINE
  5
23D
100
AcDbEntity
  8
0
  6
ByLayer
 62
    0
370
   -1
100
AcDbLine
 10
251.2001881984415
 20
102.9609601418633
 11
256.8926539726306
 21
90.17126765534563
  0
LINE
  5
23E
100
AcDbEntity
  8
0
  6
ByLayer
 62
    0
370
   -1
100
AcDbLine
 10
256.8926539726306
 20
90.17126765534563
 11
269.6823464591483
 21
95.86373342953472
  0
LINE
  5
23F
100
AcDbEntity
  8
0
  6
ByLayer
 62
    0
370
   -1
100
AcDbLine
 10
269.6823464591483
 20
95.86373342953472
 11
263.9898806849592
 21
108.6534259160524
  0
LINE
  5
240
100
AcDbEntity
  8
0
  6
ByLayer
 62
    0
370
   -1
100
AcDbLine
 10
296.8613039337464
 20
128.4968364054085
 11
284.0716114472287
 21
122.8043706312195
  0
LINE
  5
241
100
AcDbEntity
  8
0
  6
ByLayer
 62
    0
370
   -1
100
AcDbLine
 10
284.0716114472287
 20
122.8043706312195
 11
289.7640772214178
 21
110.0146781447019
  0
LINE
  5
242
100
AcDbEntity
  8
0
  6
ByLayer
 62
    0
370
   -1
100
AcDbLine
 10
289.7640772214178
 20
110.0146781447019
 11
302.5537697079355
 21
115.7071439188909
  0
LINE
  5
243
100
AcDbEntity
  8
0
  6
ByLayer
 62
    0
370
   -1
100
AcDbLine
 10
302.5537697079355
 20
115.7071439188909
 11
296.8613039337464
 21
128.4968364054085
  0
LINE
  5
244
100
AcDbEntity
  8
0
  6
ByLayer
 62
    0
370
   -1
100
AcDbLine
 10
336.4410780185173
 20
146.7664462294142
 11
340.4148258198859
 21
133.3411617625317
  0
LINE
  5
245
100
AcDbEntity
  8
0
  6
ByLayer
 62
    0
370
   -1
100
AcDbLine
 10
340.4148258198859
 20
133.3411617625317
 11
326.9914149573036
 21
129.3668687025765
  0
LINE
  5
246
100
AcDbEntity
  8
0
  6
ByLayer
 62
    0
370
   -1
100
AcDbLine
 10
326.9914149573036
 20
129.3668687025765
 11
323.0165873165521
 21
142.7912347213618
  0
LINE
  5
247
100
AcDbEntity
  8
0
  6
ByLayer
 62
    0
370
   -1
100
AcDbLine
 10
323.0165873165521
 20
142.7912347213618
 11
336.4410780185173
 21
146.7664462294142
  0
LINE
  5
248
100
AcDbEntity
  8
0
  6
ByLayer
 62
    0
370
   -1
100
AcDbLine
 10
316.8229619779501
 20
145.9232751401667
 11
320.7972610061634
 21
132.5000967950674
  0
LINE
  5
249
100
AcDbEntity
  8
0
  6
ByLayer
 62
    0
370
   -1
100
AcDbLine
 10
320.7972610061634
 20
132.5000967950674
 11
307.372702233841
 21
128.5249644477784
  0
LINE
  5
24A
100
AcDbEntity
  8
0
  6
ByLayer
 62
    0
370
   -1
100
AcDbLine
 10
307.372702233841
 20
128.5249644477784
 11
303.3978033025921
 21
141.9497365671239
  0
LINE
  5
24B
100
AcDbEntity
  8
0
  6
ByLayer
 62
    0
370
   -1
100
AcDbLine
 10
303.3978033025921
 20
141.9497365671239
 11
316.8229619779501
 21
145.9232751401667
  0
LINE
  5
24C
100
AcDbEntity
  8
0
  6
ByLayer
 62
    0
370
   -1
100
AcDbLine
 10
275.5842130529658
 20
129.4526233330248
 11
262.7945205664482
 21
123.7601575588357
  0
LINE
  5
24D
100
AcDbEntity
  8
0
  6
ByLayer
 62
    0
370
   -1
100
AcDbLine
 10
262.7945205664482
 20
123.7601575588357
 11
268.4869863406373
 21
110.9704650723181
  0
LINE
  5
24E
100
AcDbEntity
  8
0
  6
ByLayer
 62
    0
370
   -1
100
AcDbLine
 10
268.4869863406373
 20
110.9704650723181
 11
281.2766788271549
 21
116.6629308465072
  0
LINE
  5
24F
100
AcDbEntity
  8
0
  6
ByLayer
 62
    0
370
   -1
100
AcDbLine
 10
281.2766788271549
 20
116.6629308465072
 11
275.5842130529658
 21
129.4526233330248
  0
LINE
  5
250
100
AcDbEntity
  8
0
  6
ByLayer
 62
    0
370
   -1
100
AcDbLine
 10
238.839412320526
 20
118.3110845939953
 11
226.0499939125513
 21
112.618740807315
  0
LINE
  5
251
100
AcDbEntity
  8
0
  6
ByLayer
 62
    0
370
   -1
100
AcDbLine
 10
226.0499939125513
 20
112.618740807315
 11
231.7424596867404
 21
99.8290483207974
  0
LINE
  5
252
100
AcDbEntity
  8
0
  6
ByLayer
 62
    0
370
   -1
100
AcDbLine
 10
231.7424596867404
 20
99.8290483207974
 11
244.5318780947151
 21
105.5213921074777
  0
LINE
  5
253
100
AcDbEntity
  8
0
  6
ByLayer
 62
    0
370
   -1
100
AcDbLine
 10
244.5318780947151
 20
105.5213921074777
 11
238.839412320526
 21
118.3110845939953
  0
LINE
  5
254
100
AcDbEntity
  8
0
  6
ByLayer
 62
    0
370
   -1
100
AcDbLine
 10
256.24367387474
 20
126.0574133917234
 11
243.4539813882223
 21
120.3649476175343
  0
LINE
  5
255
100
AcDbEntity
  8
0
  6
ByLayer
 62
    0
370
   -1
100
AcDbLine
 10
243.4539813882223
 20
120.3649476175343
 11
249.1464471624114
 21
107.5752551310166
  0
LINE
  5
256
100
AcDbEntity
  8
0
  6
ByLayer
 62
    0
370
   -1
100
AcDbLine
 10
249.1464471624114
 20
107.5752551310166
 11
261.936139648929
 21
113.2677209052057
  0
LINE
  5
257
100
AcDbEntity
  8
0
  6
ByLayer
 62
    0
370
   -1
100
AcDbLine
 10
261.936139648929
 20
113.2677209052057
 11
256.24367387474
 21
126.0574133917234
  0
LINE
  5
258
100
AcDbEntity
  8
0
  6
ByLayer
 62
    0
370
   -1
100
AcDbLine
 10
289.1150971235272
 20
145.9008238810796
 11
276.3254046370096
 21
140.2083581068905
  0
LINE
  5
259
100
AcDbEntity
  8
0
  6
ByLayer
 62
    0
370
   -1
100
AcDbLine
 10
276.3254046370096
 20
140.2083581068905
 11
282.0178704111987
 21
127.4186656203728
  0
LINE
  5
25A
100
AcDbEntity
  8
0
  6
ByLayer
 62
    0
370
   -1
100
AcDbLine
 10
282.0178704111987
 20
127.4186656203728
 11
294.8075628977163
 21
133.1111313945619
  0
LINE
  5
25B
100
AcDbEntity
  8
0
  6
ByLayer
 62
    0
370
   -1
100
AcDbLine
 10
294.8075628977163
 20
133.1111313945619
 11
289.1150971235272
 21
145.9008238810796
  0
LINE
  5
25C
100
AcDbEntity
  8
0
  6
ByLayer
 62
    0
370
   -1
100
AcDbLine
 10
267.8381688927583
 20
146.8562453706387
 11
255.0484764062406
 21
141.1637795964496
  0
LINE
  5
25D
100
AcDbEntity
  8
0
  6
ByLayer
 62
    0
370
   -1
100
AcDbLine
 10
255.0484764062406
 20
141.1637795964496
 11
260.740779530418
 21
128.3744525479891
  0
LINE
  5
25E
100
AcDbEntity
  8
0
  6
ByLayer
 62
    0
370
   -1
100
AcDbLine
 10
260.740779530418
 20
128.3744525479891
 11
273.5304720169357
 21
134.0669183221782
  0
LINE
  5
25F
100
AcDbEntity
  8
0
  6
ByLayer
 62
    0
370
   -1
100
AcDbLine
 10
273.5304720169357
 20
134.0669183221782
 11
267.8381688927583
 21
146.8562453706387
  0
CIRCLE
  5
260
100
AcDbEntity
  8
0
  6
ByLayer
 62
  256
370
   -1
100
AcDbCircle
 10
331.7159309068876
 20
138.0660763895658
 40
2
  0
LINE
  5
261
100
AcDbEntity
  8
0
  6
ByLayer
 62
    0
370
   -1
100
AcDbLine
 10
341.8493916622657
 20
128.5014144678501
 11
345.8231394636344
 21
115.0761300009676
  0
LINE
  5
262
100
AcDbEntity
  8
0
  6
ByLayer
 62
    0
370
   -1
100
AcDbLine
 10
345.8231394636344
 20
115.0761300009676
 11
332.3997286010521
 21
111.1018369410124
  0
LINE
  5
263
100
AcDbEntity
  8
0
  6
ByLayer
 62
    0
370
   -1
100
AcDbLine
 10
332.3997286010521
 20
111.1018369410124
 11
328.4249009603005
 21
124.5262029597977
  0
LINE
  5
264
100
AcDbEntity
  8
0
  6
ByLayer
 62
    0
370
   -1
100
AcDbLine
 10
328.4249009603005
 20
124.5262029597977
 11
341.8493916622657
 21
128.5014144678501
  0
CIRCLE
  5
265
100
AcDbEntity
  8
0
  6
ByLayer
 62
  256
370
   -1
100
AcDbCircle
 10
337.1242445506361
 20
119.8010446280017
 40
2
  0
LINE
  5
266
100
AcDbEntity
  8
0
  6
ByLayer
 62
    0
370
   -1
100
AcDbLine
 10
347.2570960433207
 20
110.2345791267978
 11
351.2308438446894
 21
96.80929465991528
  0
LINE
  5
267
100
AcDbEntity
  8
0
  6
ByLayer
 62
    0
370
   -1
100
AcDbLine
 10
351.2308438446894
 20
96.80929465991528
 11
337.8074329821071
 21
92.83500159996012
  0
LINE
  5
268
100
AcDbEntity
  8
0
  6
ByLayer
 62
    0
370
   -1
100
AcDbLine
 10
337.8074329821071
 20
92.83500159996012
 11
333.8326053413556
 21
106.2593676187454
  0
LINE
  5
269
100
AcDbEntity
  8
0
  6
ByLayer
 62
    0
370
   -1
100
AcDbLine
 10
333.8326053413556
 20
106.2593676187454
 11
347.2570960433207
 21
110.2345791267978
  0
CIRCLE
  5
26A
100
AcDbEntity
  8
0
  6
ByLayer
 62
  256
370
   -1
100
AcDbCircle
 10
342.5319489316911
 20
101.5342092869494
 40
2
  0
LINE
  5
26B
100
AcDbEntity
  8
0
  6
ByLayer
 62
    0
370
   -1
100
AcDbLine
 10
327.6395810280525
 20
109.3934268660695
 11
331.6133288294212
 21
95.96814239918695
  0
LINE
  5
26C
100
AcDbEntity
  8
0
  6
ByLayer
 62
    0
370
   -1
100
AcDbLine
 10
331.6133288294212
 20
95.96814239918695
 11
318.1899179668389
 21
91.99384933923179
  0
LINE
  5
26D
100
AcDbEntity
  8
0
  6
ByLayer
 62
    0
370
   -1
100
AcDbLine
 10
318.1899179668389
 20
91.99384933923179
 11
314.2150903260874
 21
105.4182153580171
  0
LINE
  5
26E
100
AcDbEntity
  8
0
  6
ByLayer
 62
    0
370
   -1
100
AcDbLine
 10
314.2150903260874
 20
105.4182153580171
 11
327.6395810280525
 21
109.3934268660695
  0
CIRCLE
  5
26F
100
AcDbEntity
  8
0
  6
ByLayer
 62
  256
370
   -1
100
AcDbCircle
 10
322.9144339164229
 20
100.6930570262211
 40
2
  0
LINE
  5
270
100
AcDbEntity
  8
0
  6
ByLayer
 62
    0
370
   -1
100
AcDbLine
 10
322.2310855638325
 20
127.658596617909
 11
326.2048333652012
 21
114.2333121510264
  0
LINE
  5
271
100
AcDbEntity
  8
0
  6
ByLayer
 62
    0
370
   -1
100
AcDbLine
 10
326.2048333652012
 20
114.2333121510264
 11
312.7814225026189
 21
110.2590190910713
  0
LINE
  5
272
100
AcDbEntity
  8
0
  6
ByLayer
 62
    0
370
   -1
100
AcDbLine
 10
312.7814225026189
 20
110.2590190910713
 11
308.8065948618674
 21
123.6833851098566
  0
LINE
  5
273
100
AcDbEntity
  8
0
  6
ByLayer
 62
    0
370
   -1
100
AcDbLine
 10
308.8065948618674
 20
123.6833851098566
 11
322.2310855638325
 21
127.658596617909
  0
CIRCLE
  5
274
100
AcDbEntity
  8
0
  6
ByLayer
 62
  256
370
   -1
100
AcDbCircle
 10
317.5059384522029
 20
118.9582267780605
 40
2
  0
LINE
  5
275
100
AcDbEntity
  8
0
  6
ByLayer
 62
    0
370
   -1
100
AcDbLine
 10
316.8235132047947
 20
145.92538126195
 11
320.7972610061634
 21
132.5000967950674
  0
LINE
  5
276
100
AcDbEntity
  8
0
  6
ByLayer
 62
    0
370
   -1
100
AcDbLine
 10
320.7972610061634
 20
132.5000967950674
 11
307.3738501435811
 21
128.5258037351122
  0
LINE
  5
277
100
AcDbEntity
  8
0
  6
ByLayer
 62
    0
370
   -1
100
AcDbLine
 10
307.3738501435811
 20
128.5258037351122
 11
303.3990225028296
 21
141.9501697538976
  0
LINE
  5
278
100
AcDbEntity
  8
0
  6
ByLayer
 62
    0
370
   -1
100
AcDbLine
 10
303.3990225028296
 20
141.9501697538976
 11
316.8235132047947
 21
145.92538126195
  0
CIRCLE
  5
279
100
AcDbEntity
  8
0
  6
ByLayer
 62
  256
370
   -1
100
AcDbCircle
 10
312.0983660931651
 20
137.2250114221015
 40
2
  0
CIRCLE
  5
27A
100
AcDbEntity
  8
0
  6
ByLayer
 62
  256
370
   -1
100
AcDbCircle
 10
285.5664837673629
 20
136.6597447507262
 40
2
  0
LINE
  5
27B
100
AcDbEntity
  8
0
  6
ByLayer
 62
    0
370
   -1
100
AcDbLine
 10
296.8613039337465
 20
128.4968364054085
 11
284.0716114472288
 21
122.8043706312195
  0
LINE
  5
27C
100
AcDbEntity
  8
0
  6
ByLayer
 62
    0
370
   -1
100
AcDbLine
 10
284.0716114472288
 20
122.8043706312195
 11
289.7640772214178
 21
110.0146781447019
  0
LINE
  5
27D
100
AcDbEntity
  8
0
  6
ByLayer
 62
    0
370
   -1
100
AcDbLine
 10
289.7640772214178
 20
110.0146781447019
 11
302.5537697079355
 21
115.7071439188909
  0
LINE
  5
27E
100
AcDbEntity
  8
0
  6
ByLayer
 62
    0
370
   -1
100
AcDbLine
 10
302.5537697079355
 20
115.7071439188909
 11
296.8613039337465
 21
128.4968364054085
  0
CIRCLE
  5
27F
100
AcDbEntity
  8
0
  6
ByLayer
 62
  256
370
   -1
100
AcDbCircle
 10
293.3126905775821
 20
119.2557572750552
 40
2
  0
LINE
  5
280
100
AcDbEntity
  8
0
  6
ByLayer
 62
    0
370
   -1
100
AcDbLine
 10
304.6075107439657
 20
111.0928489297376
 11
291.817818257448
 21
105.4003831555485
  0
LINE
  5
281
100
AcDbEntity
  8
0
  6
ByLayer
 62
    0
370
   -1
100
AcDbLine
 10
291.817818257448
 20
105.4003831555485
 11
297.5102840316371
 21
92.61069066903084
  0
LINE
  5
282
100
AcDbEntity
  8
0
  6
ByLayer
 62
    0
370
   -1
100
AcDbLine
 10
297.5102840316371
 20
92.61069066903084
 11
310.2999765181547
 21
98.30315644321993
  0
LINE
  5
283
100
AcDbEntity
  8
0
  6
ByLayer
 62
    0
370
   -1
100
AcDbLine
 10
310.2999765181547
 20
98.30315644321993
 11
304.6075107439657
 21
111.0928489297376
  0
CIRCLE
  5
284
100
AcDbEntity
  8
0
  6
ByLayer
 62
  256
370
   -1
100
AcDbCircle
 10
301.0588973878014
 20
101.8517697993842
 40
2
  0
LINE
  5
285
100
AcDbEntity
  8
0
  6
ByLayer
 62
    0
370
   -1
100
AcDbLine
 10
267.8380062427466
 20
146.8566108086958
 11
255.0483137562289
 21
141.1641450345068
  0
LINE
  5
286
100
AcDbEntity
  8
0
  6
ByLayer
 62
    0
370
   -1
100
AcDbLine
 10
255.0483137562289
 20
141.1641450345068
 11
260.740779530418
 21
128.3744525479891
  0
LINE
  5
287
100
AcDbEntity
  8
0
  6
ByLayer
 62
    0
370
   -1
100
AcDbLine
 10
260.740779530418
 20
128.3744525479891
 11
273.5304720169357
 21
134.0669183221782
  0
LINE
  5
288
100
AcDbEntity
  8
0
  6
ByLayer
 62
    0
370
   -1
100
AcDbLine
 10
273.5304720169357
 20
134.0669183221782
 11
267.8380062427466
 21
146.8566108086958
  0
CIRCLE
  5
289
100
AcDbEntity
  8
0
  6
ByLayer
 62
  256
370
   -1
100
AcDbCircle
 10
264.2893928865823
 20
137.6155316783425
 40
2
  0
LINE
  5
28A
100
AcDbEntity
  8
0
  6
ByLayer
 62
    0
370
   -1
100
AcDbLine
 10
275.5842130529658
 20
129.4526233330248
 11
262.7945205664482
 21
123.7601575588357
  0
LINE
  5
28B
100
AcDbEntity
  8
0
  6
ByLayer
 62
    0
370
   -1
100
AcDbLine
 10
262.7945205664482
 20
123.7601575588357
 11
268.4869863406373
 21
110.9704650723181
  0
LINE
  5
28C
100
AcDbEntity
  8
0
  6
ByLayer
 62
    0
370
   -1
100
AcDbLine
 10
268.4869863406373
 20
110.9704650723181
 11
281.2766788271549
 21
116.6629308465072
  0
LINE
  5
28D
100
AcDbEntity
  8
0
  6
ByLayer
 62
    0
370
   -1
100
AcDbLine
 10
281.2766788271549
 20
116.6629308465072
 11
275.5842130529658
 21
129.4526233330248
  0
CIRCLE
  5
28E
100
AcDbEntity
  8
0
  6
ByLayer
 62
  256
370
   -1
100
AcDbCircle
 10
272.0355996968015
 20
120.2115442026715
 40
2
  0
LINE
  5
28F
100
AcDbEntity
  8
0
  6
ByLayer
 62
    0
370
   -1
100
AcDbLine
 10
283.3304198631851
 20
112.0486358573538
 11
270.5407273766674
 21
106.3561700831648
  0
LINE
  5
290
100
AcDbEntity
  8
0
  6
ByLayer
 62
    0
370
   -1
100
AcDbLine
 10
270.5407273766674
 20
106.3561700831648
 11
276.2331931508564
 21
93.56647759664713
  0
LINE
  5
291
100
AcDbEntity
  8
0
  6
ByLayer
 62
    0
370
   -1
100
AcDbLine
 10
276.2331931508564
 20
93.56647759664713
 11
289.0228856373741
 21
99.25894337083621
  0
LINE
  5
292
100
AcDbEntity
  8
0
  6
ByLayer
 62
    0
370
   -1
100
AcDbLine
 10
289.0228856373741
 20
99.25894337083621
 11
283.3304198631851
 21
112.0486358573538
  0
CIRCLE
  5
293
100
AcDbEntity
  8
0
  6
ByLayer
 62
  256
370
   -1
100
AcDbCircle
 10
279.7818065070207
 20
102.8075567270005
 40
2
  0
LINE
  5
294
100
AcDbEntity
  8
0
  6
ByLayer
 62
    0
370
   -1
100
AcDbLine
 10
256.24367387474
 20
126.0574133917234
 11
243.4539813882223
 21
120.3649476175343
  0
LINE
  5
295
100
AcDbEntity
  8
0
  6
ByLayer
 62
    0
370
   -1
100
AcDbLine
 10
243.4539813882223
 20
120.3649476175343
 11
249.1464471624114
 21
107.5752551310166
  0
LINE
  5
296
100
AcDbEntity
  8
0
  6
ByLayer
 62
    0
370
   -1
100
AcDbLine
 10
249.1464471624114
 20
107.5752551310166
 11
261.9361396489291
 21
113.2677209052057
  0
LINE
  5
297
100
AcDbEntity
  8
0
  6
ByLayer
 62
    0
370
   -1
100
AcDbLine
 10
261.9361396489291
 20
113.2677209052057
 11
256.24367387474
 21
126.0574133917234
  0
CIRCLE
  5
298
100
AcDbEntity
  8
0
  6
ByLayer
 62
  256
370
   -1
100
AcDbCircle
 10
252.6950605185757
 20
116.81633426137
 40
2
  0
LINE
  5
299
100
AcDbEntity
  8
0
  6
ByLayer
 62
    0
370
   -1
100
AcDbLine
 10
238.839412320526
 20
118.3110845939953
 11
226.0497198340084
 21
112.6186188198062
  0
LINE
  5
29A
100
AcDbEntity
  8
0
  6
ByLayer
 62
    0
370
   -1
100
AcDbLine
 10
226.0497198340084
 20
112.6186188198062
 11
231.7421856081975
 21
99.82892633328856
  0
LINE
  5
29B
100
AcDbEntity
  8
0
  6
ByLayer
 62
    0
370
   -1
100
AcDbLine
 10
231.7421856081975
 20
99.82892633328856
 11
244.5318780947151
 21
105.5213921074777
  0
LINE
  5
29C
100
AcDbEntity
  8
0
  6
ByLayer
 62
    0
370
   -1
100
AcDbLine
 10
244.5318780947151
 20
105.5213921074777
 11
238.839412320526
 21
118.3110845939953
  0
CIRCLE
  5
29D
100
AcDbEntity
  8
0
  6
ByLayer
 62
  256
370
   -1
100
AcDbCircle
 10
235.2907989643618
 20
109.0700054636419
 40
2
  0
LINE
  5
29E
100
AcDbEntity
  8
0
  6
ByLayer
 62
    0
370
   -1
100
AcDbLine
 10
263.9898806849592
 20
108.6534259160524
 11
251.2001881984415
 21
102.9609601418633
  0
LINE
  5
29F
100
AcDbEntity
  8
0
  6
ByLayer
 62
    0
370
   -1
100
AcDbLine
 10
251.2001881984415
 20
102.9609601418633
 11
256.8926539726306
 21
90.17126765534563
  0
LINE
  5
2A0
100
AcDbEntity
  8
0
  6
ByLayer
 62
    0
370
   -1
100
AcDbLine
 10
256.8926539726306
 20
90.17126765534563
 11
269.6823464591483
 21
95.86373342953473
  0
LINE
  5
2A1
100
AcDbEntity
  8
0
  6
ByLayer
 62
    0
370
   -1
100
AcDbLine
 10
269.6823464591483
 20
95.86373342953473
 11
263.9898806849592
 21
108.6534259160524
  0
CIRCLE
  5
2A2
100
AcDbEntity
  8
0
  6
ByLayer
 62
  256
370
   -1
100
AcDbCircle
 10
260.4412673287949
 20
99.412346785699
 40
2
  0
LINE
  5
2A3
100
AcDbEntity
  8
0
  6
ByLayer
 62
    0
370
   -1
100
AcDbLine
 10
246.5856191307453
 20
100.9070971183243
 11
233.7959266442276
 21
95.21463134413523
  0
LINE
  5
2A4
100
AcDbEntity
  8
0
  6
ByLayer
 62
    0
370
   -1
100
AcDbLine
 10
233.7959266442276
 20
95.21463134413523
 11
239.4883924184167
 21
82.42493885761759
  0
LINE
  5
2A5
100
AcDbEntity
  8
0
  6
ByLayer
 62
    0
370
   -1
100
AcDbLine
 10
239.4883924184167
 20
82.42493885761759
 11
252.2780849049343
 21
88.11740463180666
  0
LINE
  5
2A6
100
AcDbEntity
  8
0
  6
ByLayer
 62
    0
370
   -1
100
AcDbLine
 10
252.2780849049343
 20
88.11740463180666
 11
246.5856191307453
 21
100.9070971183243
  0
CIRCLE
  5
2A7
100
AcDbEntity
  8
0
  6
ByLayer
 62
  256
370
   -1
100
AcDbCircle
 10
243.037005774581
 20
91.66601798797095
 40
2
  0
LINE
  5
2A8
100
AcDbEntity
  8
0
  6
ByLayer
 62
    0
370
   -1
100
AcDbLine
 10
271.7360874951784
 20
91.24943844038137
 11
258.9463950086608
 21
85.55697266619227
  0
LINE
  5
2A9
100
AcDbEntity
  8
0
  6
ByLayer
 62
    0
370
   -1
100
AcDbLine
 10
258.9463950086608
 20
85.55697266619227
 11
264.6388607828499
 21
72.76728017967464
  0
LINE
  5
2AA
100
AcDbEntity
  8
0
  6
ByLayer
 62
    0
370
   -1
100
AcDbLine
 10
264.6388607828499
 20
72.76728017967464
 11
277.4285532693675
 21
78.45974595386375
  0
LINE
  5
2AB
100
AcDbEntity
  8
0
  6
ByLayer
 62
    0
370
   -1
100
AcDbLine
 10
277.4285532693675
 20
78.45974595386375
 11
271.7360874951784
 21
91.24943844038137
  0
CIRCLE
  5
2AC
100
AcDbEntity
  8
0
  6
ByLayer
 62
  256
370
   -1
100
AcDbCircle
 10
268.1874741390142
 20
82.008359310028
 40
2
  0
LINE
  5
2AD
100
AcDbEntity
  8
0
  6
ByLayer
 62
    0
370
   -1
100
AcDbLine
 10
254.3318259409644
 20
83.5031096426533
 11
241.5421334544468
 21
77.81064386846421
  0
LINE
  5
2AE
100
AcDbEntity
  8
0
  6
ByLayer
 62
    0
370
   -1
100
AcDbLine
 10
241.5421334544468
 20
77.81064386846421
 11
247.2345992286359
 21
65.02095138194659
  0
LINE
  5
2AF
100
AcDbEntity
  8
0
  6
ByLayer
 62
    0
370
   -1
100
AcDbLine
 10
247.2345992286359
 20
65.02095138194659
 11
260.0242917151535
 21
70.71341715613568
  0
LINE
  5
2B0
100
AcDbEntity
  8
0
  6
ByLayer
 62
    0
370
   -1
100
AcDbLine
 10
260.0242917151535
 20
70.71341715613568
 11
254.3318259409644
 21
83.5031096426533
  0
CIRCLE
  5
2B1
100
AcDbEntity
  8
0
  6
ByLayer
 62
  256
370
   -1
100
AcDbCircle
 10
250.7832125848002
 20
74.26203051229993
 40
2
  0
LINE
  5
2B2
100
AcDbEntity
  8
0
  6
ByLayer
 62
  256
370
   -1
100
AcDbLine
 10
344.2465869514015
 20
129.2109599179412
 11
348.2203347527702
 21
115.7856754510587
  0
LINE
  5
2B3
100
AcDbEntity
  8
0
  6
ByLayer
 62
  256
370
   -1
100
AcDbLine
 10
349.6549084284864
 20
110.9428237076781
 11
354.0537099975637
 21
96.08062951193573
  0
ARC
  5
2B4
100
AcDbEntity
  8
0
  6
ByLayer
 62
  256
370
   -1
100
AcDbCircle
 10
353.0948273710362
 20
95.79682657230393
 40
1
100
AcDbArc
 50
286.4933408717013
 51
16.48730781754729
  0
LINE
  5
2B5
100
AcDbEntity
  8
0
  6
ByLayer
 62
  256
370
   -1
100
AcDbLine
 10
342.8120211090218
 20
134.0507072126228
 11
344.2465869514015
 21
129.2109599179412
  0
LINE
  5
2B6
100
AcDbEntity
  8
0
  6
ByLayer
 62
  256
370
   -1
100
AcDbLine
 10
348.2203347527702
 20
115.7856754510587
 11
349.6549084284864
 21
110.9428237076781
  0
LINE
  5
2B7
100
AcDbEntity
  8
0
  6
ByLayer
 62
  256
370
   -1
100
AcDbLine
 10
338.4241257272815
 20
148.8751869369005
 11
342.8120211090218
 21
134.0507072126228
  0
LINE
  5
2B8
100
AcDbEntity
  8
0
  6
ByLayer
 62
  256
370
   -1
100
AcDbLine
 10
337.4588665669053
 20
149.5913483977909
 11
266.821443669227
 21
149.1405986663954
  0
ARC
  5
2B9
100
AcDbEntity
  8
0
  6
ByLayer
 62
  256
370
   -1
100
AcDbCircle
 10
337.4652476116272
 20
148.591368756864
 40
1
100
AcDbArc
 50
16.48821847427757
 51
90.36560941260791
  0
LINE
  5
2BA
100
AcDbEntity
  8
0
  6
ByLayer
 62
    0
370
   -1
100
AcDbLine
 10
279.6313231993159
 20
58.09318649805559
 11
269.5597080283067
 21
48.36746621331073
  0
LINE
  5
2BB
100
AcDbEntity
  8
0
  6
ByLayer
 62
    0
370
   -1
100
AcDbLine
 10
269.5597080283067
 20
48.36746621331073
 11
259.8365458099625
 21
58.44021993440229
  0
LINE
  5
2BC
100
AcDbEntity
  8
0
  6
ByLayer
 62
    0
370
   -1
100
AcDbLine
 10
259.8365458099625
 20
58.44021993440229
 11
269.9086895935099
 21
68.16475254546113
  0
LINE
  5
2BD
100
AcDbEntity
  8
0
  6
ByLayer
 62
    0
370
   -1
100
AcDbLine
 10
269.9086895935099
 20
68.16475254546113
 11
279.6313231993159
 21
58.09318649805559
  0
CIRCLE
  5
2BE
100
AcDbEntity
  8
0
  6
ByLayer
 62
  256
370
   -1
100
AcDbCircle
 10
269.7339345046392
 20
58.26670321622893
 40
2
  0
LINE
  5
2BF
100
AcDbEntity
  8
0
  6
ByLayer
 62
    0
370
   -1
100
AcDbLine
 10
252.4454894317252
 20
18.29438114523761
 11
239.0245318970931
 21
22.27669392020927
  0
LINE
  5
2C0
100
AcDbEntity
  8
0
  6
ByLayer
 62
    0
370
   -1
100
AcDbLine
 10
243.0072583572508
 20
35.69770590267763
 11
256.4288191848601
 21
31.7161907100426
  0
LINE
  5
2C1
100
AcDbEntity
  8
0
  6
ByLayer
 62
    0
370
   -1
100
AcDbLine
 10
256.4288191848601
 20
31.7161907100426
 11
252.4464825366982
 21
18.29352100425356
  0
LINE
  5
2C2
100
AcDbEntity
  8
0
  6
ByLayer
 62
    0
370
   -1
100
AcDbLine
 10
239.0254795522678
 20
22.27810755017138
 11
243.0088607958164
 21
35.70000342104394
  0
CIRCLE
  5
2C3
100
AcDbEntity
  8
0
  6
ByLayer
 62
  256
370
   -1
100
AcDbCircle
 10
247.727149368564
 20
26.997149130107
 40
2
  0
LINE
  5
2C4
100
AcDbEntity
  8
0
  6
ByLayer
 62
    0
370
   -1
100
AcDbLine
 10
265.7096526603936
 20
47.10570635237494
 11
258.0998178813481
 21
35.35480300132867
  0
LINE
  5
2C5
100
AcDbEntity
  8
0
  6
ByLayer
 62
    0
370
   -1
100
AcDbLine
 10
253.9574709804299
 20
54.7150765077245
 11
265.7096526603936
 21
47.10570635237494
  0
LINE
  5
2C6
100
AcDbEntity
  8
0
  6
ByLayer
 62
    0
370
   -1
100
AcDbLine
 10
258.1012063305207
 20
35.35246800477719
 11
246.3502018957446
 21
42.9626024204018
  0
LINE
  5
2C7
100
AcDbEntity
  8
0
  6
ByLayer
 62
    0
370
   -1
100
AcDbLine
 10
246.3502018957446
 20
42.9626024204018
 11
253.9594319797166
 21
54.71480359418946
  0
CIRCLE
  5
2C8
100
AcDbEntity
  8
0
  6
ByLayer
 62
  256
370
   -1
100
AcDbCircle
 10
256.0299272780691
 20
45.03415438638834
 40
2
  0
LINE
  5
2C9
100
AcDbEntity
  8
0
  6
ByLayer
 62
  256
370
   -1
100
AcDbLine
 10
103.703456330773
 20
149.1405986663954
 11
266.821443669227
 21
149.1405986663954
  0
LINE
  5
2CA
100
AcDbEntity
  8
0
  6
ByLayer
 62
  256
370
   -1
100
AcDbLine
 10
17.14616872376868
 20
94.83797383459343
 11
118.1
 21
13.25
  0
LINE
  5
2CB
100
AcDbEntity
  8
0
  6
ByLayer
 62
  256
370
   -1
100
AcDbLine
 10
252.4464825366982
 20
13.24352100425356
 11
118.1
 21
13.25000000000001
  0
LINE
  5
2CC
100
AcDbEntity
  8
0
  6
ByLayer
 62
  256
370
   -1
100
AcDbLine
 10
353.3787312762313
 20
94.83797383459343
 11
252.4464825366982
 21
13.24352100425356
  0
DIMENSION
  5
2CD
100
AcDbEntity
  8
0
  6
ByLayer
 62
  256
370
   -1
100
AcDbDimension
  2
*D1
 10
252.4464825366982
 20
13.24352100425356
 30
0
 11
0
 21
0
 31
0
 70
   34
 71
    5
  3
Standard
 53
0
210
0
220
0
230
1
100
AcDb2LineAngularDimension
 13
118.1
 23
13.25
 33
0
 14
17.14616872376868
 24
94.83797383459343
 34
0
 15
118.1
 25
13.25000000000001
 35
0
 16
20
 26
30
 36
0
  0
DIMENSION
  5
2CE
100
AcDbEntity
  8
0
  6
ByLayer
 62
  256
370
   -1
100
AcDbDimension
  2
*D2
 10
103.703456330773
 20
149.1405986663954
 30
0
 11
0
 21
0
 31
0
 70
   34
 71
    5
  3
Standard
 53
0
210
0
220
0
230
1
100
AcDb2LineAngularDimension
 13
26.27831304859849
 23
129.2109599179412
 33
0
 14
22.3045652472298
 24
115.7856754510587
 34
0
 15
33.0660334330947
 25
149.5913483977909
 35
0
 16
20
 26
120
 36
0
  0
DIMENSION
  5
2CF
100
AcDbEntity
  8
0
  6
ByLayer
 62
  256
370
   -1
100
AcDbDimension
  2
*D3
 10
103.703456330773
 20
149.1405986663954
 30
0
 11
0
 21
0
 31
0
 70
   34
 71
    5
  3
Standard
 53
0
210
0
220
0
230
1
100
AcDb2LineAngularDimension
 13
32.1007742727185
 23
148.8751869369005
 33
0
 14
27.71287889097823
 24
134.0507072126228
 34
0
 15
33.0660334330947
 25
149.5913483977909
 35
0
 16
44.32006663462135
 26
114.2333121510789
 36
0
  0
LINE
  5
2D0
100
AcDbEntity
  8
0
  6
ByLayer
 62
  256
370
   -1
100
AcDbLine
 10
119.0999999988371
 20
13.2499517739831
 11
119.0999999988371
 21
113.2499517739831
  0
LINE
  5
2D1
100
AcDbEntity
  8
0
  6
ByLayer
 62
  256
370
   -1
100
AcDbLine
 10
32.10077351864001
 20
148.8751843892506
 11
32.10077351863999
 21
48.87518438925056
  0
ENDSEC
  0
SECTION
  2
OBJECTS
  0
DICTIONARY
  5
C
330
0
100
AcDbDictionary
281
    1
  3
ACAD_GROUP
350
D
  0
DICTIONARY
  5
D
330
C
100
AcDbDictionary
281
    1
  0
ENDSEC
  0
EOF
