M48
; DRILL file {KiCad (5.99.0-9650-gad505e29c0)} date 03/24/21 14:31:24
; FORMAT={-:-/ absolute / inch / decimal}
; #@! TF.CreationDate,2021-03-24T14:31:24-04:00
; #@! TF.GenerationSoftware,Kicad,Pcbnew,(5.99.0-9650-gad505e29c0)
; #@! TF.FileFunction,Plated,1,2,PTH
FMAT,2
INCH
; #@! TA.AperFunction,ViaDrill
T1C0.0157
; #@! TA.AperFunction,ComponentDrill
T2C0.0236
; #@! TA.AperFunction,ComponentDrill
T3C0.0579
%
G90
G05
T1
; via hole
X10.0394Y-6.4272
X10.1673Y-6.4961
X10.2559Y-6.2402
X10.7569Y-6.2884
X11.0335Y-7.1654
X11.063Y-6.9587
X11.1319Y-7.1161
X11.2598Y-6.4488
X11.3524Y-7.2717
X11.374Y-6.3327
X11.5256Y-7.3848
X11.6171Y-6.3297
X11.6535Y-7.2667
X11.8976Y-6.6033
X11.926Y-7.0571
X12.003Y-6.2293
T3
; pad hole
X4.9546Y-7.6753
X5.0204Y-7.6348
X5.1676Y-6.9564
X5.2147Y-7.6718
X5.2227Y-7.6504
X5.2334Y-6.9159
X5.3806Y-6.2367
X5.4277Y-6.9529
X5.4357Y-6.9315
X5.4464Y-6.1963
X5.6407Y-6.2333
X5.6487Y-6.2118
X5.7271Y-7.7084
X5.7928Y-7.6679
X5.9401Y-6.9895
X5.9872Y-7.7049
X5.9952Y-7.6835
X6.0058Y-6.949
X6.1531Y-6.2698
X6.2002Y-6.986
X6.2082Y-6.9646
X6.2188Y-6.2293
X6.4132Y-6.2663
X6.4212Y-6.2449
X6.6072Y-7.6488
X6.6776Y-7.6173
X6.8655Y-7.6793
X6.8762Y-7.6591
X6.9119Y-6.9634
X6.9824Y-6.9319
X7.1702Y-6.9939
X7.1809Y-6.9737
X7.2166Y-6.2784
X7.2871Y-6.2468
X7.4446Y-7.6106
X7.4749Y-6.3089
X7.4857Y-6.2886
X7.515Y-7.5791
X7.7029Y-7.6411
X7.7136Y-7.6209
X7.7493Y-6.926
X7.8198Y-6.8945
X7.8978Y-9.3408
X7.9005Y-8.4303
X7.971Y-8.3988
X7.9748Y-9.3353
X8.0076Y-6.9565
X8.0183Y-6.9363
X8.0544Y-6.2406
X8.1249Y-6.209
X8.1301Y-9.4579
X8.1471Y-9.4425
X8.1588Y-8.4608
X8.1695Y-8.4406
X8.2056Y-7.7445
X8.2761Y-7.713
X8.3127Y-6.2711
X8.3235Y-6.2508
X8.4639Y-7.775
X8.4746Y-7.7548
X8.4784Y-9.8575
X8.5103Y-7.0595
X8.5547Y-9.8696
X8.5808Y-7.0279
X8.5863Y-8.7351
X8.6568Y-8.7035
X8.6782Y-10.0241
X8.6982Y-10.013
X8.7686Y-7.09
X8.7794Y-7.0697
X8.8446Y-8.7656
X8.8554Y-8.7453
X8.856Y-10.5758
X8.8914Y-8.0496
X8.9257Y-10.6089
X8.9619Y-8.0181
X9.0006Y-10.792
X9.0229Y-10.787
X9.1497Y-8.0801
X9.1605Y-8.0599
X9.1961Y-7.3646
X9.2666Y-7.333
X9.4545Y-7.3951
X9.4652Y-7.3749
X10.2146Y-7.5693
X10.2146Y-8.3193
X10.2146Y-9.0697
X10.2146Y-9.8193
X10.215Y-10.5693
X10.2661Y-7.5118
X10.2661Y-8.2618
X10.2661Y-9.0122
X10.2661Y-9.7618
X10.2665Y-10.5118
X10.463Y-7.4921
X10.463Y-8.2421
X10.463Y-8.9925
X10.463Y-9.7421
X10.4634Y-10.4921
X10.4646Y-7.4693
X10.4646Y-8.2193
X10.4646Y-8.9697
X10.4646Y-9.7193
X10.465Y-10.4693
X10.9646Y-7.5693
X10.9646Y-9.8193
X10.965Y-8.3193
X10.965Y-9.0689
X10.965Y-10.5693
X11.0161Y-7.5118
X11.0161Y-9.7618
X11.0165Y-8.2618
X11.0165Y-9.0114
X11.0165Y-10.5118
X11.213Y-7.4921
X11.213Y-9.7421
X11.2134Y-8.2421
X11.2134Y-8.9917
X11.2134Y-10.4921
X11.2146Y-7.4693
X11.2146Y-9.7193
X11.215Y-8.2193
X11.215Y-8.9689
X11.215Y-10.4693
X11.7142Y-7.5693
X11.7146Y-8.3193
X11.7146Y-9.0693
X11.7146Y-9.8193
X11.7146Y-10.5693
X11.7657Y-7.5118
X11.7661Y-8.2618
X11.7661Y-9.0118
X11.7661Y-9.7618
X11.7661Y-10.5118
X11.9626Y-7.4921
X11.963Y-8.2421
X11.963Y-8.9921
X11.963Y-9.7421
X11.963Y-10.4921
X11.9642Y-7.4693
X11.9646Y-8.2193
X11.9646Y-8.9693
X11.9646Y-9.7193
X11.9646Y-10.4693
X12.4642Y-9.8193
X12.4642Y-10.5689
X12.4646Y-7.5693
X12.4646Y-9.0693
X12.465Y-8.3193
X12.5157Y-9.7618
X12.5157Y-10.5114
X12.5161Y-7.5118
X12.5161Y-9.0118
X12.5165Y-8.2618
X12.7126Y-9.7421
X12.7126Y-10.4917
X12.713Y-7.4921
X12.713Y-8.9921
X12.7134Y-8.2421
X12.7142Y-9.7193
X12.7142Y-10.4689
X12.7146Y-7.4693
X12.7146Y-8.9693
X12.715Y-8.2193
X13.5223Y-7.4866
X13.546Y-7.4131
X13.71Y-7.2935
X13.7179Y-7.3151
X13.827Y-8.1716
X13.8508Y-8.0981
X14.0104Y-10.7976
X14.0148Y-7.9786
X14.0226Y-8.0001
X14.0261Y-10.5953
X14.0475Y-10.6033
X14.0508Y-10.8634
X14.1317Y-8.857
X14.1555Y-8.7835
X14.2069Y-7.1814
X14.2307Y-7.108
X14.3195Y-8.664
X14.3273Y-8.6855
X14.3305Y-10.0352
X14.3507Y-10.1097
X14.3947Y-6.9884
X14.4025Y-7.0099
X14.4026Y-9.8455
X14.4209Y-9.8593
X14.5125Y-7.8669
X14.5362Y-7.7934
X14.664Y-6.3629
X14.6878Y-6.2894
X14.7002Y-7.6739
X14.708Y-7.6954
X14.8176Y-8.5523
X14.8413Y-8.4788
X14.8518Y-6.1699
X14.8596Y-6.1914
X14.8757Y-9.4724
X14.8785Y-9.5496
X14.9688Y-7.048
X14.9889Y-9.304
X14.9925Y-6.9745
X15.0036Y-9.3215
X15.0053Y-8.3593
X15.0132Y-8.3808
X15.1565Y-6.855
X15.1643Y-6.8765
X15.2735Y-7.733
X15.2972Y-7.6595
X15.4612Y-7.54
X15.4691Y-7.5615
X15.5018Y-6.4003
X15.5256Y-6.3268
X15.6896Y-6.2073
X15.6974Y-6.2288
X15.8062Y-7.0854
X15.8299Y-7.0119
X15.9939Y-6.8924
X16.0017Y-6.9139
X16.1117Y-7.7708
X16.1354Y-7.6973
X16.2994Y-7.5778
X16.3073Y-7.5993
X16.5514Y-6.3554
X16.5845Y-6.2856
X16.7627Y-6.1885
X16.7644Y-7.0742
X16.7677Y-6.2108
X16.7975Y-7.0045
X16.9757Y-6.9074
X16.9774Y-7.7931
X16.9807Y-6.9297
X17.0105Y-7.7234
X17.1887Y-7.6263
X17.1937Y-7.6486
X17.3238Y-6.3223
X17.357Y-6.2525
X17.5352Y-6.1554
X17.5368Y-7.0412
X17.5402Y-6.1778
X17.57Y-6.9714
X17.7482Y-6.8743
X17.7498Y-7.7605
X17.7531Y-6.8967
X17.783Y-7.6907
X17.9612Y-7.5936
X17.9661Y-7.616
T2
; pad hole
G00X11.326Y-6.0197
M15
G01X11.326Y-5.9961
M16
G05
G00X11.326Y-6.1941
M15
G01X11.326Y-6.1508
M16
G05
G00X11.6661Y-6.0197
M15
G01X11.6661Y-5.9961
M16
G05
G00X11.6661Y-6.1941
M15
G01X11.6661Y-6.1508
M16
G05
T0
M30
