%TF.GenerationSoftware,KiCad,Pcbnew,(5.99.0-9650-gad505e29c0)*%
%TF.CreationDate,2021-03-24T14:31:16-04:00*%
%TF.ProjectId,Hangulator,48616e67-756c-4617-946f-722e6b696361,rev?*%
%TF.SameCoordinates,Original*%
%TF.FileFunction,Soldermask,Bot*%
%TF.FilePolarity,Negative*%
%FSLAX46Y46*%
G04 Gerber Fmt 4.6, Leading zero omitted, Abs format (unit mm)*
G04 Created by KiCad (PCBNEW (5.99.0-9650-gad505e29c0)) date 2021-03-24 14:31:16*
%MOMM*%
%LPD*%
G01*
G04 APERTURE LIST*
G04 Aperture macros list*
%AMRoundRect*
0 Rectangle with rounded corners*
0 $1 Rounding radius*
0 $2 $3 $4 $5 $6 $7 $8 $9 X,Y pos of 4 corners*
0 Add a 4 corners polygon primitive as box body*
4,1,4,$2,$3,$4,$5,$6,$7,$8,$9,$2,$3,0*
0 Add four circle primitives for the rounded corners*
1,1,$1+$1,$2,$3*
1,1,$1+$1,$4,$5*
1,1,$1+$1,$6,$7*
1,1,$1+$1,$8,$9*
0 Add four rect primitives between the rounded corners*
20,1,$1+$1,$2,$3,$4,$5,0*
20,1,$1+$1,$4,$5,$6,$7,0*
20,1,$1+$1,$6,$7,$8,$9,0*
20,1,$1+$1,$8,$9,$2,$3,0*%
%AMHorizOval*
0 Thick line with rounded ends*
0 $1 width*
0 $2 $3 position (X,Y) of the first rounded end (center of the circle)*
0 $4 $5 position (X,Y) of the second rounded end (center of the circle)*
0 Add line between two ends*
20,1,$1,$2,$3,$4,$5,0*
0 Add two circle primitives to create the rounded ends*
1,1,$1,$2,$3*
1,1,$1,$4,$5*%
G04 Aperture macros list end*
%ADD10C,2.150000*%
%ADD11C,2.650000*%
%ADD12C,4.387800*%
%ADD13HorizOval,2.650000X0.655001X0.730000X-0.655001X-0.730000X0*%
%ADD14HorizOval,2.650000X0.020000X0.290000X-0.020000X-0.290000X0*%
%ADD15HorizOval,2.650000X0.420851X0.885895X-0.420851X-0.885895X0*%
%ADD16HorizOval,2.650000X-0.063138X0.283749X0.063138X-0.283749X0*%
%ADD17HorizOval,2.650000X0.301618X0.933248X-0.301618X-0.933248X0*%
%ADD18HorizOval,2.650000X-0.099635X0.273080X0.099635X-0.273080X0*%
%ADD19HorizOval,2.650000X-0.035933X0.980120X0.035933X-0.980120X0*%
%ADD20HorizOval,2.650000X-0.187064X0.222502X0.187064X-0.222502X0*%
%ADD21HorizOval,2.650000X-0.256647X0.946603X0.256647X-0.946603X0*%
%ADD22HorizOval,2.650000X-0.232535X0.174435X0.232535X-0.174435X0*%
%ADD23HorizOval,2.650000X-0.513616X0.835538X0.513616X-0.835538X0*%
%ADD24HorizOval,2.650000X-0.272342X0.101636X0.272342X-0.101636X0*%
%ADD25HorizOval,2.650000X0.886115X-0.420387X-0.886115X0.420387X0*%
%ADD26HorizOval,2.650000X0.283716X0.063287X-0.283716X-0.063287X0*%
%ADD27HorizOval,2.650000X0.895221X0.400632X-0.895221X-0.400632X0*%
%ADD28HorizOval,2.650000X0.136180X0.256817X-0.136180X-0.256817X0*%
%ADD29HorizOval,2.650000X0.968782X-0.152927X-0.968782X0.152927X0*%
%ADD30HorizOval,2.650000X0.254280X0.140861X-0.254280X-0.140861X0*%
%ADD31HorizOval,2.650000X0.978268X0.070116X-0.978268X-0.070116X0*%
%ADD32HorizOval,2.650000X0.215838X0.194715X-0.215838X-0.194715X0*%
%ADD33HorizOval,2.650000X0.835269X0.514054X-0.835269X-0.514054X0*%
%ADD34HorizOval,2.650000X0.101493X0.272395X-0.101493X-0.272395X0*%
%ADD35C,1.050000*%
%ADD36O,1.400000X2.000000*%
%ADD37O,1.400000X2.500000*%
%ADD38RoundRect,0.335106X-0.589894X0.452394X-0.589894X-0.452394X0.589894X-0.452394X0.589894X0.452394X0*%
%ADD39RoundRect,0.335106X0.452394X0.589894X-0.452394X0.589894X-0.452394X-0.589894X0.452394X-0.589894X0*%
%ADD40RoundRect,0.337500X0.337500X-0.400000X0.337500X0.400000X-0.337500X0.400000X-0.337500X-0.400000X0*%
%ADD41RoundRect,0.335106X-0.452394X-0.589894X0.452394X-0.589894X0.452394X0.589894X-0.452394X0.589894X0*%
%ADD42RoundRect,0.200000X-1.000000X-0.750000X1.000000X-0.750000X1.000000X0.750000X-1.000000X0.750000X0*%
%ADD43RoundRect,0.200000X-1.000000X-1.900000X1.000000X-1.900000X1.000000X1.900000X-1.000000X1.900000X0*%
%ADD44RoundRect,0.335106X0.589894X-0.452394X0.589894X0.452394X-0.589894X0.452394X-0.589894X-0.452394X0*%
G04 APERTURE END LIST*
D10*
%TO.C,MX62*%
X325480000Y-270990000D03*
X315320000Y-270990000D03*
D11*
X317900000Y-266990000D03*
D12*
X320400000Y-270990000D03*
D13*
X317245001Y-267720000D03*
D11*
X322940000Y-265910000D03*
D14*
X322920000Y-266200000D03*
%TD*%
D10*
%TO.C,MX61*%
X325480000Y-251950000D03*
X315320000Y-251950000D03*
D11*
X317900000Y-247950000D03*
D12*
X320400000Y-251950000D03*
D13*
X317245001Y-248680000D03*
D11*
X322940000Y-246870000D03*
D14*
X322920000Y-247160000D03*
%TD*%
D10*
%TO.C,MX60*%
X325490000Y-232900000D03*
X315330000Y-232900000D03*
D11*
X317910000Y-228900000D03*
D12*
X320410000Y-232900000D03*
D13*
X317255001Y-229630000D03*
D11*
X322950000Y-227820000D03*
D14*
X322930000Y-228110000D03*
%TD*%
D10*
%TO.C,MX59*%
X325500000Y-213850000D03*
X315340000Y-213850000D03*
D11*
X317920000Y-209850000D03*
D12*
X320420000Y-213850000D03*
D13*
X317265001Y-210580000D03*
D11*
X322960000Y-208770000D03*
D14*
X322940000Y-209060000D03*
%TD*%
D10*
%TO.C,MX58*%
X325490000Y-194800000D03*
X315330000Y-194800000D03*
D11*
X317910000Y-190800000D03*
D12*
X320410000Y-194800000D03*
D13*
X317255001Y-191530000D03*
D11*
X322950000Y-189720000D03*
D14*
X322930000Y-190010000D03*
%TD*%
D10*
%TO.C,MX57*%
X306440000Y-271000000D03*
X296280000Y-271000000D03*
D11*
X298860000Y-267000000D03*
D12*
X301360000Y-271000000D03*
D13*
X298205001Y-267730000D03*
D11*
X303900000Y-265920000D03*
D14*
X303880000Y-266210000D03*
%TD*%
D10*
%TO.C,MX56*%
X306440000Y-251950000D03*
X296280000Y-251950000D03*
D11*
X298860000Y-247950000D03*
D12*
X301360000Y-251950000D03*
D13*
X298205001Y-248680000D03*
D11*
X303900000Y-246870000D03*
D14*
X303880000Y-247160000D03*
%TD*%
D10*
%TO.C,MX55*%
X306440000Y-232900000D03*
X296280000Y-232900000D03*
D11*
X298860000Y-228900000D03*
D12*
X301360000Y-232900000D03*
D13*
X298205001Y-229630000D03*
D11*
X303900000Y-227820000D03*
D14*
X303880000Y-228110000D03*
%TD*%
D10*
%TO.C,MX54*%
X306440000Y-213850000D03*
X296280000Y-213850000D03*
D11*
X298860000Y-209850000D03*
D12*
X301360000Y-213850000D03*
D13*
X298205001Y-210580000D03*
D11*
X303900000Y-208770000D03*
D14*
X303880000Y-209060000D03*
%TD*%
D10*
%TO.C,MX53*%
X306430000Y-194800000D03*
X296270000Y-194800000D03*
D11*
X298850000Y-190800000D03*
D12*
X301350000Y-194800000D03*
D13*
X298195001Y-191530000D03*
D11*
X303890000Y-189720000D03*
D14*
X303870000Y-190010000D03*
%TD*%
D10*
%TO.C,MX52*%
X287400000Y-271000000D03*
X277240000Y-271000000D03*
D11*
X279820000Y-267000000D03*
D12*
X282320000Y-271000000D03*
D13*
X279165001Y-267730000D03*
D11*
X284860000Y-265920000D03*
D14*
X284840000Y-266210000D03*
%TD*%
D10*
%TO.C,MX51*%
X287390000Y-251950000D03*
X277230000Y-251950000D03*
D11*
X279810000Y-247950000D03*
D12*
X282310000Y-251950000D03*
D13*
X279155001Y-248680000D03*
D11*
X284850000Y-246870000D03*
D14*
X284830000Y-247160000D03*
%TD*%
D10*
%TO.C,MX50*%
X287400000Y-232890000D03*
X277240000Y-232890000D03*
D11*
X279820000Y-228890000D03*
D12*
X282320000Y-232890000D03*
D13*
X279165001Y-229620000D03*
D11*
X284860000Y-227810000D03*
D14*
X284840000Y-228100000D03*
%TD*%
D10*
%TO.C,MX49*%
X287400000Y-213850000D03*
X277240000Y-213850000D03*
D11*
X279820000Y-209850000D03*
D12*
X282320000Y-213850000D03*
D13*
X279165001Y-210580000D03*
D11*
X284860000Y-208770000D03*
D14*
X284840000Y-209060000D03*
%TD*%
D10*
%TO.C,MX48*%
X287390000Y-194800000D03*
X277230000Y-194800000D03*
D11*
X279810000Y-190800000D03*
D12*
X282310000Y-194800000D03*
D13*
X279155001Y-191530000D03*
D11*
X284850000Y-189720000D03*
D14*
X284830000Y-190010000D03*
%TD*%
D10*
%TO.C,MX47*%
X268350000Y-271000000D03*
X258190000Y-271000000D03*
D11*
X260770000Y-267000000D03*
D12*
X263270000Y-271000000D03*
D13*
X260115001Y-267730000D03*
D11*
X265810000Y-265920000D03*
D14*
X265790000Y-266210000D03*
%TD*%
D10*
%TO.C,MX46*%
X268340000Y-251950000D03*
X258180000Y-251950000D03*
D11*
X260760000Y-247950000D03*
D12*
X263260000Y-251950000D03*
D13*
X260105001Y-248680000D03*
D11*
X265800000Y-246870000D03*
D14*
X265780000Y-247160000D03*
%TD*%
D10*
%TO.C,MX45*%
X268340000Y-232910000D03*
X258180000Y-232910000D03*
D11*
X260760000Y-228910000D03*
D12*
X263260000Y-232910000D03*
D13*
X260105001Y-229640000D03*
D11*
X265800000Y-227830000D03*
D14*
X265780000Y-228120000D03*
%TD*%
D10*
%TO.C,MX44*%
X268340000Y-213850000D03*
X258180000Y-213850000D03*
D11*
X260760000Y-209850000D03*
D12*
X263260000Y-213850000D03*
D13*
X260105001Y-210580000D03*
D11*
X265800000Y-208770000D03*
D14*
X265780000Y-209060000D03*
%TD*%
D10*
%TO.C,MX43*%
X268340000Y-194800000D03*
X258180000Y-194800000D03*
D11*
X260760000Y-190800000D03*
D12*
X263260000Y-194800000D03*
D13*
X260105001Y-191530000D03*
D11*
X265800000Y-189720000D03*
D14*
X265780000Y-190010000D03*
%TD*%
D10*
%TO.C,MX42*%
X460091056Y-197028052D03*
X450348944Y-199911948D03*
D11*
X451687435Y-195344143D03*
D12*
X455220000Y-198470000D03*
D15*
X451266585Y-196230038D03*
D11*
X456213580Y-192877970D03*
D16*
X456276719Y-193161719D03*
%TD*%
D10*
%TO.C,MX41*%
X454681056Y-178758052D03*
X444938944Y-181641948D03*
D11*
X446277435Y-177074143D03*
D12*
X449810000Y-180200000D03*
D15*
X445856585Y-177960038D03*
D11*
X450803580Y-174607970D03*
D16*
X450866719Y-174891719D03*
%TD*%
D10*
%TO.C,MX40*%
X449271056Y-160498052D03*
X439528944Y-163381948D03*
D11*
X440867435Y-158814143D03*
D12*
X444400000Y-161940000D03*
D15*
X440446585Y-159700038D03*
D11*
X445393580Y-156347970D03*
D16*
X445456719Y-156631719D03*
%TD*%
D10*
%TO.C,MX39*%
X440471056Y-197858052D03*
X430728944Y-200741948D03*
D11*
X432067435Y-196174143D03*
D12*
X435600000Y-199300000D03*
D15*
X431646585Y-197060038D03*
D11*
X436593580Y-193707970D03*
D16*
X436656719Y-193991719D03*
%TD*%
D10*
%TO.C,MX38*%
X435061056Y-179598052D03*
X425318944Y-182481948D03*
D11*
X426657435Y-177914143D03*
D12*
X430190000Y-181040000D03*
D15*
X426236585Y-178800038D03*
D11*
X431183580Y-175447970D03*
D16*
X431246719Y-175731719D03*
%TD*%
D10*
%TO.C,MX37*%
X429651056Y-161338052D03*
X419908944Y-164221948D03*
D11*
X421247435Y-159654143D03*
D12*
X424780000Y-162780000D03*
D15*
X420826585Y-160540038D03*
D11*
X425773580Y-157187970D03*
D16*
X425836719Y-157471719D03*
%TD*%
D10*
%TO.C,MX36*%
X418391171Y-196084588D03*
X409108829Y-200215412D03*
D11*
X409839650Y-195511977D03*
D12*
X413750000Y-198150000D03*
D17*
X409538033Y-196445225D03*
D11*
X414005174Y-192476122D03*
D18*
X414104809Y-192749203D03*
%TD*%
D10*
%TO.C,MX35*%
X410631171Y-178674588D03*
X401348829Y-182805412D03*
D11*
X402079650Y-178101977D03*
D12*
X405990000Y-180740000D03*
D17*
X401778033Y-179035225D03*
D11*
X406245174Y-175066122D03*
D18*
X406344809Y-175339203D03*
%TD*%
D10*
%TO.C,MX34*%
X402901171Y-161274588D03*
X393618829Y-165405412D03*
D11*
X394349650Y-160701977D03*
D12*
X398260000Y-163340000D03*
D17*
X394048033Y-161635225D03*
D11*
X398515174Y-157666122D03*
D18*
X398614809Y-157939203D03*
%TD*%
D10*
%TO.C,MX33*%
X386074246Y-238211135D03*
X378765754Y-245268865D03*
D11*
X377843017Y-240599287D03*
D12*
X382420000Y-241740000D03*
D19*
X377878950Y-241579405D03*
D11*
X380718259Y-236321322D03*
D20*
X380905323Y-236543823D03*
%TD*%
D10*
%TO.C,MX32*%
X397101171Y-195124588D03*
X387818829Y-199255412D03*
D11*
X388549650Y-194551977D03*
D12*
X392460000Y-197190000D03*
D17*
X388248033Y-195485225D03*
D11*
X392715174Y-191516122D03*
D18*
X392814809Y-191789203D03*
%TD*%
D10*
%TO.C,MX31*%
X389361171Y-177724588D03*
X380078829Y-181855412D03*
D11*
X380809650Y-177151977D03*
D12*
X384720000Y-179790000D03*
D17*
X380508033Y-178085225D03*
D11*
X384975174Y-174116122D03*
D18*
X385074809Y-174389203D03*
%TD*%
D10*
%TO.C,MX30*%
X381621171Y-160324588D03*
X372338829Y-164455412D03*
D11*
X373069650Y-159751977D03*
D12*
X376980000Y-162390000D03*
D17*
X372768033Y-160685225D03*
D11*
X377235174Y-156716122D03*
D18*
X377334809Y-156989203D03*
%TD*%
D10*
%TO.C,MX29*%
X371471559Y-250706176D03*
X365948441Y-259233824D03*
D11*
X363993624Y-254893882D03*
D12*
X368710000Y-254970000D03*
D21*
X364250272Y-255840485D03*
D11*
X365826956Y-250076529D03*
D22*
X366059491Y-250250964D03*
%TD*%
D10*
%TO.C,MX28*%
X385521171Y-215934588D03*
X376238829Y-220065412D03*
D11*
X376969650Y-215361977D03*
D12*
X380880000Y-218000000D03*
D17*
X376668033Y-216295225D03*
D11*
X381135174Y-212326122D03*
D18*
X381234809Y-212599203D03*
%TD*%
D10*
%TO.C,MX27*%
X377771171Y-198524588D03*
X368488829Y-202655412D03*
D11*
X369219650Y-197951977D03*
D12*
X373130000Y-200590000D03*
D17*
X368918033Y-198885225D03*
D11*
X373385174Y-194916122D03*
D18*
X373484809Y-195189203D03*
%TD*%
D10*
%TO.C,MX26*%
X370011171Y-181114588D03*
X360728829Y-185245412D03*
D11*
X361459650Y-180541977D03*
D12*
X365370000Y-183180000D03*
D17*
X361158033Y-181475225D03*
D11*
X365625174Y-177506122D03*
D18*
X365724809Y-177779203D03*
%TD*%
D10*
%TO.C,MX25*%
X361854498Y-268129700D03*
X358965502Y-277870300D03*
D11*
X355864243Y-274259401D03*
D12*
X360410000Y-273000000D03*
D23*
X356377860Y-275094938D03*
D11*
X356261949Y-269120352D03*
D24*
X356534291Y-269221988D03*
%TD*%
D10*
%TO.C,MX24*%
X368101171Y-223674588D03*
X358818829Y-227805412D03*
D11*
X359549650Y-223101977D03*
D12*
X363460000Y-225740000D03*
D17*
X359248033Y-224035225D03*
D11*
X363715174Y-220066122D03*
D18*
X363814809Y-220339203D03*
%TD*%
D10*
%TO.C,MX23*%
X360361171Y-206264588D03*
X351078829Y-210395412D03*
D11*
X351809650Y-205691977D03*
D12*
X355720000Y-208330000D03*
D17*
X351508033Y-206625225D03*
D11*
X355975174Y-202656122D03*
D18*
X356074809Y-202929203D03*
%TD*%
D10*
%TO.C,MX22*%
X352621171Y-188864588D03*
X343338829Y-192995412D03*
D11*
X344069650Y-188291977D03*
D12*
X347980000Y-190930000D03*
D17*
X343768033Y-189225225D03*
D11*
X348235174Y-185256122D03*
D18*
X348334809Y-185529203D03*
%TD*%
D10*
%TO.C,MX21*%
X225034498Y-277870300D03*
X222145502Y-268129700D03*
D11*
X226714007Y-269465799D03*
D12*
X223590000Y-273000000D03*
D25*
X225827892Y-269045413D03*
D11*
X229182549Y-273990652D03*
D26*
X228898833Y-274053939D03*
%TD*%
D10*
%TO.C,MX20*%
X225181171Y-227805412D03*
X215898829Y-223674588D03*
D11*
X219882268Y-221069091D03*
D12*
X220540000Y-225740000D03*
D27*
X218987048Y-221469723D03*
D11*
X224925998Y-222131535D03*
D28*
X224789818Y-222388352D03*
%TD*%
D10*
%TO.C,MX19*%
X232931171Y-210395412D03*
X223648829Y-206264588D03*
D11*
X227632268Y-203659091D03*
D12*
X228290000Y-208330000D03*
D27*
X226737048Y-204059723D03*
D11*
X232675998Y-204721535D03*
D28*
X232539818Y-204978352D03*
%TD*%
D10*
%TO.C,MX18*%
X240671171Y-192995412D03*
X231388829Y-188864588D03*
D11*
X235372268Y-186259091D03*
D12*
X236030000Y-190930000D03*
D27*
X234477048Y-186659723D03*
D11*
X240415998Y-187321535D03*
D28*
X240279818Y-187578352D03*
%TD*%
D10*
%TO.C,MX17*%
X218051559Y-259223824D03*
X212528441Y-250696176D03*
D11*
X217288306Y-250687206D03*
D12*
X215290000Y-254960000D03*
D29*
X216319524Y-250534280D03*
D11*
X220934603Y-254330353D03*
D30*
X220680324Y-254471214D03*
%TD*%
D10*
%TO.C,MX16*%
X207761171Y-220065412D03*
X198478829Y-215934588D03*
D11*
X202462268Y-213329091D03*
D12*
X203120000Y-218000000D03*
D27*
X201567048Y-213729723D03*
D11*
X207505998Y-214391535D03*
D28*
X207369818Y-214648352D03*
%TD*%
D10*
%TO.C,MX15*%
X215511171Y-202645412D03*
X206228829Y-198514588D03*
D11*
X210212268Y-195909091D03*
D12*
X210870000Y-200580000D03*
D27*
X209317048Y-196309723D03*
D11*
X215255998Y-196971535D03*
D28*
X215119818Y-197228352D03*
%TD*%
D10*
%TO.C,MX14*%
X223251171Y-185245412D03*
X213968829Y-181114588D03*
D11*
X217952268Y-178509091D03*
D12*
X218610000Y-183180000D03*
D27*
X217057048Y-178909723D03*
D11*
X222995998Y-179571535D03*
D28*
X222859818Y-179828352D03*
%TD*%
D10*
%TO.C,MX13*%
X205234246Y-245258865D03*
X197925754Y-238201135D03*
D11*
X202560284Y-237115995D03*
D12*
X201580000Y-241730000D03*
D31*
X201582016Y-237186113D03*
D11*
X206935988Y-239840186D03*
D32*
X206720150Y-240034902D03*
%TD*%
D10*
%TO.C,MX12*%
X196181171Y-199245412D03*
X186898829Y-195114588D03*
D11*
X190882268Y-192509091D03*
D12*
X191540000Y-197180000D03*
D27*
X189987048Y-192909723D03*
D11*
X195925998Y-193571535D03*
D28*
X195789818Y-193828352D03*
%TD*%
D10*
%TO.C,MX11*%
X203921171Y-181855412D03*
X194638829Y-177724588D03*
D11*
X198622268Y-175119091D03*
D12*
X199280000Y-179790000D03*
D27*
X197727048Y-175519723D03*
D11*
X203665998Y-176181535D03*
D28*
X203529818Y-176438352D03*
%TD*%
D10*
%TO.C,MX10*%
X211671171Y-164445412D03*
X202388829Y-160314588D03*
D11*
X206372268Y-157709091D03*
D12*
X207030000Y-162380000D03*
D27*
X205477048Y-158109723D03*
D11*
X211415998Y-158771535D03*
D28*
X211279818Y-159028352D03*
%TD*%
D10*
%TO.C,MX9*%
X174911171Y-200215412D03*
X165628829Y-196084588D03*
D11*
X169612268Y-193479091D03*
D12*
X170270000Y-198150000D03*
D27*
X168717048Y-193879723D03*
D11*
X174655998Y-194541535D03*
D28*
X174519818Y-194798352D03*
%TD*%
D10*
%TO.C,MX8*%
X182651171Y-182805412D03*
X173368829Y-178674588D03*
D11*
X177352268Y-176069091D03*
D12*
X178010000Y-180740000D03*
D27*
X176457048Y-176469723D03*
D11*
X182395998Y-177131535D03*
D28*
X182259818Y-177388352D03*
%TD*%
D10*
%TO.C,MX7*%
X190391171Y-165405412D03*
X181108829Y-161274588D03*
D11*
X185092268Y-158669091D03*
D12*
X185750000Y-163340000D03*
D27*
X184197048Y-159069723D03*
D11*
X190135998Y-159731535D03*
D28*
X189999818Y-159988352D03*
%TD*%
D10*
%TO.C,MX6*%
X153271056Y-200751948D03*
X143528944Y-197868052D03*
D11*
X147138219Y-194764903D03*
D12*
X148400000Y-199310000D03*
D33*
X146302951Y-195278957D03*
D11*
X152277476Y-195159918D03*
D34*
X152175982Y-195432313D03*
%TD*%
D10*
%TO.C,MX5*%
X158681056Y-182491948D03*
X148938944Y-179608052D03*
D11*
X152548219Y-176504903D03*
D12*
X153810000Y-181050000D03*
D33*
X151712951Y-177018957D03*
D11*
X157687476Y-176899918D03*
D34*
X157585982Y-177172313D03*
%TD*%
D10*
%TO.C,MX4*%
X164091056Y-164211948D03*
X154348944Y-161328052D03*
D11*
X157958219Y-158224903D03*
D12*
X159220000Y-162770000D03*
D33*
X157122951Y-158738957D03*
D11*
X163097476Y-158619918D03*
D34*
X162995982Y-158892313D03*
%TD*%
D10*
%TO.C,MX3*%
X133651056Y-199911948D03*
X123908944Y-197028052D03*
D11*
X127518219Y-193924903D03*
D12*
X128780000Y-198470000D03*
D33*
X126682951Y-194438957D03*
D11*
X132657476Y-194319918D03*
D34*
X132555982Y-194592313D03*
%TD*%
D10*
%TO.C,MX2*%
X139061056Y-181651948D03*
X129318944Y-178768052D03*
D11*
X132928219Y-175664903D03*
D12*
X134190000Y-180210000D03*
D33*
X132092951Y-176178957D03*
D11*
X138067476Y-176059918D03*
D34*
X137965982Y-176332313D03*
%TD*%
D10*
%TO.C,MX1*%
X144471056Y-163371948D03*
X134728944Y-160488052D03*
D11*
X138338219Y-157384903D03*
D12*
X139600000Y-161930000D03*
D33*
X137502951Y-157898957D03*
D11*
X143477476Y-157779918D03*
D34*
X143375982Y-158052313D03*
%TD*%
D35*
%TO.C,USB1*%
X294890000Y-156250000D03*
X289110000Y-156250000D03*
D36*
X296320000Y-152600000D03*
X287680000Y-152600000D03*
D37*
X287680000Y-156780000D03*
X296320000Y-156780000D03*
%TD*%
D38*
%TO.C,C2*%
X320900000Y-157012500D03*
X320900000Y-159087500D03*
%TD*%
%TO.C,C1*%
X307075000Y-154687500D03*
X307075000Y-156762500D03*
%TD*%
D39*
%TO.C,C8*%
X300987500Y-181800000D03*
X298912500Y-181800000D03*
%TD*%
D40*
%TO.C,C10*%
X316625000Y-158762500D03*
X316625000Y-157037500D03*
%TD*%
D41*
%TO.C,C4*%
X297587500Y-167950000D03*
X299662500Y-167950000D03*
%TD*%
D42*
%TO.C,U1*%
X326075000Y-159300000D03*
D43*
X332375000Y-157000000D03*
D42*
X326075000Y-157000000D03*
X326075000Y-154700000D03*
%TD*%
D41*
%TO.C,C5*%
X298087500Y-178925000D03*
X300162500Y-178925000D03*
%TD*%
D44*
%TO.C,C3*%
X286000000Y-168187500D03*
X286000000Y-166112500D03*
%TD*%
D39*
%TO.C,C6*%
X286387500Y-180025000D03*
X284312500Y-180025000D03*
%TD*%
D38*
%TO.C,C7*%
X296000000Y-179737500D03*
X296000000Y-181812500D03*
%TD*%
D40*
%TO.C,C9*%
X292450000Y-163937500D03*
X292450000Y-162212500D03*
%TD*%
M02*
