%TF.GenerationSoftware,KiCad,Pcbnew,(5.99.0-9650-gad505e29c0)*%
%TF.CreationDate,2021-03-24T15:12:50-04:00*%
%TF.ProjectId,Hangulator,48616e67-756c-4617-946f-722e6b696361,rev?*%
%TF.SameCoordinates,Original*%
%TF.FileFunction,Copper,L2,Bot*%
%TF.FilePolarity,Positive*%
%FSLAX46Y46*%
G04 Gerber Fmt 4.6, Leading zero omitted, Abs format (unit mm)*
G04 Created by KiCad (PCBNEW (5.99.0-9650-gad505e29c0)) date 2021-03-24 15:12:50*
%MOMM*%
%LPD*%
G01*
G04 APERTURE LIST*
G04 Aperture macros list*
%AMRoundRect*
0 Rectangle with rounded corners*
0 $1 Rounding radius*
0 $2 $3 $4 $5 $6 $7 $8 $9 X,Y pos of 4 corners*
0 Add a 4 corners polygon primitive as box body*
4,1,4,$2,$3,$4,$5,$6,$7,$8,$9,$2,$3,0*
0 Add four circle primitives for the rounded corners*
1,1,$1+$1,$2,$3*
1,1,$1+$1,$4,$5*
1,1,$1+$1,$6,$7*
1,1,$1+$1,$8,$9*
0 Add four rect primitives between the rounded corners*
20,1,$1+$1,$2,$3,$4,$5,0*
20,1,$1+$1,$4,$5,$6,$7,0*
20,1,$1+$1,$6,$7,$8,$9,0*
20,1,$1+$1,$8,$9,$2,$3,0*%
%AMHorizOval*
0 Thick line with rounded ends*
0 $1 width*
0 $2 $3 position (X,Y) of the first rounded end (center of the circle)*
0 $4 $5 position (X,Y) of the second rounded end (center of the circle)*
0 Add line between two ends*
20,1,$1,$2,$3,$4,$5,0*
0 Add two circle primitives to create the rounded ends*
1,1,$1,$2,$3*
1,1,$1,$4,$5*%
G04 Aperture macros list end*
%TA.AperFunction,WasherPad*%
%ADD10C,4.400000*%
%TD*%
%TA.AperFunction,ComponentPad*%
%ADD11C,2.250000*%
%TD*%
%TA.AperFunction,ComponentPad*%
%ADD12HorizOval,2.250000X0.655001X0.730000X-0.655001X-0.730000X0*%
%TD*%
%TA.AperFunction,ComponentPad*%
%ADD13HorizOval,2.250000X0.020000X0.290000X-0.020000X-0.290000X0*%
%TD*%
%TA.AperFunction,ComponentPad*%
%ADD14HorizOval,2.250000X0.420851X0.885895X-0.420851X-0.885895X0*%
%TD*%
%TA.AperFunction,ComponentPad*%
%ADD15HorizOval,2.250000X-0.063138X0.283749X0.063138X-0.283749X0*%
%TD*%
%TA.AperFunction,ComponentPad*%
%ADD16HorizOval,2.250000X0.301618X0.933248X-0.301618X-0.933248X0*%
%TD*%
%TA.AperFunction,ComponentPad*%
%ADD17HorizOval,2.250000X-0.099635X0.273080X0.099635X-0.273080X0*%
%TD*%
%TA.AperFunction,ComponentPad*%
%ADD18HorizOval,2.250000X-0.035933X0.980120X0.035933X-0.980120X0*%
%TD*%
%TA.AperFunction,ComponentPad*%
%ADD19HorizOval,2.250000X-0.187064X0.222502X0.187064X-0.222502X0*%
%TD*%
%TA.AperFunction,ComponentPad*%
%ADD20HorizOval,2.250000X-0.256647X0.946603X0.256647X-0.946603X0*%
%TD*%
%TA.AperFunction,ComponentPad*%
%ADD21HorizOval,2.250000X-0.232535X0.174435X0.232535X-0.174435X0*%
%TD*%
%TA.AperFunction,ComponentPad*%
%ADD22HorizOval,2.250000X-0.513616X0.835538X0.513616X-0.835538X0*%
%TD*%
%TA.AperFunction,ComponentPad*%
%ADD23HorizOval,2.250000X-0.272342X0.101636X0.272342X-0.101636X0*%
%TD*%
%TA.AperFunction,ComponentPad*%
%ADD24HorizOval,2.250000X0.886115X-0.420387X-0.886115X0.420387X0*%
%TD*%
%TA.AperFunction,ComponentPad*%
%ADD25HorizOval,2.250000X0.283716X0.063287X-0.283716X-0.063287X0*%
%TD*%
%TA.AperFunction,ComponentPad*%
%ADD26HorizOval,2.250000X0.895221X0.400632X-0.895221X-0.400632X0*%
%TD*%
%TA.AperFunction,ComponentPad*%
%ADD27HorizOval,2.250000X0.136180X0.256817X-0.136180X-0.256817X0*%
%TD*%
%TA.AperFunction,ComponentPad*%
%ADD28HorizOval,2.250000X0.968782X-0.152927X-0.968782X0.152927X0*%
%TD*%
%TA.AperFunction,ComponentPad*%
%ADD29HorizOval,2.250000X0.254280X0.140861X-0.254280X-0.140861X0*%
%TD*%
%TA.AperFunction,ComponentPad*%
%ADD30HorizOval,2.250000X0.978268X0.070116X-0.978268X-0.070116X0*%
%TD*%
%TA.AperFunction,ComponentPad*%
%ADD31HorizOval,2.250000X0.215838X0.194715X-0.215838X-0.194715X0*%
%TD*%
%TA.AperFunction,ComponentPad*%
%ADD32HorizOval,2.250000X0.835269X0.514054X-0.835269X-0.514054X0*%
%TD*%
%TA.AperFunction,ComponentPad*%
%ADD33HorizOval,2.250000X0.101493X0.272395X-0.101493X-0.272395X0*%
%TD*%
%TA.AperFunction,ComponentPad*%
%ADD34O,1.000000X1.600000*%
%TD*%
%TA.AperFunction,ComponentPad*%
%ADD35O,1.000000X2.100000*%
%TD*%
%TA.AperFunction,SMDPad,CuDef*%
%ADD36RoundRect,0.250000X-0.475000X0.337500X-0.475000X-0.337500X0.475000X-0.337500X0.475000X0.337500X0*%
%TD*%
%TA.AperFunction,SMDPad,CuDef*%
%ADD37RoundRect,0.250000X0.337500X0.475000X-0.337500X0.475000X-0.337500X-0.475000X0.337500X-0.475000X0*%
%TD*%
%TA.AperFunction,SMDPad,CuDef*%
%ADD38RoundRect,0.237500X0.237500X-0.300000X0.237500X0.300000X-0.237500X0.300000X-0.237500X-0.300000X0*%
%TD*%
%TA.AperFunction,SMDPad,CuDef*%
%ADD39RoundRect,0.250000X-0.337500X-0.475000X0.337500X-0.475000X0.337500X0.475000X-0.337500X0.475000X0*%
%TD*%
%TA.AperFunction,SMDPad,CuDef*%
%ADD40R,2.000000X1.500000*%
%TD*%
%TA.AperFunction,SMDPad,CuDef*%
%ADD41R,2.000000X3.800000*%
%TD*%
%TA.AperFunction,SMDPad,CuDef*%
%ADD42RoundRect,0.250000X0.475000X-0.337500X0.475000X0.337500X-0.475000X0.337500X-0.475000X-0.337500X0*%
%TD*%
%TA.AperFunction,ViaPad*%
%ADD43C,0.800000*%
%TD*%
%TA.AperFunction,Conductor*%
%ADD44C,0.381000*%
%TD*%
%TA.AperFunction,Conductor*%
%ADD45C,0.254000*%
%TD*%
%TA.AperFunction,Conductor*%
%ADD46C,0.250000*%
%TD*%
G04 APERTURE END LIST*
D10*
%TO.P,,*%
%TO.N,*%
X267500000Y-152500000D03*
%TD*%
%TO.P,,*%
%TO.N,*%
X347500000Y-157500000D03*
%TD*%
%TO.P,,*%
%TO.N,*%
X340000000Y-242500000D03*
%TD*%
%TO.P,,*%
%TO.N,*%
X242500000Y-240000000D03*
%TD*%
%TO.P,,*%
%TO.N,*%
X397500000Y-207500000D03*
%TD*%
%TO.P,REF\u002A\u002A,*%
%TO.N,*%
X187500000Y-207500000D03*
%TD*%
D11*
%TO.P,MX62,1,COL*%
%TO.N,PF3*%
X317900000Y-266990000D03*
D12*
X317245001Y-267720000D03*
D11*
%TO.P,MX62,2,ROW*%
%TO.N,GND*%
X322940000Y-265910000D03*
D13*
X322920000Y-266200000D03*
%TD*%
D11*
%TO.P,MX61,1,COL*%
%TO.N,PC6*%
X317900000Y-247950000D03*
D12*
X317245001Y-248680000D03*
D11*
%TO.P,MX61,2,ROW*%
%TO.N,GND*%
X322940000Y-246870000D03*
D13*
X322920000Y-247160000D03*
%TD*%
D11*
%TO.P,MX60,1,COL*%
%TO.N,PC7*%
X317910000Y-228900000D03*
D12*
X317255001Y-229630000D03*
D11*
%TO.P,MX60,2,ROW*%
%TO.N,GND*%
X322950000Y-227820000D03*
D13*
X322930000Y-228110000D03*
%TD*%
D11*
%TO.P,MX59,1,COL*%
%TO.N,PC8*%
X317920000Y-209850000D03*
D12*
X317265001Y-210580000D03*
D11*
%TO.P,MX59,2,ROW*%
%TO.N,GND*%
X322960000Y-208770000D03*
D13*
X322940000Y-209060000D03*
%TD*%
D11*
%TO.P,MX58,1,COL*%
%TO.N,PC9*%
X317910000Y-190800000D03*
D12*
X317255001Y-191530000D03*
D11*
%TO.P,MX58,2,ROW*%
%TO.N,GND*%
X322950000Y-189720000D03*
D13*
X322930000Y-190010000D03*
%TD*%
D11*
%TO.P,MX57,1,COL*%
%TO.N,PC1*%
X298860000Y-267000000D03*
D12*
X298205001Y-267730000D03*
D11*
%TO.P,MX57,2,ROW*%
%TO.N,GND*%
X303900000Y-265920000D03*
D13*
X303880000Y-266210000D03*
%TD*%
D11*
%TO.P,MX56,1,COL*%
%TO.N,PC2*%
X298860000Y-247950000D03*
D12*
X298205001Y-248680000D03*
D11*
%TO.P,MX56,2,ROW*%
%TO.N,GND*%
X303900000Y-246870000D03*
D13*
X303880000Y-247160000D03*
%TD*%
D11*
%TO.P,MX55,1,COL*%
%TO.N,PC3*%
X298860000Y-228900000D03*
D12*
X298205001Y-229630000D03*
D11*
%TO.P,MX55,2,ROW*%
%TO.N,GND*%
X303900000Y-227820000D03*
D13*
X303880000Y-228110000D03*
%TD*%
D11*
%TO.P,MX54,1,COL*%
%TO.N,PC4*%
X298860000Y-209850000D03*
D12*
X298205001Y-210580000D03*
D11*
%TO.P,MX54,2,ROW*%
%TO.N,GND*%
X303900000Y-208770000D03*
D13*
X303880000Y-209060000D03*
%TD*%
D11*
%TO.P,MX53,1,COL*%
%TO.N,PC5*%
X298850000Y-190800000D03*
D12*
X298195001Y-191530000D03*
D11*
%TO.P,MX53,2,ROW*%
%TO.N,GND*%
X303890000Y-189720000D03*
D13*
X303870000Y-190010000D03*
%TD*%
D11*
%TO.P,MX52,1,COL*%
%TO.N,00*%
X279820000Y-267000000D03*
D12*
X279165001Y-267730000D03*
D11*
%TO.P,MX52,2,ROW*%
%TO.N,GND*%
X284860000Y-265920000D03*
D13*
X284840000Y-266210000D03*
%TD*%
D11*
%TO.P,MX51,1,COL*%
%TO.N,2*%
X279810000Y-247950000D03*
D12*
X279155001Y-248680000D03*
D11*
%TO.P,MX51,2,ROW*%
%TO.N,GND*%
X284850000Y-246870000D03*
D13*
X284830000Y-247160000D03*
%TD*%
D11*
%TO.P,MX50,1,COL*%
%TO.N,5*%
X279820000Y-228890000D03*
D12*
X279165001Y-229620000D03*
D11*
%TO.P,MX50,2,ROW*%
%TO.N,GND*%
X284860000Y-227810000D03*
D13*
X284840000Y-228100000D03*
%TD*%
D11*
%TO.P,MX49,1,COL*%
%TO.N,8*%
X279820000Y-209850000D03*
D12*
X279165001Y-210580000D03*
D11*
%TO.P,MX49,2,ROW*%
%TO.N,GND*%
X284860000Y-208770000D03*
D13*
X284840000Y-209060000D03*
%TD*%
D11*
%TO.P,MX48,1,COL*%
%TO.N,{slash}*%
X279810000Y-190800000D03*
D12*
X279155001Y-191530000D03*
D11*
%TO.P,MX48,2,ROW*%
%TO.N,GND*%
X284850000Y-189720000D03*
D13*
X284830000Y-190010000D03*
%TD*%
D11*
%TO.P,MX47,1,COL*%
%TO.N,01*%
X260770000Y-267000000D03*
D12*
X260115001Y-267730000D03*
D11*
%TO.P,MX47,2,ROW*%
%TO.N,GND*%
X265810000Y-265920000D03*
D13*
X265790000Y-266210000D03*
%TD*%
D11*
%TO.P,MX46,1,COL*%
%TO.N,1*%
X260760000Y-247950000D03*
D12*
X260105001Y-248680000D03*
D11*
%TO.P,MX46,2,ROW*%
%TO.N,GND*%
X265800000Y-246870000D03*
D13*
X265780000Y-247160000D03*
%TD*%
D11*
%TO.P,MX45,1,COL*%
%TO.N,4*%
X260760000Y-228910000D03*
D12*
X260105001Y-229640000D03*
D11*
%TO.P,MX45,2,ROW*%
%TO.N,GND*%
X265800000Y-227830000D03*
D13*
X265780000Y-228120000D03*
%TD*%
D11*
%TO.P,MX44,1,COL*%
%TO.N,7*%
X260760000Y-209850000D03*
D12*
X260105001Y-210580000D03*
D11*
%TO.P,MX44,2,ROW*%
%TO.N,GND*%
X265800000Y-208770000D03*
D13*
X265780000Y-209060000D03*
%TD*%
D11*
%TO.P,MX43,1,COL*%
%TO.N,LOGOUT*%
X260760000Y-190800000D03*
D12*
X260105001Y-191530000D03*
D11*
%TO.P,MX43,2,ROW*%
%TO.N,GND*%
X265800000Y-189720000D03*
D13*
X265780000Y-190010000D03*
%TD*%
D11*
%TO.P,MX42,1,COL*%
%TO.N,LSHFT*%
X451687435Y-195344143D03*
D14*
X451266585Y-196230038D03*
D11*
%TO.P,MX42,2,ROW*%
%TO.N,GND*%
X456213580Y-192877970D03*
D15*
X456276719Y-193161719D03*
%TD*%
D11*
%TO.P,MX41,1,COL*%
%TO.N,ENTER*%
X446277435Y-177074143D03*
D14*
X445856585Y-177960038D03*
D11*
%TO.P,MX41,2,ROW*%
%TO.N,GND*%
X450803580Y-174607970D03*
D15*
X450866719Y-174891719D03*
%TD*%
D11*
%TO.P,MX40,1,COL*%
%TO.N,BKSPC*%
X440867435Y-158814143D03*
D14*
X440446585Y-159700038D03*
D11*
%TO.P,MX40,2,ROW*%
%TO.N,GND*%
X445393580Y-156347970D03*
D15*
X445456719Y-156631719D03*
%TD*%
D11*
%TO.P,MX39,1,COL*%
%TO.N,{slash}?*%
X432067435Y-196174143D03*
D14*
X431646585Y-197060038D03*
D11*
%TO.P,MX39,2,ROW*%
%TO.N,GND*%
X436593580Y-193707970D03*
D15*
X436656719Y-193991719D03*
%TD*%
D11*
%TO.P,MX38,1,COL*%
%TO.N,;:*%
X426657435Y-177914143D03*
D14*
X426236585Y-178800038D03*
D11*
%TO.P,MX38,2,ROW*%
%TO.N,GND*%
X431183580Y-175447970D03*
D15*
X431246719Y-175731719D03*
%TD*%
D11*
%TO.P,MX37,1,COL*%
%TO.N,P*%
X421247435Y-159654143D03*
D14*
X420826585Y-160540038D03*
D11*
%TO.P,MX37,2,ROW*%
%TO.N,GND*%
X425773580Y-157187970D03*
D15*
X425836719Y-157471719D03*
%TD*%
D11*
%TO.P,MX36,1,COL*%
%TO.N,.>*%
X409839650Y-195511977D03*
D16*
X409538033Y-196445225D03*
D11*
%TO.P,MX36,2,ROW*%
%TO.N,GND*%
X414005174Y-192476122D03*
D17*
X414104809Y-192749203D03*
%TD*%
D11*
%TO.P,MX35,1,COL*%
%TO.N,L*%
X402079650Y-178101977D03*
D16*
X401778033Y-179035225D03*
D11*
%TO.P,MX35,2,ROW*%
%TO.N,GND*%
X406245174Y-175066122D03*
D17*
X406344809Y-175339203D03*
%TD*%
D11*
%TO.P,MX34,1,COL*%
%TO.N,O*%
X394349650Y-160701977D03*
D16*
X394048033Y-161635225D03*
D11*
%TO.P,MX34,2,ROW*%
%TO.N,GND*%
X398515174Y-157666122D03*
D17*
X398614809Y-157939203D03*
%TD*%
D11*
%TO.P,MX33,1,COL*%
%TO.N,RT1*%
X377843017Y-240599287D03*
D18*
X377878950Y-241579405D03*
D11*
%TO.P,MX33,2,ROW*%
%TO.N,GND*%
X380718259Y-236321322D03*
D19*
X380905323Y-236543823D03*
%TD*%
D11*
%TO.P,MX32,1,COL*%
%TO.N,\u002C<*%
X388549650Y-194551977D03*
D16*
X388248033Y-195485225D03*
D11*
%TO.P,MX32,2,ROW*%
%TO.N,GND*%
X392715174Y-191516122D03*
D17*
X392814809Y-191789203D03*
%TD*%
D11*
%TO.P,MX31,1,COL*%
%TO.N,K*%
X380809650Y-177151977D03*
D16*
X380508033Y-178085225D03*
D11*
%TO.P,MX31,2,ROW*%
%TO.N,GND*%
X384975174Y-174116122D03*
D17*
X385074809Y-174389203D03*
%TD*%
D11*
%TO.P,MX30,1,COL*%
%TO.N,I*%
X373069650Y-159751977D03*
D16*
X372768033Y-160685225D03*
D11*
%TO.P,MX30,2,ROW*%
%TO.N,GND*%
X377235174Y-156716122D03*
D17*
X377334809Y-156989203D03*
%TD*%
D11*
%TO.P,MX29,1,COL*%
%TO.N,RT2*%
X363993624Y-254893882D03*
D20*
X364250272Y-255840485D03*
D11*
%TO.P,MX29,2,ROW*%
%TO.N,GND*%
X365826956Y-250076529D03*
D21*
X366059491Y-250250964D03*
%TD*%
D11*
%TO.P,MX28,1,COL*%
%TO.N,M*%
X376969650Y-215361977D03*
D16*
X376668033Y-216295225D03*
D11*
%TO.P,MX28,2,ROW*%
%TO.N,GND*%
X381135174Y-212326122D03*
D17*
X381234809Y-212599203D03*
%TD*%
D11*
%TO.P,MX27,1,COL*%
%TO.N,J*%
X369219650Y-197951977D03*
D16*
X368918033Y-198885225D03*
D11*
%TO.P,MX27,2,ROW*%
%TO.N,GND*%
X373385174Y-194916122D03*
D17*
X373484809Y-195189203D03*
%TD*%
D11*
%TO.P,MX26,1,COL*%
%TO.N,U*%
X361459650Y-180541977D03*
D16*
X361158033Y-181475225D03*
D11*
%TO.P,MX26,2,ROW*%
%TO.N,GND*%
X365625174Y-177506122D03*
D17*
X365724809Y-177779203D03*
%TD*%
D11*
%TO.P,MX25,1,COL*%
%TO.N,RT3*%
X355864243Y-274259401D03*
D22*
X356377860Y-275094938D03*
D11*
%TO.P,MX25,2,ROW*%
%TO.N,GND*%
X356261949Y-269120352D03*
D23*
X356534291Y-269221988D03*
%TD*%
D11*
%TO.P,MX24,1,COL*%
%TO.N,N*%
X359549650Y-223101977D03*
D16*
X359248033Y-224035225D03*
D11*
%TO.P,MX24,2,ROW*%
%TO.N,GND*%
X363715174Y-220066122D03*
D17*
X363814809Y-220339203D03*
%TD*%
D11*
%TO.P,MX23,1,COL*%
%TO.N,H*%
X351809650Y-205691977D03*
D16*
X351508033Y-206625225D03*
D11*
%TO.P,MX23,2,ROW*%
%TO.N,GND*%
X355975174Y-202656122D03*
D17*
X356074809Y-202929203D03*
%TD*%
D11*
%TO.P,MX22,1,COL*%
%TO.N,Y*%
X344069650Y-188291977D03*
D16*
X343768033Y-189225225D03*
D11*
%TO.P,MX22,2,ROW*%
%TO.N,GND*%
X348235174Y-185256122D03*
D17*
X348334809Y-185529203D03*
%TD*%
D11*
%TO.P,MX21,1,COL*%
%TO.N,GUI*%
X226714007Y-269465799D03*
D24*
X225827892Y-269045413D03*
D11*
%TO.P,MX21,2,ROW*%
%TO.N,GND*%
X229182549Y-273990652D03*
D25*
X228898833Y-274053939D03*
%TD*%
D11*
%TO.P,MX20,1,COL*%
%TO.N,B*%
X219882268Y-221069091D03*
D26*
X218987048Y-221469723D03*
D11*
%TO.P,MX20,2,ROW*%
%TO.N,GND*%
X224925998Y-222131535D03*
D27*
X224789818Y-222388352D03*
%TD*%
D11*
%TO.P,MX19,1,COL*%
%TO.N,G*%
X227632268Y-203659091D03*
D26*
X226737048Y-204059723D03*
D11*
%TO.P,MX19,2,ROW*%
%TO.N,GND*%
X232675998Y-204721535D03*
D27*
X232539818Y-204978352D03*
%TD*%
D11*
%TO.P,MX18,1,COL*%
%TO.N,T*%
X235372268Y-186259091D03*
D26*
X234477048Y-186659723D03*
D11*
%TO.P,MX18,2,ROW*%
%TO.N,GND*%
X240415998Y-187321535D03*
D27*
X240279818Y-187578352D03*
%TD*%
D11*
%TO.P,MX17,1,COL*%
%TO.N,M3*%
X217288306Y-250687206D03*
D28*
X216319524Y-250534280D03*
D11*
%TO.P,MX17,2,ROW*%
%TO.N,GND*%
X220934603Y-254330353D03*
D29*
X220680324Y-254471214D03*
%TD*%
D11*
%TO.P,MX16,1,COL*%
%TO.N,V*%
X202462268Y-213329091D03*
D26*
X201567048Y-213729723D03*
D11*
%TO.P,MX16,2,ROW*%
%TO.N,GND*%
X207505998Y-214391535D03*
D27*
X207369818Y-214648352D03*
%TD*%
D11*
%TO.P,MX15,1,COL*%
%TO.N,F*%
X210212268Y-195909091D03*
D26*
X209317048Y-196309723D03*
D11*
%TO.P,MX15,2,ROW*%
%TO.N,GND*%
X215255998Y-196971535D03*
D27*
X215119818Y-197228352D03*
%TD*%
D11*
%TO.P,MX14,1,COL*%
%TO.N,R*%
X217952268Y-178509091D03*
D26*
X217057048Y-178909723D03*
D11*
%TO.P,MX14,2,ROW*%
%TO.N,GND*%
X222995998Y-179571535D03*
D27*
X222859818Y-179828352D03*
%TD*%
D11*
%TO.P,MX13,1,COL*%
%TO.N,SPACE*%
X202560284Y-237115995D03*
D30*
X201582016Y-237186113D03*
D11*
%TO.P,MX13,2,ROW*%
%TO.N,GND*%
X206935988Y-239840186D03*
D31*
X206720150Y-240034902D03*
%TD*%
D11*
%TO.P,MX12,1,COL*%
%TO.N,C*%
X190882268Y-192509091D03*
D26*
X189987048Y-192909723D03*
D11*
%TO.P,MX12,2,ROW*%
%TO.N,GND*%
X195925998Y-193571535D03*
D27*
X195789818Y-193828352D03*
%TD*%
D11*
%TO.P,MX11,1,COL*%
%TO.N,D*%
X198622268Y-175119091D03*
D26*
X197727048Y-175519723D03*
D11*
%TO.P,MX11,2,ROW*%
%TO.N,GND*%
X203665998Y-176181535D03*
D27*
X203529818Y-176438352D03*
%TD*%
D11*
%TO.P,MX10,1,COL*%
%TO.N,E*%
X206372268Y-157709091D03*
D26*
X205477048Y-158109723D03*
D11*
%TO.P,MX10,2,ROW*%
%TO.N,GND*%
X211415998Y-158771535D03*
D27*
X211279818Y-159028352D03*
%TD*%
D11*
%TO.P,MX9,1,COL*%
%TO.N,X*%
X169612268Y-193479091D03*
D26*
X168717048Y-193879723D03*
D11*
%TO.P,MX9,2,ROW*%
%TO.N,GND*%
X174655998Y-194541535D03*
D27*
X174519818Y-194798352D03*
%TD*%
D11*
%TO.P,MX8,1,COL*%
%TO.N,S*%
X177352268Y-176069091D03*
D26*
X176457048Y-176469723D03*
D11*
%TO.P,MX8,2,ROW*%
%TO.N,GND*%
X182395998Y-177131535D03*
D27*
X182259818Y-177388352D03*
%TD*%
D11*
%TO.P,MX7,1,COL*%
%TO.N,W*%
X185092268Y-158669091D03*
D26*
X184197048Y-159069723D03*
D11*
%TO.P,MX7,2,ROW*%
%TO.N,GND*%
X190135998Y-159731535D03*
D27*
X189999818Y-159988352D03*
%TD*%
D11*
%TO.P,MX6,1,COL*%
%TO.N,Z*%
X147138219Y-194764903D03*
D32*
X146302951Y-195278957D03*
D11*
%TO.P,MX6,2,ROW*%
%TO.N,GND*%
X152277476Y-195159918D03*
D33*
X152175982Y-195432313D03*
%TD*%
D11*
%TO.P,MX5,1,COL*%
%TO.N,A*%
X152548219Y-176504903D03*
D32*
X151712951Y-177018957D03*
D11*
%TO.P,MX5,2,ROW*%
%TO.N,GND*%
X157687476Y-176899918D03*
D33*
X157585982Y-177172313D03*
%TD*%
D11*
%TO.P,MX4,1,COL*%
%TO.N,Q*%
X157958219Y-158224903D03*
D32*
X157122951Y-158738957D03*
D11*
%TO.P,MX4,2,ROW*%
%TO.N,GND*%
X163097476Y-158619918D03*
D33*
X162995982Y-158892313D03*
%TD*%
D11*
%TO.P,MX3,1,COL*%
%TO.N,RSHFT*%
X127518219Y-193924903D03*
D32*
X126682951Y-194438957D03*
D11*
%TO.P,MX3,2,ROW*%
%TO.N,GND*%
X132657476Y-194319918D03*
D33*
X132555982Y-194592313D03*
%TD*%
D11*
%TO.P,MX2,1,COL*%
%TO.N,LCTRL*%
X132928219Y-175664903D03*
D32*
X132092951Y-176178957D03*
D11*
%TO.P,MX2,2,ROW*%
%TO.N,GND*%
X138067476Y-176059918D03*
D33*
X137965982Y-176332313D03*
%TD*%
D11*
%TO.P,MX1,1,COL*%
%TO.N,TAB*%
X138338219Y-157384903D03*
D32*
X137502951Y-157898957D03*
D11*
%TO.P,MX1,2,ROW*%
%TO.N,GND*%
X143477476Y-157779918D03*
D33*
X143375982Y-158052313D03*
%TD*%
D34*
%TO.P,USB1,13,SHIELD*%
%TO.N,GND*%
X296320000Y-152600000D03*
X287680000Y-152600000D03*
D35*
X287680000Y-156780000D03*
X296320000Y-156780000D03*
%TD*%
D36*
%TO.P,C2,1*%
%TO.N,VDD1*%
X320900000Y-157012500D03*
%TO.P,C2,2*%
%TO.N,GND*%
X320900000Y-159087500D03*
%TD*%
%TO.P,C1,1*%
%TO.N,+5V*%
X307075000Y-154687500D03*
%TO.P,C1,2*%
%TO.N,GND*%
X307075000Y-156762500D03*
%TD*%
D37*
%TO.P,C8,1*%
%TO.N,GND*%
X300987500Y-181800000D03*
%TO.P,C8,2*%
%TO.N,VDD1*%
X298912500Y-181800000D03*
%TD*%
D38*
%TO.P,C10,1*%
%TO.N,GND*%
X316625000Y-158762500D03*
%TO.P,C10,2*%
%TO.N,VDD1*%
X316625000Y-157037500D03*
%TD*%
D39*
%TO.P,C4,1*%
%TO.N,GND*%
X297587500Y-167950000D03*
%TO.P,C4,2*%
%TO.N,VDD1*%
X299662500Y-167950000D03*
%TD*%
D40*
%TO.P,U1,1,GND*%
%TO.N,GND*%
X326075000Y-159300000D03*
D41*
%TO.P,U1,2,VO*%
%TO.N,VDD1*%
X332375000Y-157000000D03*
D40*
X326075000Y-157000000D03*
%TO.P,U1,3,VI*%
%TO.N,+5V*%
X326075000Y-154700000D03*
%TD*%
D39*
%TO.P,C5,1*%
%TO.N,GND*%
X298087500Y-178925000D03*
%TO.P,C5,2*%
%TO.N,VDD1*%
X300162500Y-178925000D03*
%TD*%
D42*
%TO.P,C3,1*%
%TO.N,GND*%
X286000000Y-168187500D03*
%TO.P,C3,2*%
%TO.N,VDD1*%
X286000000Y-166112500D03*
%TD*%
D37*
%TO.P,C6,1*%
%TO.N,GND*%
X286387500Y-180025000D03*
%TO.P,C6,2*%
%TO.N,VDD1*%
X284312500Y-180025000D03*
%TD*%
D36*
%TO.P,C7,1*%
%TO.N,GND*%
X296000000Y-179737500D03*
%TO.P,C7,2*%
%TO.N,VDD1*%
X296000000Y-181812500D03*
%TD*%
D38*
%TO.P,C9,1*%
%TO.N,GND*%
X292450000Y-163937500D03*
%TO.P,C9,2*%
%TO.N,VDD1*%
X292450000Y-162212500D03*
%TD*%
D43*
%TO.N,GND*%
X304875000Y-158225000D03*
%TO.N,RESET*%
X255000000Y-163250000D03*
X292750000Y-187575000D03*
%TO.N,BOOT*%
X281000000Y-176750000D03*
X260500000Y-158500000D03*
%TO.N,VDD1*%
X302920000Y-179250000D03*
X282750000Y-180750000D03*
X273225000Y-159725000D03*
X302200000Y-167725000D03*
X286000000Y-163800000D03*
X288350000Y-184700000D03*
X296000000Y-184575000D03*
%TO.N,GND*%
X280250000Y-182000000D03*
X258250000Y-165000000D03*
%TO.N,+5V*%
X295075000Y-160775000D03*
X288900000Y-160850000D03*
%TD*%
D44*
%TO.N,GND*%
X306337500Y-156762500D02*
X304875000Y-158225000D01*
X307075000Y-156762500D02*
X306337500Y-156762500D01*
D45*
%TO.N,RESET*%
X262600000Y-163250000D02*
X262075000Y-163250000D01*
D46*
X262075000Y-163250000D02*
X255000000Y-163250000D01*
D45*
X292750000Y-187575000D02*
X286925000Y-187575000D01*
X286925000Y-187575000D02*
X262600000Y-163250000D01*
D46*
%TO.N,BOOT*%
X281000000Y-176750000D02*
X262750000Y-158500000D01*
X262750000Y-158500000D02*
X260500000Y-158500000D01*
D45*
%TO.N,VDD1*%
X320912500Y-157000000D02*
X320900000Y-157012500D01*
X286700000Y-184700000D02*
X282750000Y-180750000D01*
X286000000Y-163800000D02*
X277300000Y-163800000D01*
X298912500Y-181800000D02*
X296012500Y-181800000D01*
X301975000Y-167950000D02*
X299662500Y-167950000D01*
X296012500Y-181800000D02*
X296000000Y-181812500D01*
X284312500Y-180025000D02*
X283475000Y-180025000D01*
X303912500Y-163687500D02*
X305287500Y-162312500D01*
X288350000Y-184700000D02*
X286700000Y-184700000D01*
D46*
X302920000Y-179280000D02*
X302920000Y-179250000D01*
D45*
X303912500Y-173900000D02*
X300162500Y-177650000D01*
X283475000Y-180025000D02*
X282750000Y-180750000D01*
X303912500Y-163687500D02*
X303912500Y-173900000D01*
X320900000Y-157012500D02*
X316650000Y-157012500D01*
X286000000Y-166112500D02*
X286000000Y-163800000D01*
X299662500Y-167937500D02*
X303912500Y-163687500D01*
X296000000Y-184575000D02*
X296000000Y-181812500D01*
X302200000Y-167725000D02*
X301975000Y-167950000D01*
D46*
X282500000Y-180750000D02*
X282750000Y-180750000D01*
D45*
X299662500Y-167950000D02*
X299662500Y-167937500D01*
X286100000Y-181812500D02*
X284312500Y-180025000D01*
X311450000Y-162212500D02*
X311493750Y-162168750D01*
X326075000Y-157000000D02*
X320912500Y-157000000D01*
X300162500Y-177650000D02*
X300162500Y-178925000D01*
X286000000Y-166112500D02*
X288550000Y-166112500D01*
X316650000Y-157012500D02*
X316625000Y-157037500D01*
X311493750Y-162168750D02*
X316625000Y-157037500D01*
X326075000Y-157000000D02*
X332375000Y-157000000D01*
X300162500Y-178925000D02*
X300162500Y-180550000D01*
X277300000Y-163800000D02*
X273225000Y-159725000D01*
X296000000Y-181812500D02*
X286100000Y-181812500D01*
X300162500Y-180550000D02*
X298912500Y-181800000D01*
X292450000Y-162212500D02*
X311450000Y-162212500D01*
X288550000Y-166112500D02*
X292450000Y-162212500D01*
D46*
%TO.N,GND*%
X263250000Y-165000000D02*
X258250000Y-165000000D01*
X280250000Y-182000000D02*
X263250000Y-165000000D01*
D44*
%TO.N,+5V*%
X287175000Y-154700000D02*
X285700000Y-156175000D01*
X301100000Y-154700000D02*
X287175000Y-154700000D01*
X285700000Y-157650000D02*
X288900000Y-160850000D01*
X301100000Y-154750000D02*
X301100000Y-154700000D01*
X285700000Y-156175000D02*
X285700000Y-157650000D01*
X295075000Y-160775000D02*
X301100000Y-154750000D01*
X326075000Y-154700000D02*
X301100000Y-154700000D01*
%TD*%
%TA.AperFunction,Conductor*%
%TO.N,GND*%
G36*
X266708512Y-168257699D02*
G01*
X266715095Y-168263828D01*
X284802347Y-186351080D01*
X284836373Y-186413392D01*
X284831308Y-186484207D01*
X284788761Y-186541043D01*
X284722241Y-186565854D01*
X284713313Y-186566175D01*
X268353372Y-186574102D01*
X266626061Y-186574939D01*
X266557931Y-186554970D01*
X266511412Y-186501337D01*
X266500000Y-186448939D01*
X266500000Y-168352923D01*
X266520002Y-168284802D01*
X266573658Y-168238309D01*
X266643932Y-168228205D01*
X266708512Y-168257699D01*
G37*
%TD.AperFunction*%
%TA.AperFunction,Conductor*%
G36*
X342365639Y-150778002D02*
G01*
X342412132Y-150831658D01*
X342422236Y-150901932D01*
X342401579Y-150955045D01*
X318137497Y-186495077D01*
X318082568Y-186540058D01*
X318033497Y-186550032D01*
X304951249Y-186556371D01*
X286866116Y-186565133D01*
X286797987Y-186545164D01*
X286776961Y-186528228D01*
X266536905Y-166288172D01*
X266502879Y-166225860D01*
X266500000Y-166199077D01*
X266500000Y-163450094D01*
X266520002Y-163381973D01*
X266573658Y-163335480D01*
X266643932Y-163325376D01*
X266708512Y-163354870D01*
X266715095Y-163360999D01*
X280052882Y-176698786D01*
X280086908Y-176761098D01*
X280089097Y-176774710D01*
X280106462Y-176939927D01*
X280165476Y-177121554D01*
X280260963Y-177286942D01*
X280388749Y-177428863D01*
X280394091Y-177432744D01*
X280394093Y-177432746D01*
X280447167Y-177471306D01*
X280543250Y-177541114D01*
X280549278Y-177543798D01*
X280549280Y-177543799D01*
X280653939Y-177590396D01*
X280717713Y-177618790D01*
X280811113Y-177638643D01*
X280898056Y-177657124D01*
X280898061Y-177657124D01*
X280904513Y-177658496D01*
X281095487Y-177658496D01*
X281101939Y-177657124D01*
X281101944Y-177657124D01*
X281188887Y-177638643D01*
X281282287Y-177618790D01*
X281346061Y-177590396D01*
X281450720Y-177543799D01*
X281450722Y-177543798D01*
X281456750Y-177541114D01*
X281552833Y-177471306D01*
X281605907Y-177432746D01*
X281605909Y-177432744D01*
X281611251Y-177428863D01*
X281739037Y-177286942D01*
X281834524Y-177121554D01*
X281893538Y-176939927D01*
X281913500Y-176750000D01*
X281893538Y-176560073D01*
X281834524Y-176378446D01*
X281739037Y-176213058D01*
X281611251Y-176071137D01*
X281605909Y-176067256D01*
X281605907Y-176067254D01*
X281462092Y-175962767D01*
X281462091Y-175962766D01*
X281456750Y-175958886D01*
X281450722Y-175956202D01*
X281450720Y-175956201D01*
X281288318Y-175883895D01*
X281288317Y-175883895D01*
X281282287Y-175881210D01*
X281188887Y-175861357D01*
X281101944Y-175842876D01*
X281101939Y-175842876D01*
X281095487Y-175841504D01*
X281039599Y-175841504D01*
X280971478Y-175821502D01*
X280950504Y-175804599D01*
X273746548Y-168600643D01*
X273600953Y-168455048D01*
X284767000Y-168455048D01*
X284767000Y-168564223D01*
X284767424Y-168571524D01*
X284781617Y-168693255D01*
X284784963Y-168707410D01*
X284840263Y-168859761D01*
X284846773Y-168872760D01*
X284935641Y-169008306D01*
X284944965Y-169019458D01*
X285062629Y-169130922D01*
X285074276Y-169139635D01*
X285214429Y-169221043D01*
X285227754Y-169226837D01*
X285383700Y-169274068D01*
X285396323Y-169276516D01*
X285466184Y-169282751D01*
X285471779Y-169283000D01*
X285727885Y-169283000D01*
X285743124Y-169278525D01*
X285744329Y-169277135D01*
X285746000Y-169269452D01*
X285746000Y-168459615D01*
X285744659Y-168455048D01*
X286254000Y-168455048D01*
X286254000Y-169264885D01*
X286258475Y-169280124D01*
X286259865Y-169281329D01*
X286267548Y-169283000D01*
X286514223Y-169283000D01*
X286521524Y-169282576D01*
X286643255Y-169268383D01*
X286657410Y-169265037D01*
X286809761Y-169209737D01*
X286822760Y-169203227D01*
X286958306Y-169114359D01*
X286969458Y-169105035D01*
X287080922Y-168987371D01*
X287089635Y-168975724D01*
X287171043Y-168835571D01*
X287176837Y-168822246D01*
X287224068Y-168666300D01*
X287226516Y-168653677D01*
X287232751Y-168583816D01*
X287233000Y-168578221D01*
X287233000Y-168459615D01*
X287228525Y-168444376D01*
X287227135Y-168443171D01*
X287219452Y-168441500D01*
X286272115Y-168441500D01*
X286256876Y-168445975D01*
X286255671Y-168447365D01*
X286254000Y-168455048D01*
X285744659Y-168455048D01*
X285741525Y-168444376D01*
X285740135Y-168443171D01*
X285732452Y-168441500D01*
X284785115Y-168441500D01*
X284769876Y-168445975D01*
X284768671Y-168447365D01*
X284767000Y-168455048D01*
X273600953Y-168455048D01*
X273363453Y-168217548D01*
X296492000Y-168217548D01*
X296492000Y-168464223D01*
X296492424Y-168471524D01*
X296506617Y-168593255D01*
X296509963Y-168607410D01*
X296565263Y-168759761D01*
X296571773Y-168772760D01*
X296660641Y-168908306D01*
X296669965Y-168919458D01*
X296787629Y-169030922D01*
X296799276Y-169039635D01*
X296939429Y-169121043D01*
X296952754Y-169126837D01*
X297108700Y-169174068D01*
X297121323Y-169176516D01*
X297191184Y-169182751D01*
X297196779Y-169183000D01*
X297315385Y-169183000D01*
X297330624Y-169178525D01*
X297331829Y-169177135D01*
X297333500Y-169169452D01*
X297333500Y-168222115D01*
X297329025Y-168206876D01*
X297327635Y-168205671D01*
X297319952Y-168204000D01*
X296510115Y-168204000D01*
X296494876Y-168208475D01*
X296493671Y-168209865D01*
X296492000Y-168217548D01*
X273363453Y-168217548D01*
X266536905Y-161391001D01*
X266502879Y-161328689D01*
X266500000Y-161301906D01*
X266500000Y-159725000D01*
X272311500Y-159725000D01*
X272312190Y-159731565D01*
X272326373Y-159866504D01*
X272331462Y-159914927D01*
X272390476Y-160096554D01*
X272393779Y-160102276D01*
X272393780Y-160102277D01*
X272398087Y-160109737D01*
X272485963Y-160261942D01*
X272490381Y-160266849D01*
X272490382Y-160266850D01*
X272609327Y-160398952D01*
X272613749Y-160403863D01*
X272619091Y-160407744D01*
X272619093Y-160407746D01*
X272762267Y-160511767D01*
X272768250Y-160516114D01*
X272774278Y-160518798D01*
X272774280Y-160518799D01*
X272909031Y-160578794D01*
X272942713Y-160593790D01*
X273036113Y-160613643D01*
X273123056Y-160632124D01*
X273123061Y-160632124D01*
X273129513Y-160633496D01*
X273182573Y-160633496D01*
X273250694Y-160653498D01*
X273271668Y-160670401D01*
X276795129Y-164193861D01*
X276802443Y-164201899D01*
X276806486Y-164208270D01*
X276812261Y-164213693D01*
X276855136Y-164253955D01*
X276857978Y-164256710D01*
X276878621Y-164277353D01*
X276882155Y-164280094D01*
X276882156Y-164280095D01*
X276891183Y-164287805D01*
X276923524Y-164318175D01*
X276941353Y-164327977D01*
X276957874Y-164338829D01*
X276973959Y-164351306D01*
X277001902Y-164363397D01*
X277014680Y-164368927D01*
X277025343Y-164374151D01*
X277057267Y-164391702D01*
X277057269Y-164391703D01*
X277064216Y-164395522D01*
X277071896Y-164397494D01*
X277083931Y-164400584D01*
X277102632Y-164406987D01*
X277114029Y-164411919D01*
X277114035Y-164411921D01*
X277121306Y-164415067D01*
X277129131Y-164416306D01*
X277129140Y-164416309D01*
X277165121Y-164422008D01*
X277176742Y-164424414D01*
X277213968Y-164433972D01*
X277213977Y-164433973D01*
X277219724Y-164435449D01*
X277220535Y-164435500D01*
X277240396Y-164435500D01*
X277260106Y-164437051D01*
X277279881Y-164440183D01*
X277287773Y-164439437D01*
X277323509Y-164436059D01*
X277335366Y-164435500D01*
X285238500Y-164435500D01*
X285306621Y-164455502D01*
X285353114Y-164509158D01*
X285364500Y-164561500D01*
X285364500Y-164938173D01*
X285344498Y-165006294D01*
X285290842Y-165052787D01*
X285281491Y-165056612D01*
X285276764Y-165058328D01*
X285183136Y-165092313D01*
X285035253Y-165189269D01*
X284913642Y-165317645D01*
X284824825Y-165470555D01*
X284773567Y-165639796D01*
X284766500Y-165718978D01*
X284766500Y-166492886D01*
X284772650Y-166545633D01*
X284781094Y-166618057D01*
X284781978Y-166625643D01*
X284784474Y-166632521D01*
X284784475Y-166632523D01*
X284828731Y-166754445D01*
X284842313Y-166791864D01*
X284939269Y-166939747D01*
X284944580Y-166944778D01*
X284944584Y-166944783D01*
X285065736Y-167059550D01*
X285101435Y-167120919D01*
X285098288Y-167191846D01*
X285057294Y-167249811D01*
X285048171Y-167256394D01*
X285041693Y-167260641D01*
X285030542Y-167269965D01*
X284919078Y-167387629D01*
X284910365Y-167399276D01*
X284828957Y-167539429D01*
X284823163Y-167552754D01*
X284775932Y-167708700D01*
X284773484Y-167721323D01*
X284767249Y-167791184D01*
X284767000Y-167796779D01*
X284767000Y-167915385D01*
X284771475Y-167930624D01*
X284772865Y-167931829D01*
X284780548Y-167933500D01*
X287214885Y-167933500D01*
X287230124Y-167929025D01*
X287231329Y-167927635D01*
X287233000Y-167919952D01*
X287233000Y-167810777D01*
X287232576Y-167803476D01*
X287218383Y-167681745D01*
X287215037Y-167667590D01*
X287159737Y-167515239D01*
X287153227Y-167502240D01*
X287100474Y-167421779D01*
X296492000Y-167421779D01*
X296492000Y-167677885D01*
X296496475Y-167693124D01*
X296497865Y-167694329D01*
X296505548Y-167696000D01*
X297315385Y-167696000D01*
X297330624Y-167691525D01*
X297331829Y-167690135D01*
X297333500Y-167682452D01*
X297333500Y-166735115D01*
X297329025Y-166719876D01*
X297327635Y-166718671D01*
X297319952Y-166717000D01*
X297210777Y-166717000D01*
X297203476Y-166717424D01*
X297081745Y-166731617D01*
X297067590Y-166734963D01*
X296915239Y-166790263D01*
X296902240Y-166796773D01*
X296766694Y-166885641D01*
X296755542Y-166894965D01*
X296644078Y-167012629D01*
X296635365Y-167024276D01*
X296553957Y-167164429D01*
X296548163Y-167177754D01*
X296500932Y-167333700D01*
X296498484Y-167346323D01*
X296492249Y-167416184D01*
X296492000Y-167421779D01*
X287100474Y-167421779D01*
X287064359Y-167366694D01*
X287055035Y-167355542D01*
X286934207Y-167241081D01*
X286898509Y-167179712D01*
X286901656Y-167108785D01*
X286942650Y-167050819D01*
X286951774Y-167044237D01*
X286958625Y-167039745D01*
X286958626Y-167039744D01*
X286964747Y-167035731D01*
X287086358Y-166907355D01*
X287090033Y-166901028D01*
X287090036Y-166901024D01*
X287142491Y-166810715D01*
X287194002Y-166761856D01*
X287251445Y-166748000D01*
X288471512Y-166748000D01*
X288482355Y-166748511D01*
X288489723Y-166750158D01*
X288497648Y-166749909D01*
X288497649Y-166749909D01*
X288540877Y-166748550D01*
X288556408Y-166748062D01*
X288560364Y-166748000D01*
X288589580Y-166748000D01*
X288594016Y-166747439D01*
X288605851Y-166746507D01*
X288650196Y-166745114D01*
X288669746Y-166739434D01*
X288689079Y-166735431D01*
X288709286Y-166732878D01*
X288716658Y-166729959D01*
X288716663Y-166729958D01*
X288750541Y-166716545D01*
X288761768Y-166712701D01*
X288796756Y-166702535D01*
X288804373Y-166700322D01*
X288821893Y-166689961D01*
X288839640Y-166681266D01*
X288858563Y-166673774D01*
X288880419Y-166657895D01*
X288894449Y-166647701D01*
X288904373Y-166641182D01*
X288937449Y-166621622D01*
X288937458Y-166621615D01*
X288942567Y-166618594D01*
X288943176Y-166618057D01*
X288957218Y-166604015D01*
X288972252Y-166591174D01*
X288982038Y-166584064D01*
X288988452Y-166579404D01*
X289016390Y-166545633D01*
X289024379Y-166536854D01*
X291263466Y-164297767D01*
X291325778Y-164263741D01*
X291396593Y-164268806D01*
X291453429Y-164311353D01*
X291477713Y-164372272D01*
X291481281Y-164402879D01*
X291484626Y-164417032D01*
X291538940Y-164566664D01*
X291545450Y-164579663D01*
X291632731Y-164712788D01*
X291642055Y-164723940D01*
X291757617Y-164833413D01*
X291769264Y-164842126D01*
X291906910Y-164922078D01*
X291920247Y-164927877D01*
X292073407Y-164974264D01*
X292086039Y-164976714D01*
X292153682Y-164982751D01*
X292159277Y-164983000D01*
X292177885Y-164983000D01*
X292193124Y-164978525D01*
X292194329Y-164977135D01*
X292196000Y-164969452D01*
X292196000Y-164205048D01*
X292704000Y-164205048D01*
X292704000Y-164964885D01*
X292708475Y-164980124D01*
X292709865Y-164981329D01*
X292717548Y-164983000D01*
X292726723Y-164983000D01*
X292734027Y-164982575D01*
X292852880Y-164968719D01*
X292867032Y-164965374D01*
X293016664Y-164911060D01*
X293029663Y-164904550D01*
X293162788Y-164817269D01*
X293173940Y-164807945D01*
X293283413Y-164692383D01*
X293292126Y-164680736D01*
X293372078Y-164543090D01*
X293377877Y-164529753D01*
X293424264Y-164376593D01*
X293426714Y-164363961D01*
X293432751Y-164296318D01*
X293433000Y-164290723D01*
X293433000Y-164209615D01*
X293428525Y-164194376D01*
X293427135Y-164193171D01*
X293419452Y-164191500D01*
X292722115Y-164191500D01*
X292706876Y-164195975D01*
X292705671Y-164197365D01*
X292704000Y-164205048D01*
X292196000Y-164205048D01*
X292196000Y-163809500D01*
X292216002Y-163741379D01*
X292269658Y-163694886D01*
X292322000Y-163683500D01*
X293414885Y-163683500D01*
X293430124Y-163679025D01*
X293431329Y-163677635D01*
X293433000Y-163669952D01*
X293433000Y-163598277D01*
X293432575Y-163590973D01*
X293418719Y-163472120D01*
X293415374Y-163457968D01*
X293361060Y-163308336D01*
X293354550Y-163295337D01*
X293267273Y-163162217D01*
X293260577Y-163154209D01*
X293232226Y-163089119D01*
X293243566Y-163019034D01*
X293265767Y-162986733D01*
X293283813Y-162967683D01*
X293288849Y-162962367D01*
X293292526Y-162956037D01*
X293292531Y-162956030D01*
X293318853Y-162910714D01*
X293370364Y-162861856D01*
X293427806Y-162848000D01*
X303549077Y-162848000D01*
X303617198Y-162868002D01*
X303663691Y-162921658D01*
X303673795Y-162991932D01*
X303644301Y-163056512D01*
X303638172Y-163063095D01*
X303518637Y-163182630D01*
X303510604Y-163189941D01*
X303504230Y-163193986D01*
X303458561Y-163242619D01*
X303455806Y-163245461D01*
X300021672Y-166679595D01*
X299959360Y-166713621D01*
X299932577Y-166716500D01*
X299282114Y-166716500D01*
X299190373Y-166727196D01*
X299156629Y-166731130D01*
X299156628Y-166731130D01*
X299149357Y-166731978D01*
X299142479Y-166734474D01*
X299142477Y-166734475D01*
X299019931Y-166778957D01*
X298983136Y-166792313D01*
X298944146Y-166817876D01*
X298866050Y-166869078D01*
X298835253Y-166889269D01*
X298830222Y-166894580D01*
X298830217Y-166894584D01*
X298715450Y-167015736D01*
X298654081Y-167051435D01*
X298583154Y-167048288D01*
X298525189Y-167007294D01*
X298518606Y-166998171D01*
X298514359Y-166991693D01*
X298505035Y-166980542D01*
X298387371Y-166869078D01*
X298375724Y-166860365D01*
X298235571Y-166778957D01*
X298222246Y-166773163D01*
X298066300Y-166725932D01*
X298053677Y-166723484D01*
X297983816Y-166717249D01*
X297978221Y-166717000D01*
X297859615Y-166717000D01*
X297844376Y-166721475D01*
X297843171Y-166722865D01*
X297841500Y-166730548D01*
X297841500Y-169164885D01*
X297845975Y-169180124D01*
X297847365Y-169181329D01*
X297855048Y-169183000D01*
X297964223Y-169183000D01*
X297971524Y-169182576D01*
X298093255Y-169168383D01*
X298107410Y-169165037D01*
X298259761Y-169109737D01*
X298272760Y-169103227D01*
X298408306Y-169014359D01*
X298419458Y-169005035D01*
X298533919Y-168884207D01*
X298595288Y-168848509D01*
X298666215Y-168851656D01*
X298724181Y-168892650D01*
X298730763Y-168901774D01*
X298735046Y-168908306D01*
X298739269Y-168914747D01*
X298867645Y-169036358D01*
X299020555Y-169125175D01*
X299189796Y-169176433D01*
X299196236Y-169177008D01*
X299196237Y-169177008D01*
X299266185Y-169183251D01*
X299266191Y-169183251D01*
X299268978Y-169183500D01*
X300042886Y-169183500D01*
X300138106Y-169172398D01*
X300168371Y-169168870D01*
X300168372Y-169168870D01*
X300175643Y-169168022D01*
X300182521Y-169165526D01*
X300182523Y-169165525D01*
X300334985Y-169110184D01*
X300341864Y-169107687D01*
X300458337Y-169031324D01*
X300483628Y-169014743D01*
X300483629Y-169014742D01*
X300489747Y-169010731D01*
X300611358Y-168882355D01*
X300700175Y-168729445D01*
X300702297Y-168722438D01*
X300702299Y-168722434D01*
X300716672Y-168674977D01*
X300755561Y-168615579D01*
X300820390Y-168586635D01*
X300837262Y-168585500D01*
X301874476Y-168585500D01*
X301912689Y-168591553D01*
X301917713Y-168593790D01*
X302005193Y-168612385D01*
X302098056Y-168632124D01*
X302098061Y-168632124D01*
X302104513Y-168633496D01*
X302295487Y-168633496D01*
X302301939Y-168632124D01*
X302301944Y-168632124D01*
X302388887Y-168613643D01*
X302482287Y-168593790D01*
X302488318Y-168591105D01*
X302650720Y-168518799D01*
X302650722Y-168518798D01*
X302656750Y-168516114D01*
X302662092Y-168512233D01*
X302805907Y-168407746D01*
X302805909Y-168407744D01*
X302811251Y-168403863D01*
X302815673Y-168398952D01*
X302934618Y-168266850D01*
X302934619Y-168266849D01*
X302939037Y-168261942D01*
X303034524Y-168096554D01*
X303036187Y-168091435D01*
X303081873Y-168037685D01*
X303149801Y-168017036D01*
X303218109Y-168036388D01*
X303265110Y-168089599D01*
X303277000Y-168143030D01*
X303277000Y-173584577D01*
X303256998Y-173652698D01*
X303240095Y-173673672D01*
X299768637Y-177145130D01*
X299760604Y-177152441D01*
X299754230Y-177156486D01*
X299708561Y-177205119D01*
X299705806Y-177207961D01*
X299685146Y-177228621D01*
X299682721Y-177231747D01*
X299682715Y-177231754D01*
X299682404Y-177232156D01*
X299674694Y-177241183D01*
X299644325Y-177273524D01*
X299634523Y-177291354D01*
X299623670Y-177307876D01*
X299611194Y-177323959D01*
X299608047Y-177331232D01*
X299593571Y-177364683D01*
X299588354Y-177375332D01*
X299566978Y-177414216D01*
X299563218Y-177428863D01*
X299561919Y-177433921D01*
X299555514Y-177452630D01*
X299547432Y-177471306D01*
X299546193Y-177479131D01*
X299546192Y-177479133D01*
X299540491Y-177515128D01*
X299538084Y-177526749D01*
X299533707Y-177543799D01*
X299527051Y-177569724D01*
X299527000Y-177570535D01*
X299527000Y-177590396D01*
X299525449Y-177610106D01*
X299522317Y-177629881D01*
X299523063Y-177637774D01*
X299523063Y-177637775D01*
X299525117Y-177659510D01*
X299511613Y-177729210D01*
X299468761Y-177776737D01*
X299421845Y-177807497D01*
X299335253Y-177864269D01*
X299330222Y-177869580D01*
X299330217Y-177869584D01*
X299215450Y-177990736D01*
X299154081Y-178026435D01*
X299083154Y-178023288D01*
X299025189Y-177982294D01*
X299018606Y-177973171D01*
X299014359Y-177966693D01*
X299005035Y-177955542D01*
X298887371Y-177844078D01*
X298875724Y-177835365D01*
X298735571Y-177753957D01*
X298722246Y-177748163D01*
X298566300Y-177700932D01*
X298553677Y-177698484D01*
X298483816Y-177692249D01*
X298478221Y-177692000D01*
X298359615Y-177692000D01*
X298344376Y-177696475D01*
X298343171Y-177697865D01*
X298341500Y-177705548D01*
X298341500Y-180139885D01*
X298345975Y-180155124D01*
X298347365Y-180156329D01*
X298355048Y-180158000D01*
X298464223Y-180158000D01*
X298471524Y-180157576D01*
X298593255Y-180143383D01*
X298607410Y-180140037D01*
X298759761Y-180084737D01*
X298772760Y-180078227D01*
X298908306Y-179989359D01*
X298919458Y-179980035D01*
X299033919Y-179859207D01*
X299095288Y-179823509D01*
X299166215Y-179826656D01*
X299224181Y-179867650D01*
X299230763Y-179876774D01*
X299232772Y-179879838D01*
X299239269Y-179889747D01*
X299367645Y-180011358D01*
X299373972Y-180015033D01*
X299373976Y-180015036D01*
X299464285Y-180067491D01*
X299513144Y-180119002D01*
X299527000Y-180176445D01*
X299527000Y-180234577D01*
X299506998Y-180302698D01*
X299490095Y-180323672D01*
X299284172Y-180529595D01*
X299221860Y-180563621D01*
X299195077Y-180566500D01*
X298532114Y-180566500D01*
X298436894Y-180577602D01*
X298406629Y-180581130D01*
X298406628Y-180581130D01*
X298399357Y-180581978D01*
X298392479Y-180584474D01*
X298392477Y-180584475D01*
X298250440Y-180636032D01*
X298233136Y-180642313D01*
X298169676Y-180683919D01*
X298096374Y-180731978D01*
X298085253Y-180739269D01*
X297963642Y-180867645D01*
X297874825Y-181020555D01*
X297872703Y-181027562D01*
X297872701Y-181027566D01*
X297858328Y-181075023D01*
X297819439Y-181134421D01*
X297754610Y-181163365D01*
X297737738Y-181164500D01*
X297246307Y-181164500D01*
X297178186Y-181144498D01*
X297140935Y-181107585D01*
X297064743Y-180991372D01*
X297064742Y-180991371D01*
X297060731Y-180985253D01*
X297055420Y-180980222D01*
X297055416Y-180980217D01*
X296934264Y-180865450D01*
X296898565Y-180804081D01*
X296901712Y-180733154D01*
X296942706Y-180675189D01*
X296951829Y-180668606D01*
X296958307Y-180664359D01*
X296969458Y-180655035D01*
X297080922Y-180537371D01*
X297089635Y-180525724D01*
X297171043Y-180385571D01*
X297176837Y-180372246D01*
X297224068Y-180216300D01*
X297226516Y-180203677D01*
X297228543Y-180180961D01*
X297254521Y-180114888D01*
X297312097Y-180073348D01*
X297382991Y-180069531D01*
X297417330Y-180083207D01*
X297439429Y-180096043D01*
X297452754Y-180101837D01*
X297608700Y-180149068D01*
X297621323Y-180151516D01*
X297691184Y-180157751D01*
X297696779Y-180158000D01*
X297815385Y-180158000D01*
X297830624Y-180153525D01*
X297831829Y-180152135D01*
X297833500Y-180144452D01*
X297833500Y-177710115D01*
X297829025Y-177694876D01*
X297827635Y-177693671D01*
X297819952Y-177692000D01*
X297710777Y-177692000D01*
X297703476Y-177692424D01*
X297581745Y-177706617D01*
X297567590Y-177709963D01*
X297415239Y-177765263D01*
X297402240Y-177771773D01*
X297266694Y-177860641D01*
X297255542Y-177869965D01*
X297144078Y-177987629D01*
X297135365Y-177999276D01*
X297053957Y-178139429D01*
X297048163Y-178152754D01*
X297000932Y-178308700D01*
X296998484Y-178321323D01*
X296992249Y-178391184D01*
X296992000Y-178396779D01*
X296992000Y-178604960D01*
X296971998Y-178673081D01*
X296918342Y-178719574D01*
X296848068Y-178729678D01*
X296802716Y-178713914D01*
X296785580Y-178703961D01*
X296772246Y-178698163D01*
X296616300Y-178650932D01*
X296603677Y-178648484D01*
X296533816Y-178642249D01*
X296528221Y-178642000D01*
X296272115Y-178642000D01*
X296256876Y-178646475D01*
X296255671Y-178647865D01*
X296254000Y-178655548D01*
X296254000Y-179865500D01*
X296233998Y-179933621D01*
X296180342Y-179980114D01*
X296128000Y-179991500D01*
X294785115Y-179991500D01*
X294769876Y-179995975D01*
X294768671Y-179997365D01*
X294767000Y-180005048D01*
X294767000Y-180114223D01*
X294767424Y-180121524D01*
X294781617Y-180243255D01*
X294784963Y-180257410D01*
X294840263Y-180409761D01*
X294846773Y-180422760D01*
X294935641Y-180558306D01*
X294944965Y-180569458D01*
X295065793Y-180683919D01*
X295101491Y-180745288D01*
X295098344Y-180816215D01*
X295057350Y-180874181D01*
X295048226Y-180880763D01*
X295041375Y-180885255D01*
X295035253Y-180889269D01*
X294913642Y-181017645D01*
X294909967Y-181023972D01*
X294909964Y-181023976D01*
X294857509Y-181114285D01*
X294805998Y-181163144D01*
X294748555Y-181177000D01*
X287420523Y-181177000D01*
X287352402Y-181156998D01*
X287305909Y-181103342D01*
X287295805Y-181033068D01*
X287327004Y-180968578D01*
X287326539Y-180968230D01*
X287328333Y-180965832D01*
X287329052Y-180964346D01*
X287330919Y-180962375D01*
X287339635Y-180950724D01*
X287421043Y-180810571D01*
X287426837Y-180797246D01*
X287474068Y-180641300D01*
X287476516Y-180628677D01*
X287482751Y-180558816D01*
X287483000Y-180553221D01*
X287483000Y-180297115D01*
X287478525Y-180281876D01*
X287477135Y-180280671D01*
X287469452Y-180279000D01*
X286259500Y-180279000D01*
X286191379Y-180258998D01*
X286144886Y-180205342D01*
X286133500Y-180153000D01*
X286133500Y-178810115D01*
X286132159Y-178805548D01*
X286641500Y-178805548D01*
X286641500Y-179752885D01*
X286645975Y-179768124D01*
X286647365Y-179769329D01*
X286655048Y-179771000D01*
X287464885Y-179771000D01*
X287480124Y-179766525D01*
X287481329Y-179765135D01*
X287483000Y-179757452D01*
X287483000Y-179510777D01*
X287482576Y-179503476D01*
X287468383Y-179381745D01*
X287465037Y-179367590D01*
X287457483Y-179346779D01*
X294767000Y-179346779D01*
X294767000Y-179465385D01*
X294771475Y-179480624D01*
X294772865Y-179481829D01*
X294780548Y-179483500D01*
X295727885Y-179483500D01*
X295743124Y-179479025D01*
X295744329Y-179477635D01*
X295746000Y-179469952D01*
X295746000Y-178660115D01*
X295741525Y-178644876D01*
X295740135Y-178643671D01*
X295732452Y-178642000D01*
X295485777Y-178642000D01*
X295478476Y-178642424D01*
X295356745Y-178656617D01*
X295342590Y-178659963D01*
X295190239Y-178715263D01*
X295177240Y-178721773D01*
X295041694Y-178810641D01*
X295030542Y-178819965D01*
X294919078Y-178937629D01*
X294910365Y-178949276D01*
X294828957Y-179089429D01*
X294823163Y-179102754D01*
X294775932Y-179258700D01*
X294773484Y-179271323D01*
X294767249Y-179341184D01*
X294767000Y-179346779D01*
X287457483Y-179346779D01*
X287409737Y-179215239D01*
X287403227Y-179202240D01*
X287314359Y-179066694D01*
X287305035Y-179055542D01*
X287187371Y-178944078D01*
X287175724Y-178935365D01*
X287035571Y-178853957D01*
X287022246Y-178848163D01*
X286866300Y-178800932D01*
X286853677Y-178798484D01*
X286783816Y-178792249D01*
X286778221Y-178792000D01*
X286659615Y-178792000D01*
X286644376Y-178796475D01*
X286643171Y-178797865D01*
X286641500Y-178805548D01*
X286132159Y-178805548D01*
X286129025Y-178794876D01*
X286127635Y-178793671D01*
X286119952Y-178792000D01*
X286010777Y-178792000D01*
X286003476Y-178792424D01*
X285881745Y-178806617D01*
X285867590Y-178809963D01*
X285715239Y-178865263D01*
X285702240Y-178871773D01*
X285566694Y-178960641D01*
X285555542Y-178969965D01*
X285441081Y-179090793D01*
X285379712Y-179126491D01*
X285308785Y-179123344D01*
X285250819Y-179082350D01*
X285244237Y-179073226D01*
X285239745Y-179066375D01*
X285239744Y-179066374D01*
X285235731Y-179060253D01*
X285107355Y-178938642D01*
X284954445Y-178849825D01*
X284785204Y-178798567D01*
X284778764Y-178797992D01*
X284778763Y-178797992D01*
X284708815Y-178791749D01*
X284708809Y-178791749D01*
X284706022Y-178791500D01*
X283932114Y-178791500D01*
X283836894Y-178802602D01*
X283806629Y-178806130D01*
X283806628Y-178806130D01*
X283799357Y-178806978D01*
X283792479Y-178809474D01*
X283792477Y-178809475D01*
X283681315Y-178849825D01*
X283633136Y-178867313D01*
X283529949Y-178934965D01*
X283516050Y-178944078D01*
X283485253Y-178964269D01*
X283363642Y-179092645D01*
X283274825Y-179245555D01*
X283272704Y-179252559D01*
X283272702Y-179252563D01*
X283231674Y-179388028D01*
X283192785Y-179447427D01*
X283172842Y-179461190D01*
X283166437Y-179463726D01*
X283160026Y-179468384D01*
X283160024Y-179468385D01*
X283130544Y-179489804D01*
X283120622Y-179496321D01*
X283087530Y-179515891D01*
X283087521Y-179515897D01*
X283082434Y-179518906D01*
X283081824Y-179519443D01*
X283067782Y-179533485D01*
X283052749Y-179546325D01*
X283036548Y-179558096D01*
X283022032Y-179575643D01*
X283008610Y-179591867D01*
X283000621Y-179600646D01*
X282796668Y-179804599D01*
X282734356Y-179838625D01*
X282707573Y-179841504D01*
X282654513Y-179841504D01*
X282648061Y-179842876D01*
X282648056Y-179842876D01*
X282571228Y-179859207D01*
X282467713Y-179881210D01*
X282461683Y-179883895D01*
X282461682Y-179883895D01*
X282299280Y-179956201D01*
X282299278Y-179956202D01*
X282293250Y-179958886D01*
X282287909Y-179962766D01*
X282287908Y-179962767D01*
X282144093Y-180067254D01*
X282144091Y-180067256D01*
X282138749Y-180071137D01*
X282134328Y-180076047D01*
X282134327Y-180076048D01*
X282017911Y-180205342D01*
X282010963Y-180213058D01*
X281972891Y-180279000D01*
X281919056Y-180372246D01*
X281915476Y-180378446D01*
X281856462Y-180560073D01*
X281855772Y-180566636D01*
X281855772Y-180566637D01*
X281846481Y-180655035D01*
X281836500Y-180750000D01*
X281856462Y-180939927D01*
X281858502Y-180946205D01*
X281858502Y-180946206D01*
X281883771Y-181023976D01*
X281915476Y-181121554D01*
X281918779Y-181127276D01*
X281918780Y-181127277D01*
X281935940Y-181156998D01*
X282010963Y-181286942D01*
X282138749Y-181428863D01*
X282144091Y-181432744D01*
X282144093Y-181432746D01*
X282287908Y-181537233D01*
X282293250Y-181541114D01*
X282299278Y-181543798D01*
X282299280Y-181543799D01*
X282304224Y-181546000D01*
X282467713Y-181618790D01*
X282561113Y-181638643D01*
X282648056Y-181657124D01*
X282648061Y-181657124D01*
X282654513Y-181658496D01*
X282707573Y-181658496D01*
X282775694Y-181678498D01*
X282796668Y-181695401D01*
X286195130Y-185093863D01*
X286202441Y-185101896D01*
X286206486Y-185108270D01*
X286255119Y-185153939D01*
X286257961Y-185156694D01*
X286278621Y-185177354D01*
X286281747Y-185179779D01*
X286281754Y-185179785D01*
X286282156Y-185180096D01*
X286291183Y-185187806D01*
X286323524Y-185218175D01*
X286341354Y-185227977D01*
X286357876Y-185238830D01*
X286373959Y-185251306D01*
X286414682Y-185268928D01*
X286425330Y-185274144D01*
X286464216Y-185295522D01*
X286471889Y-185297492D01*
X286471899Y-185297496D01*
X286483927Y-185300584D01*
X286502631Y-185306987D01*
X286514036Y-185311922D01*
X286514039Y-185311923D01*
X286521307Y-185315068D01*
X286529128Y-185316307D01*
X286529129Y-185316307D01*
X286565129Y-185322009D01*
X286576750Y-185324416D01*
X286613968Y-185333972D01*
X286613977Y-185333973D01*
X286619724Y-185335449D01*
X286620535Y-185335500D01*
X286640390Y-185335500D01*
X286660102Y-185337051D01*
X286679882Y-185340184D01*
X286687774Y-185339438D01*
X286723520Y-185336059D01*
X286735378Y-185335500D01*
X287643607Y-185335500D01*
X287711728Y-185355502D01*
X287728911Y-185370109D01*
X287729425Y-185369538D01*
X287734327Y-185373952D01*
X287738749Y-185378863D01*
X287744091Y-185382744D01*
X287744093Y-185382746D01*
X287887908Y-185487233D01*
X287893250Y-185491114D01*
X287899278Y-185493798D01*
X287899280Y-185493799D01*
X288061682Y-185566105D01*
X288067713Y-185568790D01*
X288161113Y-185588643D01*
X288248056Y-185607124D01*
X288248061Y-185607124D01*
X288254513Y-185608496D01*
X288445487Y-185608496D01*
X288451939Y-185607124D01*
X288451944Y-185607124D01*
X288538887Y-185588643D01*
X288632287Y-185568790D01*
X288638318Y-185566105D01*
X288800720Y-185493799D01*
X288800722Y-185493798D01*
X288806750Y-185491114D01*
X288812092Y-185487233D01*
X288955907Y-185382746D01*
X288955909Y-185382744D01*
X288961251Y-185378863D01*
X289011606Y-185322938D01*
X289084618Y-185241850D01*
X289084619Y-185241849D01*
X289089037Y-185236942D01*
X289184524Y-185071554D01*
X289243538Y-184889927D01*
X289263500Y-184700000D01*
X289243538Y-184510073D01*
X289184524Y-184328446D01*
X289089037Y-184163058D01*
X288961251Y-184021137D01*
X288955909Y-184017256D01*
X288955907Y-184017254D01*
X288812092Y-183912767D01*
X288812091Y-183912766D01*
X288806750Y-183908886D01*
X288800722Y-183906202D01*
X288800720Y-183906201D01*
X288638318Y-183833895D01*
X288638317Y-183833895D01*
X288632287Y-183831210D01*
X288538887Y-183811357D01*
X288451944Y-183792876D01*
X288451939Y-183792876D01*
X288445487Y-183791504D01*
X288254513Y-183791504D01*
X288248061Y-183792876D01*
X288248056Y-183792876D01*
X288161113Y-183811357D01*
X288067713Y-183831210D01*
X288061683Y-183833895D01*
X288061682Y-183833895D01*
X287899280Y-183906201D01*
X287899278Y-183906202D01*
X287893250Y-183908886D01*
X287887909Y-183912766D01*
X287887908Y-183912767D01*
X287744093Y-184017254D01*
X287744091Y-184017256D01*
X287738749Y-184021137D01*
X287734328Y-184026047D01*
X287729425Y-184030462D01*
X287727781Y-184028637D01*
X287676812Y-184060046D01*
X287643607Y-184064500D01*
X287015423Y-184064500D01*
X286947302Y-184044498D01*
X286926328Y-184027595D01*
X284372328Y-181473595D01*
X284338302Y-181411283D01*
X284343367Y-181340468D01*
X284385914Y-181283632D01*
X284452434Y-181258821D01*
X284461423Y-181258500D01*
X284595077Y-181258500D01*
X284663198Y-181278502D01*
X284684172Y-181295405D01*
X285595130Y-182206363D01*
X285602441Y-182214396D01*
X285606486Y-182220770D01*
X285655119Y-182266439D01*
X285657961Y-182269194D01*
X285678621Y-182289854D01*
X285681747Y-182292279D01*
X285681754Y-182292285D01*
X285682156Y-182292596D01*
X285691183Y-182300306D01*
X285723524Y-182330675D01*
X285741354Y-182340477D01*
X285757876Y-182351330D01*
X285773959Y-182363806D01*
X285814682Y-182381428D01*
X285825330Y-182386644D01*
X285864216Y-182408022D01*
X285871889Y-182409992D01*
X285871899Y-182409996D01*
X285883927Y-182413084D01*
X285902631Y-182419487D01*
X285914036Y-182424422D01*
X285914039Y-182424423D01*
X285921307Y-182427568D01*
X285929128Y-182428807D01*
X285929129Y-182428807D01*
X285965129Y-182434509D01*
X285976750Y-182436916D01*
X286013968Y-182446472D01*
X286013977Y-182446473D01*
X286019724Y-182447949D01*
X286020535Y-182448000D01*
X286040390Y-182448000D01*
X286060102Y-182449551D01*
X286079882Y-182452684D01*
X286087774Y-182451938D01*
X286123520Y-182448559D01*
X286135378Y-182448000D01*
X294745498Y-182448000D01*
X294813619Y-182468002D01*
X294850869Y-182504914D01*
X294939269Y-182639747D01*
X295067645Y-182761358D01*
X295220555Y-182850175D01*
X295227562Y-182852297D01*
X295227566Y-182852299D01*
X295275023Y-182866672D01*
X295334421Y-182905561D01*
X295363365Y-182970390D01*
X295364500Y-182987262D01*
X295364500Y-183874702D01*
X295344498Y-183942823D01*
X295332136Y-183959012D01*
X295260963Y-184038058D01*
X295165476Y-184203446D01*
X295106462Y-184385073D01*
X295086500Y-184575000D01*
X295106462Y-184764927D01*
X295165476Y-184946554D01*
X295260963Y-185111942D01*
X295265381Y-185116849D01*
X295265382Y-185116850D01*
X295384327Y-185248952D01*
X295388749Y-185253863D01*
X295394091Y-185257744D01*
X295394093Y-185257746D01*
X295506533Y-185339438D01*
X295543250Y-185366114D01*
X295549278Y-185368798D01*
X295549280Y-185368799D01*
X295711682Y-185441105D01*
X295717713Y-185443790D01*
X295811113Y-185463643D01*
X295898056Y-185482124D01*
X295898061Y-185482124D01*
X295904513Y-185483496D01*
X296095487Y-185483496D01*
X296101939Y-185482124D01*
X296101944Y-185482124D01*
X296188887Y-185463643D01*
X296282287Y-185443790D01*
X296288318Y-185441105D01*
X296450720Y-185368799D01*
X296450722Y-185368798D01*
X296456750Y-185366114D01*
X296493467Y-185339438D01*
X296605907Y-185257746D01*
X296605909Y-185257744D01*
X296611251Y-185253863D01*
X296615673Y-185248952D01*
X296734618Y-185116850D01*
X296734619Y-185116849D01*
X296739037Y-185111942D01*
X296834524Y-184946554D01*
X296893538Y-184764927D01*
X296913500Y-184575000D01*
X296893538Y-184385073D01*
X296834524Y-184203446D01*
X296739037Y-184038058D01*
X296667864Y-183959012D01*
X296637146Y-183895005D01*
X296635500Y-183874702D01*
X296635500Y-182986827D01*
X296655502Y-182918706D01*
X296709158Y-182872213D01*
X296718509Y-182868388D01*
X296809985Y-182835184D01*
X296816864Y-182832687D01*
X296933337Y-182756324D01*
X296958628Y-182739743D01*
X296958629Y-182739742D01*
X296964747Y-182735731D01*
X297086358Y-182607355D01*
X297149752Y-182498214D01*
X297201261Y-182449356D01*
X297258705Y-182435500D01*
X297738173Y-182435500D01*
X297806294Y-182455502D01*
X297852787Y-182509158D01*
X297856612Y-182518509D01*
X297876118Y-182572246D01*
X297892313Y-182616864D01*
X297903304Y-182633628D01*
X297983747Y-182756324D01*
X297989269Y-182764747D01*
X298117645Y-182886358D01*
X298270555Y-182975175D01*
X298439796Y-183026433D01*
X298446236Y-183027008D01*
X298446237Y-183027008D01*
X298516185Y-183033251D01*
X298516191Y-183033251D01*
X298518978Y-183033500D01*
X299292886Y-183033500D01*
X299388106Y-183022398D01*
X299418371Y-183018870D01*
X299418372Y-183018870D01*
X299425643Y-183018022D01*
X299432521Y-183015526D01*
X299432523Y-183015525D01*
X299584985Y-182960184D01*
X299591864Y-182957687D01*
X299708337Y-182881324D01*
X299733628Y-182864743D01*
X299733629Y-182864742D01*
X299739747Y-182860731D01*
X299744778Y-182855420D01*
X299744783Y-182855416D01*
X299859550Y-182734264D01*
X299920919Y-182698565D01*
X299991846Y-182701712D01*
X300049811Y-182742706D01*
X300056394Y-182751829D01*
X300060641Y-182758307D01*
X300069965Y-182769458D01*
X300187629Y-182880922D01*
X300199276Y-182889635D01*
X300339429Y-182971043D01*
X300352754Y-182976837D01*
X300508700Y-183024068D01*
X300521323Y-183026516D01*
X300591184Y-183032751D01*
X300596779Y-183033000D01*
X300715385Y-183033000D01*
X300730624Y-183028525D01*
X300731829Y-183027135D01*
X300733500Y-183019452D01*
X300733500Y-182067548D01*
X301241500Y-182067548D01*
X301241500Y-183014885D01*
X301245975Y-183030124D01*
X301247365Y-183031329D01*
X301255048Y-183033000D01*
X301364223Y-183033000D01*
X301371524Y-183032576D01*
X301493255Y-183018383D01*
X301507410Y-183015037D01*
X301659761Y-182959737D01*
X301672760Y-182953227D01*
X301808306Y-182864359D01*
X301819458Y-182855035D01*
X301930922Y-182737371D01*
X301939635Y-182725724D01*
X302021043Y-182585571D01*
X302026837Y-182572246D01*
X302074068Y-182416300D01*
X302076516Y-182403677D01*
X302082751Y-182333816D01*
X302083000Y-182328221D01*
X302083000Y-182072115D01*
X302078525Y-182056876D01*
X302077135Y-182055671D01*
X302069452Y-182054000D01*
X301259615Y-182054000D01*
X301244376Y-182058475D01*
X301243171Y-182059865D01*
X301241500Y-182067548D01*
X300733500Y-182067548D01*
X300733500Y-180862741D01*
X300749084Y-180802042D01*
X300754204Y-180792729D01*
X300758022Y-180785784D01*
X300763081Y-180766079D01*
X300769486Y-180747370D01*
X300774421Y-180735967D01*
X300774422Y-180735964D01*
X300777568Y-180728694D01*
X300779500Y-180716500D01*
X300784509Y-180684872D01*
X300786916Y-180673251D01*
X300796471Y-180636032D01*
X300797949Y-180630276D01*
X300798000Y-180629465D01*
X300798000Y-180609604D01*
X300799551Y-180589894D01*
X300801031Y-180580548D01*
X301241500Y-180580548D01*
X301241500Y-181527885D01*
X301245975Y-181543124D01*
X301247365Y-181544329D01*
X301255048Y-181546000D01*
X302064885Y-181546000D01*
X302080124Y-181541525D01*
X302081329Y-181540135D01*
X302083000Y-181532452D01*
X302083000Y-181285777D01*
X302082576Y-181278476D01*
X302068383Y-181156745D01*
X302065037Y-181142590D01*
X302009737Y-180990239D01*
X302003227Y-180977240D01*
X301914359Y-180841694D01*
X301905035Y-180830542D01*
X301787371Y-180719078D01*
X301775724Y-180710365D01*
X301635571Y-180628957D01*
X301622246Y-180623163D01*
X301466300Y-180575932D01*
X301453677Y-180573484D01*
X301383816Y-180567249D01*
X301378221Y-180567000D01*
X301259615Y-180567000D01*
X301244376Y-180571475D01*
X301243171Y-180572865D01*
X301241500Y-180580548D01*
X300801031Y-180580548D01*
X300801443Y-180577948D01*
X300802683Y-180570119D01*
X300798559Y-180526488D01*
X300798000Y-180514631D01*
X300798000Y-180179502D01*
X300818002Y-180111381D01*
X300854914Y-180074131D01*
X300972002Y-179997365D01*
X300983628Y-179989743D01*
X300983629Y-179989742D01*
X300989747Y-179985731D01*
X301111358Y-179857355D01*
X301200175Y-179704445D01*
X301245911Y-179553436D01*
X301249558Y-179541395D01*
X301249558Y-179541394D01*
X301251433Y-179535204D01*
X301254265Y-179503476D01*
X301258251Y-179458815D01*
X301258251Y-179458809D01*
X301258500Y-179456022D01*
X301258500Y-179250000D01*
X302006500Y-179250000D01*
X302026462Y-179439927D01*
X302028502Y-179446205D01*
X302028502Y-179446206D01*
X302036218Y-179469952D01*
X302085476Y-179621554D01*
X302180963Y-179786942D01*
X302185381Y-179791849D01*
X302185382Y-179791850D01*
X302268260Y-179883895D01*
X302308749Y-179928863D01*
X302314091Y-179932744D01*
X302314093Y-179932746D01*
X302457908Y-180037233D01*
X302463250Y-180041114D01*
X302469278Y-180043798D01*
X302469280Y-180043799D01*
X302595903Y-180100175D01*
X302637713Y-180118790D01*
X302731113Y-180138643D01*
X302818056Y-180157124D01*
X302818061Y-180157124D01*
X302824513Y-180158496D01*
X303015487Y-180158496D01*
X303021939Y-180157124D01*
X303021944Y-180157124D01*
X303108887Y-180138643D01*
X303202287Y-180118790D01*
X303244097Y-180100175D01*
X303370720Y-180043799D01*
X303370722Y-180043798D01*
X303376750Y-180041114D01*
X303382092Y-180037233D01*
X303525907Y-179932746D01*
X303525909Y-179932744D01*
X303531251Y-179928863D01*
X303571740Y-179883895D01*
X303654618Y-179791850D01*
X303654619Y-179791849D01*
X303659037Y-179786942D01*
X303754524Y-179621554D01*
X303803782Y-179469952D01*
X303811498Y-179446206D01*
X303811498Y-179446205D01*
X303813538Y-179439927D01*
X303833500Y-179250000D01*
X303832368Y-179239225D01*
X303814228Y-179066637D01*
X303814228Y-179066636D01*
X303813538Y-179060073D01*
X303782410Y-178964269D01*
X303756566Y-178884731D01*
X303754524Y-178878446D01*
X303750672Y-178871773D01*
X303704326Y-178791500D01*
X303659037Y-178713058D01*
X303608218Y-178656617D01*
X303535673Y-178576048D01*
X303535672Y-178576047D01*
X303531251Y-178571137D01*
X303525909Y-178567256D01*
X303525907Y-178567254D01*
X303382092Y-178462767D01*
X303382091Y-178462766D01*
X303376750Y-178458886D01*
X303370722Y-178456202D01*
X303370720Y-178456201D01*
X303208318Y-178383895D01*
X303208317Y-178383895D01*
X303202287Y-178381210D01*
X303108887Y-178361357D01*
X303021944Y-178342876D01*
X303021939Y-178342876D01*
X303015487Y-178341504D01*
X302824513Y-178341504D01*
X302818061Y-178342876D01*
X302818056Y-178342876D01*
X302731113Y-178361357D01*
X302637713Y-178381210D01*
X302631683Y-178383895D01*
X302631682Y-178383895D01*
X302469280Y-178456201D01*
X302469278Y-178456202D01*
X302463250Y-178458886D01*
X302457909Y-178462766D01*
X302457908Y-178462767D01*
X302314093Y-178567254D01*
X302314091Y-178567256D01*
X302308749Y-178571137D01*
X302304328Y-178576047D01*
X302304327Y-178576048D01*
X302231783Y-178656617D01*
X302180963Y-178713058D01*
X302135674Y-178791500D01*
X302089329Y-178871773D01*
X302085476Y-178878446D01*
X302083434Y-178884731D01*
X302057591Y-178964269D01*
X302026462Y-179060073D01*
X302025772Y-179066636D01*
X302025772Y-179066637D01*
X302007632Y-179239225D01*
X302006500Y-179250000D01*
X301258500Y-179250000D01*
X301258500Y-178407114D01*
X301243022Y-178274357D01*
X301198883Y-178152754D01*
X301185184Y-178115015D01*
X301182687Y-178108136D01*
X301106968Y-177992645D01*
X301089743Y-177966372D01*
X301089742Y-177966371D01*
X301085731Y-177960253D01*
X301080420Y-177955222D01*
X301080416Y-177955217D01*
X301007808Y-177886436D01*
X300972109Y-177825068D01*
X300975256Y-177754141D01*
X301005365Y-177705868D01*
X304306363Y-174404870D01*
X304314396Y-174397559D01*
X304320770Y-174393514D01*
X304366440Y-174344880D01*
X304369194Y-174342039D01*
X304389854Y-174321379D01*
X304392279Y-174318253D01*
X304392285Y-174318246D01*
X304392596Y-174317844D01*
X304400307Y-174308815D01*
X304425251Y-174282252D01*
X304430675Y-174276476D01*
X304440477Y-174258646D01*
X304451331Y-174242123D01*
X304463806Y-174226041D01*
X304481430Y-174185315D01*
X304486646Y-174174668D01*
X304508022Y-174135784D01*
X304513081Y-174116079D01*
X304519486Y-174097370D01*
X304524421Y-174085967D01*
X304524422Y-174085964D01*
X304527568Y-174078694D01*
X304534509Y-174034872D01*
X304536916Y-174023251D01*
X304546471Y-173986032D01*
X304547949Y-173980276D01*
X304548000Y-173979465D01*
X304548000Y-173959604D01*
X304549551Y-173939894D01*
X304551443Y-173927948D01*
X304552683Y-173920119D01*
X304548559Y-173876488D01*
X304548000Y-173864631D01*
X304548000Y-164002923D01*
X304568002Y-163934802D01*
X304584905Y-163913828D01*
X305613828Y-162884905D01*
X305676140Y-162850879D01*
X305702923Y-162848000D01*
X311371512Y-162848000D01*
X311382355Y-162848511D01*
X311389723Y-162850158D01*
X311397648Y-162849909D01*
X311397649Y-162849909D01*
X311440877Y-162848550D01*
X311456408Y-162848062D01*
X311460364Y-162848000D01*
X311489580Y-162848000D01*
X311494016Y-162847439D01*
X311505851Y-162846507D01*
X311550196Y-162845114D01*
X311569746Y-162839434D01*
X311589079Y-162835431D01*
X311609286Y-162832878D01*
X311616658Y-162829959D01*
X311616663Y-162829958D01*
X311650541Y-162816545D01*
X311661768Y-162812701D01*
X311696756Y-162802535D01*
X311704373Y-162800322D01*
X311721893Y-162789961D01*
X311739640Y-162781266D01*
X311758563Y-162773774D01*
X311794451Y-162747700D01*
X311804373Y-162741182D01*
X311837449Y-162721622D01*
X311837458Y-162721615D01*
X311842567Y-162718594D01*
X311843176Y-162718057D01*
X311857218Y-162704015D01*
X311872252Y-162691174D01*
X311882038Y-162684064D01*
X311888452Y-162679404D01*
X311916390Y-162645633D01*
X311924379Y-162636854D01*
X315438466Y-159122767D01*
X315500778Y-159088741D01*
X315571593Y-159093806D01*
X315628429Y-159136353D01*
X315652713Y-159197272D01*
X315656281Y-159227879D01*
X315659626Y-159242032D01*
X315713940Y-159391664D01*
X315720450Y-159404663D01*
X315807731Y-159537788D01*
X315817055Y-159548940D01*
X315932617Y-159658413D01*
X315944264Y-159667126D01*
X316081910Y-159747078D01*
X316095247Y-159752877D01*
X316248407Y-159799264D01*
X316261039Y-159801714D01*
X316328682Y-159807751D01*
X316334277Y-159808000D01*
X316352885Y-159808000D01*
X316368124Y-159803525D01*
X316369329Y-159802135D01*
X316371000Y-159794452D01*
X316371000Y-159030048D01*
X316879000Y-159030048D01*
X316879000Y-159789885D01*
X316883475Y-159805124D01*
X316884865Y-159806329D01*
X316892548Y-159808000D01*
X316901723Y-159808000D01*
X316909027Y-159807575D01*
X317027880Y-159793719D01*
X317042032Y-159790374D01*
X317191664Y-159736060D01*
X317204663Y-159729550D01*
X317337788Y-159642269D01*
X317348940Y-159632945D01*
X317458413Y-159517383D01*
X317467126Y-159505736D01*
X317547078Y-159368090D01*
X317552749Y-159355048D01*
X319667000Y-159355048D01*
X319667000Y-159464223D01*
X319667424Y-159471524D01*
X319681617Y-159593255D01*
X319684963Y-159607410D01*
X319740263Y-159759761D01*
X319746773Y-159772760D01*
X319835641Y-159908306D01*
X319844965Y-159919458D01*
X319962629Y-160030922D01*
X319974276Y-160039635D01*
X320114429Y-160121043D01*
X320127754Y-160126837D01*
X320283700Y-160174068D01*
X320296323Y-160176516D01*
X320366184Y-160182751D01*
X320371779Y-160183000D01*
X320627885Y-160183000D01*
X320643124Y-160178525D01*
X320644329Y-160177135D01*
X320646000Y-160169452D01*
X320646000Y-159359615D01*
X320644659Y-159355048D01*
X321154000Y-159355048D01*
X321154000Y-160164885D01*
X321158475Y-160180124D01*
X321159865Y-160181329D01*
X321167548Y-160183000D01*
X321414223Y-160183000D01*
X321421524Y-160182576D01*
X321543255Y-160168383D01*
X321557410Y-160165037D01*
X321709761Y-160109737D01*
X321722760Y-160103227D01*
X321858306Y-160014359D01*
X321869458Y-160005035D01*
X321980922Y-159887371D01*
X321989635Y-159875724D01*
X322071043Y-159735571D01*
X322076837Y-159722246D01*
X322123690Y-159567548D01*
X324562000Y-159567548D01*
X324562000Y-160047743D01*
X324562161Y-160052250D01*
X324566740Y-160116269D01*
X324569126Y-160129491D01*
X324605819Y-160254458D01*
X324613233Y-160270692D01*
X324682426Y-160378360D01*
X324694112Y-160391847D01*
X324790840Y-160475662D01*
X324805848Y-160485307D01*
X324922275Y-160538477D01*
X324939388Y-160543502D01*
X325070554Y-160562361D01*
X325079495Y-160563000D01*
X325802885Y-160563000D01*
X325818124Y-160558525D01*
X325819329Y-160557135D01*
X325821000Y-160549452D01*
X325821000Y-159572115D01*
X325819659Y-159567548D01*
X326329000Y-159567548D01*
X326329000Y-160544885D01*
X326333475Y-160560124D01*
X326334865Y-160561329D01*
X326342548Y-160563000D01*
X327072743Y-160563000D01*
X327077250Y-160562839D01*
X327141269Y-160558260D01*
X327154491Y-160555874D01*
X327279458Y-160519181D01*
X327295692Y-160511767D01*
X327403360Y-160442574D01*
X327416847Y-160430888D01*
X327500662Y-160334160D01*
X327510307Y-160319152D01*
X327563477Y-160202725D01*
X327568502Y-160185612D01*
X327587361Y-160054446D01*
X327588000Y-160045503D01*
X327588000Y-159572115D01*
X327583525Y-159556876D01*
X327582135Y-159555671D01*
X327574452Y-159554000D01*
X326347115Y-159554000D01*
X326331876Y-159558475D01*
X326330671Y-159559865D01*
X326329000Y-159567548D01*
X325819659Y-159567548D01*
X325816525Y-159556876D01*
X325815135Y-159555671D01*
X325807452Y-159554000D01*
X324580115Y-159554000D01*
X324564876Y-159558475D01*
X324563671Y-159559865D01*
X324562000Y-159567548D01*
X322123690Y-159567548D01*
X322124068Y-159566300D01*
X322126516Y-159553677D01*
X322132751Y-159483816D01*
X322133000Y-159478221D01*
X322133000Y-159359615D01*
X322128525Y-159344376D01*
X322127135Y-159343171D01*
X322119452Y-159341500D01*
X321172115Y-159341500D01*
X321156876Y-159345975D01*
X321155671Y-159347365D01*
X321154000Y-159355048D01*
X320644659Y-159355048D01*
X320641525Y-159344376D01*
X320640135Y-159343171D01*
X320632452Y-159341500D01*
X319685115Y-159341500D01*
X319669876Y-159345975D01*
X319668671Y-159347365D01*
X319667000Y-159355048D01*
X317552749Y-159355048D01*
X317552877Y-159354753D01*
X317599264Y-159201593D01*
X317601714Y-159188961D01*
X317607751Y-159121318D01*
X317608000Y-159115723D01*
X317608000Y-159034615D01*
X317603525Y-159019376D01*
X317602135Y-159018171D01*
X317594452Y-159016500D01*
X316897115Y-159016500D01*
X316881876Y-159020975D01*
X316880671Y-159022365D01*
X316879000Y-159030048D01*
X316371000Y-159030048D01*
X316371000Y-158634500D01*
X316391002Y-158566379D01*
X316444658Y-158519886D01*
X316497000Y-158508500D01*
X317589885Y-158508500D01*
X317605124Y-158504025D01*
X317606329Y-158502635D01*
X317608000Y-158494952D01*
X317608000Y-158423277D01*
X317607575Y-158415973D01*
X317593719Y-158297120D01*
X317590374Y-158282968D01*
X317536060Y-158133336D01*
X317529550Y-158120337D01*
X317442273Y-157987217D01*
X317435577Y-157979209D01*
X317407226Y-157914119D01*
X317418566Y-157844034D01*
X317440767Y-157811733D01*
X317458813Y-157792683D01*
X317463849Y-157787367D01*
X317501124Y-157723194D01*
X317508373Y-157710714D01*
X317559884Y-157661856D01*
X317617327Y-157648000D01*
X319645498Y-157648000D01*
X319713619Y-157668002D01*
X319750869Y-157704914D01*
X319787968Y-157761500D01*
X319810616Y-157796043D01*
X319839269Y-157839747D01*
X319844580Y-157844778D01*
X319844584Y-157844783D01*
X319965736Y-157959550D01*
X320001435Y-158020919D01*
X319998288Y-158091846D01*
X319957294Y-158149811D01*
X319948171Y-158156394D01*
X319941693Y-158160641D01*
X319930542Y-158169965D01*
X319819078Y-158287629D01*
X319810365Y-158299276D01*
X319728957Y-158439429D01*
X319723163Y-158452754D01*
X319675932Y-158608700D01*
X319673484Y-158621323D01*
X319667249Y-158691184D01*
X319667000Y-158696779D01*
X319667000Y-158815385D01*
X319671475Y-158830624D01*
X319672865Y-158831829D01*
X319680548Y-158833500D01*
X322114885Y-158833500D01*
X322130124Y-158829025D01*
X322131329Y-158827635D01*
X322133000Y-158819952D01*
X322133000Y-158710777D01*
X322132576Y-158703476D01*
X322118383Y-158581745D01*
X322115037Y-158567590D01*
X322059737Y-158415239D01*
X322053227Y-158402240D01*
X321964359Y-158266694D01*
X321955035Y-158255542D01*
X321834207Y-158141081D01*
X321798509Y-158079712D01*
X321801656Y-158008785D01*
X321842650Y-157950819D01*
X321851774Y-157944237D01*
X321858625Y-157939745D01*
X321858626Y-157939744D01*
X321864747Y-157935731D01*
X321986358Y-157807355D01*
X322049752Y-157698214D01*
X322101261Y-157649356D01*
X322158705Y-157635500D01*
X324436001Y-157635500D01*
X324504122Y-157655502D01*
X324550615Y-157709158D01*
X324561679Y-157752509D01*
X324566727Y-157823079D01*
X324572449Y-157842566D01*
X324604235Y-157950819D01*
X324607904Y-157963316D01*
X324685143Y-158083500D01*
X324686183Y-158085119D01*
X324706185Y-158153239D01*
X324686183Y-158221360D01*
X324675410Y-158235752D01*
X324649338Y-158265840D01*
X324639693Y-158280848D01*
X324586523Y-158397275D01*
X324581498Y-158414388D01*
X324562639Y-158545554D01*
X324562000Y-158554495D01*
X324562000Y-159027885D01*
X324566475Y-159043124D01*
X324567865Y-159044329D01*
X324575548Y-159046000D01*
X327569885Y-159046000D01*
X327585124Y-159041525D01*
X327586329Y-159040135D01*
X327588000Y-159032452D01*
X327588000Y-158552257D01*
X327587839Y-158547750D01*
X327583260Y-158483731D01*
X327580874Y-158470509D01*
X327544181Y-158345542D01*
X327536767Y-158329308D01*
X327463758Y-158215703D01*
X327443756Y-158147583D01*
X327463758Y-158079462D01*
X327474532Y-158065070D01*
X327488421Y-158049042D01*
X327506984Y-158027619D01*
X327513024Y-158014393D01*
X327563958Y-157902864D01*
X327563958Y-157902863D01*
X327567700Y-157894670D01*
X327573213Y-157856329D01*
X327582363Y-157792683D01*
X327588500Y-157750000D01*
X327588913Y-157750059D01*
X327612810Y-157685990D01*
X327669646Y-157643444D01*
X327713678Y-157635500D01*
X330735500Y-157635500D01*
X330803621Y-157655502D01*
X330850114Y-157709158D01*
X330861500Y-157761500D01*
X330861500Y-158900000D01*
X330866727Y-158973079D01*
X330907904Y-159113316D01*
X330912775Y-159120895D01*
X330982051Y-159228691D01*
X330982053Y-159228694D01*
X330986923Y-159236271D01*
X330993733Y-159242172D01*
X331090569Y-159326082D01*
X331090572Y-159326084D01*
X331097381Y-159331984D01*
X331105579Y-159335728D01*
X331131061Y-159347365D01*
X331230330Y-159392700D01*
X331239245Y-159393982D01*
X331239246Y-159393982D01*
X331370552Y-159412861D01*
X331370559Y-159412862D01*
X331375000Y-159413500D01*
X333375000Y-159413500D01*
X333448079Y-159408273D01*
X333526165Y-159385345D01*
X333579670Y-159369635D01*
X333579672Y-159369634D01*
X333588316Y-159367096D01*
X333652135Y-159326082D01*
X333703691Y-159292949D01*
X333703694Y-159292947D01*
X333711271Y-159288077D01*
X333751048Y-159242172D01*
X333801082Y-159184431D01*
X333801084Y-159184428D01*
X333806984Y-159177619D01*
X333867700Y-159044670D01*
X333884014Y-158931201D01*
X333887861Y-158904448D01*
X333887862Y-158904441D01*
X333888500Y-158900000D01*
X333888500Y-155100000D01*
X333883273Y-155026921D01*
X333842096Y-154886684D01*
X333796393Y-154815569D01*
X333767949Y-154771309D01*
X333767947Y-154771306D01*
X333763077Y-154763729D01*
X333756267Y-154757828D01*
X333659431Y-154673918D01*
X333659428Y-154673916D01*
X333652619Y-154668016D01*
X333519670Y-154607300D01*
X333510755Y-154606018D01*
X333510754Y-154606018D01*
X333379448Y-154587139D01*
X333379441Y-154587138D01*
X333375000Y-154586500D01*
X331375000Y-154586500D01*
X331301921Y-154591727D01*
X331248884Y-154607300D01*
X331170330Y-154630365D01*
X331170328Y-154630366D01*
X331161684Y-154632904D01*
X331154105Y-154637775D01*
X331046309Y-154707051D01*
X331046306Y-154707053D01*
X331038729Y-154711923D01*
X331032828Y-154718733D01*
X330948918Y-154815569D01*
X330948916Y-154815572D01*
X330943016Y-154822381D01*
X330939272Y-154830579D01*
X330896534Y-154924163D01*
X330882300Y-154955330D01*
X330881018Y-154964245D01*
X330881018Y-154964246D01*
X330862139Y-155095552D01*
X330862138Y-155095559D01*
X330861500Y-155100000D01*
X330861500Y-156238500D01*
X330841498Y-156306621D01*
X330787842Y-156353114D01*
X330735500Y-156364500D01*
X327713999Y-156364500D01*
X327645878Y-156344498D01*
X327599385Y-156290842D01*
X327588320Y-156247489D01*
X327588182Y-156245550D01*
X327583273Y-156176921D01*
X327548932Y-156059965D01*
X327544635Y-156045330D01*
X327544634Y-156045328D01*
X327542096Y-156036684D01*
X327536091Y-156027339D01*
X327464096Y-155915314D01*
X327444094Y-155847193D01*
X327464096Y-155779072D01*
X327474870Y-155764680D01*
X327480529Y-155758150D01*
X327506984Y-155727619D01*
X327567700Y-155594670D01*
X327578963Y-155516332D01*
X327587861Y-155454448D01*
X327587862Y-155454441D01*
X327588500Y-155450000D01*
X327588500Y-153950000D01*
X327583273Y-153876921D01*
X327558481Y-153792488D01*
X327544635Y-153745330D01*
X327544634Y-153745328D01*
X327542096Y-153736684D01*
X327484911Y-153647703D01*
X327467949Y-153621309D01*
X327467947Y-153621306D01*
X327463077Y-153613729D01*
X327437424Y-153591500D01*
X327359431Y-153523918D01*
X327359428Y-153523916D01*
X327352619Y-153518016D01*
X327219670Y-153457300D01*
X327210755Y-153456018D01*
X327210754Y-153456018D01*
X327079448Y-153437139D01*
X327079441Y-153437138D01*
X327075000Y-153436500D01*
X325075000Y-153436500D01*
X325001921Y-153441727D01*
X324948884Y-153457300D01*
X324870330Y-153480365D01*
X324870328Y-153480366D01*
X324861684Y-153482904D01*
X324854105Y-153487775D01*
X324746309Y-153557051D01*
X324746306Y-153557053D01*
X324738729Y-153561923D01*
X324732828Y-153568733D01*
X324648918Y-153665569D01*
X324648916Y-153665572D01*
X324643016Y-153672381D01*
X324639272Y-153680579D01*
X324610457Y-153743676D01*
X324582300Y-153805330D01*
X324581018Y-153814247D01*
X324569705Y-153892931D01*
X324540212Y-153957512D01*
X324480485Y-153995896D01*
X324444987Y-154001000D01*
X308296065Y-154001000D01*
X308227944Y-153980998D01*
X308190693Y-153944084D01*
X308139746Y-153866376D01*
X308139743Y-153866373D01*
X308135731Y-153860253D01*
X308007355Y-153738642D01*
X307854445Y-153649825D01*
X307685204Y-153598567D01*
X307678764Y-153597992D01*
X307678763Y-153597992D01*
X307608815Y-153591749D01*
X307608809Y-153591749D01*
X307606022Y-153591500D01*
X306557114Y-153591500D01*
X306461894Y-153602602D01*
X306431629Y-153606130D01*
X306431628Y-153606130D01*
X306424357Y-153606978D01*
X306417479Y-153609474D01*
X306417477Y-153609475D01*
X306312161Y-153647703D01*
X306258136Y-153667313D01*
X306163887Y-153729105D01*
X306143077Y-153742749D01*
X306110253Y-153764269D01*
X305988642Y-153892645D01*
X305968489Y-153927342D01*
X305962132Y-153938286D01*
X305910621Y-153987144D01*
X305853178Y-154001000D01*
X301083199Y-154001000D01*
X301082540Y-154000998D01*
X301022369Y-154000683D01*
X301022366Y-154000683D01*
X301019084Y-154000666D01*
X301017952Y-154000938D01*
X301016874Y-154001000D01*
X296903033Y-154001000D01*
X296834912Y-153980998D01*
X296788419Y-153927342D01*
X296778315Y-153857068D01*
X296807809Y-153792488D01*
X296844658Y-153763338D01*
X296869222Y-153750496D01*
X296879483Y-153743782D01*
X297023959Y-153627620D01*
X297032719Y-153619042D01*
X297151881Y-153477030D01*
X297158807Y-153466916D01*
X297248118Y-153304458D01*
X297252946Y-153293194D01*
X297309002Y-153116484D01*
X297311550Y-153104497D01*
X297327607Y-152961339D01*
X297328000Y-152954315D01*
X297328000Y-152872115D01*
X297323525Y-152856876D01*
X297322135Y-152855671D01*
X297314452Y-152854000D01*
X295330115Y-152854000D01*
X295314876Y-152858475D01*
X295313671Y-152859865D01*
X295312000Y-152867548D01*
X295312000Y-152947912D01*
X295312301Y-152954060D01*
X295325691Y-153090626D01*
X295328074Y-153102661D01*
X295381654Y-153280124D01*
X295386329Y-153291466D01*
X295473357Y-153455144D01*
X295480144Y-153465360D01*
X295597310Y-153609019D01*
X295605954Y-153617723D01*
X295748788Y-153735886D01*
X295758963Y-153742749D01*
X295798570Y-153764164D01*
X295848979Y-153814158D01*
X295864357Y-153883470D01*
X295839821Y-153950092D01*
X295783162Y-153992873D01*
X295738642Y-154001000D01*
X288263033Y-154001000D01*
X288194912Y-153980998D01*
X288148419Y-153927342D01*
X288138315Y-153857068D01*
X288167809Y-153792488D01*
X288204658Y-153763338D01*
X288229222Y-153750496D01*
X288239483Y-153743782D01*
X288383959Y-153627620D01*
X288392719Y-153619042D01*
X288511881Y-153477030D01*
X288518807Y-153466916D01*
X288608118Y-153304458D01*
X288612946Y-153293194D01*
X288669002Y-153116484D01*
X288671550Y-153104497D01*
X288687607Y-152961339D01*
X288688000Y-152954315D01*
X288688000Y-152872115D01*
X288683525Y-152856876D01*
X288682135Y-152855671D01*
X288674452Y-152854000D01*
X286690115Y-152854000D01*
X286674876Y-152858475D01*
X286673671Y-152859865D01*
X286672000Y-152867548D01*
X286672000Y-152947912D01*
X286672301Y-152954060D01*
X286685691Y-153090626D01*
X286688074Y-153102661D01*
X286741654Y-153280124D01*
X286746329Y-153291466D01*
X286833357Y-153455144D01*
X286840144Y-153465360D01*
X286957310Y-153609019D01*
X286965954Y-153617723D01*
X287108788Y-153735886D01*
X287118963Y-153742749D01*
X287159907Y-153764887D01*
X287210316Y-153814882D01*
X287225694Y-153884193D01*
X287201158Y-153950815D01*
X287144498Y-153993596D01*
X287121643Y-153999847D01*
X287076109Y-154007794D01*
X287069591Y-154008755D01*
X287007072Y-154016321D01*
X286999970Y-154019005D01*
X286996503Y-154019856D01*
X286982434Y-154023705D01*
X286978999Y-154024742D01*
X286971522Y-154026047D01*
X286964572Y-154029098D01*
X286964568Y-154029099D01*
X286913846Y-154051364D01*
X286907741Y-154053855D01*
X286848840Y-154076113D01*
X286842580Y-154080415D01*
X286839405Y-154082075D01*
X286826658Y-154089170D01*
X286823594Y-154090982D01*
X286816635Y-154094037D01*
X286782359Y-154120338D01*
X286766676Y-154132372D01*
X286761339Y-154136250D01*
X286709436Y-154171922D01*
X286704386Y-154177590D01*
X286704385Y-154177591D01*
X286670108Y-154216063D01*
X286665126Y-154221339D01*
X285224575Y-155661889D01*
X285218310Y-155667743D01*
X285176826Y-155703932D01*
X285140602Y-155755473D01*
X285136696Y-155760733D01*
X285097823Y-155810309D01*
X285094696Y-155817234D01*
X285092844Y-155820293D01*
X285085622Y-155832955D01*
X285083932Y-155836106D01*
X285079562Y-155842324D01*
X285076802Y-155849403D01*
X285056682Y-155901008D01*
X285054127Y-155907086D01*
X285028215Y-155964475D01*
X285026831Y-155971942D01*
X285025760Y-155975359D01*
X285021760Y-155989402D01*
X285020876Y-155992846D01*
X285018117Y-155999922D01*
X285014275Y-156029104D01*
X285009896Y-156062366D01*
X285008864Y-156068880D01*
X285004101Y-156094581D01*
X284997389Y-156130796D01*
X284997826Y-156138376D01*
X284997826Y-156138377D01*
X285000791Y-156189792D01*
X285001000Y-156197046D01*
X285001000Y-157623367D01*
X285000708Y-157631936D01*
X284999102Y-157655502D01*
X284996965Y-157686845D01*
X284998270Y-157694322D01*
X284998270Y-157694324D01*
X285007793Y-157748887D01*
X285008755Y-157755409D01*
X285016321Y-157817928D01*
X285019005Y-157825030D01*
X285019856Y-157828497D01*
X285023705Y-157842566D01*
X285024742Y-157846001D01*
X285026047Y-157853478D01*
X285029098Y-157860428D01*
X285029099Y-157860432D01*
X285051364Y-157911154D01*
X285053855Y-157917258D01*
X285076113Y-157976160D01*
X285080415Y-157982420D01*
X285082075Y-157985595D01*
X285089170Y-157998342D01*
X285090982Y-158001406D01*
X285094037Y-158008365D01*
X285112700Y-158032687D01*
X285132372Y-158058324D01*
X285136250Y-158063661D01*
X285151790Y-158086271D01*
X285171922Y-158115564D01*
X285177590Y-158120614D01*
X285177591Y-158120615D01*
X285216063Y-158154892D01*
X285221339Y-158159874D01*
X287963762Y-160902297D01*
X287997788Y-160964609D01*
X287999976Y-160978217D01*
X288006462Y-161039927D01*
X288065476Y-161221554D01*
X288160963Y-161386942D01*
X288288749Y-161528863D01*
X288294091Y-161532744D01*
X288294093Y-161532746D01*
X288437908Y-161637233D01*
X288443250Y-161641114D01*
X288449278Y-161643798D01*
X288449280Y-161643799D01*
X288611682Y-161716105D01*
X288617713Y-161718790D01*
X288711113Y-161738643D01*
X288798056Y-161757124D01*
X288798061Y-161757124D01*
X288804513Y-161758496D01*
X288995487Y-161758496D01*
X289001939Y-161757124D01*
X289001944Y-161757124D01*
X289088887Y-161738643D01*
X289182287Y-161718790D01*
X289188318Y-161716105D01*
X289350720Y-161643799D01*
X289350722Y-161643798D01*
X289356750Y-161641114D01*
X289362092Y-161637233D01*
X289505907Y-161532746D01*
X289505909Y-161532744D01*
X289511251Y-161528863D01*
X289639037Y-161386942D01*
X289734524Y-161221554D01*
X289793538Y-161039927D01*
X289813500Y-160850000D01*
X289793538Y-160660073D01*
X289734524Y-160478446D01*
X289639037Y-160313058D01*
X289586274Y-160254458D01*
X289515673Y-160176048D01*
X289515672Y-160176047D01*
X289511251Y-160171137D01*
X289505909Y-160167256D01*
X289505907Y-160167254D01*
X289362092Y-160062767D01*
X289362091Y-160062766D01*
X289356750Y-160058886D01*
X289350722Y-160056202D01*
X289350720Y-160056201D01*
X289188318Y-159983895D01*
X289188317Y-159983895D01*
X289182287Y-159981210D01*
X289012376Y-159945094D01*
X288949478Y-159910942D01*
X287459021Y-158420485D01*
X287424995Y-158358173D01*
X287427952Y-158316826D01*
X287424832Y-158316580D01*
X287426000Y-158301773D01*
X287426000Y-157052115D01*
X287421525Y-157036876D01*
X287420135Y-157035671D01*
X287412452Y-157034000D01*
X286690115Y-157034000D01*
X286674876Y-157038475D01*
X286673671Y-157039865D01*
X286672000Y-157047548D01*
X286672000Y-157329274D01*
X286651998Y-157397395D01*
X286598342Y-157443888D01*
X286528068Y-157453992D01*
X286463488Y-157424498D01*
X286456905Y-157418369D01*
X286435905Y-157397369D01*
X286401879Y-157335057D01*
X286399000Y-157308274D01*
X286399000Y-156516725D01*
X286419002Y-156448604D01*
X286435905Y-156427630D01*
X286456905Y-156406630D01*
X286519217Y-156372604D01*
X286590032Y-156377669D01*
X286646868Y-156420216D01*
X286671679Y-156486736D01*
X286672000Y-156495725D01*
X286672000Y-156507885D01*
X286676475Y-156523124D01*
X286677865Y-156524329D01*
X286685548Y-156526000D01*
X287808000Y-156526000D01*
X287876121Y-156546002D01*
X287922614Y-156599658D01*
X287934000Y-156652000D01*
X287934000Y-158288052D01*
X287937973Y-158301583D01*
X287945768Y-158302703D01*
X288053557Y-158270979D01*
X288064941Y-158266380D01*
X288229222Y-158180496D01*
X288239483Y-158173782D01*
X288383959Y-158057620D01*
X288392719Y-158049042D01*
X288511881Y-157907030D01*
X288518807Y-157896916D01*
X288608118Y-157734458D01*
X288612946Y-157723194D01*
X288669002Y-157546484D01*
X288671550Y-157534497D01*
X288687607Y-157391339D01*
X288688000Y-157384315D01*
X288688000Y-157163515D01*
X288708002Y-157095394D01*
X288761658Y-157048901D01*
X288831932Y-157038797D01*
X288848307Y-157042276D01*
X288963596Y-157074900D01*
X288963601Y-157074901D01*
X288970164Y-157076758D01*
X288976973Y-157077163D01*
X288976976Y-157077163D01*
X289113982Y-157085302D01*
X289150961Y-157087499D01*
X289235558Y-157074100D01*
X289323112Y-157060233D01*
X289323116Y-157060232D01*
X289329846Y-157059166D01*
X289336192Y-157056679D01*
X289336196Y-157056678D01*
X289492119Y-156995573D01*
X289492123Y-156995571D01*
X289498474Y-156993082D01*
X289648977Y-156892328D01*
X289710251Y-156828433D01*
X289769608Y-156766537D01*
X289769611Y-156766533D01*
X289774335Y-156761607D01*
X289868697Y-156607016D01*
X289892673Y-156537386D01*
X289925440Y-156442225D01*
X289925441Y-156442222D01*
X289927663Y-156435768D01*
X289929463Y-156420216D01*
X289936828Y-156356556D01*
X289948480Y-156255854D01*
X289948500Y-156250000D01*
X289928940Y-156069944D01*
X289925582Y-156059965D01*
X289873349Y-155904759D01*
X289873347Y-155904754D01*
X289871171Y-155898289D01*
X289777890Y-155743044D01*
X289653565Y-155611572D01*
X289621294Y-155548335D01*
X289628334Y-155477688D01*
X289672451Y-155422063D01*
X289745114Y-155399000D01*
X294261232Y-155399000D01*
X294329353Y-155419002D01*
X294375846Y-155472658D01*
X294385950Y-155542932D01*
X294356456Y-155607512D01*
X294342562Y-155621236D01*
X294282782Y-155671754D01*
X294278639Y-155677173D01*
X294278637Y-155677175D01*
X294195227Y-155786271D01*
X294172777Y-155815634D01*
X294169894Y-155821817D01*
X294169892Y-155821820D01*
X294102861Y-155965570D01*
X294096235Y-155979780D01*
X294094749Y-155986428D01*
X294094748Y-155986431D01*
X294077775Y-156062366D01*
X294056726Y-156156533D01*
X294056702Y-156163356D01*
X294056702Y-156163357D01*
X294056425Y-156242590D01*
X294056093Y-156337647D01*
X294057536Y-156344319D01*
X294057536Y-156344323D01*
X294092065Y-156504025D01*
X294094367Y-156514672D01*
X294169762Y-156679348D01*
X294278760Y-156823993D01*
X294283939Y-156828432D01*
X294283940Y-156828433D01*
X294362918Y-156896125D01*
X294416275Y-156941858D01*
X294422290Y-156945083D01*
X294422294Y-156945086D01*
X294569877Y-157024219D01*
X294575892Y-157027444D01*
X294663028Y-157052101D01*
X294743596Y-157074900D01*
X294743601Y-157074901D01*
X294750164Y-157076758D01*
X294756973Y-157077163D01*
X294756976Y-157077163D01*
X294893982Y-157085302D01*
X294930961Y-157087499D01*
X295015558Y-157074100D01*
X295103112Y-157060233D01*
X295103116Y-157060232D01*
X295109846Y-157059166D01*
X295140028Y-157047338D01*
X295210749Y-157041107D01*
X295273614Y-157074100D01*
X295308662Y-157135842D01*
X295312000Y-157164652D01*
X295312000Y-157377912D01*
X295312301Y-157384060D01*
X295325691Y-157520626D01*
X295328074Y-157532661D01*
X295381654Y-157710124D01*
X295386329Y-157721466D01*
X295473357Y-157885144D01*
X295480144Y-157895360D01*
X295597310Y-158039019D01*
X295605954Y-158047723D01*
X295748788Y-158165886D01*
X295758959Y-158172746D01*
X295922031Y-158260918D01*
X295933330Y-158265668D01*
X296048693Y-158301380D01*
X296062795Y-158301586D01*
X296066000Y-158294830D01*
X296066000Y-156652000D01*
X296086002Y-156583879D01*
X296139658Y-156537386D01*
X296192000Y-156526000D01*
X297309885Y-156526000D01*
X297325124Y-156521525D01*
X297326329Y-156520135D01*
X297328000Y-156512452D01*
X297328000Y-156182088D01*
X297327699Y-156175940D01*
X297314309Y-156039374D01*
X297311926Y-156027339D01*
X297258346Y-155849876D01*
X297253671Y-155838534D01*
X297166643Y-155674856D01*
X297159856Y-155664640D01*
X297110917Y-155604636D01*
X297083363Y-155539204D01*
X297095558Y-155469263D01*
X297143631Y-155417018D01*
X297208560Y-155399000D01*
X299158275Y-155399000D01*
X299226396Y-155419002D01*
X299272889Y-155472658D01*
X299282993Y-155542932D01*
X299253499Y-155607512D01*
X299247370Y-155614095D01*
X297543095Y-157318370D01*
X297480783Y-157352396D01*
X297409968Y-157347331D01*
X297353132Y-157304784D01*
X297328321Y-157238264D01*
X297328000Y-157229275D01*
X297328000Y-157052115D01*
X297323525Y-157036876D01*
X297322135Y-157035671D01*
X297314452Y-157034000D01*
X296592115Y-157034000D01*
X296576876Y-157038475D01*
X296575671Y-157039865D01*
X296574000Y-157047548D01*
X296574000Y-158235274D01*
X296553998Y-158303395D01*
X296537095Y-158324369D01*
X295025522Y-159835942D01*
X294962624Y-159870094D01*
X294792713Y-159906210D01*
X294786683Y-159908895D01*
X294786682Y-159908895D01*
X294624280Y-159981201D01*
X294624278Y-159981202D01*
X294618250Y-159983886D01*
X294612909Y-159987766D01*
X294612908Y-159987767D01*
X294469093Y-160092254D01*
X294469091Y-160092256D01*
X294463749Y-160096137D01*
X294459328Y-160101047D01*
X294459327Y-160101048D01*
X294383186Y-160185612D01*
X294335963Y-160238058D01*
X294240476Y-160403446D01*
X294238434Y-160409731D01*
X294188842Y-160562361D01*
X294181462Y-160585073D01*
X294180772Y-160591636D01*
X294180772Y-160591637D01*
X294174270Y-160653498D01*
X294161500Y-160775000D01*
X294181462Y-160964927D01*
X294240476Y-161146554D01*
X294243779Y-161152276D01*
X294243780Y-161152277D01*
X294252237Y-161166924D01*
X294335963Y-161311942D01*
X294385260Y-161366692D01*
X294415976Y-161430698D01*
X294407211Y-161501151D01*
X294361748Y-161555682D01*
X294291622Y-161577000D01*
X293427570Y-161577000D01*
X293359449Y-161556998D01*
X293322198Y-161520085D01*
X293288681Y-161468964D01*
X293263641Y-161430771D01*
X293137367Y-161311151D01*
X293016576Y-161240990D01*
X292993290Y-161227464D01*
X292993289Y-161227463D01*
X292986961Y-161223788D01*
X292979957Y-161221667D01*
X292979953Y-161221665D01*
X292856057Y-161184141D01*
X292820491Y-161173369D01*
X292814052Y-161172794D01*
X292814050Y-161172794D01*
X292746318Y-161166749D01*
X292746312Y-161166749D01*
X292743525Y-161166500D01*
X292169615Y-161166500D01*
X292165981Y-161166924D01*
X292165976Y-161166924D01*
X292047006Y-161180795D01*
X292039733Y-161181643D01*
X291876233Y-161240990D01*
X291730771Y-161336359D01*
X291611151Y-161462633D01*
X291523788Y-161613039D01*
X291521667Y-161620043D01*
X291521665Y-161620047D01*
X291490166Y-161724051D01*
X291473369Y-161779509D01*
X291466500Y-161856475D01*
X291466500Y-162245077D01*
X291446498Y-162313198D01*
X291429595Y-162334172D01*
X288323672Y-165440095D01*
X288261360Y-165474121D01*
X288234577Y-165477000D01*
X287254502Y-165477000D01*
X287186381Y-165456998D01*
X287149130Y-165420085D01*
X287064743Y-165291372D01*
X287064742Y-165291371D01*
X287060731Y-165285253D01*
X286932355Y-165163642D01*
X286779445Y-165074825D01*
X286772438Y-165072703D01*
X286772434Y-165072701D01*
X286724977Y-165058328D01*
X286665579Y-165019439D01*
X286636635Y-164954610D01*
X286635500Y-164937738D01*
X286635500Y-164500298D01*
X286655502Y-164432177D01*
X286667864Y-164415988D01*
X286734618Y-164341850D01*
X286734619Y-164341849D01*
X286739037Y-164336942D01*
X286810195Y-164213693D01*
X286831220Y-164177277D01*
X286831221Y-164177276D01*
X286834524Y-164171554D01*
X286859043Y-164096093D01*
X286891498Y-163996206D01*
X286891498Y-163996205D01*
X286893538Y-163989927D01*
X286897658Y-163950733D01*
X286912810Y-163806565D01*
X286913500Y-163800000D01*
X286902452Y-163694886D01*
X286894228Y-163616637D01*
X286894228Y-163616636D01*
X286893538Y-163610073D01*
X286834524Y-163428446D01*
X286739037Y-163263058D01*
X286721920Y-163244047D01*
X286615673Y-163126048D01*
X286615672Y-163126047D01*
X286611251Y-163121137D01*
X286605909Y-163117256D01*
X286605907Y-163117254D01*
X286462092Y-163012767D01*
X286462091Y-163012766D01*
X286456750Y-163008886D01*
X286450722Y-163006202D01*
X286450720Y-163006201D01*
X286288318Y-162933895D01*
X286288317Y-162933895D01*
X286282287Y-162931210D01*
X286185862Y-162910714D01*
X286101944Y-162892876D01*
X286101939Y-162892876D01*
X286095487Y-162891504D01*
X285904513Y-162891504D01*
X285898061Y-162892876D01*
X285898056Y-162892876D01*
X285814138Y-162910714D01*
X285717713Y-162931210D01*
X285711683Y-162933895D01*
X285711682Y-162933895D01*
X285549280Y-163006201D01*
X285549278Y-163006202D01*
X285543250Y-163008886D01*
X285537909Y-163012766D01*
X285537908Y-163012767D01*
X285394093Y-163117254D01*
X285394091Y-163117256D01*
X285388749Y-163121137D01*
X285384328Y-163126047D01*
X285379425Y-163130462D01*
X285377781Y-163128637D01*
X285326812Y-163160046D01*
X285293607Y-163164500D01*
X277615422Y-163164500D01*
X277547301Y-163144498D01*
X277526327Y-163127595D01*
X274171786Y-159773053D01*
X274137760Y-159710741D01*
X274135571Y-159697129D01*
X274119228Y-159541637D01*
X274119228Y-159541636D01*
X274118538Y-159535073D01*
X274059524Y-159353446D01*
X274054288Y-159344376D01*
X273991873Y-159236271D01*
X273964037Y-159188058D01*
X273898907Y-159115723D01*
X273840673Y-159051048D01*
X273840672Y-159051047D01*
X273836251Y-159046137D01*
X273830909Y-159042256D01*
X273830907Y-159042254D01*
X273687092Y-158937767D01*
X273687091Y-158937766D01*
X273681750Y-158933886D01*
X273675722Y-158931202D01*
X273675720Y-158931201D01*
X273513318Y-158858895D01*
X273513317Y-158858895D01*
X273507287Y-158856210D01*
X273386916Y-158830624D01*
X273326944Y-158817876D01*
X273326939Y-158817876D01*
X273320487Y-158816504D01*
X273129513Y-158816504D01*
X273123061Y-158817876D01*
X273123056Y-158817876D01*
X273063084Y-158830624D01*
X272942713Y-158856210D01*
X272936683Y-158858895D01*
X272936682Y-158858895D01*
X272774280Y-158931201D01*
X272774278Y-158931202D01*
X272768250Y-158933886D01*
X272762909Y-158937766D01*
X272762908Y-158937767D01*
X272619093Y-159042254D01*
X272619091Y-159042256D01*
X272613749Y-159046137D01*
X272609328Y-159051047D01*
X272609327Y-159051048D01*
X272551094Y-159115723D01*
X272485963Y-159188058D01*
X272458127Y-159236271D01*
X272395713Y-159344376D01*
X272390476Y-159353446D01*
X272331462Y-159535073D01*
X272330772Y-159541636D01*
X272330772Y-159541637D01*
X272317583Y-159667126D01*
X272311500Y-159725000D01*
X266500000Y-159725000D01*
X266500000Y-155196492D01*
X266520002Y-155128371D01*
X266573658Y-155081878D01*
X266643932Y-155071774D01*
X266665247Y-155076760D01*
X266811428Y-155124681D01*
X267131736Y-155188394D01*
X267135508Y-155188681D01*
X267135516Y-155188682D01*
X267453601Y-155212878D01*
X267453606Y-155212878D01*
X267457378Y-155213165D01*
X267783638Y-155198635D01*
X267843436Y-155188682D01*
X268102048Y-155145638D01*
X268102053Y-155145637D01*
X268105789Y-155145015D01*
X268419165Y-155053080D01*
X268422632Y-155051590D01*
X268422636Y-155051589D01*
X268715743Y-154925660D01*
X268715745Y-154925659D01*
X268719227Y-154924163D01*
X269001628Y-154760132D01*
X269065488Y-154711923D01*
X269205773Y-154606018D01*
X269262277Y-154563362D01*
X269497399Y-154336703D01*
X269703589Y-154083439D01*
X269819978Y-153898973D01*
X269875835Y-153810446D01*
X269875838Y-153810440D01*
X269877858Y-153807239D01*
X270017684Y-153512102D01*
X270121040Y-153202305D01*
X270186429Y-152882335D01*
X270212905Y-152556827D01*
X270213500Y-152500000D01*
X270204043Y-152343124D01*
X270198169Y-152245685D01*
X286672000Y-152245685D01*
X286672000Y-152327885D01*
X286676475Y-152343124D01*
X286677865Y-152344329D01*
X286685548Y-152346000D01*
X287407885Y-152346000D01*
X287423124Y-152341525D01*
X287424329Y-152340135D01*
X287426000Y-152332452D01*
X287426000Y-151341948D01*
X287424010Y-151335170D01*
X287934000Y-151335170D01*
X287934000Y-152327885D01*
X287938475Y-152343124D01*
X287939865Y-152344329D01*
X287947548Y-152346000D01*
X288669885Y-152346000D01*
X288685124Y-152341525D01*
X288686329Y-152340135D01*
X288688000Y-152332452D01*
X288688000Y-152252088D01*
X288687699Y-152245940D01*
X288687674Y-152245685D01*
X295312000Y-152245685D01*
X295312000Y-152327885D01*
X295316475Y-152343124D01*
X295317865Y-152344329D01*
X295325548Y-152346000D01*
X296047885Y-152346000D01*
X296063124Y-152341525D01*
X296064329Y-152340135D01*
X296066000Y-152332452D01*
X296066000Y-151341948D01*
X296064010Y-151335170D01*
X296574000Y-151335170D01*
X296574000Y-152327885D01*
X296578475Y-152343124D01*
X296579865Y-152344329D01*
X296587548Y-152346000D01*
X297309885Y-152346000D01*
X297325124Y-152341525D01*
X297326329Y-152340135D01*
X297328000Y-152332452D01*
X297328000Y-152252088D01*
X297327699Y-152245940D01*
X297314309Y-152109374D01*
X297311926Y-152097339D01*
X297258346Y-151919876D01*
X297253671Y-151908534D01*
X297166643Y-151744856D01*
X297159856Y-151734640D01*
X297042690Y-151590981D01*
X297034046Y-151582277D01*
X296891212Y-151464114D01*
X296881041Y-151457254D01*
X296717969Y-151369082D01*
X296706670Y-151364332D01*
X296591307Y-151328620D01*
X296577205Y-151328414D01*
X296574000Y-151335170D01*
X296064010Y-151335170D01*
X296062027Y-151328417D01*
X296054232Y-151327297D01*
X295946443Y-151359021D01*
X295935059Y-151363620D01*
X295770778Y-151449504D01*
X295760517Y-151456218D01*
X295616041Y-151572380D01*
X295607281Y-151580958D01*
X295488119Y-151722970D01*
X295481193Y-151733084D01*
X295391882Y-151895542D01*
X295387054Y-151906806D01*
X295330998Y-152083516D01*
X295328450Y-152095503D01*
X295312393Y-152238661D01*
X295312000Y-152245685D01*
X288687674Y-152245685D01*
X288674309Y-152109374D01*
X288671926Y-152097339D01*
X288618346Y-151919876D01*
X288613671Y-151908534D01*
X288526643Y-151744856D01*
X288519856Y-151734640D01*
X288402690Y-151590981D01*
X288394046Y-151582277D01*
X288251212Y-151464114D01*
X288241041Y-151457254D01*
X288077969Y-151369082D01*
X288066670Y-151364332D01*
X287951307Y-151328620D01*
X287937205Y-151328414D01*
X287934000Y-151335170D01*
X287424010Y-151335170D01*
X287422027Y-151328417D01*
X287414232Y-151327297D01*
X287306443Y-151359021D01*
X287295059Y-151363620D01*
X287130778Y-151449504D01*
X287120517Y-151456218D01*
X286976041Y-151572380D01*
X286967281Y-151580958D01*
X286848119Y-151722970D01*
X286841193Y-151733084D01*
X286751882Y-151895542D01*
X286747054Y-151906806D01*
X286690998Y-152083516D01*
X286688450Y-152095503D01*
X286672393Y-152238661D01*
X286672000Y-152245685D01*
X270198169Y-152245685D01*
X270194075Y-152177787D01*
X270194075Y-152177783D01*
X270193847Y-152174009D01*
X270135173Y-151852739D01*
X270038327Y-151540846D01*
X269904713Y-151242846D01*
X269736266Y-150963057D01*
X269733932Y-150960065D01*
X269731781Y-150956934D01*
X269732924Y-150956148D01*
X269708920Y-150895449D01*
X269722650Y-150825793D01*
X269771859Y-150774617D01*
X269834399Y-150758000D01*
X342297518Y-150758000D01*
X342365639Y-150778002D01*
G37*
%TD.AperFunction*%
%TA.AperFunction,Conductor*%
G36*
X305938446Y-155419002D02*
G01*
X305975697Y-155455915D01*
X306014269Y-155514747D01*
X306019580Y-155519778D01*
X306019584Y-155519783D01*
X306140736Y-155634550D01*
X306176435Y-155695919D01*
X306173288Y-155766846D01*
X306132294Y-155824811D01*
X306123171Y-155831394D01*
X306116693Y-155835641D01*
X306105542Y-155844965D01*
X305994078Y-155962629D01*
X305985365Y-155974276D01*
X305903957Y-156114429D01*
X305898163Y-156127754D01*
X305850932Y-156283700D01*
X305848484Y-156296323D01*
X305842249Y-156366184D01*
X305842000Y-156371779D01*
X305842000Y-156490385D01*
X305846475Y-156505624D01*
X305847865Y-156506829D01*
X305855548Y-156508500D01*
X308289885Y-156508500D01*
X308305124Y-156504025D01*
X308306329Y-156502635D01*
X308308000Y-156494952D01*
X308308000Y-156385777D01*
X308307576Y-156378476D01*
X308293383Y-156256745D01*
X308290037Y-156242590D01*
X308234737Y-156090239D01*
X308228227Y-156077240D01*
X308139359Y-155941694D01*
X308130035Y-155930542D01*
X308009207Y-155816081D01*
X307973509Y-155754712D01*
X307976656Y-155683785D01*
X308017650Y-155625819D01*
X308026774Y-155619237D01*
X308033625Y-155614745D01*
X308033626Y-155614744D01*
X308039747Y-155610731D01*
X308161358Y-155482355D01*
X308173348Y-155461713D01*
X308224859Y-155412855D01*
X308282301Y-155399000D01*
X324440542Y-155399000D01*
X324508663Y-155419002D01*
X324555156Y-155472658D01*
X324564629Y-155509770D01*
X324565046Y-155509695D01*
X324566098Y-155515524D01*
X324566220Y-155516003D01*
X324566244Y-155516332D01*
X324566727Y-155523079D01*
X324585130Y-155585754D01*
X324599458Y-155634550D01*
X324607904Y-155663316D01*
X324612774Y-155670894D01*
X324612775Y-155670896D01*
X324685904Y-155784686D01*
X324705906Y-155852807D01*
X324685904Y-155920928D01*
X324675132Y-155935318D01*
X324643016Y-155972381D01*
X324639272Y-155980579D01*
X324603018Y-156059965D01*
X324582300Y-156105330D01*
X324561500Y-156250000D01*
X324561087Y-156249941D01*
X324537190Y-156314010D01*
X324480354Y-156356556D01*
X324436322Y-156364500D01*
X322146307Y-156364500D01*
X322078186Y-156344498D01*
X322040935Y-156307585D01*
X321964743Y-156191372D01*
X321964742Y-156191371D01*
X321960731Y-156185253D01*
X321832355Y-156063642D01*
X321679445Y-155974825D01*
X321510204Y-155923567D01*
X321503764Y-155922992D01*
X321503763Y-155922992D01*
X321433815Y-155916749D01*
X321433809Y-155916749D01*
X321431022Y-155916500D01*
X320382114Y-155916500D01*
X320286894Y-155927602D01*
X320256629Y-155931130D01*
X320256628Y-155931130D01*
X320249357Y-155931978D01*
X320242479Y-155934474D01*
X320242477Y-155934475D01*
X320121185Y-155978502D01*
X320083136Y-155992313D01*
X320000235Y-156046665D01*
X319964729Y-156069944D01*
X319935253Y-156089269D01*
X319813642Y-156217645D01*
X319809967Y-156223972D01*
X319809964Y-156223976D01*
X319757509Y-156314285D01*
X319705998Y-156363144D01*
X319648555Y-156377000D01*
X317586179Y-156377000D01*
X317518058Y-156356998D01*
X317480807Y-156320085D01*
X317461634Y-156290842D01*
X317438641Y-156255771D01*
X317312367Y-156136151D01*
X317187534Y-156063642D01*
X317168290Y-156052464D01*
X317168289Y-156052463D01*
X317161961Y-156048788D01*
X317154957Y-156046667D01*
X317154953Y-156046665D01*
X317025474Y-156007450D01*
X316995491Y-155998369D01*
X316989052Y-155997794D01*
X316989050Y-155997794D01*
X316921318Y-155991749D01*
X316921312Y-155991749D01*
X316918525Y-155991500D01*
X316344615Y-155991500D01*
X316340981Y-155991924D01*
X316340976Y-155991924D01*
X316222006Y-156005795D01*
X316214733Y-156006643D01*
X316207851Y-156009141D01*
X316131971Y-156036684D01*
X316051233Y-156065990D01*
X315905771Y-156161359D01*
X315786151Y-156287633D01*
X315698788Y-156438039D01*
X315696667Y-156445043D01*
X315696665Y-156445047D01*
X315677599Y-156507998D01*
X315648369Y-156604509D01*
X315647794Y-156610948D01*
X315647794Y-156610950D01*
X315644131Y-156652000D01*
X315641500Y-156681475D01*
X315641500Y-157070078D01*
X315621498Y-157138199D01*
X315604595Y-157159173D01*
X311223672Y-161540095D01*
X311161360Y-161574121D01*
X311134577Y-161577000D01*
X295858378Y-161577000D01*
X295790257Y-161556998D01*
X295743764Y-161503342D01*
X295733660Y-161433068D01*
X295764740Y-161366692D01*
X295814037Y-161311942D01*
X295897763Y-161166924D01*
X295906220Y-161152277D01*
X295906221Y-161152276D01*
X295909524Y-161146554D01*
X295968538Y-160964927D01*
X295975023Y-160903221D01*
X296002036Y-160837565D01*
X296011238Y-160827297D01*
X299808487Y-157030048D01*
X305842000Y-157030048D01*
X305842000Y-157139223D01*
X305842424Y-157146524D01*
X305856617Y-157268255D01*
X305859963Y-157282410D01*
X305915263Y-157434761D01*
X305921773Y-157447760D01*
X306010641Y-157583306D01*
X306019965Y-157594458D01*
X306137629Y-157705922D01*
X306149276Y-157714635D01*
X306289429Y-157796043D01*
X306302754Y-157801837D01*
X306458700Y-157849068D01*
X306471323Y-157851516D01*
X306541184Y-157857751D01*
X306546779Y-157858000D01*
X306802885Y-157858000D01*
X306818124Y-157853525D01*
X306819329Y-157852135D01*
X306821000Y-157844452D01*
X306821000Y-157034615D01*
X306819659Y-157030048D01*
X307329000Y-157030048D01*
X307329000Y-157839885D01*
X307333475Y-157855124D01*
X307334865Y-157856329D01*
X307342548Y-157858000D01*
X307589223Y-157858000D01*
X307596524Y-157857576D01*
X307718255Y-157843383D01*
X307732410Y-157840037D01*
X307884761Y-157784737D01*
X307897760Y-157778227D01*
X308033306Y-157689359D01*
X308044458Y-157680035D01*
X308155922Y-157562371D01*
X308164635Y-157550724D01*
X308246043Y-157410571D01*
X308251837Y-157397246D01*
X308299068Y-157241300D01*
X308301516Y-157228677D01*
X308307751Y-157158816D01*
X308308000Y-157153221D01*
X308308000Y-157034615D01*
X308303525Y-157019376D01*
X308302135Y-157018171D01*
X308294452Y-157016500D01*
X307347115Y-157016500D01*
X307331876Y-157020975D01*
X307330671Y-157022365D01*
X307329000Y-157030048D01*
X306819659Y-157030048D01*
X306816525Y-157019376D01*
X306815135Y-157018171D01*
X306807452Y-157016500D01*
X305860115Y-157016500D01*
X305844876Y-157020975D01*
X305843671Y-157022365D01*
X305842000Y-157030048D01*
X299808487Y-157030048D01*
X301402630Y-155435905D01*
X301464942Y-155401879D01*
X301491725Y-155399000D01*
X305870325Y-155399000D01*
X305938446Y-155419002D01*
G37*
%TD.AperFunction*%
%TD*%
M02*
