M48
; DRILL file {KiCad (5.99.0-9650-gad505e29c0)} date 03/24/21 15:12:12
; FORMAT={-:-/ absolute / inch / decimal}
; #@! TF.CreationDate,2021-03-24T15:12:12-04:00
; #@! TF.GenerationSoftware,Kicad,Pcbnew,(5.99.0-9650-gad505e29c0)
; #@! TF.FileFunction,NonPlated,1,2,NPTH
FMAT,2
INCH
; #@! TA.AperFunction,MechanicalDrill
T1C0.0256
; #@! TA.AperFunction,MechanicalDrill
T2C0.0689
; #@! TA.AperFunction,MechanicalDrill
T3C0.1570
; #@! TA.AperFunction,MechanicalDrill
T4C0.1654
%
G90
G05
T1
; mechanical
X11.3823Y-6.1516
X11.6098Y-6.1516
T2
X4.8783Y-7.757
X5.0913Y-7.0381
X5.2619Y-7.8705
X5.3043Y-6.3184
X5.4748Y-7.1517
X5.6507Y-7.7901
X5.6878Y-6.432
X5.8637Y-7.0712
X6.0343Y-7.9036
X6.0767Y-6.3515
X6.2473Y-7.1847
X6.4603Y-6.465
X6.5208Y-7.7199
X6.8255Y-7.0344
X6.8863Y-7.8825
X7.1303Y-6.3494
X7.191Y-7.1971
X7.3582Y-7.6817
X7.4957Y-6.512
X7.6629Y-6.997
X7.7237Y-7.8443
X7.7924Y-9.378
X7.8141Y-8.5014
X7.9681Y-6.3116
X8.0284Y-7.1597
X8.0801Y-9.6559
X8.1192Y-7.8155
X8.1796Y-8.664
X8.3335Y-6.4742
X8.3673Y-9.8699
X8.424Y-7.1305
X8.4847Y-7.9782
X8.5Y-8.8061
X8.5847Y-10.2057
X8.7459Y-10.5563
X8.7894Y-7.2931
X8.8051Y-8.1207
X8.8596Y-10.9398
X8.8654Y-8.9687
X9.1098Y-7.4356
X9.1705Y-8.2833
X9.4752Y-7.5982
X10.1646Y-7.6693
X10.1646Y-8.4193
X10.1646Y-9.1697
X10.1646Y-9.9193
X10.165Y-10.6693
X10.5646Y-7.6693
X10.5646Y-8.4193
X10.5646Y-9.1697
X10.5646Y-9.9193
X10.565Y-10.6693
X10.9146Y-7.6693
X10.9146Y-9.9193
X10.915Y-8.4193
X10.915Y-9.1689
X10.915Y-10.6693
X11.3146Y-7.6693
X11.3146Y-9.9193
X11.315Y-8.4193
X11.315Y-9.1689
X11.315Y-10.6693
X11.6642Y-7.6693
X11.6646Y-8.4193
X11.6646Y-9.1693
X11.6646Y-9.9193
X11.6646Y-10.6693
X12.0642Y-7.6693
X12.0646Y-8.4193
X12.0646Y-9.1693
X12.0646Y-9.9193
X12.0646Y-10.6693
X12.4142Y-9.9193
X12.4142Y-10.6689
X12.4146Y-7.6693
X12.4146Y-9.1693
X12.415Y-8.4193
X12.8142Y-9.9193
X12.8142Y-10.6689
X12.8146Y-7.6693
X12.8146Y-9.1693
X12.815Y-8.4193
X13.5173Y-7.5982
X13.822Y-8.2833
X13.8827Y-7.4356
X14.1267Y-8.9687
X14.1325Y-10.9398
X14.1874Y-8.1207
X14.2019Y-7.2931
X14.2462Y-10.5563
X14.4074Y-10.2061
X14.4922Y-8.8061
X14.5074Y-7.9786
X14.5674Y-7.1305
X14.6249Y-9.8703
X14.659Y-6.4746
X14.8126Y-8.664
X14.8729Y-7.8159
X14.912Y-9.6563
X14.9637Y-7.1597
X15.0245Y-6.312
X15.178Y-8.5014
X15.1998Y-9.3784
X15.2685Y-7.8447
X15.3292Y-6.997
X15.4968Y-6.512
X15.6339Y-7.6821
X15.8011Y-7.1971
X15.8623Y-6.3494
X16.1066Y-7.8825
X16.1666Y-7.0344
X16.4721Y-7.7199
X16.5318Y-6.4654
X16.7448Y-7.1843
X16.9154Y-6.3519
X16.9578Y-7.9032
X17.1284Y-7.0708
X17.3043Y-6.4324
X17.3414Y-7.7897
X17.5173Y-7.1513
X17.6878Y-6.3188
X17.7303Y-7.8705
X17.9008Y-7.0377
X18.1138Y-7.757
T3
X5.0701Y-7.8138
X5.2831Y-7.0949
X5.4961Y-6.3752
X5.8425Y-7.8469
X6.0555Y-7.128
X6.2685Y-6.4083
X6.7035Y-7.8012
X7.0083Y-7.1157
X7.313Y-6.4307
X7.5409Y-7.763
X7.8457Y-7.0783
X7.9362Y-9.5169
X7.9969Y-8.5827
X8.1508Y-6.3929
X8.302Y-7.8969
X8.476Y-10.0378
X8.6067Y-7.2118
X8.6827Y-8.8874
X8.8028Y-10.748
X8.9878Y-8.202
X9.2925Y-7.5169
X10.3646Y-7.6693
X10.3646Y-8.4193
X10.3646Y-9.1697
X10.3646Y-9.9193
X10.365Y-10.6693
X11.1146Y-7.6693
X11.1146Y-9.9193
X11.115Y-8.4193
X11.115Y-9.1689
X11.115Y-10.6693
X11.8642Y-7.6693
X11.8646Y-8.4193
X11.8646Y-9.1693
X11.8646Y-9.9193
X11.8646Y-10.6693
X12.6142Y-9.9193
X12.6142Y-10.6689
X12.6146Y-7.6693
X12.6146Y-9.1693
X12.615Y-8.4193
X13.7Y-7.5169
X14.0047Y-8.202
X14.1894Y-10.748
X14.3094Y-8.8874
X14.3846Y-7.2118
X14.5161Y-10.0382
X14.6902Y-7.8972
X14.8417Y-6.3933
X14.9953Y-8.5827
X15.0559Y-9.5173
X15.1465Y-7.0783
X15.4512Y-7.7634
X15.6795Y-6.4307
X15.9839Y-7.1157
X16.2894Y-7.8012
X16.7236Y-6.4087
X16.9366Y-7.1276
X17.1496Y-7.8465
X17.4961Y-6.3756
X17.7091Y-7.0945
X17.922Y-7.8138
T4
X7.3819Y-8.1693
X9.5472Y-9.4488
X10.5315Y-6.0039
X13.3858Y-9.5472
X13.6811Y-6.2008
X15.6496Y-8.1693
T0
M30
